G04 #@! TF.FileFunction,Copper,L1,Top,Signal*
%FSLAX46Y46*%
G04 Gerber Fmt 4.6, Leading zero omitted, Abs format (unit mm)*
G04 Created by KiCad (PCBNEW 4.0.7) date 06/12/18 10:28:29*
%MOMM*%
%LPD*%
G01*
G04 APERTURE LIST*
%ADD10C,0.100000*%
%ADD11R,1.700000X1.700000*%
%ADD12O,1.700000X1.700000*%
%ADD13R,1.600000X1.600000*%
%ADD14C,1.600000*%
%ADD15R,3.000000X3.000000*%
%ADD16C,3.000000*%
%ADD17O,1.500000X0.900000*%
%ADD18R,1.500000X0.900000*%
%ADD19C,1.400000*%
%ADD20O,1.400000X1.400000*%
%ADD21C,0.250000*%
%ADD22C,0.500000*%
%ADD23C,1.000000*%
%ADD24C,0.710000*%
%ADD25C,0.254000*%
G04 APERTURE END LIST*
D10*
D11*
X182880000Y-129540000D03*
D12*
X182880000Y-127000000D03*
D13*
X184190000Y-118110000D03*
D14*
X186690000Y-118110000D03*
D13*
X172720000Y-128270000D03*
D14*
X172720000Y-125770000D03*
D13*
X167640000Y-119300000D03*
D14*
X167640000Y-116800000D03*
D15*
X157480000Y-113030000D03*
D16*
X157480000Y-118110000D03*
D17*
X176530000Y-118110000D03*
X176530000Y-119380000D03*
D18*
X176530000Y-116840000D03*
D19*
X177800000Y-111760000D03*
D20*
X185420000Y-111760000D03*
D19*
X165100000Y-124460000D03*
D20*
X157480000Y-124460000D03*
D19*
X172720000Y-111760000D03*
D20*
X165100000Y-111760000D03*
D19*
X165100000Y-129540000D03*
D20*
X157480000Y-129540000D03*
D21*
X184190000Y-125690000D02*
X182880000Y-127000000D01*
X184190000Y-118110000D02*
X184190000Y-125690000D01*
X185420000Y-111760000D02*
X185420000Y-116840000D01*
X185420000Y-116840000D02*
X186690000Y-118110000D01*
X176530000Y-118110000D02*
X177530000Y-118110000D01*
X177530000Y-118110000D02*
X178800000Y-116840000D01*
X178800000Y-116840000D02*
X185420000Y-116840000D01*
D22*
X167640000Y-124460000D02*
X173990000Y-118110000D01*
X173990000Y-118110000D02*
X176530000Y-118110000D01*
X165100000Y-124460000D02*
X167640000Y-124460000D01*
D23*
X165100000Y-129540000D02*
X171450000Y-129540000D01*
X171450000Y-129540000D02*
X172720000Y-128270000D01*
D22*
X176530000Y-119380000D02*
X176530000Y-125760000D01*
X176530000Y-125760000D02*
X174020000Y-128270000D01*
X174020000Y-128270000D02*
X172720000Y-128270000D01*
X170180000Y-116840000D02*
X176530000Y-116840000D01*
X165100000Y-111760000D02*
X170180000Y-116840000D01*
X170180000Y-118060000D02*
X170180000Y-116840000D01*
X167640000Y-119300000D02*
X168940000Y-119300000D01*
X168940000Y-119300000D02*
X170180000Y-118060000D01*
X165060000Y-116800000D02*
X161290000Y-113030000D01*
X161290000Y-113030000D02*
X157480000Y-113030000D01*
X167640000Y-116800000D02*
X165060000Y-116800000D01*
D24*
X172720000Y-111760000D02*
X177800000Y-111760000D01*
D25*
G36*
X189790000Y-132640000D02*
X149300000Y-132640000D01*
X149300000Y-129873329D01*
X156187284Y-129873329D01*
X156330203Y-130218396D01*
X156677337Y-130606764D01*
X157146669Y-130832727D01*
X157353000Y-130710206D01*
X157353000Y-129667000D01*
X157607000Y-129667000D01*
X157607000Y-130710206D01*
X157813331Y-130832727D01*
X158282663Y-130606764D01*
X158629797Y-130218396D01*
X158772716Y-129873329D01*
X158649374Y-129667000D01*
X157607000Y-129667000D01*
X157353000Y-129667000D01*
X156310626Y-129667000D01*
X156187284Y-129873329D01*
X149300000Y-129873329D01*
X149300000Y-129206671D01*
X156187284Y-129206671D01*
X156310626Y-129413000D01*
X157353000Y-129413000D01*
X157353000Y-128369794D01*
X157607000Y-128369794D01*
X157607000Y-129413000D01*
X158649374Y-129413000D01*
X158772716Y-129206671D01*
X158629797Y-128861604D01*
X158282663Y-128473236D01*
X157813331Y-128247273D01*
X157607000Y-128369794D01*
X157353000Y-128369794D01*
X157146669Y-128247273D01*
X156677337Y-128473236D01*
X156330203Y-128861604D01*
X156187284Y-129206671D01*
X149300000Y-129206671D01*
X149300000Y-124793329D01*
X156187284Y-124793329D01*
X156330203Y-125138396D01*
X156677337Y-125526764D01*
X157146669Y-125752727D01*
X157353000Y-125630206D01*
X157353000Y-124587000D01*
X157607000Y-124587000D01*
X157607000Y-125630206D01*
X157813331Y-125752727D01*
X158282663Y-125526764D01*
X158629797Y-125138396D01*
X158772716Y-124793329D01*
X158649374Y-124587000D01*
X157607000Y-124587000D01*
X157353000Y-124587000D01*
X156310626Y-124587000D01*
X156187284Y-124793329D01*
X149300000Y-124793329D01*
X149300000Y-124126671D01*
X156187284Y-124126671D01*
X156310626Y-124333000D01*
X157353000Y-124333000D01*
X157353000Y-123289794D01*
X157607000Y-123289794D01*
X157607000Y-124333000D01*
X158649374Y-124333000D01*
X158772716Y-124126671D01*
X158629797Y-123781604D01*
X158282663Y-123393236D01*
X157813331Y-123167273D01*
X157607000Y-123289794D01*
X157353000Y-123289794D01*
X157146669Y-123167273D01*
X156677337Y-123393236D01*
X156330203Y-123781604D01*
X156187284Y-124126671D01*
X149300000Y-124126671D01*
X149300000Y-119623970D01*
X156145635Y-119623970D01*
X156305418Y-119942739D01*
X157096187Y-120252723D01*
X157945387Y-120236497D01*
X158654582Y-119942739D01*
X158814365Y-119623970D01*
X157480000Y-118289605D01*
X156145635Y-119623970D01*
X149300000Y-119623970D01*
X149300000Y-117726187D01*
X155337277Y-117726187D01*
X155353503Y-118575387D01*
X155647261Y-119284582D01*
X155966030Y-119444365D01*
X157300395Y-118110000D01*
X157659605Y-118110000D01*
X158993970Y-119444365D01*
X159312739Y-119284582D01*
X159622723Y-118493813D01*
X159606497Y-117644613D01*
X159312739Y-116935418D01*
X158993970Y-116775635D01*
X157659605Y-118110000D01*
X157300395Y-118110000D01*
X155966030Y-116775635D01*
X155647261Y-116935418D01*
X155337277Y-117726187D01*
X149300000Y-117726187D01*
X149300000Y-116596030D01*
X156145635Y-116596030D01*
X157480000Y-117930395D01*
X158814365Y-116596030D01*
X158654582Y-116277261D01*
X157863813Y-115967277D01*
X157014613Y-115983503D01*
X156305418Y-116277261D01*
X156145635Y-116596030D01*
X149300000Y-116596030D01*
X149300000Y-111530000D01*
X155332560Y-111530000D01*
X155332560Y-114530000D01*
X155376838Y-114765317D01*
X155515910Y-114981441D01*
X155728110Y-115126431D01*
X155980000Y-115177440D01*
X158980000Y-115177440D01*
X159215317Y-115133162D01*
X159431441Y-114994090D01*
X159576431Y-114781890D01*
X159627440Y-114530000D01*
X159627440Y-113915000D01*
X160923420Y-113915000D01*
X164434208Y-117425787D01*
X164434210Y-117425790D01*
X164694935Y-117600000D01*
X164721325Y-117617633D01*
X165060000Y-117685001D01*
X165060005Y-117685000D01*
X166495829Y-117685000D01*
X166691072Y-117880583D01*
X166604683Y-117896838D01*
X166388559Y-118035910D01*
X166243569Y-118248110D01*
X166192560Y-118500000D01*
X166192560Y-120100000D01*
X166236838Y-120335317D01*
X166375910Y-120551441D01*
X166588110Y-120696431D01*
X166840000Y-120747440D01*
X168440000Y-120747440D01*
X168675317Y-120703162D01*
X168891441Y-120564090D01*
X169036431Y-120351890D01*
X169075693Y-120158009D01*
X169222484Y-120128810D01*
X169278675Y-120117633D01*
X169565790Y-119925790D01*
X170805787Y-118685792D01*
X170805790Y-118685790D01*
X170997633Y-118398675D01*
X171008810Y-118342484D01*
X171065001Y-118060000D01*
X171065000Y-118059995D01*
X171065000Y-117725000D01*
X173123421Y-117725000D01*
X167273420Y-123575000D01*
X166102873Y-123575000D01*
X165857204Y-123328902D01*
X165366713Y-123125232D01*
X164835617Y-123124769D01*
X164344771Y-123327582D01*
X163968902Y-123702796D01*
X163765232Y-124193287D01*
X163764769Y-124724383D01*
X163967582Y-125215229D01*
X164342796Y-125591098D01*
X164833287Y-125794768D01*
X165364383Y-125795231D01*
X165855229Y-125592418D01*
X165894492Y-125553223D01*
X171273035Y-125553223D01*
X171300222Y-126123454D01*
X171466136Y-126524005D01*
X171712255Y-126598139D01*
X172540395Y-125770000D01*
X172899605Y-125770000D01*
X173727745Y-126598139D01*
X173973864Y-126524005D01*
X174166965Y-125986777D01*
X174139778Y-125416546D01*
X173973864Y-125015995D01*
X173727745Y-124941861D01*
X172899605Y-125770000D01*
X172540395Y-125770000D01*
X171712255Y-124941861D01*
X171466136Y-125015995D01*
X171273035Y-125553223D01*
X165894492Y-125553223D01*
X166103079Y-125345000D01*
X167639995Y-125345000D01*
X167640000Y-125345001D01*
X167922484Y-125288810D01*
X167978675Y-125277633D01*
X168265790Y-125085790D01*
X168589324Y-124762255D01*
X171891861Y-124762255D01*
X172720000Y-125590395D01*
X173548139Y-124762255D01*
X173474005Y-124516136D01*
X172936777Y-124323035D01*
X172366546Y-124350222D01*
X171965995Y-124516136D01*
X171891861Y-124762255D01*
X168589324Y-124762255D01*
X174356579Y-118995000D01*
X175194447Y-118995000D01*
X175117866Y-119380000D01*
X175200457Y-119795212D01*
X175435655Y-120147211D01*
X175645000Y-120287091D01*
X175645000Y-125393421D01*
X173998096Y-127040325D01*
X173984090Y-127018559D01*
X173771890Y-126873569D01*
X173533799Y-126825354D01*
X173548139Y-126777745D01*
X172720000Y-125949605D01*
X171891861Y-126777745D01*
X171906145Y-126825167D01*
X171684683Y-126866838D01*
X171468559Y-127005910D01*
X171323569Y-127218110D01*
X171272560Y-127470000D01*
X171272560Y-128112308D01*
X170979868Y-128405000D01*
X165847807Y-128405000D01*
X165366713Y-128205232D01*
X164835617Y-128204769D01*
X164344771Y-128407582D01*
X163968902Y-128782796D01*
X163765232Y-129273287D01*
X163764769Y-129804383D01*
X163967582Y-130295229D01*
X164342796Y-130671098D01*
X164833287Y-130874768D01*
X165364383Y-130875231D01*
X165848980Y-130675000D01*
X171450000Y-130675000D01*
X171884346Y-130588603D01*
X172252566Y-130342566D01*
X172769382Y-129825750D01*
X181395000Y-129825750D01*
X181395000Y-130516310D01*
X181491673Y-130749699D01*
X181670302Y-130928327D01*
X181903691Y-131025000D01*
X182594250Y-131025000D01*
X182753000Y-130866250D01*
X182753000Y-129667000D01*
X183007000Y-129667000D01*
X183007000Y-130866250D01*
X183165750Y-131025000D01*
X183856309Y-131025000D01*
X184089698Y-130928327D01*
X184268327Y-130749699D01*
X184365000Y-130516310D01*
X184365000Y-129825750D01*
X184206250Y-129667000D01*
X183007000Y-129667000D01*
X182753000Y-129667000D01*
X181553750Y-129667000D01*
X181395000Y-129825750D01*
X172769382Y-129825750D01*
X172877692Y-129717440D01*
X173520000Y-129717440D01*
X173755317Y-129673162D01*
X173971441Y-129534090D01*
X174116431Y-129321890D01*
X174155693Y-129128009D01*
X174302484Y-129098810D01*
X174358675Y-129087633D01*
X174645790Y-128895790D01*
X177155787Y-126385792D01*
X177155790Y-126385790D01*
X177347633Y-126098675D01*
X177371072Y-125980839D01*
X177415001Y-125760000D01*
X177415000Y-125759995D01*
X177415000Y-120287091D01*
X177624345Y-120147211D01*
X177859543Y-119795212D01*
X177942134Y-119380000D01*
X177859543Y-118964788D01*
X177764977Y-118823260D01*
X177820839Y-118812148D01*
X178067401Y-118647401D01*
X179114802Y-117600000D01*
X182742560Y-117600000D01*
X182742560Y-118910000D01*
X182786838Y-119145317D01*
X182925910Y-119361441D01*
X183138110Y-119506431D01*
X183390000Y-119557440D01*
X183430000Y-119557440D01*
X183430000Y-125375198D01*
X183226969Y-125578229D01*
X182909093Y-125515000D01*
X182850907Y-125515000D01*
X182282622Y-125628039D01*
X181800853Y-125949946D01*
X181478946Y-126431715D01*
X181365907Y-127000000D01*
X181478946Y-127568285D01*
X181800853Y-128050054D01*
X181844777Y-128079403D01*
X181670302Y-128151673D01*
X181491673Y-128330301D01*
X181395000Y-128563690D01*
X181395000Y-129254250D01*
X181553750Y-129413000D01*
X182753000Y-129413000D01*
X182753000Y-129393000D01*
X183007000Y-129393000D01*
X183007000Y-129413000D01*
X184206250Y-129413000D01*
X184365000Y-129254250D01*
X184365000Y-128563690D01*
X184268327Y-128330301D01*
X184089698Y-128151673D01*
X183915223Y-128079403D01*
X183959147Y-128050054D01*
X184281054Y-127568285D01*
X184394093Y-127000000D01*
X184321210Y-126633592D01*
X184727401Y-126227401D01*
X184892148Y-125980839D01*
X184950000Y-125690000D01*
X184950000Y-119557440D01*
X184990000Y-119557440D01*
X185225317Y-119513162D01*
X185441441Y-119374090D01*
X185586431Y-119161890D01*
X185607680Y-119056959D01*
X185876077Y-119325824D01*
X186403309Y-119544750D01*
X186974187Y-119545248D01*
X187501800Y-119327243D01*
X187905824Y-118923923D01*
X188124750Y-118396691D01*
X188125248Y-117825813D01*
X187907243Y-117298200D01*
X187503923Y-116894176D01*
X186976691Y-116675250D01*
X186405813Y-116674752D01*
X186351851Y-116697049D01*
X186180000Y-116525198D01*
X186180000Y-112844400D01*
X186390142Y-112703988D01*
X186679533Y-112270882D01*
X186781154Y-111760000D01*
X186679533Y-111249118D01*
X186390142Y-110816012D01*
X185957036Y-110526621D01*
X185446154Y-110425000D01*
X185393846Y-110425000D01*
X184882964Y-110526621D01*
X184449858Y-110816012D01*
X184160467Y-111249118D01*
X184058846Y-111760000D01*
X184160467Y-112270882D01*
X184449858Y-112703988D01*
X184660000Y-112844400D01*
X184660000Y-116080000D01*
X178800000Y-116080000D01*
X178509160Y-116137852D01*
X178262599Y-116302599D01*
X177927440Y-116637758D01*
X177927440Y-116390000D01*
X177883162Y-116154683D01*
X177744090Y-115938559D01*
X177531890Y-115793569D01*
X177280000Y-115742560D01*
X175780000Y-115742560D01*
X175544683Y-115786838D01*
X175328559Y-115925910D01*
X175308683Y-115955000D01*
X170546579Y-115955000D01*
X166615962Y-112024383D01*
X171384769Y-112024383D01*
X171587582Y-112515229D01*
X171962796Y-112891098D01*
X172453287Y-113094768D01*
X172984383Y-113095231D01*
X173475229Y-112892418D01*
X173617896Y-112750000D01*
X176901944Y-112750000D01*
X177042796Y-112891098D01*
X177533287Y-113094768D01*
X178064383Y-113095231D01*
X178555229Y-112892418D01*
X178931098Y-112517204D01*
X179134768Y-112026713D01*
X179135231Y-111495617D01*
X178932418Y-111004771D01*
X178557204Y-110628902D01*
X178066713Y-110425232D01*
X177535617Y-110424769D01*
X177044771Y-110627582D01*
X176902104Y-110770000D01*
X173618056Y-110770000D01*
X173477204Y-110628902D01*
X172986713Y-110425232D01*
X172455617Y-110424769D01*
X171964771Y-110627582D01*
X171588902Y-111002796D01*
X171385232Y-111493287D01*
X171384769Y-112024383D01*
X166615962Y-112024383D01*
X166442974Y-111851395D01*
X166461154Y-111760000D01*
X166359533Y-111249118D01*
X166070142Y-110816012D01*
X165637036Y-110526621D01*
X165126154Y-110425000D01*
X165073846Y-110425000D01*
X164562964Y-110526621D01*
X164129858Y-110816012D01*
X163840467Y-111249118D01*
X163738846Y-111760000D01*
X163840467Y-112270882D01*
X164129858Y-112703988D01*
X164562964Y-112993379D01*
X165073846Y-113095000D01*
X165126154Y-113095000D01*
X165173919Y-113085499D01*
X167453258Y-115364837D01*
X167355813Y-115364752D01*
X166828200Y-115582757D01*
X166495377Y-115915000D01*
X165426579Y-115915000D01*
X161915790Y-112404210D01*
X161703025Y-112262046D01*
X161628675Y-112212367D01*
X161572484Y-112201190D01*
X161290000Y-112144999D01*
X161289995Y-112145000D01*
X159627440Y-112145000D01*
X159627440Y-111530000D01*
X159583162Y-111294683D01*
X159444090Y-111078559D01*
X159231890Y-110933569D01*
X158980000Y-110882560D01*
X155980000Y-110882560D01*
X155744683Y-110926838D01*
X155528559Y-111065910D01*
X155383569Y-111278110D01*
X155332560Y-111530000D01*
X149300000Y-111530000D01*
X149300000Y-108660000D01*
X189790000Y-108660000D01*
X189790000Y-132640000D01*
X189790000Y-132640000D01*
G37*
X189790000Y-132640000D02*
X149300000Y-132640000D01*
X149300000Y-129873329D01*
X156187284Y-129873329D01*
X156330203Y-130218396D01*
X156677337Y-130606764D01*
X157146669Y-130832727D01*
X157353000Y-130710206D01*
X157353000Y-129667000D01*
X157607000Y-129667000D01*
X157607000Y-130710206D01*
X157813331Y-130832727D01*
X158282663Y-130606764D01*
X158629797Y-130218396D01*
X158772716Y-129873329D01*
X158649374Y-129667000D01*
X157607000Y-129667000D01*
X157353000Y-129667000D01*
X156310626Y-129667000D01*
X156187284Y-129873329D01*
X149300000Y-129873329D01*
X149300000Y-129206671D01*
X156187284Y-129206671D01*
X156310626Y-129413000D01*
X157353000Y-129413000D01*
X157353000Y-128369794D01*
X157607000Y-128369794D01*
X157607000Y-129413000D01*
X158649374Y-129413000D01*
X158772716Y-129206671D01*
X158629797Y-128861604D01*
X158282663Y-128473236D01*
X157813331Y-128247273D01*
X157607000Y-128369794D01*
X157353000Y-128369794D01*
X157146669Y-128247273D01*
X156677337Y-128473236D01*
X156330203Y-128861604D01*
X156187284Y-129206671D01*
X149300000Y-129206671D01*
X149300000Y-124793329D01*
X156187284Y-124793329D01*
X156330203Y-125138396D01*
X156677337Y-125526764D01*
X157146669Y-125752727D01*
X157353000Y-125630206D01*
X157353000Y-124587000D01*
X157607000Y-124587000D01*
X157607000Y-125630206D01*
X157813331Y-125752727D01*
X158282663Y-125526764D01*
X158629797Y-125138396D01*
X158772716Y-124793329D01*
X158649374Y-124587000D01*
X157607000Y-124587000D01*
X157353000Y-124587000D01*
X156310626Y-124587000D01*
X156187284Y-124793329D01*
X149300000Y-124793329D01*
X149300000Y-124126671D01*
X156187284Y-124126671D01*
X156310626Y-124333000D01*
X157353000Y-124333000D01*
X157353000Y-123289794D01*
X157607000Y-123289794D01*
X157607000Y-124333000D01*
X158649374Y-124333000D01*
X158772716Y-124126671D01*
X158629797Y-123781604D01*
X158282663Y-123393236D01*
X157813331Y-123167273D01*
X157607000Y-123289794D01*
X157353000Y-123289794D01*
X157146669Y-123167273D01*
X156677337Y-123393236D01*
X156330203Y-123781604D01*
X156187284Y-124126671D01*
X149300000Y-124126671D01*
X149300000Y-119623970D01*
X156145635Y-119623970D01*
X156305418Y-119942739D01*
X157096187Y-120252723D01*
X157945387Y-120236497D01*
X158654582Y-119942739D01*
X158814365Y-119623970D01*
X157480000Y-118289605D01*
X156145635Y-119623970D01*
X149300000Y-119623970D01*
X149300000Y-117726187D01*
X155337277Y-117726187D01*
X155353503Y-118575387D01*
X155647261Y-119284582D01*
X155966030Y-119444365D01*
X157300395Y-118110000D01*
X157659605Y-118110000D01*
X158993970Y-119444365D01*
X159312739Y-119284582D01*
X159622723Y-118493813D01*
X159606497Y-117644613D01*
X159312739Y-116935418D01*
X158993970Y-116775635D01*
X157659605Y-118110000D01*
X157300395Y-118110000D01*
X155966030Y-116775635D01*
X155647261Y-116935418D01*
X155337277Y-117726187D01*
X149300000Y-117726187D01*
X149300000Y-116596030D01*
X156145635Y-116596030D01*
X157480000Y-117930395D01*
X158814365Y-116596030D01*
X158654582Y-116277261D01*
X157863813Y-115967277D01*
X157014613Y-115983503D01*
X156305418Y-116277261D01*
X156145635Y-116596030D01*
X149300000Y-116596030D01*
X149300000Y-111530000D01*
X155332560Y-111530000D01*
X155332560Y-114530000D01*
X155376838Y-114765317D01*
X155515910Y-114981441D01*
X155728110Y-115126431D01*
X155980000Y-115177440D01*
X158980000Y-115177440D01*
X159215317Y-115133162D01*
X159431441Y-114994090D01*
X159576431Y-114781890D01*
X159627440Y-114530000D01*
X159627440Y-113915000D01*
X160923420Y-113915000D01*
X164434208Y-117425787D01*
X164434210Y-117425790D01*
X164694935Y-117600000D01*
X164721325Y-117617633D01*
X165060000Y-117685001D01*
X165060005Y-117685000D01*
X166495829Y-117685000D01*
X166691072Y-117880583D01*
X166604683Y-117896838D01*
X166388559Y-118035910D01*
X166243569Y-118248110D01*
X166192560Y-118500000D01*
X166192560Y-120100000D01*
X166236838Y-120335317D01*
X166375910Y-120551441D01*
X166588110Y-120696431D01*
X166840000Y-120747440D01*
X168440000Y-120747440D01*
X168675317Y-120703162D01*
X168891441Y-120564090D01*
X169036431Y-120351890D01*
X169075693Y-120158009D01*
X169222484Y-120128810D01*
X169278675Y-120117633D01*
X169565790Y-119925790D01*
X170805787Y-118685792D01*
X170805790Y-118685790D01*
X170997633Y-118398675D01*
X171008810Y-118342484D01*
X171065001Y-118060000D01*
X171065000Y-118059995D01*
X171065000Y-117725000D01*
X173123421Y-117725000D01*
X167273420Y-123575000D01*
X166102873Y-123575000D01*
X165857204Y-123328902D01*
X165366713Y-123125232D01*
X164835617Y-123124769D01*
X164344771Y-123327582D01*
X163968902Y-123702796D01*
X163765232Y-124193287D01*
X163764769Y-124724383D01*
X163967582Y-125215229D01*
X164342796Y-125591098D01*
X164833287Y-125794768D01*
X165364383Y-125795231D01*
X165855229Y-125592418D01*
X165894492Y-125553223D01*
X171273035Y-125553223D01*
X171300222Y-126123454D01*
X171466136Y-126524005D01*
X171712255Y-126598139D01*
X172540395Y-125770000D01*
X172899605Y-125770000D01*
X173727745Y-126598139D01*
X173973864Y-126524005D01*
X174166965Y-125986777D01*
X174139778Y-125416546D01*
X173973864Y-125015995D01*
X173727745Y-124941861D01*
X172899605Y-125770000D01*
X172540395Y-125770000D01*
X171712255Y-124941861D01*
X171466136Y-125015995D01*
X171273035Y-125553223D01*
X165894492Y-125553223D01*
X166103079Y-125345000D01*
X167639995Y-125345000D01*
X167640000Y-125345001D01*
X167922484Y-125288810D01*
X167978675Y-125277633D01*
X168265790Y-125085790D01*
X168589324Y-124762255D01*
X171891861Y-124762255D01*
X172720000Y-125590395D01*
X173548139Y-124762255D01*
X173474005Y-124516136D01*
X172936777Y-124323035D01*
X172366546Y-124350222D01*
X171965995Y-124516136D01*
X171891861Y-124762255D01*
X168589324Y-124762255D01*
X174356579Y-118995000D01*
X175194447Y-118995000D01*
X175117866Y-119380000D01*
X175200457Y-119795212D01*
X175435655Y-120147211D01*
X175645000Y-120287091D01*
X175645000Y-125393421D01*
X173998096Y-127040325D01*
X173984090Y-127018559D01*
X173771890Y-126873569D01*
X173533799Y-126825354D01*
X173548139Y-126777745D01*
X172720000Y-125949605D01*
X171891861Y-126777745D01*
X171906145Y-126825167D01*
X171684683Y-126866838D01*
X171468559Y-127005910D01*
X171323569Y-127218110D01*
X171272560Y-127470000D01*
X171272560Y-128112308D01*
X170979868Y-128405000D01*
X165847807Y-128405000D01*
X165366713Y-128205232D01*
X164835617Y-128204769D01*
X164344771Y-128407582D01*
X163968902Y-128782796D01*
X163765232Y-129273287D01*
X163764769Y-129804383D01*
X163967582Y-130295229D01*
X164342796Y-130671098D01*
X164833287Y-130874768D01*
X165364383Y-130875231D01*
X165848980Y-130675000D01*
X171450000Y-130675000D01*
X171884346Y-130588603D01*
X172252566Y-130342566D01*
X172769382Y-129825750D01*
X181395000Y-129825750D01*
X181395000Y-130516310D01*
X181491673Y-130749699D01*
X181670302Y-130928327D01*
X181903691Y-131025000D01*
X182594250Y-131025000D01*
X182753000Y-130866250D01*
X182753000Y-129667000D01*
X183007000Y-129667000D01*
X183007000Y-130866250D01*
X183165750Y-131025000D01*
X183856309Y-131025000D01*
X184089698Y-130928327D01*
X184268327Y-130749699D01*
X184365000Y-130516310D01*
X184365000Y-129825750D01*
X184206250Y-129667000D01*
X183007000Y-129667000D01*
X182753000Y-129667000D01*
X181553750Y-129667000D01*
X181395000Y-129825750D01*
X172769382Y-129825750D01*
X172877692Y-129717440D01*
X173520000Y-129717440D01*
X173755317Y-129673162D01*
X173971441Y-129534090D01*
X174116431Y-129321890D01*
X174155693Y-129128009D01*
X174302484Y-129098810D01*
X174358675Y-129087633D01*
X174645790Y-128895790D01*
X177155787Y-126385792D01*
X177155790Y-126385790D01*
X177347633Y-126098675D01*
X177371072Y-125980839D01*
X177415001Y-125760000D01*
X177415000Y-125759995D01*
X177415000Y-120287091D01*
X177624345Y-120147211D01*
X177859543Y-119795212D01*
X177942134Y-119380000D01*
X177859543Y-118964788D01*
X177764977Y-118823260D01*
X177820839Y-118812148D01*
X178067401Y-118647401D01*
X179114802Y-117600000D01*
X182742560Y-117600000D01*
X182742560Y-118910000D01*
X182786838Y-119145317D01*
X182925910Y-119361441D01*
X183138110Y-119506431D01*
X183390000Y-119557440D01*
X183430000Y-119557440D01*
X183430000Y-125375198D01*
X183226969Y-125578229D01*
X182909093Y-125515000D01*
X182850907Y-125515000D01*
X182282622Y-125628039D01*
X181800853Y-125949946D01*
X181478946Y-126431715D01*
X181365907Y-127000000D01*
X181478946Y-127568285D01*
X181800853Y-128050054D01*
X181844777Y-128079403D01*
X181670302Y-128151673D01*
X181491673Y-128330301D01*
X181395000Y-128563690D01*
X181395000Y-129254250D01*
X181553750Y-129413000D01*
X182753000Y-129413000D01*
X182753000Y-129393000D01*
X183007000Y-129393000D01*
X183007000Y-129413000D01*
X184206250Y-129413000D01*
X184365000Y-129254250D01*
X184365000Y-128563690D01*
X184268327Y-128330301D01*
X184089698Y-128151673D01*
X183915223Y-128079403D01*
X183959147Y-128050054D01*
X184281054Y-127568285D01*
X184394093Y-127000000D01*
X184321210Y-126633592D01*
X184727401Y-126227401D01*
X184892148Y-125980839D01*
X184950000Y-125690000D01*
X184950000Y-119557440D01*
X184990000Y-119557440D01*
X185225317Y-119513162D01*
X185441441Y-119374090D01*
X185586431Y-119161890D01*
X185607680Y-119056959D01*
X185876077Y-119325824D01*
X186403309Y-119544750D01*
X186974187Y-119545248D01*
X187501800Y-119327243D01*
X187905824Y-118923923D01*
X188124750Y-118396691D01*
X188125248Y-117825813D01*
X187907243Y-117298200D01*
X187503923Y-116894176D01*
X186976691Y-116675250D01*
X186405813Y-116674752D01*
X186351851Y-116697049D01*
X186180000Y-116525198D01*
X186180000Y-112844400D01*
X186390142Y-112703988D01*
X186679533Y-112270882D01*
X186781154Y-111760000D01*
X186679533Y-111249118D01*
X186390142Y-110816012D01*
X185957036Y-110526621D01*
X185446154Y-110425000D01*
X185393846Y-110425000D01*
X184882964Y-110526621D01*
X184449858Y-110816012D01*
X184160467Y-111249118D01*
X184058846Y-111760000D01*
X184160467Y-112270882D01*
X184449858Y-112703988D01*
X184660000Y-112844400D01*
X184660000Y-116080000D01*
X178800000Y-116080000D01*
X178509160Y-116137852D01*
X178262599Y-116302599D01*
X177927440Y-116637758D01*
X177927440Y-116390000D01*
X177883162Y-116154683D01*
X177744090Y-115938559D01*
X177531890Y-115793569D01*
X177280000Y-115742560D01*
X175780000Y-115742560D01*
X175544683Y-115786838D01*
X175328559Y-115925910D01*
X175308683Y-115955000D01*
X170546579Y-115955000D01*
X166615962Y-112024383D01*
X171384769Y-112024383D01*
X171587582Y-112515229D01*
X171962796Y-112891098D01*
X172453287Y-113094768D01*
X172984383Y-113095231D01*
X173475229Y-112892418D01*
X173617896Y-112750000D01*
X176901944Y-112750000D01*
X177042796Y-112891098D01*
X177533287Y-113094768D01*
X178064383Y-113095231D01*
X178555229Y-112892418D01*
X178931098Y-112517204D01*
X179134768Y-112026713D01*
X179135231Y-111495617D01*
X178932418Y-111004771D01*
X178557204Y-110628902D01*
X178066713Y-110425232D01*
X177535617Y-110424769D01*
X177044771Y-110627582D01*
X176902104Y-110770000D01*
X173618056Y-110770000D01*
X173477204Y-110628902D01*
X172986713Y-110425232D01*
X172455617Y-110424769D01*
X171964771Y-110627582D01*
X171588902Y-111002796D01*
X171385232Y-111493287D01*
X171384769Y-112024383D01*
X166615962Y-112024383D01*
X166442974Y-111851395D01*
X166461154Y-111760000D01*
X166359533Y-111249118D01*
X166070142Y-110816012D01*
X165637036Y-110526621D01*
X165126154Y-110425000D01*
X165073846Y-110425000D01*
X164562964Y-110526621D01*
X164129858Y-110816012D01*
X163840467Y-111249118D01*
X163738846Y-111760000D01*
X163840467Y-112270882D01*
X164129858Y-112703988D01*
X164562964Y-112993379D01*
X165073846Y-113095000D01*
X165126154Y-113095000D01*
X165173919Y-113085499D01*
X167453258Y-115364837D01*
X167355813Y-115364752D01*
X166828200Y-115582757D01*
X166495377Y-115915000D01*
X165426579Y-115915000D01*
X161915790Y-112404210D01*
X161703025Y-112262046D01*
X161628675Y-112212367D01*
X161572484Y-112201190D01*
X161290000Y-112144999D01*
X161289995Y-112145000D01*
X159627440Y-112145000D01*
X159627440Y-111530000D01*
X159583162Y-111294683D01*
X159444090Y-111078559D01*
X159231890Y-110933569D01*
X158980000Y-110882560D01*
X155980000Y-110882560D01*
X155744683Y-110926838D01*
X155528559Y-111065910D01*
X155383569Y-111278110D01*
X155332560Y-111530000D01*
X149300000Y-111530000D01*
X149300000Y-108660000D01*
X189790000Y-108660000D01*
X189790000Y-132640000D01*
M02*
