G04 #@! TF.FileFunction,Legend,Top*
%FSLAX46Y46*%
G04 Gerber Fmt 4.6, Leading zero omitted, Abs format (unit mm)*
G04 Created by KiCad (PCBNEW 4.0.7) date 06/12/18 10:28:29*
%MOMM*%
%LPD*%
G01*
G04 APERTURE LIST*
%ADD10C,0.100000*%
%ADD11C,0.120000*%
%ADD12C,0.150000*%
G04 APERTURE END LIST*
D10*
D11*
X184210000Y-125670000D02*
X181550000Y-125670000D01*
X184210000Y-128270000D02*
X184210000Y-125670000D01*
X181550000Y-128270000D02*
X181550000Y-125670000D01*
X184210000Y-128270000D02*
X181550000Y-128270000D01*
X184210000Y-129540000D02*
X184210000Y-130870000D01*
X184210000Y-130870000D02*
X182880000Y-130870000D01*
X188457820Y-116930864D02*
G75*
G03X182422518Y-116930000I-3017820J-1179136D01*
G01*
X188457820Y-119289136D02*
G75*
G02X182422518Y-119290000I-3017820J1179136D01*
G01*
X188457820Y-119289136D02*
G75*
G03X188457482Y-116930000I-3017820J1179136D01*
G01*
X185440000Y-114910000D02*
X185440000Y-121310000D01*
X185480000Y-114910000D02*
X185480000Y-121310000D01*
X185520000Y-114910000D02*
X185520000Y-121310000D01*
X185560000Y-114912000D02*
X185560000Y-121308000D01*
X185600000Y-114913000D02*
X185600000Y-121307000D01*
X185640000Y-114916000D02*
X185640000Y-121304000D01*
X185680000Y-114918000D02*
X185680000Y-121302000D01*
X185720000Y-114922000D02*
X185720000Y-117130000D01*
X185720000Y-119090000D02*
X185720000Y-121298000D01*
X185760000Y-114925000D02*
X185760000Y-117130000D01*
X185760000Y-119090000D02*
X185760000Y-121295000D01*
X185800000Y-114930000D02*
X185800000Y-117130000D01*
X185800000Y-119090000D02*
X185800000Y-121290000D01*
X185840000Y-114934000D02*
X185840000Y-117130000D01*
X185840000Y-119090000D02*
X185840000Y-121286000D01*
X185880000Y-114940000D02*
X185880000Y-117130000D01*
X185880000Y-119090000D02*
X185880000Y-121280000D01*
X185920000Y-114945000D02*
X185920000Y-117130000D01*
X185920000Y-119090000D02*
X185920000Y-121275000D01*
X185960000Y-114952000D02*
X185960000Y-117130000D01*
X185960000Y-119090000D02*
X185960000Y-121268000D01*
X186000000Y-114958000D02*
X186000000Y-117130000D01*
X186000000Y-119090000D02*
X186000000Y-121262000D01*
X186040000Y-114966000D02*
X186040000Y-117130000D01*
X186040000Y-119090000D02*
X186040000Y-121254000D01*
X186080000Y-114973000D02*
X186080000Y-117130000D01*
X186080000Y-119090000D02*
X186080000Y-121247000D01*
X186120000Y-114982000D02*
X186120000Y-117130000D01*
X186120000Y-119090000D02*
X186120000Y-121238000D01*
X186161000Y-114991000D02*
X186161000Y-117130000D01*
X186161000Y-119090000D02*
X186161000Y-121229000D01*
X186201000Y-115000000D02*
X186201000Y-117130000D01*
X186201000Y-119090000D02*
X186201000Y-121220000D01*
X186241000Y-115010000D02*
X186241000Y-117130000D01*
X186241000Y-119090000D02*
X186241000Y-121210000D01*
X186281000Y-115020000D02*
X186281000Y-117130000D01*
X186281000Y-119090000D02*
X186281000Y-121200000D01*
X186321000Y-115031000D02*
X186321000Y-117130000D01*
X186321000Y-119090000D02*
X186321000Y-121189000D01*
X186361000Y-115043000D02*
X186361000Y-117130000D01*
X186361000Y-119090000D02*
X186361000Y-121177000D01*
X186401000Y-115055000D02*
X186401000Y-117130000D01*
X186401000Y-119090000D02*
X186401000Y-121165000D01*
X186441000Y-115068000D02*
X186441000Y-117130000D01*
X186441000Y-119090000D02*
X186441000Y-121152000D01*
X186481000Y-115081000D02*
X186481000Y-117130000D01*
X186481000Y-119090000D02*
X186481000Y-121139000D01*
X186521000Y-115095000D02*
X186521000Y-117130000D01*
X186521000Y-119090000D02*
X186521000Y-121125000D01*
X186561000Y-115109000D02*
X186561000Y-117130000D01*
X186561000Y-119090000D02*
X186561000Y-121111000D01*
X186601000Y-115124000D02*
X186601000Y-117130000D01*
X186601000Y-119090000D02*
X186601000Y-121096000D01*
X186641000Y-115140000D02*
X186641000Y-117130000D01*
X186641000Y-119090000D02*
X186641000Y-121080000D01*
X186681000Y-115156000D02*
X186681000Y-117130000D01*
X186681000Y-119090000D02*
X186681000Y-121064000D01*
X186721000Y-115173000D02*
X186721000Y-117130000D01*
X186721000Y-119090000D02*
X186721000Y-121047000D01*
X186761000Y-115191000D02*
X186761000Y-117130000D01*
X186761000Y-119090000D02*
X186761000Y-121029000D01*
X186801000Y-115209000D02*
X186801000Y-117130000D01*
X186801000Y-119090000D02*
X186801000Y-121011000D01*
X186841000Y-115228000D02*
X186841000Y-117130000D01*
X186841000Y-119090000D02*
X186841000Y-120992000D01*
X186881000Y-115247000D02*
X186881000Y-117130000D01*
X186881000Y-119090000D02*
X186881000Y-120973000D01*
X186921000Y-115267000D02*
X186921000Y-117130000D01*
X186921000Y-119090000D02*
X186921000Y-120953000D01*
X186961000Y-115288000D02*
X186961000Y-117130000D01*
X186961000Y-119090000D02*
X186961000Y-120932000D01*
X187001000Y-115310000D02*
X187001000Y-117130000D01*
X187001000Y-119090000D02*
X187001000Y-120910000D01*
X187041000Y-115332000D02*
X187041000Y-117130000D01*
X187041000Y-119090000D02*
X187041000Y-120888000D01*
X187081000Y-115355000D02*
X187081000Y-117130000D01*
X187081000Y-119090000D02*
X187081000Y-120865000D01*
X187121000Y-115379000D02*
X187121000Y-117130000D01*
X187121000Y-119090000D02*
X187121000Y-120841000D01*
X187161000Y-115404000D02*
X187161000Y-117130000D01*
X187161000Y-119090000D02*
X187161000Y-120816000D01*
X187201000Y-115429000D02*
X187201000Y-117130000D01*
X187201000Y-119090000D02*
X187201000Y-120791000D01*
X187241000Y-115456000D02*
X187241000Y-117130000D01*
X187241000Y-119090000D02*
X187241000Y-120764000D01*
X187281000Y-115483000D02*
X187281000Y-117130000D01*
X187281000Y-119090000D02*
X187281000Y-120737000D01*
X187321000Y-115511000D02*
X187321000Y-117130000D01*
X187321000Y-119090000D02*
X187321000Y-120709000D01*
X187361000Y-115540000D02*
X187361000Y-117130000D01*
X187361000Y-119090000D02*
X187361000Y-120680000D01*
X187401000Y-115570000D02*
X187401000Y-117130000D01*
X187401000Y-119090000D02*
X187401000Y-120650000D01*
X187441000Y-115600000D02*
X187441000Y-117130000D01*
X187441000Y-119090000D02*
X187441000Y-120620000D01*
X187481000Y-115632000D02*
X187481000Y-117130000D01*
X187481000Y-119090000D02*
X187481000Y-120588000D01*
X187521000Y-115665000D02*
X187521000Y-117130000D01*
X187521000Y-119090000D02*
X187521000Y-120555000D01*
X187561000Y-115699000D02*
X187561000Y-117130000D01*
X187561000Y-119090000D02*
X187561000Y-120521000D01*
X187601000Y-115735000D02*
X187601000Y-117130000D01*
X187601000Y-119090000D02*
X187601000Y-120485000D01*
X187641000Y-115771000D02*
X187641000Y-117130000D01*
X187641000Y-119090000D02*
X187641000Y-120449000D01*
X187681000Y-115809000D02*
X187681000Y-120411000D01*
X187721000Y-115848000D02*
X187721000Y-120372000D01*
X187761000Y-115888000D02*
X187761000Y-120332000D01*
X187801000Y-115930000D02*
X187801000Y-120290000D01*
X187841000Y-115973000D02*
X187841000Y-120247000D01*
X187881000Y-116018000D02*
X187881000Y-120202000D01*
X187921000Y-116065000D02*
X187921000Y-120155000D01*
X187961000Y-116113000D02*
X187961000Y-120107000D01*
X188001000Y-116164000D02*
X188001000Y-120056000D01*
X188041000Y-116216000D02*
X188041000Y-120004000D01*
X188081000Y-116271000D02*
X188081000Y-119949000D01*
X188121000Y-116329000D02*
X188121000Y-119891000D01*
X188161000Y-116389000D02*
X188161000Y-119831000D01*
X188201000Y-116452000D02*
X188201000Y-119768000D01*
X188241000Y-116519000D02*
X188241000Y-119701000D01*
X188281000Y-116590000D02*
X188281000Y-119630000D01*
X188321000Y-116665000D02*
X188321000Y-119555000D01*
X188361000Y-116746000D02*
X188361000Y-119474000D01*
X188401000Y-116832000D02*
X188401000Y-119388000D01*
X188441000Y-116926000D02*
X188441000Y-119294000D01*
X188481000Y-117029000D02*
X188481000Y-119191000D01*
X188521000Y-117144000D02*
X188521000Y-119076000D01*
X188561000Y-117276000D02*
X188561000Y-118944000D01*
X188601000Y-117434000D02*
X188601000Y-118786000D01*
X188641000Y-117642000D02*
X188641000Y-118578000D01*
X181990000Y-118110000D02*
X183190000Y-118110000D01*
X182590000Y-117460000D02*
X182590000Y-118760000D01*
X176560000Y-127020000D02*
G75*
G03X176560000Y-127020000I-3840000J0D01*
G01*
X168920000Y-127020000D02*
X176520000Y-127020000D01*
X168920000Y-126980000D02*
X176520000Y-126980000D01*
X168920000Y-126940000D02*
X176520000Y-126940000D01*
X168921000Y-126900000D02*
X176519000Y-126900000D01*
X168923000Y-126860000D02*
X176517000Y-126860000D01*
X168925000Y-126820000D02*
X176515000Y-126820000D01*
X168927000Y-126780000D02*
X176513000Y-126780000D01*
X168930000Y-126740000D02*
X171740000Y-126740000D01*
X173700000Y-126740000D02*
X176510000Y-126740000D01*
X168933000Y-126700000D02*
X171740000Y-126700000D01*
X173700000Y-126700000D02*
X176507000Y-126700000D01*
X168936000Y-126660000D02*
X171740000Y-126660000D01*
X173700000Y-126660000D02*
X176504000Y-126660000D01*
X168940000Y-126620000D02*
X171740000Y-126620000D01*
X173700000Y-126620000D02*
X176500000Y-126620000D01*
X168945000Y-126580000D02*
X171740000Y-126580000D01*
X173700000Y-126580000D02*
X176495000Y-126580000D01*
X168950000Y-126540000D02*
X171740000Y-126540000D01*
X173700000Y-126540000D02*
X176490000Y-126540000D01*
X168955000Y-126500000D02*
X171740000Y-126500000D01*
X173700000Y-126500000D02*
X176485000Y-126500000D01*
X168961000Y-126460000D02*
X171740000Y-126460000D01*
X173700000Y-126460000D02*
X176479000Y-126460000D01*
X168967000Y-126420000D02*
X171740000Y-126420000D01*
X173700000Y-126420000D02*
X176473000Y-126420000D01*
X168973000Y-126380000D02*
X171740000Y-126380000D01*
X173700000Y-126380000D02*
X176467000Y-126380000D01*
X168980000Y-126340000D02*
X171740000Y-126340000D01*
X173700000Y-126340000D02*
X176460000Y-126340000D01*
X168988000Y-126299000D02*
X171740000Y-126299000D01*
X173700000Y-126299000D02*
X176452000Y-126299000D01*
X168995000Y-126259000D02*
X171740000Y-126259000D01*
X173700000Y-126259000D02*
X176445000Y-126259000D01*
X169004000Y-126219000D02*
X171740000Y-126219000D01*
X173700000Y-126219000D02*
X176436000Y-126219000D01*
X169013000Y-126179000D02*
X171740000Y-126179000D01*
X173700000Y-126179000D02*
X176427000Y-126179000D01*
X169022000Y-126139000D02*
X171740000Y-126139000D01*
X173700000Y-126139000D02*
X176418000Y-126139000D01*
X169031000Y-126099000D02*
X171740000Y-126099000D01*
X173700000Y-126099000D02*
X176409000Y-126099000D01*
X169041000Y-126059000D02*
X171740000Y-126059000D01*
X173700000Y-126059000D02*
X176399000Y-126059000D01*
X169052000Y-126019000D02*
X171740000Y-126019000D01*
X173700000Y-126019000D02*
X176388000Y-126019000D01*
X169063000Y-125979000D02*
X171740000Y-125979000D01*
X173700000Y-125979000D02*
X176377000Y-125979000D01*
X169075000Y-125939000D02*
X171740000Y-125939000D01*
X173700000Y-125939000D02*
X176365000Y-125939000D01*
X169086000Y-125899000D02*
X171740000Y-125899000D01*
X173700000Y-125899000D02*
X176354000Y-125899000D01*
X169099000Y-125859000D02*
X171740000Y-125859000D01*
X173700000Y-125859000D02*
X176341000Y-125859000D01*
X169112000Y-125819000D02*
X171740000Y-125819000D01*
X173700000Y-125819000D02*
X176328000Y-125819000D01*
X169125000Y-125779000D02*
X171740000Y-125779000D01*
X173700000Y-125779000D02*
X176315000Y-125779000D01*
X169139000Y-125739000D02*
X171740000Y-125739000D01*
X173700000Y-125739000D02*
X176301000Y-125739000D01*
X169154000Y-125699000D02*
X171740000Y-125699000D01*
X173700000Y-125699000D02*
X176286000Y-125699000D01*
X169168000Y-125659000D02*
X171740000Y-125659000D01*
X173700000Y-125659000D02*
X176272000Y-125659000D01*
X169184000Y-125619000D02*
X171740000Y-125619000D01*
X173700000Y-125619000D02*
X176256000Y-125619000D01*
X169200000Y-125579000D02*
X171740000Y-125579000D01*
X173700000Y-125579000D02*
X176240000Y-125579000D01*
X169216000Y-125539000D02*
X171740000Y-125539000D01*
X173700000Y-125539000D02*
X176224000Y-125539000D01*
X169233000Y-125499000D02*
X171740000Y-125499000D01*
X173700000Y-125499000D02*
X176207000Y-125499000D01*
X169251000Y-125459000D02*
X171740000Y-125459000D01*
X173700000Y-125459000D02*
X176189000Y-125459000D01*
X169269000Y-125419000D02*
X171740000Y-125419000D01*
X173700000Y-125419000D02*
X176171000Y-125419000D01*
X169287000Y-125379000D02*
X171740000Y-125379000D01*
X173700000Y-125379000D02*
X176153000Y-125379000D01*
X169307000Y-125339000D02*
X171740000Y-125339000D01*
X173700000Y-125339000D02*
X176133000Y-125339000D01*
X169326000Y-125299000D02*
X171740000Y-125299000D01*
X173700000Y-125299000D02*
X176114000Y-125299000D01*
X169347000Y-125259000D02*
X171740000Y-125259000D01*
X173700000Y-125259000D02*
X176093000Y-125259000D01*
X169368000Y-125219000D02*
X171740000Y-125219000D01*
X173700000Y-125219000D02*
X176072000Y-125219000D01*
X169389000Y-125179000D02*
X171740000Y-125179000D01*
X173700000Y-125179000D02*
X176051000Y-125179000D01*
X169411000Y-125139000D02*
X171740000Y-125139000D01*
X173700000Y-125139000D02*
X176029000Y-125139000D01*
X169434000Y-125099000D02*
X171740000Y-125099000D01*
X173700000Y-125099000D02*
X176006000Y-125099000D01*
X169457000Y-125059000D02*
X171740000Y-125059000D01*
X173700000Y-125059000D02*
X175983000Y-125059000D01*
X169481000Y-125019000D02*
X171740000Y-125019000D01*
X173700000Y-125019000D02*
X175959000Y-125019000D01*
X169506000Y-124979000D02*
X171740000Y-124979000D01*
X173700000Y-124979000D02*
X175934000Y-124979000D01*
X169532000Y-124939000D02*
X171740000Y-124939000D01*
X173700000Y-124939000D02*
X175908000Y-124939000D01*
X169558000Y-124899000D02*
X171740000Y-124899000D01*
X173700000Y-124899000D02*
X175882000Y-124899000D01*
X169585000Y-124859000D02*
X171740000Y-124859000D01*
X173700000Y-124859000D02*
X175855000Y-124859000D01*
X169612000Y-124819000D02*
X171740000Y-124819000D01*
X173700000Y-124819000D02*
X175828000Y-124819000D01*
X169641000Y-124779000D02*
X175799000Y-124779000D01*
X169670000Y-124739000D02*
X175770000Y-124739000D01*
X169700000Y-124699000D02*
X175740000Y-124699000D01*
X169730000Y-124659000D02*
X175710000Y-124659000D01*
X169762000Y-124619000D02*
X175678000Y-124619000D01*
X169794000Y-124579000D02*
X175646000Y-124579000D01*
X169828000Y-124539000D02*
X175612000Y-124539000D01*
X169862000Y-124499000D02*
X175578000Y-124499000D01*
X169897000Y-124459000D02*
X175543000Y-124459000D01*
X169934000Y-124419000D02*
X175506000Y-124419000D01*
X169971000Y-124379000D02*
X175469000Y-124379000D01*
X170009000Y-124339000D02*
X175431000Y-124339000D01*
X170049000Y-124299000D02*
X175391000Y-124299000D01*
X170090000Y-124259000D02*
X175350000Y-124259000D01*
X170132000Y-124219000D02*
X175308000Y-124219000D01*
X170175000Y-124179000D02*
X175265000Y-124179000D01*
X170220000Y-124139000D02*
X175220000Y-124139000D01*
X170266000Y-124099000D02*
X175174000Y-124099000D01*
X170313000Y-124059000D02*
X175127000Y-124059000D01*
X170363000Y-124019000D02*
X175077000Y-124019000D01*
X170413000Y-123979000D02*
X175027000Y-123979000D01*
X170466000Y-123939000D02*
X174974000Y-123939000D01*
X170521000Y-123899000D02*
X174919000Y-123899000D01*
X170578000Y-123859000D02*
X174862000Y-123859000D01*
X170637000Y-123819000D02*
X174803000Y-123819000D01*
X170698000Y-123779000D02*
X174742000Y-123779000D01*
X170763000Y-123739000D02*
X174677000Y-123739000D01*
X170830000Y-123699000D02*
X174610000Y-123699000D01*
X170900000Y-123659000D02*
X174540000Y-123659000D01*
X170975000Y-123619000D02*
X174465000Y-123619000D01*
X171053000Y-123579000D02*
X174387000Y-123579000D01*
X171136000Y-123539000D02*
X174304000Y-123539000D01*
X171225000Y-123499000D02*
X174215000Y-123499000D01*
X171320000Y-123459000D02*
X174120000Y-123459000D01*
X171423000Y-123419000D02*
X174017000Y-123419000D01*
X171536000Y-123379000D02*
X173904000Y-123379000D01*
X171663000Y-123339000D02*
X173777000Y-123339000D01*
X171807000Y-123299000D02*
X173633000Y-123299000D01*
X171980000Y-123259000D02*
X173460000Y-123259000D01*
X172207000Y-123219000D02*
X173233000Y-123219000D01*
X172720000Y-130470000D02*
X172720000Y-129270000D01*
X172070000Y-129870000D02*
X173370000Y-129870000D01*
X166460864Y-115032180D02*
G75*
G03X166460000Y-121067482I1179136J-3017820D01*
G01*
X168819136Y-115032180D02*
G75*
G02X168820000Y-121067482I-1179136J-3017820D01*
G01*
X168819136Y-115032180D02*
G75*
G03X166460000Y-115032518I-1179136J-3017820D01*
G01*
X164440000Y-118050000D02*
X170840000Y-118050000D01*
X164440000Y-118010000D02*
X170840000Y-118010000D01*
X164440000Y-117970000D02*
X170840000Y-117970000D01*
X164442000Y-117930000D02*
X170838000Y-117930000D01*
X164443000Y-117890000D02*
X170837000Y-117890000D01*
X164446000Y-117850000D02*
X170834000Y-117850000D01*
X164448000Y-117810000D02*
X170832000Y-117810000D01*
X164452000Y-117770000D02*
X166660000Y-117770000D01*
X168620000Y-117770000D02*
X170828000Y-117770000D01*
X164455000Y-117730000D02*
X166660000Y-117730000D01*
X168620000Y-117730000D02*
X170825000Y-117730000D01*
X164460000Y-117690000D02*
X166660000Y-117690000D01*
X168620000Y-117690000D02*
X170820000Y-117690000D01*
X164464000Y-117650000D02*
X166660000Y-117650000D01*
X168620000Y-117650000D02*
X170816000Y-117650000D01*
X164470000Y-117610000D02*
X166660000Y-117610000D01*
X168620000Y-117610000D02*
X170810000Y-117610000D01*
X164475000Y-117570000D02*
X166660000Y-117570000D01*
X168620000Y-117570000D02*
X170805000Y-117570000D01*
X164482000Y-117530000D02*
X166660000Y-117530000D01*
X168620000Y-117530000D02*
X170798000Y-117530000D01*
X164488000Y-117490000D02*
X166660000Y-117490000D01*
X168620000Y-117490000D02*
X170792000Y-117490000D01*
X164496000Y-117450000D02*
X166660000Y-117450000D01*
X168620000Y-117450000D02*
X170784000Y-117450000D01*
X164503000Y-117410000D02*
X166660000Y-117410000D01*
X168620000Y-117410000D02*
X170777000Y-117410000D01*
X164512000Y-117370000D02*
X166660000Y-117370000D01*
X168620000Y-117370000D02*
X170768000Y-117370000D01*
X164521000Y-117329000D02*
X166660000Y-117329000D01*
X168620000Y-117329000D02*
X170759000Y-117329000D01*
X164530000Y-117289000D02*
X166660000Y-117289000D01*
X168620000Y-117289000D02*
X170750000Y-117289000D01*
X164540000Y-117249000D02*
X166660000Y-117249000D01*
X168620000Y-117249000D02*
X170740000Y-117249000D01*
X164550000Y-117209000D02*
X166660000Y-117209000D01*
X168620000Y-117209000D02*
X170730000Y-117209000D01*
X164561000Y-117169000D02*
X166660000Y-117169000D01*
X168620000Y-117169000D02*
X170719000Y-117169000D01*
X164573000Y-117129000D02*
X166660000Y-117129000D01*
X168620000Y-117129000D02*
X170707000Y-117129000D01*
X164585000Y-117089000D02*
X166660000Y-117089000D01*
X168620000Y-117089000D02*
X170695000Y-117089000D01*
X164598000Y-117049000D02*
X166660000Y-117049000D01*
X168620000Y-117049000D02*
X170682000Y-117049000D01*
X164611000Y-117009000D02*
X166660000Y-117009000D01*
X168620000Y-117009000D02*
X170669000Y-117009000D01*
X164625000Y-116969000D02*
X166660000Y-116969000D01*
X168620000Y-116969000D02*
X170655000Y-116969000D01*
X164639000Y-116929000D02*
X166660000Y-116929000D01*
X168620000Y-116929000D02*
X170641000Y-116929000D01*
X164654000Y-116889000D02*
X166660000Y-116889000D01*
X168620000Y-116889000D02*
X170626000Y-116889000D01*
X164670000Y-116849000D02*
X166660000Y-116849000D01*
X168620000Y-116849000D02*
X170610000Y-116849000D01*
X164686000Y-116809000D02*
X166660000Y-116809000D01*
X168620000Y-116809000D02*
X170594000Y-116809000D01*
X164703000Y-116769000D02*
X166660000Y-116769000D01*
X168620000Y-116769000D02*
X170577000Y-116769000D01*
X164721000Y-116729000D02*
X166660000Y-116729000D01*
X168620000Y-116729000D02*
X170559000Y-116729000D01*
X164739000Y-116689000D02*
X166660000Y-116689000D01*
X168620000Y-116689000D02*
X170541000Y-116689000D01*
X164758000Y-116649000D02*
X166660000Y-116649000D01*
X168620000Y-116649000D02*
X170522000Y-116649000D01*
X164777000Y-116609000D02*
X166660000Y-116609000D01*
X168620000Y-116609000D02*
X170503000Y-116609000D01*
X164797000Y-116569000D02*
X166660000Y-116569000D01*
X168620000Y-116569000D02*
X170483000Y-116569000D01*
X164818000Y-116529000D02*
X166660000Y-116529000D01*
X168620000Y-116529000D02*
X170462000Y-116529000D01*
X164840000Y-116489000D02*
X166660000Y-116489000D01*
X168620000Y-116489000D02*
X170440000Y-116489000D01*
X164862000Y-116449000D02*
X166660000Y-116449000D01*
X168620000Y-116449000D02*
X170418000Y-116449000D01*
X164885000Y-116409000D02*
X166660000Y-116409000D01*
X168620000Y-116409000D02*
X170395000Y-116409000D01*
X164909000Y-116369000D02*
X166660000Y-116369000D01*
X168620000Y-116369000D02*
X170371000Y-116369000D01*
X164934000Y-116329000D02*
X166660000Y-116329000D01*
X168620000Y-116329000D02*
X170346000Y-116329000D01*
X164959000Y-116289000D02*
X166660000Y-116289000D01*
X168620000Y-116289000D02*
X170321000Y-116289000D01*
X164986000Y-116249000D02*
X166660000Y-116249000D01*
X168620000Y-116249000D02*
X170294000Y-116249000D01*
X165013000Y-116209000D02*
X166660000Y-116209000D01*
X168620000Y-116209000D02*
X170267000Y-116209000D01*
X165041000Y-116169000D02*
X166660000Y-116169000D01*
X168620000Y-116169000D02*
X170239000Y-116169000D01*
X165070000Y-116129000D02*
X166660000Y-116129000D01*
X168620000Y-116129000D02*
X170210000Y-116129000D01*
X165100000Y-116089000D02*
X166660000Y-116089000D01*
X168620000Y-116089000D02*
X170180000Y-116089000D01*
X165130000Y-116049000D02*
X166660000Y-116049000D01*
X168620000Y-116049000D02*
X170150000Y-116049000D01*
X165162000Y-116009000D02*
X166660000Y-116009000D01*
X168620000Y-116009000D02*
X170118000Y-116009000D01*
X165195000Y-115969000D02*
X166660000Y-115969000D01*
X168620000Y-115969000D02*
X170085000Y-115969000D01*
X165229000Y-115929000D02*
X166660000Y-115929000D01*
X168620000Y-115929000D02*
X170051000Y-115929000D01*
X165265000Y-115889000D02*
X166660000Y-115889000D01*
X168620000Y-115889000D02*
X170015000Y-115889000D01*
X165301000Y-115849000D02*
X166660000Y-115849000D01*
X168620000Y-115849000D02*
X169979000Y-115849000D01*
X165339000Y-115809000D02*
X169941000Y-115809000D01*
X165378000Y-115769000D02*
X169902000Y-115769000D01*
X165418000Y-115729000D02*
X169862000Y-115729000D01*
X165460000Y-115689000D02*
X169820000Y-115689000D01*
X165503000Y-115649000D02*
X169777000Y-115649000D01*
X165548000Y-115609000D02*
X169732000Y-115609000D01*
X165595000Y-115569000D02*
X169685000Y-115569000D01*
X165643000Y-115529000D02*
X169637000Y-115529000D01*
X165694000Y-115489000D02*
X169586000Y-115489000D01*
X165746000Y-115449000D02*
X169534000Y-115449000D01*
X165801000Y-115409000D02*
X169479000Y-115409000D01*
X165859000Y-115369000D02*
X169421000Y-115369000D01*
X165919000Y-115329000D02*
X169361000Y-115329000D01*
X165982000Y-115289000D02*
X169298000Y-115289000D01*
X166049000Y-115249000D02*
X169231000Y-115249000D01*
X166120000Y-115209000D02*
X169160000Y-115209000D01*
X166195000Y-115169000D02*
X169085000Y-115169000D01*
X166276000Y-115129000D02*
X169004000Y-115129000D01*
X166362000Y-115089000D02*
X168918000Y-115089000D01*
X166456000Y-115049000D02*
X168824000Y-115049000D01*
X166559000Y-115009000D02*
X168721000Y-115009000D01*
X166674000Y-114969000D02*
X168606000Y-114969000D01*
X166806000Y-114929000D02*
X168474000Y-114929000D01*
X166964000Y-114889000D02*
X168316000Y-114889000D01*
X167172000Y-114849000D02*
X168108000Y-114849000D01*
X167640000Y-121500000D02*
X167640000Y-120300000D01*
X166990000Y-120900000D02*
X168290000Y-120900000D01*
X154940000Y-120650000D02*
X154940000Y-110490000D01*
X153670000Y-120650000D02*
X161290000Y-120650000D01*
X161290000Y-120650000D02*
X161290000Y-110490000D01*
X161290000Y-110490000D02*
X153670000Y-110490000D01*
X153670000Y-110490000D02*
X153670000Y-120650000D01*
X174680000Y-116310000D02*
X174680000Y-119910000D01*
X174691522Y-116271522D02*
G75*
G02X179130000Y-118110000I1838478J-1838478D01*
G01*
X174691522Y-119948478D02*
G75*
G03X179130000Y-118110000I1838478J1838478D01*
G01*
X179750000Y-110900000D02*
X179750000Y-112620000D01*
X179750000Y-112620000D02*
X183470000Y-112620000D01*
X183470000Y-112620000D02*
X183470000Y-110900000D01*
X183470000Y-110900000D02*
X179750000Y-110900000D01*
X178680000Y-111760000D02*
X179750000Y-111760000D01*
X184540000Y-111760000D02*
X183470000Y-111760000D01*
X163150000Y-125320000D02*
X163150000Y-123600000D01*
X163150000Y-123600000D02*
X159430000Y-123600000D01*
X159430000Y-123600000D02*
X159430000Y-125320000D01*
X159430000Y-125320000D02*
X163150000Y-125320000D01*
X164220000Y-124460000D02*
X163150000Y-124460000D01*
X158360000Y-124460000D02*
X159430000Y-124460000D01*
X170770000Y-112620000D02*
X170770000Y-110900000D01*
X170770000Y-110900000D02*
X167050000Y-110900000D01*
X167050000Y-110900000D02*
X167050000Y-112620000D01*
X167050000Y-112620000D02*
X170770000Y-112620000D01*
X171840000Y-111760000D02*
X170770000Y-111760000D01*
X165980000Y-111760000D02*
X167050000Y-111760000D01*
X163150000Y-130400000D02*
X163150000Y-128680000D01*
X163150000Y-128680000D02*
X159430000Y-128680000D01*
X159430000Y-128680000D02*
X159430000Y-130400000D01*
X159430000Y-130400000D02*
X163150000Y-130400000D01*
X164220000Y-129540000D02*
X163150000Y-129540000D01*
X158360000Y-129540000D02*
X159430000Y-129540000D01*
D12*
X182546667Y-131322381D02*
X182546667Y-132036667D01*
X182499047Y-132179524D01*
X182403809Y-132274762D01*
X182260952Y-132322381D01*
X182165714Y-132322381D01*
X183546667Y-132322381D02*
X182975238Y-132322381D01*
X183260952Y-132322381D02*
X183260952Y-131322381D01*
X183165714Y-131465238D01*
X183070476Y-131560476D01*
X182975238Y-131608095D01*
X185273334Y-114007143D02*
X185225715Y-114054762D01*
X185082858Y-114102381D01*
X184987620Y-114102381D01*
X184844762Y-114054762D01*
X184749524Y-113959524D01*
X184701905Y-113864286D01*
X184654286Y-113673810D01*
X184654286Y-113530952D01*
X184701905Y-113340476D01*
X184749524Y-113245238D01*
X184844762Y-113150000D01*
X184987620Y-113102381D01*
X185082858Y-113102381D01*
X185225715Y-113150000D01*
X185273334Y-113197619D01*
X186225715Y-114102381D02*
X185654286Y-114102381D01*
X185940000Y-114102381D02*
X185940000Y-113102381D01*
X185844762Y-113245238D01*
X185749524Y-113340476D01*
X185654286Y-113388095D01*
X168017143Y-127186666D02*
X168064762Y-127234285D01*
X168112381Y-127377142D01*
X168112381Y-127472380D01*
X168064762Y-127615238D01*
X167969524Y-127710476D01*
X167874286Y-127758095D01*
X167683810Y-127805714D01*
X167540952Y-127805714D01*
X167350476Y-127758095D01*
X167255238Y-127710476D01*
X167160000Y-127615238D01*
X167112381Y-127472380D01*
X167112381Y-127377142D01*
X167160000Y-127234285D01*
X167207619Y-127186666D01*
X167207619Y-126805714D02*
X167160000Y-126758095D01*
X167112381Y-126662857D01*
X167112381Y-126424761D01*
X167160000Y-126329523D01*
X167207619Y-126281904D01*
X167302857Y-126234285D01*
X167398095Y-126234285D01*
X167540952Y-126281904D01*
X168112381Y-126853333D01*
X168112381Y-126234285D01*
X163537143Y-118216666D02*
X163584762Y-118264285D01*
X163632381Y-118407142D01*
X163632381Y-118502380D01*
X163584762Y-118645238D01*
X163489524Y-118740476D01*
X163394286Y-118788095D01*
X163203810Y-118835714D01*
X163060952Y-118835714D01*
X162870476Y-118788095D01*
X162775238Y-118740476D01*
X162680000Y-118645238D01*
X162632381Y-118502380D01*
X162632381Y-118407142D01*
X162680000Y-118264285D01*
X162727619Y-118216666D01*
X162632381Y-117883333D02*
X162632381Y-117264285D01*
X163013333Y-117597619D01*
X163013333Y-117454761D01*
X163060952Y-117359523D01*
X163108571Y-117311904D01*
X163203810Y-117264285D01*
X163441905Y-117264285D01*
X163537143Y-117311904D01*
X163584762Y-117359523D01*
X163632381Y-117454761D01*
X163632381Y-117740476D01*
X163584762Y-117835714D01*
X163537143Y-117883333D01*
X162012381Y-115903333D02*
X162726667Y-115903333D01*
X162869524Y-115950953D01*
X162964762Y-116046191D01*
X163012381Y-116189048D01*
X163012381Y-116284286D01*
X162107619Y-115474762D02*
X162060000Y-115427143D01*
X162012381Y-115331905D01*
X162012381Y-115093809D01*
X162060000Y-114998571D01*
X162107619Y-114950952D01*
X162202857Y-114903333D01*
X162298095Y-114903333D01*
X162440952Y-114950952D01*
X163012381Y-115522381D01*
X163012381Y-114903333D01*
X180637619Y-118205238D02*
X180590000Y-118300476D01*
X180494762Y-118395714D01*
X180351905Y-118538571D01*
X180304286Y-118633810D01*
X180304286Y-118729048D01*
X180542381Y-118681429D02*
X180494762Y-118776667D01*
X180399524Y-118871905D01*
X180209048Y-118919524D01*
X179875714Y-118919524D01*
X179685238Y-118871905D01*
X179590000Y-118776667D01*
X179542381Y-118681429D01*
X179542381Y-118490952D01*
X179590000Y-118395714D01*
X179685238Y-118300476D01*
X179875714Y-118252857D01*
X180209048Y-118252857D01*
X180399524Y-118300476D01*
X180494762Y-118395714D01*
X180542381Y-118490952D01*
X180542381Y-118681429D01*
X180542381Y-117300476D02*
X180542381Y-117871905D01*
X180542381Y-117586191D02*
X179542381Y-117586191D01*
X179685238Y-117681429D01*
X179780476Y-117776667D01*
X179828095Y-117871905D01*
X181443334Y-110352381D02*
X181110000Y-109876190D01*
X180871905Y-110352381D02*
X180871905Y-109352381D01*
X181252858Y-109352381D01*
X181348096Y-109400000D01*
X181395715Y-109447619D01*
X181443334Y-109542857D01*
X181443334Y-109685714D01*
X181395715Y-109780952D01*
X181348096Y-109828571D01*
X181252858Y-109876190D01*
X180871905Y-109876190D01*
X182395715Y-110352381D02*
X181824286Y-110352381D01*
X182110000Y-110352381D02*
X182110000Y-109352381D01*
X182014762Y-109495238D01*
X181919524Y-109590476D01*
X181824286Y-109638095D01*
X161123334Y-126772381D02*
X160790000Y-126296190D01*
X160551905Y-126772381D02*
X160551905Y-125772381D01*
X160932858Y-125772381D01*
X161028096Y-125820000D01*
X161075715Y-125867619D01*
X161123334Y-125962857D01*
X161123334Y-126105714D01*
X161075715Y-126200952D01*
X161028096Y-126248571D01*
X160932858Y-126296190D01*
X160551905Y-126296190D01*
X161504286Y-125867619D02*
X161551905Y-125820000D01*
X161647143Y-125772381D01*
X161885239Y-125772381D01*
X161980477Y-125820000D01*
X162028096Y-125867619D01*
X162075715Y-125962857D01*
X162075715Y-126058095D01*
X162028096Y-126200952D01*
X161456667Y-126772381D01*
X162075715Y-126772381D01*
X168743334Y-114072381D02*
X168410000Y-113596190D01*
X168171905Y-114072381D02*
X168171905Y-113072381D01*
X168552858Y-113072381D01*
X168648096Y-113120000D01*
X168695715Y-113167619D01*
X168743334Y-113262857D01*
X168743334Y-113405714D01*
X168695715Y-113500952D01*
X168648096Y-113548571D01*
X168552858Y-113596190D01*
X168171905Y-113596190D01*
X169076667Y-113072381D02*
X169695715Y-113072381D01*
X169362381Y-113453333D01*
X169505239Y-113453333D01*
X169600477Y-113500952D01*
X169648096Y-113548571D01*
X169695715Y-113643810D01*
X169695715Y-113881905D01*
X169648096Y-113977143D01*
X169600477Y-114024762D01*
X169505239Y-114072381D01*
X169219524Y-114072381D01*
X169124286Y-114024762D01*
X169076667Y-113977143D01*
X161123334Y-131852381D02*
X160790000Y-131376190D01*
X160551905Y-131852381D02*
X160551905Y-130852381D01*
X160932858Y-130852381D01*
X161028096Y-130900000D01*
X161075715Y-130947619D01*
X161123334Y-131042857D01*
X161123334Y-131185714D01*
X161075715Y-131280952D01*
X161028096Y-131328571D01*
X160932858Y-131376190D01*
X160551905Y-131376190D01*
X161980477Y-131185714D02*
X161980477Y-131852381D01*
X161742381Y-130804762D02*
X161504286Y-131519048D01*
X162123334Y-131519048D01*
M02*
