  0
SECTION
  2
HEADER
  9
$ANGBASE
  50
0.0
  9
$ANGDIR
  70
  1
  9
$MEASUREMENT
  70
0
  0
ENDSEC
  0
SECTION
  2
TABLES
  0
TABLE
  2
LTYPE
  70
1
  0
LTYPE
  2
CONTINUOUS
  70
0
  3
Solid line
  72
65
  73
0
  40
0.0
  0
ENDTAB
  0
TABLE
  2
STYLE
  70
4
  0
STYLE
  2
KICAD
  70
0
  40
0
  41
1
  42
1
  50
0
  71
0
  3
isocp.shx
  0
STYLE
  2
KICADB
  70
0
  40
0
  41
1
  42
1
  50
0
  71
0
  3
isocp.shx
  0
STYLE
  2
KICADI
  70
0
  40
0
  41
1
  42
1
  50
15
  71
0
  3
isocp.shx
  0
STYLE
  2
KICADBI
  70
0
  40
0
  41
1
  42
1
  50
15
  71
0
  3
isocp.shx
  0
ENDTAB
  0
TABLE
  2
LAYER
  70
30
  0
LAYER
  2
BLACK
  70
0
  62
7
  6
CONTINUOUS
  0
LAYER
  2
GRAY1
  70
0
  62
251
  6
CONTINUOUS
  0
LAYER
  2
GRAY2
  70
0
  62
8
  6
CONTINUOUS
  0
LAYER
  2
GRAY3
  70
0
  62
9
  6
CONTINUOUS
  0
LAYER
  2
WHITE
  70
0
  62
7
  6
CONTINUOUS
  0
LAYER
  2
LYELLOW
  70
0
  62
51
  6
CONTINUOUS
  0
LAYER
  2
BLUE1
  70
0
  62
178
  6
CONTINUOUS
  0
LAYER
  2
GREEN1
  70
0
  62
98
  6
CONTINUOUS
  0
LAYER
  2
CYAN1
  70
0
  62
138
  6
CONTINUOUS
  0
LAYER
  2
RED1
  70
0
  62
18
  6
CONTINUOUS
  0
LAYER
  2
MAGENTA1
  70
0
  62
228
  6
CONTINUOUS
  0
LAYER
  2
BROWN1
  70
0
  62
58
  6
CONTINUOUS
  0
LAYER
  2
BLUE2
  70
0
  62
5
  6
CONTINUOUS
  0
LAYER
  2
GREEN2
  70
0
  62
3
  6
CONTINUOUS
  0
LAYER
  2
CYAN2
  70
0
  62
4
  6
CONTINUOUS
  0
LAYER
  2
RED2
  70
0
  62
1
  6
CONTINUOUS
  0
LAYER
  2
MAGENTA2
  70
0
  62
6
  6
CONTINUOUS
  0
LAYER
  2
BROWN2
  70
0
  62
54
  6
CONTINUOUS
  0
LAYER
  2
BLUE3
  70
0
  62
171
  6
CONTINUOUS
  0
LAYER
  2
GREEN3
  70
0
  62
91
  6
CONTINUOUS
  0
LAYER
  2
CYAN3
  70
0
  62
131
  6
CONTINUOUS
  0
LAYER
  2
RED3
  70
0
  62
11
  6
CONTINUOUS
  0
LAYER
  2
MAGENTA3
  70
0
  62
221
  6
CONTINUOUS
  0
LAYER
  2
YELLOW3
  70
0
  62
2
  6
CONTINUOUS
  0
LAYER
  2
BLUE4
  70
0
  62
5
  6
CONTINUOUS
  0
LAYER
  2
GREEN4
  70
0
  62
3
  6
CONTINUOUS
  0
LAYER
  2
CYAN4
  70
0
  62
4
  6
CONTINUOUS
  0
LAYER
  2
RED4
  70
0
  62
1
  6
CONTINUOUS
  0
LAYER
  2
MAGENTA4
  70
0
  62
6
  6
CONTINUOUS
  0
LAYER
  2
YELLOW4
  70
0
  62
2
  6
CONTINUOUS
  0
ENDTAB
  0
ENDSEC
  0
SECTION
  2
ENTITIES
0
LINE
8
Red 2
10
177.013
20
-166.014
11
177.013
21
-198.018
0
LINE
8
Red 2
10
177.013
20
-198.018
11
285.013
21
-198.018
0
LINE
8
Red 2
10
285.013
20
-198.018
11
285.013
21
-166.014
0
LINE
8
Red 2
10
285.013
20
-166.014
11
177.013
21
-166.014
0
LINE
8
Red 2
10
10.0076
20
-10.0076
11
10.0076
21
-200
0
LINE
8
Red 2
10
10.0076
20
-200
11
286.995
21
-200
0
LINE
8
Red 2
10
286.995
20
-200
11
286.995
21
-10.0076
0
LINE
8
Red 2
10
286.995
20
-10.0076
11
10.0076
21
-10.0076
0
LINE
8
Red 2
10
11.9888
20
-11.9888
11
11.9888
21
-198.018
0
LINE
8
Red 2
10
11.9888
20
-198.018
11
285.013
21
-198.018
0
LINE
8
Red 2
10
285.013
20
-198.018
11
285.013
21
-11.9888
0
LINE
8
Red 2
10
285.013
20
-11.9888
11
11.9888
21
-11.9888
0
LINE
8
Red 2
10
59.9948
20
-11.9888
11
59.9948
21
-10.0076
0
LINE
8
Red 2
10
110.007
20
-11.9888
11
110.007
21
-10.0076
0
LINE
8
Red 2
10
159.995
20
-11.9888
11
159.995
21
-10.0076
0
LINE
8
Red 2
10
210.007
20
-11.9888
11
210.007
21
-10.0076
0
LINE
8
Red 2
10
259.994
20
-11.9888
11
259.994
21
-10.0076
0
LINE
8
Red 2
10
35.9918
20
-11.5824
11
35.2552
21
-11.5824
0
LINE
8
Red 2
10
35.6108
20
-11.5824
11
35.6108
21
-10.287
0
LINE
8
Red 2
10
35.6108
20
-10.287
11
35.4838
21
-10.4648
0
LINE
8
Red 2
10
35.4838
20
-10.4648
11
35.3822
21
-10.5918
0
LINE
8
Red 2
10
35.3822
20
-10.5918
11
35.2552
21
-10.6426
0
LINE
8
Red 2
10
85.2424
20
-10.3886
11
85.2932
21
-10.3378
0
LINE
8
Red 2
10
85.2932
20
-10.3378
11
85.4202
21
-10.287
0
LINE
8
Red 2
10
85.4202
20
-10.287
11
85.725
21
-10.287
0
LINE
8
Red 2
10
85.725
20
-10.287
11
85.852
21
-10.3378
0
LINE
8
Red 2
10
85.852
20
-10.3378
11
85.9028
21
-10.3886
0
LINE
8
Red 2
10
85.9028
20
-10.3886
11
85.979
21
-10.5156
0
LINE
8
Red 2
10
85.979
20
-10.5156
11
85.979
21
-10.6426
0
LINE
8
Red 2
10
85.979
20
-10.6426
11
85.9028
21
-10.8204
0
LINE
8
Red 2
10
85.9028
20
-10.8204
11
85.1662
21
-11.5824
0
LINE
8
Red 2
10
85.1662
20
-11.5824
11
85.979
21
-11.5824
0
LINE
8
Red 2
10
135.179
20
-10.287
11
135.992
21
-10.287
0
LINE
8
Red 2
10
135.992
20
-10.287
11
135.56
21
-10.7696
0
LINE
8
Red 2
10
135.56
20
-10.7696
11
135.738
21
-10.7696
0
LINE
8
Red 2
10
135.738
20
-10.7696
11
135.865
21
-10.8204
0
LINE
8
Red 2
10
135.865
20
-10.8204
11
135.915
21
-10.8966
0
LINE
8
Red 2
10
135.915
20
-10.8966
11
135.992
21
-11.0236
0
LINE
8
Red 2
10
135.992
20
-11.0236
11
135.992
21
-11.3284
0
LINE
8
Red 2
10
135.992
20
-11.3284
11
135.915
21
-11.4554
0
LINE
8
Red 2
10
135.915
20
-11.4554
11
135.865
21
-11.5062
0
LINE
8
Red 2
10
135.865
20
-11.5062
11
135.738
21
-11.5824
0
LINE
8
Red 2
10
135.738
20
-11.5824
11
135.382
21
-11.5824
0
LINE
8
Red 2
10
135.382
20
-11.5824
11
135.255
21
-11.5062
0
LINE
8
Red 2
10
135.255
20
-11.5062
11
135.179
21
-11.4554
0
LINE
8
Red 2
10
185.852
20
-10.7188
11
185.852
21
-11.5824
0
LINE
8
Red 2
10
185.547
20
-10.2108
11
185.242
21
-11.1506
0
LINE
8
Red 2
10
185.242
20
-11.1506
11
186.03
21
-11.1506
0
LINE
8
Red 2
10
235.915
20
-10.287
11
235.306
21
-10.287
0
LINE
8
Red 2
10
235.306
20
-10.287
11
235.255
21
-10.8966
0
LINE
8
Red 2
10
235.255
20
-10.8966
11
235.306
21
-10.8204
0
LINE
8
Red 2
10
235.306
20
-10.8204
11
235.433
21
-10.7696
0
LINE
8
Red 2
10
235.433
20
-10.7696
11
235.737
21
-10.7696
0
LINE
8
Red 2
10
235.737
20
-10.7696
11
235.864
21
-10.8204
0
LINE
8
Red 2
10
235.864
20
-10.8204
11
235.915
21
-10.8966
0
LINE
8
Red 2
10
235.915
20
-10.8966
11
235.991
21
-11.0236
0
LINE
8
Red 2
10
235.991
20
-11.0236
11
235.991
21
-11.3284
0
LINE
8
Red 2
10
235.991
20
-11.3284
11
235.915
21
-11.4554
0
LINE
8
Red 2
10
235.915
20
-11.4554
11
235.864
21
-11.5062
0
LINE
8
Red 2
10
235.864
20
-11.5062
11
235.737
21
-11.5824
0
LINE
8
Red 2
10
235.737
20
-11.5824
11
235.433
21
-11.5824
0
LINE
8
Red 2
10
235.433
20
-11.5824
11
235.306
21
-11.5062
0
LINE
8
Red 2
10
235.306
20
-11.5062
11
235.255
21
-11.4554
0
LINE
8
Red 2
10
285.852
20
-10.287
11
285.598
21
-10.287
0
LINE
8
Red 2
10
285.598
20
-10.287
11
285.471
21
-10.3378
0
LINE
8
Red 2
10
285.471
20
-10.3378
11
285.42
21
-10.3886
0
LINE
8
Red 2
10
285.42
20
-10.3886
11
285.293
21
-10.5918
0
LINE
8
Red 2
10
285.293
20
-10.5918
11
285.242
21
-10.8204
0
LINE
8
Red 2
10
285.242
20
-10.8204
11
285.242
21
-11.3284
0
LINE
8
Red 2
10
285.242
20
-11.3284
11
285.293
21
-11.4554
0
LINE
8
Red 2
10
285.293
20
-11.4554
11
285.369
21
-11.5062
0
LINE
8
Red 2
10
285.369
20
-11.5062
11
285.471
21
-11.5824
0
LINE
8
Red 2
10
285.471
20
-11.5824
11
285.725
21
-11.5824
0
LINE
8
Red 2
10
285.725
20
-11.5824
11
285.852
21
-11.5062
0
LINE
8
Red 2
10
285.852
20
-11.5062
11
285.902
21
-11.4554
0
LINE
8
Red 2
10
285.902
20
-11.4554
11
285.979
21
-11.3284
0
LINE
8
Red 2
10
285.979
20
-11.3284
11
285.979
21
-11.0236
0
LINE
8
Red 2
10
285.979
20
-11.0236
11
285.902
21
-10.8966
0
LINE
8
Red 2
10
285.902
20
-10.8966
11
285.852
21
-10.8204
0
LINE
8
Red 2
10
285.852
20
-10.8204
11
285.725
21
-10.7696
0
LINE
8
Red 2
10
285.725
20
-10.7696
11
285.471
21
-10.7696
0
LINE
8
Red 2
10
285.471
20
-10.7696
11
285.369
21
-10.8204
0
LINE
8
Red 2
10
285.369
20
-10.8204
11
285.293
21
-10.8966
0
LINE
8
Red 2
10
285.293
20
-10.8966
11
285.242
21
-11.0236
0
LINE
8
Red 2
10
59.9948
20
-198.018
11
59.9948
21
-200
0
LINE
8
Red 2
10
110.007
20
-198.018
11
110.007
21
-200
0
LINE
8
Red 2
10
159.995
20
-198.018
11
159.995
21
-200
0
LINE
8
Red 2
10
210.007
20
-198.018
11
210.007
21
-200
0
LINE
8
Red 2
10
259.994
20
-198.018
11
259.994
21
-200
0
LINE
8
Red 2
10
35.9918
20
-199.593
11
35.2552
21
-199.593
0
LINE
8
Red 2
10
35.6108
20
-199.593
11
35.6108
21
-198.298
0
LINE
8
Red 2
10
35.6108
20
-198.298
11
35.4838
21
-198.476
0
LINE
8
Red 2
10
35.4838
20
-198.476
11
35.3822
21
-198.603
0
LINE
8
Red 2
10
35.3822
20
-198.603
11
35.2552
21
-198.653
0
LINE
8
Red 2
10
85.2424
20
-198.399
11
85.2932
21
-198.349
0
LINE
8
Red 2
10
85.2932
20
-198.349
11
85.4202
21
-198.298
0
LINE
8
Red 2
10
85.4202
20
-198.298
11
85.725
21
-198.298
0
LINE
8
Red 2
10
85.725
20
-198.298
11
85.852
21
-198.349
0
LINE
8
Red 2
10
85.852
20
-198.349
11
85.9028
21
-198.399
0
LINE
8
Red 2
10
85.9028
20
-198.399
11
85.979
21
-198.526
0
LINE
8
Red 2
10
85.979
20
-198.526
11
85.979
21
-198.653
0
LINE
8
Red 2
10
85.979
20
-198.653
11
85.9028
21
-198.831
0
LINE
8
Red 2
10
85.9028
20
-198.831
11
85.1662
21
-199.593
0
LINE
8
Red 2
10
85.1662
20
-199.593
11
85.979
21
-199.593
0
LINE
8
Red 2
10
135.179
20
-198.298
11
135.992
21
-198.298
0
LINE
8
Red 2
10
135.992
20
-198.298
11
135.56
21
-198.78
0
LINE
8
Red 2
10
135.56
20
-198.78
11
135.738
21
-198.78
0
LINE
8
Red 2
10
135.738
20
-198.78
11
135.865
21
-198.831
0
LINE
8
Red 2
10
135.865
20
-198.831
11
135.915
21
-198.907
0
LINE
8
Red 2
10
135.915
20
-198.907
11
135.992
21
-199.034
0
LINE
8
Red 2
10
135.992
20
-199.034
11
135.992
21
-199.339
0
LINE
8
Red 2
10
135.992
20
-199.339
11
135.915
21
-199.466
0
LINE
8
Red 2
10
135.915
20
-199.466
11
135.865
21
-199.517
0
LINE
8
Red 2
10
135.865
20
-199.517
11
135.738
21
-199.593
0
LINE
8
Red 2
10
135.738
20
-199.593
11
135.382
21
-199.593
0
LINE
8
Red 2
10
135.382
20
-199.593
11
135.255
21
-199.517
0
LINE
8
Red 2
10
135.255
20
-199.517
11
135.179
21
-199.466
0
LINE
8
Red 2
10
185.852
20
-198.73
11
185.852
21
-199.593
0
LINE
8
Red 2
10
185.547
20
-198.222
11
185.242
21
-199.161
0
LINE
8
Red 2
10
185.242
20
-199.161
11
186.03
21
-199.161
0
LINE
8
Red 2
10
235.915
20
-198.298
11
235.306
21
-198.298
0
LINE
8
Red 2
10
235.306
20
-198.298
11
235.255
21
-198.907
0
LINE
8
Red 2
10
235.255
20
-198.907
11
235.306
21
-198.831
0
LINE
8
Red 2
10
235.306
20
-198.831
11
235.433
21
-198.78
0
LINE
8
Red 2
10
235.433
20
-198.78
11
235.737
21
-198.78
0
LINE
8
Red 2
10
235.737
20
-198.78
11
235.864
21
-198.831
0
LINE
8
Red 2
10
235.864
20
-198.831
11
235.915
21
-198.907
0
LINE
8
Red 2
10
235.915
20
-198.907
11
235.991
21
-199.034
0
LINE
8
Red 2
10
235.991
20
-199.034
11
235.991
21
-199.339
0
LINE
8
Red 2
10
235.991
20
-199.339
11
235.915
21
-199.466
0
LINE
8
Red 2
10
235.915
20
-199.466
11
235.864
21
-199.517
0
LINE
8
Red 2
10
235.864
20
-199.517
11
235.737
21
-199.593
0
LINE
8
Red 2
10
235.737
20
-199.593
11
235.433
21
-199.593
0
LINE
8
Red 2
10
235.433
20
-199.593
11
235.306
21
-199.517
0
LINE
8
Red 2
10
235.306
20
-199.517
11
235.255
21
-199.466
0
LINE
8
Red 2
10
285.852
20
-198.298
11
285.598
21
-198.298
0
LINE
8
Red 2
10
285.598
20
-198.298
11
285.471
21
-198.349
0
LINE
8
Red 2
10
285.471
20
-198.349
11
285.42
21
-198.399
0
LINE
8
Red 2
10
285.42
20
-198.399
11
285.293
21
-198.603
0
LINE
8
Red 2
10
285.293
20
-198.603
11
285.242
21
-198.831
0
LINE
8
Red 2
10
285.242
20
-198.831
11
285.242
21
-199.339
0
LINE
8
Red 2
10
285.242
20
-199.339
11
285.293
21
-199.466
0
LINE
8
Red 2
10
285.293
20
-199.466
11
285.369
21
-199.517
0
LINE
8
Red 2
10
285.369
20
-199.517
11
285.471
21
-199.593
0
LINE
8
Red 2
10
285.471
20
-199.593
11
285.725
21
-199.593
0
LINE
8
Red 2
10
285.725
20
-199.593
11
285.852
21
-199.517
0
LINE
8
Red 2
10
285.852
20
-199.517
11
285.902
21
-199.466
0
LINE
8
Red 2
10
285.902
20
-199.466
11
285.979
21
-199.339
0
LINE
8
Red 2
10
285.979
20
-199.339
11
285.979
21
-199.034
0
LINE
8
Red 2
10
285.979
20
-199.034
11
285.902
21
-198.907
0
LINE
8
Red 2
10
285.902
20
-198.907
11
285.852
21
-198.831
0
LINE
8
Red 2
10
285.852
20
-198.831
11
285.725
21
-198.78
0
LINE
8
Red 2
10
285.725
20
-198.78
11
285.471
21
-198.78
0
LINE
8
Red 2
10
285.471
20
-198.78
11
285.369
21
-198.831
0
LINE
8
Red 2
10
285.369
20
-198.831
11
285.293
21
-198.907
0
LINE
8
Red 2
10
285.293
20
-198.907
11
285.242
21
-199.034
0
LINE
8
Red 2
10
10.0076
20
-59.9948
11
11.9888
21
-59.9948
0
LINE
8
Red 2
10
10.0076
20
-110.007
11
11.9888
21
-110.007
0
LINE
8
Red 2
10
10.0076
20
-159.995
11
11.9888
21
-159.995
0
LINE
8
Red 2
10
10.6934
20
-35.2044
11
11.303
21
-35.2044
0
LINE
8
Red 2
10
10.5664
20
-35.5854
11
10.9982
21
-34.29
0
LINE
8
Red 2
10
10.9982
20
-34.29
11
11.43
21
-35.5854
0
LINE
8
Red 2
10
11.0998
20
-84.8868
11
11.2776
21
-84.9376
0
LINE
8
Red 2
10
11.2776
20
-84.9376
11
11.3538
21
-85.0138
0
LINE
8
Red 2
10
11.3538
20
-85.0138
11
11.4046
21
-85.1408
0
LINE
8
Red 2
10
11.4046
20
-85.1408
11
11.4046
21
-85.3186
0
LINE
8
Red 2
10
11.4046
20
-85.3186
11
11.3538
21
-85.4456
0
LINE
8
Red 2
10
11.3538
20
-85.4456
11
11.2776
21
-85.4964
0
LINE
8
Red 2
10
11.2776
20
-85.4964
11
11.176
21
-85.5726
0
LINE
8
Red 2
10
11.176
20
-85.5726
11
10.668
21
-85.5726
0
LINE
8
Red 2
10
10.668
20
-85.5726
11
10.668
21
-84.2772
0
LINE
8
Red 2
10
10.668
20
-84.2772
11
11.0998
21
-84.2772
0
LINE
8
Red 2
10
11.0998
20
-84.2772
11
11.2268
21
-84.328
0
LINE
8
Red 2
10
11.2268
20
-84.328
11
11.2776
21
-84.3788
0
LINE
8
Red 2
10
11.2776
20
-84.3788
11
11.3538
21
-84.5058
0
LINE
8
Red 2
10
11.3538
20
-84.5058
11
11.3538
21
-84.6328
0
LINE
8
Red 2
10
11.3538
20
-84.6328
11
11.2776
21
-84.7598
0
LINE
8
Red 2
10
11.2776
20
-84.7598
11
11.2268
21
-84.8106
0
LINE
8
Red 2
10
11.2268
20
-84.8106
11
11.0998
21
-84.8868
0
LINE
8
Red 2
10
11.0998
20
-84.8868
11
10.668
21
-84.8868
0
LINE
8
Red 2
10
11.4046
20
-135.458
11
11.3538
21
-135.509
0
LINE
8
Red 2
10
11.3538
20
-135.509
11
11.176
21
-135.585
0
LINE
8
Red 2
10
11.176
20
-135.585
11
11.049
21
-135.585
0
LINE
8
Red 2
10
11.049
20
-135.585
11
10.8458
21
-135.509
0
LINE
8
Red 2
10
10.8458
20
-135.509
11
10.7442
21
-135.382
0
LINE
8
Red 2
10
10.7442
20
-135.382
11
10.668
21
-135.255
0
LINE
8
Red 2
10
10.668
20
-135.255
11
10.6172
21
-135.026
0
LINE
8
Red 2
10
10.6172
20
-135.026
11
10.6172
21
-134.823
0
LINE
8
Red 2
10
10.6172
20
-134.823
11
10.668
21
-134.595
0
LINE
8
Red 2
10
10.668
20
-134.595
11
10.7442
21
-134.468
0
LINE
8
Red 2
10
10.7442
20
-134.468
11
10.8458
21
-134.341
0
LINE
8
Red 2
10
10.8458
20
-134.341
11
11.049
21
-134.29
0
LINE
8
Red 2
10
11.049
20
-134.29
11
11.176
21
-134.29
0
LINE
8
Red 2
10
11.176
20
-134.29
11
11.3538
21
-134.341
0
LINE
8
Red 2
10
11.3538
20
-134.341
11
11.4046
21
-134.391
0
LINE
8
Red 2
10
10.668
20
-185.572
11
10.668
21
-184.277
0
LINE
8
Red 2
10
10.668
20
-184.277
11
10.9728
21
-184.277
0
LINE
8
Red 2
10
10.9728
20
-184.277
11
11.176
21
-184.328
0
LINE
8
Red 2
10
11.176
20
-184.328
11
11.2776
21
-184.455
0
LINE
8
Red 2
10
11.2776
20
-184.455
11
11.3538
21
-184.582
0
LINE
8
Red 2
10
11.3538
20
-184.582
11
11.4046
21
-184.81
0
LINE
8
Red 2
10
11.4046
20
-184.81
11
11.4046
21
-185.014
0
LINE
8
Red 2
10
11.4046
20
-185.014
11
11.3538
21
-185.242
0
LINE
8
Red 2
10
11.3538
20
-185.242
11
11.2776
21
-185.369
0
LINE
8
Red 2
10
11.2776
20
-185.369
11
11.176
21
-185.496
0
LINE
8
Red 2
10
11.176
20
-185.496
11
10.9728
21
-185.572
0
LINE
8
Red 2
10
10.9728
20
-185.572
11
10.668
21
-185.572
0
LINE
8
Red 2
10
286.995
20
-59.9948
11
285.013
21
-59.9948
0
LINE
8
Red 2
10
286.995
20
-110.007
11
285.013
21
-110.007
0
LINE
8
Red 2
10
286.995
20
-159.995
11
285.013
21
-159.995
0
LINE
8
Red 2
10
285.699
20
-35.2044
11
286.309
21
-35.2044
0
LINE
8
Red 2
10
285.572
20
-35.5854
11
286.004
21
-34.29
0
LINE
8
Red 2
10
286.004
20
-34.29
11
286.436
21
-35.5854
0
LINE
8
Red 2
10
286.106
20
-84.8868
11
286.283
21
-84.9376
0
LINE
8
Red 2
10
286.283
20
-84.9376
11
286.36
21
-85.0138
0
LINE
8
Red 2
10
286.36
20
-85.0138
11
286.41
21
-85.1408
0
LINE
8
Red 2
10
286.41
20
-85.1408
11
286.41
21
-85.3186
0
LINE
8
Red 2
10
286.41
20
-85.3186
11
286.36
21
-85.4456
0
LINE
8
Red 2
10
286.36
20
-85.4456
11
286.283
21
-85.4964
0
LINE
8
Red 2
10
286.283
20
-85.4964
11
286.182
21
-85.5726
0
LINE
8
Red 2
10
286.182
20
-85.5726
11
285.674
21
-85.5726
0
LINE
8
Red 2
10
285.674
20
-85.5726
11
285.674
21
-84.2772
0
LINE
8
Red 2
10
285.674
20
-84.2772
11
286.106
21
-84.2772
0
LINE
8
Red 2
10
286.106
20
-84.2772
11
286.233
21
-84.328
0
LINE
8
Red 2
10
286.233
20
-84.328
11
286.283
21
-84.3788
0
LINE
8
Red 2
10
286.283
20
-84.3788
11
286.36
21
-84.5058
0
LINE
8
Red 2
10
286.36
20
-84.5058
11
286.36
21
-84.6328
0
LINE
8
Red 2
10
286.36
20
-84.6328
11
286.283
21
-84.7598
0
LINE
8
Red 2
10
286.283
20
-84.7598
11
286.233
21
-84.8106
0
LINE
8
Red 2
10
286.233
20
-84.8106
11
286.106
21
-84.8868
0
LINE
8
Red 2
10
286.106
20
-84.8868
11
285.674
21
-84.8868
0
LINE
8
Red 2
10
286.41
20
-135.458
11
286.36
21
-135.509
0
LINE
8
Red 2
10
286.36
20
-135.509
11
286.182
21
-135.585
0
LINE
8
Red 2
10
286.182
20
-135.585
11
286.055
21
-135.585
0
LINE
8
Red 2
10
286.055
20
-135.585
11
285.852
21
-135.509
0
LINE
8
Red 2
10
285.852
20
-135.509
11
285.75
21
-135.382
0
LINE
8
Red 2
10
285.75
20
-135.382
11
285.674
21
-135.255
0
LINE
8
Red 2
10
285.674
20
-135.255
11
285.623
21
-135.026
0
LINE
8
Red 2
10
285.623
20
-135.026
11
285.623
21
-134.823
0
LINE
8
Red 2
10
285.623
20
-134.823
11
285.674
21
-134.595
0
LINE
8
Red 2
10
285.674
20
-134.595
11
285.75
21
-134.468
0
LINE
8
Red 2
10
285.75
20
-134.468
11
285.852
21
-134.341
0
LINE
8
Red 2
10
285.852
20
-134.341
11
286.055
21
-134.29
0
LINE
8
Red 2
10
286.055
20
-134.29
11
286.182
21
-134.29
0
LINE
8
Red 2
10
286.182
20
-134.29
11
286.36
21
-134.341
0
LINE
8
Red 2
10
286.36
20
-134.341
11
286.41
21
-134.391
0
LINE
8
Red 2
10
285.674
20
-185.572
11
285.674
21
-184.277
0
LINE
8
Red 2
10
285.674
20
-184.277
11
285.979
21
-184.277
0
LINE
8
Red 2
10
285.979
20
-184.277
11
286.182
21
-184.328
0
LINE
8
Red 2
10
286.182
20
-184.328
11
286.283
21
-184.455
0
LINE
8
Red 2
10
286.283
20
-184.455
11
286.36
21
-184.582
0
LINE
8
Red 2
10
286.36
20
-184.582
11
286.41
21
-184.81
0
LINE
8
Red 2
10
286.41
20
-184.81
11
286.41
21
-185.014
0
LINE
8
Red 2
10
286.41
20
-185.014
11
286.36
21
-185.242
0
LINE
8
Red 2
10
286.36
20
-185.242
11
286.283
21
-185.369
0
LINE
8
Red 2
10
286.283
20
-185.369
11
286.182
21
-185.496
0
LINE
8
Red 2
10
286.182
20
-185.496
11
285.979
21
-185.572
0
LINE
8
Red 2
10
285.979
20
-185.572
11
285.674
21
-185.572
0
LINE
8
Red 2
10
200.355
20
-193.777
11
200.355
21
-192.278
0
LINE
8
Red 2
10
200.355
20
-192.278
11
200.711
21
-192.278
0
LINE
8
Red 2
10
200.711
20
-192.278
11
200.939
21
-192.354
0
LINE
8
Red 2
10
200.939
20
-192.354
11
201.066
21
-192.507
0
LINE
8
Red 2
10
201.066
20
-192.507
11
201.143
21
-192.634
0
LINE
8
Red 2
10
201.143
20
-192.634
11
201.219
21
-192.913
0
LINE
8
Red 2
10
201.219
20
-192.913
11
201.219
21
-193.142
0
LINE
8
Red 2
10
201.219
20
-193.142
11
201.143
21
-193.421
0
LINE
8
Red 2
10
201.143
20
-193.421
11
201.066
21
-193.573
0
LINE
8
Red 2
10
201.066
20
-193.573
11
200.939
21
-193.7
0
LINE
8
Red 2
10
200.939
20
-193.7
11
200.711
21
-193.777
0
LINE
8
Red 2
10
200.711
20
-193.777
11
200.355
21
-193.777
0
LINE
8
Red 2
10
202.489
20
-193.777
11
202.489
21
-192.989
0
LINE
8
Red 2
10
202.489
20
-192.989
11
202.438
21
-192.862
0
LINE
8
Red 2
10
202.438
20
-192.862
11
202.286
21
-192.786
0
LINE
8
Red 2
10
202.286
20
-192.786
11
202.006
21
-192.786
0
LINE
8
Red 2
10
202.006
20
-192.786
11
201.854
21
-192.862
0
LINE
8
Red 2
10
202.489
20
-193.7
11
202.362
21
-193.777
0
LINE
8
Red 2
10
202.362
20
-193.777
11
202.006
21
-193.777
0
LINE
8
Red 2
10
202.006
20
-193.777
11
201.854
21
-193.7
0
LINE
8
Red 2
10
201.854
20
-193.7
11
201.778
21
-193.573
0
LINE
8
Red 2
10
201.778
20
-193.573
11
201.778
21
-193.421
0
LINE
8
Red 2
10
201.778
20
-193.421
11
201.854
21
-193.294
0
LINE
8
Red 2
10
201.854
20
-193.294
11
202.006
21
-193.218
0
LINE
8
Red 2
10
202.006
20
-193.218
11
202.362
21
-193.218
0
LINE
8
Red 2
10
202.362
20
-193.218
11
202.489
21
-193.142
0
LINE
8
Red 2
10
202.997
20
-192.786
11
203.556
21
-192.786
0
LINE
8
Red 2
10
203.2
20
-192.278
11
203.2
21
-193.573
0
LINE
8
Red 2
10
203.2
20
-193.573
11
203.276
21
-193.7
0
LINE
8
Red 2
10
203.276
20
-193.7
11
203.403
21
-193.777
0
LINE
8
Red 2
10
203.403
20
-193.777
11
203.556
21
-193.777
0
LINE
8
Red 2
10
204.648
20
-193.7
11
204.495
21
-193.777
0
LINE
8
Red 2
10
204.495
20
-193.777
11
204.216
21
-193.777
0
LINE
8
Red 2
10
204.216
20
-193.777
11
204.064
21
-193.7
0
LINE
8
Red 2
10
204.064
20
-193.7
11
203.987
21
-193.573
0
LINE
8
Red 2
10
203.987
20
-193.573
11
203.987
21
-192.989
0
LINE
8
Red 2
10
203.987
20
-192.989
11
204.064
21
-192.862
0
LINE
8
Red 2
10
204.064
20
-192.862
11
204.216
21
-192.786
0
LINE
8
Red 2
10
204.216
20
-192.786
11
204.495
21
-192.786
0
LINE
8
Red 2
10
204.495
20
-192.786
11
204.648
21
-192.862
0
LINE
8
Red 2
10
204.648
20
-192.862
11
204.699
21
-192.989
0
LINE
8
Red 2
10
204.699
20
-192.989
11
204.699
21
-193.142
0
LINE
8
Red 2
10
204.699
20
-193.142
11
203.987
21
-193.294
0
LINE
8
Red 2
10
205.359
20
-193.65
11
205.435
21
-193.7
0
LINE
8
Red 2
10
205.435
20
-193.7
11
205.359
21
-193.777
0
LINE
8
Red 2
10
205.359
20
-193.777
11
205.283
21
-193.7
0
LINE
8
Red 2
10
205.283
20
-193.7
11
205.359
21
-193.65
0
LINE
8
Red 2
10
205.359
20
-193.65
11
205.359
21
-193.777
0
LINE
8
Red 2
10
205.359
20
-192.862
11
205.435
21
-192.913
0
LINE
8
Red 2
10
205.435
20
-192.913
11
205.359
21
-192.989
0
LINE
8
Red 2
10
205.359
20
-192.989
11
205.283
21
-192.913
0
LINE
8
Red 2
10
205.283
20
-192.913
11
205.359
21
-192.862
0
LINE
8
Red 2
10
205.359
20
-192.862
11
205.359
21
-192.989
0
LINE
8
Red 2
10
177.013
20
-194.513
11
285.013
21
-194.513
0
LINE
8
Red 2
10
178.359
20
-196.571
11
178.359
21
-195.072
0
LINE
8
Red 2
10
179.222
20
-196.571
11
178.562
21
-195.707
0
LINE
8
Red 2
10
179.222
20
-195.072
11
178.359
21
-195.936
0
LINE
8
Red 2
10
179.857
20
-196.571
11
179.857
21
-195.58
0
LINE
8
Red 2
10
179.857
20
-195.072
11
179.781
21
-195.148
0
LINE
8
Red 2
10
179.781
20
-195.148
11
179.857
21
-195.224
0
LINE
8
Red 2
10
179.857
20
-195.224
11
179.934
21
-195.148
0
LINE
8
Red 2
10
179.934
20
-195.148
11
179.857
21
-195.072
0
LINE
8
Red 2
10
179.857
20
-195.072
11
179.857
21
-195.224
0
LINE
8
Red 2
10
181.432
20
-196.444
11
181.356
21
-196.494
0
LINE
8
Red 2
10
181.356
20
-196.494
11
181.153
21
-196.571
0
LINE
8
Red 2
10
181.153
20
-196.571
11
181
21
-196.571
0
LINE
8
Red 2
10
181
20
-196.571
11
180.772
21
-196.494
0
LINE
8
Red 2
10
180.772
20
-196.494
11
180.645
21
-196.367
0
LINE
8
Red 2
10
180.645
20
-196.367
11
180.569
21
-196.215
0
LINE
8
Red 2
10
180.569
20
-196.215
11
180.492
21
-195.936
0
LINE
8
Red 2
10
180.492
20
-195.936
11
180.492
21
-195.707
0
LINE
8
Red 2
10
180.492
20
-195.707
11
180.569
21
-195.428
0
LINE
8
Red 2
10
180.569
20
-195.428
11
180.645
21
-195.301
0
LINE
8
Red 2
10
180.645
20
-195.301
11
180.772
21
-195.148
0
LINE
8
Red 2
10
180.772
20
-195.148
11
181
21
-195.072
0
LINE
8
Red 2
10
181
20
-195.072
11
181.153
21
-195.072
0
LINE
8
Red 2
10
181.153
20
-195.072
11
181.356
21
-195.148
0
LINE
8
Red 2
10
181.356
20
-195.148
11
181.432
21
-195.224
0
LINE
8
Red 2
10
182.702
20
-196.571
11
182.702
21
-195.783
0
LINE
8
Red 2
10
182.702
20
-195.783
11
182.651
21
-195.656
0
LINE
8
Red 2
10
182.651
20
-195.656
11
182.499
21
-195.58
0
LINE
8
Red 2
10
182.499
20
-195.58
11
182.22
21
-195.58
0
LINE
8
Red 2
10
182.22
20
-195.58
11
182.067
21
-195.656
0
LINE
8
Red 2
10
182.702
20
-196.494
11
182.575
21
-196.571
0
LINE
8
Red 2
10
182.575
20
-196.571
11
182.22
21
-196.571
0
LINE
8
Red 2
10
182.22
20
-196.571
11
182.067
21
-196.494
0
LINE
8
Red 2
10
182.067
20
-196.494
11
181.991
21
-196.367
0
LINE
8
Red 2
10
181.991
20
-196.367
11
181.991
21
-196.215
0
LINE
8
Red 2
10
181.991
20
-196.215
11
182.067
21
-196.088
0
LINE
8
Red 2
10
182.067
20
-196.088
11
182.22
21
-196.012
0
LINE
8
Red 2
10
182.22
20
-196.012
11
182.575
21
-196.012
0
LINE
8
Red 2
10
182.575
20
-196.012
11
182.702
21
-195.936
0
LINE
8
Red 2
10
184.048
20
-196.571
11
184.048
21
-195.072
0
LINE
8
Red 2
10
184.048
20
-196.494
11
183.921
21
-196.571
0
LINE
8
Red 2
10
183.921
20
-196.571
11
183.617
21
-196.571
0
LINE
8
Red 2
10
183.617
20
-196.571
11
183.49
21
-196.494
0
LINE
8
Red 2
10
183.49
20
-196.494
11
183.413
21
-196.444
0
LINE
8
Red 2
10
183.413
20
-196.444
11
183.337
21
-196.291
0
LINE
8
Red 2
10
183.337
20
-196.291
11
183.337
21
-195.859
0
LINE
8
Red 2
10
183.337
20
-195.859
11
183.413
21
-195.707
0
LINE
8
Red 2
10
183.413
20
-195.707
11
183.49
21
-195.656
0
LINE
8
Red 2
10
183.49
20
-195.656
11
183.617
21
-195.58
0
LINE
8
Red 2
10
183.617
20
-195.58
11
183.921
21
-195.58
0
LINE
8
Red 2
10
183.921
20
-195.58
11
184.048
21
-195.656
0
LINE
8
Red 2
10
185.903
20
-195.783
11
186.411
21
-195.783
0
LINE
8
Red 2
10
186.614
20
-196.571
11
185.903
21
-196.571
0
LINE
8
Red 2
10
185.903
20
-196.571
11
185.903
21
-195.072
0
LINE
8
Red 2
10
185.903
20
-195.072
11
186.614
21
-195.072
0
LINE
8
Red 2
10
187.249
20
-196.444
11
187.325
21
-196.494
0
LINE
8
Red 2
10
187.325
20
-196.494
11
187.249
21
-196.571
0
LINE
8
Red 2
10
187.249
20
-196.571
11
187.173
21
-196.494
0
LINE
8
Red 2
10
187.173
20
-196.494
11
187.249
21
-196.444
0
LINE
8
Red 2
10
187.249
20
-196.444
11
187.249
21
-196.571
0
LINE
8
Red 2
10
187.96
20
-196.571
11
187.96
21
-195.072
0
LINE
8
Red 2
10
187.96
20
-195.072
11
188.316
21
-195.072
0
LINE
8
Red 2
10
188.316
20
-195.072
11
188.544
21
-195.148
0
LINE
8
Red 2
10
188.544
20
-195.148
11
188.671
21
-195.301
0
LINE
8
Red 2
10
188.671
20
-195.301
11
188.747
21
-195.428
0
LINE
8
Red 2
10
188.747
20
-195.428
11
188.824
21
-195.707
0
LINE
8
Red 2
10
188.824
20
-195.707
11
188.824
21
-195.936
0
LINE
8
Red 2
10
188.824
20
-195.936
11
188.747
21
-196.215
0
LINE
8
Red 2
10
188.747
20
-196.215
11
188.671
21
-196.367
0
LINE
8
Red 2
10
188.671
20
-196.367
11
188.544
21
-196.494
0
LINE
8
Red 2
10
188.544
20
-196.494
11
188.316
21
-196.571
0
LINE
8
Red 2
10
188.316
20
-196.571
11
187.96
21
-196.571
0
LINE
8
Red 2
10
189.459
20
-196.444
11
189.535
21
-196.494
0
LINE
8
Red 2
10
189.535
20
-196.494
11
189.459
21
-196.571
0
LINE
8
Red 2
10
189.459
20
-196.571
11
189.382
21
-196.494
0
LINE
8
Red 2
10
189.382
20
-196.494
11
189.459
21
-196.444
0
LINE
8
Red 2
10
189.459
20
-196.444
11
189.459
21
-196.571
0
LINE
8
Red 2
10
190.094
20
-196.139
11
190.805
21
-196.139
0
LINE
8
Red 2
10
189.967
20
-196.571
11
190.449
21
-195.072
0
LINE
8
Red 2
10
190.449
20
-195.072
11
190.957
21
-196.571
0
LINE
8
Red 2
10
191.465
20
-196.444
11
191.541
21
-196.494
0
LINE
8
Red 2
10
191.541
20
-196.494
11
191.465
21
-196.571
0
LINE
8
Red 2
10
191.465
20
-196.571
11
191.389
21
-196.494
0
LINE
8
Red 2
10
191.389
20
-196.494
11
191.465
21
-196.444
0
LINE
8
Red 2
10
191.465
20
-196.444
11
191.465
21
-196.571
0
LINE
8
Red 2
10
194.462
20
-196.571
11
194.462
21
-195.072
0
LINE
8
Red 2
10
194.615
20
-196.012
11
195.047
21
-196.571
0
LINE
8
Red 2
10
195.047
20
-195.58
11
194.462
21
-196.139
0
LINE
8
Red 2
10
195.682
20
-196.571
11
195.682
21
-195.58
0
LINE
8
Red 2
10
195.682
20
-195.072
11
195.605
21
-195.148
0
LINE
8
Red 2
10
195.605
20
-195.148
11
195.682
21
-195.224
0
LINE
8
Red 2
10
195.682
20
-195.224
11
195.758
21
-195.148
0
LINE
8
Red 2
10
195.758
20
-195.148
11
195.682
21
-195.072
0
LINE
8
Red 2
10
195.682
20
-195.072
11
195.682
21
-195.224
0
LINE
8
Red 2
10
197.028
20
-196.494
11
196.901
21
-196.571
0
LINE
8
Red 2
10
196.901
20
-196.571
11
196.596
21
-196.571
0
LINE
8
Red 2
10
196.596
20
-196.571
11
196.469
21
-196.494
0
LINE
8
Red 2
10
196.469
20
-196.494
11
196.393
21
-196.444
0
LINE
8
Red 2
10
196.393
20
-196.444
11
196.317
21
-196.291
0
LINE
8
Red 2
10
196.317
20
-196.291
11
196.317
21
-195.859
0
LINE
8
Red 2
10
196.317
20
-195.859
11
196.393
21
-195.707
0
LINE
8
Red 2
10
196.393
20
-195.707
11
196.469
21
-195.656
0
LINE
8
Red 2
10
196.469
20
-195.656
11
196.596
21
-195.58
0
LINE
8
Red 2
10
196.596
20
-195.58
11
196.901
21
-195.58
0
LINE
8
Red 2
10
196.901
20
-195.58
11
197.028
21
-195.656
0
LINE
8
Red 2
10
198.323
20
-196.571
11
198.323
21
-195.783
0
LINE
8
Red 2
10
198.323
20
-195.783
11
198.272
21
-195.656
0
LINE
8
Red 2
10
198.272
20
-195.656
11
198.12
21
-195.58
0
LINE
8
Red 2
10
198.12
20
-195.58
11
197.841
21
-195.58
0
LINE
8
Red 2
10
197.841
20
-195.58
11
197.688
21
-195.656
0
LINE
8
Red 2
10
198.323
20
-196.494
11
198.196
21
-196.571
0
LINE
8
Red 2
10
198.196
20
-196.571
11
197.841
21
-196.571
0
LINE
8
Red 2
10
197.841
20
-196.571
11
197.688
21
-196.494
0
LINE
8
Red 2
10
197.688
20
-196.494
11
197.612
21
-196.367
0
LINE
8
Red 2
10
197.612
20
-196.367
11
197.612
21
-196.215
0
LINE
8
Red 2
10
197.612
20
-196.215
11
197.688
21
-196.088
0
LINE
8
Red 2
10
197.688
20
-196.088
11
197.841
21
-196.012
0
LINE
8
Red 2
10
197.841
20
-196.012
11
198.196
21
-196.012
0
LINE
8
Red 2
10
198.196
20
-196.012
11
198.323
21
-195.936
0
LINE
8
Red 2
10
199.669
20
-196.571
11
199.669
21
-195.072
0
LINE
8
Red 2
10
199.669
20
-196.494
11
199.542
21
-196.571
0
LINE
8
Red 2
10
199.542
20
-196.571
11
199.238
21
-196.571
0
LINE
8
Red 2
10
199.238
20
-196.571
11
199.111
21
-196.494
0
LINE
8
Red 2
10
199.111
20
-196.494
11
199.034
21
-196.444
0
LINE
8
Red 2
10
199.034
20
-196.444
11
198.958
21
-196.291
0
LINE
8
Red 2
10
198.958
20
-196.291
11
198.958
21
-195.859
0
LINE
8
Red 2
10
198.958
20
-195.859
11
199.034
21
-195.707
0
LINE
8
Red 2
10
199.034
20
-195.707
11
199.111
21
-195.656
0
LINE
8
Red 2
10
199.111
20
-195.656
11
199.238
21
-195.58
0
LINE
8
Red 2
10
199.238
20
-195.58
11
199.542
21
-195.58
0
LINE
8
Red 2
10
199.542
20
-195.58
11
199.669
21
-195.656
0
LINE
8
Red 2
10
202.159
20
-195.58
11
202.159
21
-196.571
0
LINE
8
Red 2
10
201.803
20
-194.996
11
201.447
21
-196.088
0
LINE
8
Red 2
10
201.447
20
-196.088
11
202.387
21
-196.088
0
LINE
8
Red 2
10
202.946
20
-196.444
11
203.022
21
-196.494
0
LINE
8
Red 2
10
203.022
20
-196.494
11
202.946
21
-196.571
0
LINE
8
Red 2
10
202.946
20
-196.571
11
202.87
21
-196.494
0
LINE
8
Red 2
10
202.87
20
-196.494
11
202.946
21
-196.444
0
LINE
8
Red 2
10
202.946
20
-196.444
11
202.946
21
-196.571
0
LINE
8
Red 2
10
203.937
20
-195.072
11
204.089
21
-195.072
0
LINE
8
Red 2
10
204.089
20
-195.072
11
204.241
21
-195.148
0
LINE
8
Red 2
10
204.241
20
-195.148
11
204.292
21
-195.224
0
LINE
8
Red 2
10
204.292
20
-195.224
11
204.368
21
-195.351
0
LINE
8
Red 2
10
204.368
20
-195.351
11
204.445
21
-195.656
0
LINE
8
Red 2
10
204.445
20
-195.656
11
204.445
21
-196.012
0
LINE
8
Red 2
10
204.445
20
-196.012
11
204.368
21
-196.291
0
LINE
8
Red 2
10
204.368
20
-196.291
11
204.292
21
-196.444
0
LINE
8
Red 2
10
204.292
20
-196.444
11
204.241
21
-196.494
0
LINE
8
Red 2
10
204.241
20
-196.494
11
204.089
21
-196.571
0
LINE
8
Red 2
10
204.089
20
-196.571
11
203.937
21
-196.571
0
LINE
8
Red 2
10
203.937
20
-196.571
11
203.81
21
-196.494
0
LINE
8
Red 2
10
203.81
20
-196.494
11
203.733
21
-196.444
0
LINE
8
Red 2
10
203.733
20
-196.444
11
203.657
21
-196.291
0
LINE
8
Red 2
10
203.657
20
-196.291
11
203.581
21
-196.012
0
LINE
8
Red 2
10
203.581
20
-196.012
11
203.581
21
-195.656
0
LINE
8
Red 2
10
203.581
20
-195.656
11
203.657
21
-195.351
0
LINE
8
Red 2
10
203.657
20
-195.351
11
203.733
21
-195.224
0
LINE
8
Red 2
10
203.733
20
-195.224
11
203.81
21
-195.148
0
LINE
8
Red 2
10
203.81
20
-195.148
11
203.937
21
-195.072
0
LINE
8
Red 2
10
205.08
20
-196.444
11
205.156
21
-196.494
0
LINE
8
Red 2
10
205.156
20
-196.494
11
205.08
21
-196.571
0
LINE
8
Red 2
10
205.08
20
-196.571
11
205.003
21
-196.494
0
LINE
8
Red 2
10
205.003
20
-196.494
11
205.08
21
-196.444
0
LINE
8
Red 2
10
205.08
20
-196.444
11
205.08
21
-196.571
0
LINE
8
Red 2
10
205.638
20
-195.072
11
206.654
21
-195.072
0
LINE
8
Red 2
10
206.654
20
-195.072
11
205.994
21
-196.571
0
LINE
8
Red 2
10
177.013
20
-191.516
11
285.013
21
-191.516
0
LINE
8
Red 2
10
264.211
20
-193.777
11
263.703
21
-193.065
0
LINE
8
Red 2
10
263.347
20
-193.777
11
263.347
21
-192.278
0
LINE
8
Red 2
10
263.347
20
-192.278
11
263.931
21
-192.278
0
LINE
8
Red 2
10
263.931
20
-192.278
11
264.058
21
-192.354
0
LINE
8
Red 2
10
264.058
20
-192.354
11
264.135
21
-192.43
0
LINE
8
Red 2
10
264.135
20
-192.43
11
264.211
21
-192.557
0
LINE
8
Red 2
10
264.211
20
-192.557
11
264.211
21
-192.786
0
LINE
8
Red 2
10
264.211
20
-192.786
11
264.135
21
-192.913
0
LINE
8
Red 2
10
264.135
20
-192.913
11
264.058
21
-192.989
0
LINE
8
Red 2
10
264.058
20
-192.989
11
263.931
21
-193.065
0
LINE
8
Red 2
10
263.931
20
-193.065
11
263.347
21
-193.065
0
LINE
8
Red 2
10
265.43
20
-193.7
11
265.278
21
-193.777
0
LINE
8
Red 2
10
265.278
20
-193.777
11
264.998
21
-193.777
0
LINE
8
Red 2
10
264.998
20
-193.777
11
264.846
21
-193.7
0
LINE
8
Red 2
10
264.846
20
-193.7
11
264.77
21
-193.573
0
LINE
8
Red 2
10
264.77
20
-193.573
11
264.77
21
-192.989
0
LINE
8
Red 2
10
264.77
20
-192.989
11
264.846
21
-192.862
0
LINE
8
Red 2
10
264.846
20
-192.862
11
264.998
21
-192.786
0
LINE
8
Red 2
10
264.998
20
-192.786
11
265.278
21
-192.786
0
LINE
8
Red 2
10
265.278
20
-192.786
11
265.43
21
-192.862
0
LINE
8
Red 2
10
265.43
20
-192.862
11
265.481
21
-192.989
0
LINE
8
Red 2
10
265.481
20
-192.989
11
265.481
21
-193.142
0
LINE
8
Red 2
10
265.481
20
-193.142
11
264.77
21
-193.294
0
LINE
8
Red 2
10
265.989
20
-192.786
11
266.344
21
-193.777
0
LINE
8
Red 2
10
266.344
20
-193.777
11
266.725
21
-192.786
0
LINE
8
Red 2
10
267.284
20
-193.65
11
267.36
21
-193.7
0
LINE
8
Red 2
10
267.36
20
-193.7
11
267.284
21
-193.777
0
LINE
8
Red 2
10
267.284
20
-193.777
11
267.208
21
-193.7
0
LINE
8
Red 2
10
267.208
20
-193.7
11
267.284
21
-193.65
0
LINE
8
Red 2
10
267.284
20
-193.65
11
267.284
21
-193.777
0
LINE
8
Red 2
10
267.284
20
-192.862
11
267.36
21
-192.913
0
LINE
8
Red 2
10
267.36
20
-192.913
11
267.284
21
-192.989
0
LINE
8
Red 2
10
267.284
20
-192.989
11
267.208
21
-192.913
0
LINE
8
Red 2
10
267.208
20
-192.913
11
267.284
21
-192.862
0
LINE
8
Red 2
10
267.284
20
-192.862
11
267.284
21
-192.989
0
LINE
8
Red 2
10
178.283
20
-193.7
11
178.511
21
-193.777
0
LINE
8
Red 2
10
178.511
20
-193.777
11
178.867
21
-193.777
0
LINE
8
Red 2
10
178.867
20
-193.777
11
178.994
21
-193.7
0
LINE
8
Red 2
10
178.994
20
-193.7
11
179.07
21
-193.65
0
LINE
8
Red 2
10
179.07
20
-193.65
11
179.146
21
-193.497
0
LINE
8
Red 2
10
179.146
20
-193.497
11
179.146
21
-193.345
0
LINE
8
Red 2
10
179.146
20
-193.345
11
179.07
21
-193.218
0
LINE
8
Red 2
10
179.07
20
-193.218
11
178.994
21
-193.142
0
LINE
8
Red 2
10
178.994
20
-193.142
11
178.867
21
-193.065
0
LINE
8
Red 2
10
178.867
20
-193.065
11
178.562
21
-192.989
0
LINE
8
Red 2
10
178.562
20
-192.989
11
178.435
21
-192.913
0
LINE
8
Red 2
10
178.435
20
-192.913
11
178.359
21
-192.862
0
LINE
8
Red 2
10
178.359
20
-192.862
11
178.283
21
-192.71
0
LINE
8
Red 2
10
178.283
20
-192.71
11
178.283
21
-192.557
0
LINE
8
Red 2
10
178.283
20
-192.557
11
178.359
21
-192.43
0
LINE
8
Red 2
10
178.359
20
-192.43
11
178.435
21
-192.354
0
LINE
8
Red 2
10
178.435
20
-192.354
11
178.562
21
-192.278
0
LINE
8
Red 2
10
178.562
20
-192.278
11
178.943
21
-192.278
0
LINE
8
Red 2
10
178.943
20
-192.278
11
179.146
21
-192.354
0
LINE
8
Red 2
10
179.781
20
-193.777
11
179.781
21
-192.786
0
LINE
8
Red 2
10
179.781
20
-192.278
11
179.705
21
-192.354
0
LINE
8
Red 2
10
179.705
20
-192.354
11
179.781
21
-192.43
0
LINE
8
Red 2
10
179.781
20
-192.43
11
179.857
21
-192.354
0
LINE
8
Red 2
10
179.857
20
-192.354
11
179.781
21
-192.278
0
LINE
8
Red 2
10
179.781
20
-192.278
11
179.781
21
-192.43
0
LINE
8
Red 2
10
180.34
20
-192.786
11
181.127
21
-192.786
0
LINE
8
Red 2
10
181.127
20
-192.786
11
180.34
21
-193.777
0
LINE
8
Red 2
10
180.34
20
-193.777
11
181.127
21
-193.777
0
LINE
8
Red 2
10
182.296
20
-193.7
11
182.143
21
-193.777
0
LINE
8
Red 2
10
182.143
20
-193.777
11
181.864
21
-193.777
0
LINE
8
Red 2
10
181.864
20
-193.777
11
181.712
21
-193.7
0
LINE
8
Red 2
10
181.712
20
-193.7
11
181.635
21
-193.573
0
LINE
8
Red 2
10
181.635
20
-193.573
11
181.635
21
-192.989
0
LINE
8
Red 2
10
181.635
20
-192.989
11
181.712
21
-192.862
0
LINE
8
Red 2
10
181.712
20
-192.862
11
181.864
21
-192.786
0
LINE
8
Red 2
10
181.864
20
-192.786
11
182.143
21
-192.786
0
LINE
8
Red 2
10
182.143
20
-192.786
11
182.296
21
-192.862
0
LINE
8
Red 2
10
182.296
20
-192.862
11
182.347
21
-192.989
0
LINE
8
Red 2
10
182.347
20
-192.989
11
182.347
21
-193.142
0
LINE
8
Red 2
10
182.347
20
-193.142
11
181.635
21
-193.294
0
LINE
8
Red 2
10
183.007
20
-193.65
11
183.083
21
-193.7
0
LINE
8
Red 2
10
183.083
20
-193.7
11
183.007
21
-193.777
0
LINE
8
Red 2
10
183.007
20
-193.777
11
182.931
21
-193.7
0
LINE
8
Red 2
10
182.931
20
-193.7
11
183.007
21
-193.65
0
LINE
8
Red 2
10
183.007
20
-193.65
11
183.007
21
-193.777
0
LINE
8
Red 2
10
183.007
20
-192.862
11
183.083
21
-192.913
0
LINE
8
Red 2
10
183.083
20
-192.913
11
183.007
21
-192.989
0
LINE
8
Red 2
10
183.007
20
-192.989
11
182.931
21
-192.913
0
LINE
8
Red 2
10
182.931
20
-192.913
11
183.007
21
-192.862
0
LINE
8
Red 2
10
183.007
20
-192.862
11
183.007
21
-192.989
0
LINE
8
Red 2
10
184.785
20
-193.345
11
185.496
21
-193.345
0
LINE
8
Red 2
10
184.658
20
-193.777
11
185.141
21
-192.278
0
LINE
8
Red 2
10
185.141
20
-192.278
11
185.649
21
-193.777
0
LINE
8
Red 2
10
186.792
20
-192.786
11
186.792
21
-193.777
0
LINE
8
Red 2
10
186.436
20
-192.202
11
186.08
21
-193.294
0
LINE
8
Red 2
10
186.08
20
-193.294
11
187.02
21
-193.294
0
LINE
8
Red 2
10
263.347
20
-196.571
11
263.347
21
-195.072
0
LINE
8
Red 2
10
264.693
20
-196.571
11
264.693
21
-195.072
0
LINE
8
Red 2
10
264.693
20
-196.494
11
264.566
21
-196.571
0
LINE
8
Red 2
10
264.566
20
-196.571
11
264.262
21
-196.571
0
LINE
8
Red 2
10
264.262
20
-196.571
11
264.135
21
-196.494
0
LINE
8
Red 2
10
264.135
20
-196.494
11
264.058
21
-196.444
0
LINE
8
Red 2
10
264.058
20
-196.444
11
263.982
21
-196.291
0
LINE
8
Red 2
10
263.982
20
-196.291
11
263.982
21
-195.859
0
LINE
8
Red 2
10
263.982
20
-195.859
11
264.058
21
-195.707
0
LINE
8
Red 2
10
264.058
20
-195.707
11
264.135
21
-195.656
0
LINE
8
Red 2
10
264.135
20
-195.656
11
264.262
21
-195.58
0
LINE
8
Red 2
10
264.262
20
-195.58
11
264.566
21
-195.58
0
LINE
8
Red 2
10
264.566
20
-195.58
11
264.693
21
-195.656
0
LINE
8
Red 2
10
265.405
20
-196.444
11
265.481
21
-196.494
0
LINE
8
Red 2
10
265.481
20
-196.494
11
265.405
21
-196.571
0
LINE
8
Red 2
10
265.405
20
-196.571
11
265.328
21
-196.494
0
LINE
8
Red 2
10
265.328
20
-196.494
11
265.405
21
-196.444
0
LINE
8
Red 2
10
265.405
20
-196.444
11
265.405
21
-196.571
0
LINE
8
Red 2
10
265.405
20
-195.656
11
265.481
21
-195.707
0
LINE
8
Red 2
10
265.481
20
-195.707
11
265.405
21
-195.783
0
LINE
8
Red 2
10
265.405
20
-195.783
11
265.328
21
-195.707
0
LINE
8
Red 2
10
265.328
20
-195.707
11
265.405
21
-195.656
0
LINE
8
Red 2
10
265.405
20
-195.656
11
265.405
21
-195.783
0
LINE
8
Red 2
10
268.046
20
-196.571
11
267.183
21
-196.571
0
LINE
8
Red 2
10
267.614
20
-196.571
11
267.614
21
-195.072
0
LINE
8
Red 2
10
267.614
20
-195.072
11
267.462
21
-195.301
0
LINE
8
Red 2
10
267.462
20
-195.301
11
267.335
21
-195.428
0
LINE
8
Red 2
10
267.335
20
-195.428
11
267.183
21
-195.504
0
LINE
8
Red 2
10
269.748
20
-194.996
11
268.478
21
-196.926
0
LINE
8
Red 2
10
271.043
20
-196.571
11
270.18
21
-196.571
0
LINE
8
Red 2
10
270.612
20
-196.571
11
270.612
21
-195.072
0
LINE
8
Red 2
10
270.612
20
-195.072
11
270.459
21
-195.301
0
LINE
8
Red 2
10
270.459
20
-195.301
11
270.332
21
-195.428
0
LINE
8
Red 2
10
270.332
20
-195.428
11
270.18
21
-195.504
0
LINE
8
Red 2
10
177.013
20
-187.503
11
285.013
21
-187.503
0
LINE
8
Red 2
10
178.46
20
-188.189
11
179.603
21
-188.189
0
LINE
8
Red 2
10
178.791
20
-190.195
11
179.019
21
-188.189
0
LINE
8
Red 2
10
180.035
20
-190.195
11
180.188
21
-188.874
0
LINE
8
Red 2
10
180.264
20
-188.189
11
180.162
21
-188.29
0
LINE
8
Red 2
10
180.162
20
-188.29
11
180.238
21
-188.392
0
LINE
8
Red 2
10
180.238
20
-188.392
11
180.365
21
-188.29
0
LINE
8
Red 2
10
180.365
20
-188.29
11
180.264
21
-188.189
0
LINE
8
Red 2
10
180.264
20
-188.189
11
180.238
21
-188.392
0
LINE
8
Red 2
10
180.873
20
-188.874
11
181.635
21
-188.874
0
LINE
8
Red 2
10
181.229
20
-188.189
11
181.026
21
-189.916
0
LINE
8
Red 2
10
181.026
20
-189.916
11
181.102
21
-190.094
0
LINE
8
Red 2
10
181.102
20
-190.094
11
181.28
21
-190.195
0
LINE
8
Red 2
10
181.28
20
-190.195
11
181.483
21
-190.195
0
LINE
8
Red 2
10
182.423
20
-190.195
11
182.245
21
-190.094
0
LINE
8
Red 2
10
182.245
20
-190.094
11
182.169
21
-189.916
0
LINE
8
Red 2
10
182.169
20
-189.916
11
182.372
21
-188.189
0
LINE
8
Red 2
10
183.947
20
-190.094
11
183.744
21
-190.195
0
LINE
8
Red 2
10
183.744
20
-190.195
11
183.363
21
-190.195
0
LINE
8
Red 2
10
183.363
20
-190.195
11
183.185
21
-190.094
0
LINE
8
Red 2
10
183.185
20
-190.094
11
183.109
21
-189.916
0
LINE
8
Red 2
10
183.109
20
-189.916
11
183.21
21
-189.154
0
LINE
8
Red 2
10
183.21
20
-189.154
11
183.337
21
-188.951
0
LINE
8
Red 2
10
183.337
20
-188.951
11
183.515
21
-188.874
0
LINE
8
Red 2
10
183.515
20
-188.874
11
183.896
21
-188.874
0
LINE
8
Red 2
10
183.896
20
-188.874
11
184.099
21
-188.951
0
LINE
8
Red 2
10
184.099
20
-188.951
11
184.175
21
-189.154
0
LINE
8
Red 2
10
184.175
20
-189.154
11
184.15
21
-189.332
0
LINE
8
Red 2
10
184.15
20
-189.332
11
183.159
21
-189.535
0
LINE
8
Red 2
10
184.912
20
-190.017
11
185.014
21
-190.094
0
LINE
8
Red 2
10
185.014
20
-190.094
11
184.912
21
-190.195
0
LINE
8
Red 2
10
184.912
20
-190.195
11
184.81
21
-190.094
0
LINE
8
Red 2
10
184.81
20
-190.094
11
184.912
21
-190.017
0
LINE
8
Red 2
10
184.912
20
-190.017
11
184.912
21
-190.195
0
LINE
8
Red 2
10
185.064
20
-188.951
11
185.141
21
-189.052
0
LINE
8
Red 2
10
185.141
20
-189.052
11
185.039
21
-189.154
0
LINE
8
Red 2
10
185.039
20
-189.154
11
184.937
21
-189.052
0
LINE
8
Red 2
10
184.937
20
-189.052
11
185.064
21
-188.951
0
LINE
8
Red 2
10
185.064
20
-188.951
11
185.039
21
-189.154
0
LINE
8
Red 2
10
178.867
20
-185.572
11
178.359
21
-185.572
0
LINE
8
Red 2
10
178.359
20
-186.36
11
178.359
21
-184.861
0
LINE
8
Red 2
10
178.359
20
-184.861
11
179.07
21
-184.861
0
LINE
8
Red 2
10
179.654
20
-186.36
11
179.654
21
-185.369
0
LINE
8
Red 2
10
179.654
20
-184.861
11
179.578
21
-184.937
0
LINE
8
Red 2
10
179.578
20
-184.937
11
179.654
21
-185.014
0
LINE
8
Red 2
10
179.654
20
-185.014
11
179.73
21
-184.937
0
LINE
8
Red 2
10
179.73
20
-184.937
11
179.654
21
-184.861
0
LINE
8
Red 2
10
179.654
20
-184.861
11
179.654
21
-185.014
0
LINE
8
Red 2
10
180.569
20
-186.36
11
180.442
21
-186.284
0
LINE
8
Red 2
10
180.442
20
-186.284
11
180.365
21
-186.157
0
LINE
8
Red 2
10
180.365
20
-186.157
11
180.365
21
-184.861
0
LINE
8
Red 2
10
181.737
20
-186.284
11
181.585
21
-186.36
0
LINE
8
Red 2
10
181.585
20
-186.36
11
181.305
21
-186.36
0
LINE
8
Red 2
10
181.305
20
-186.36
11
181.153
21
-186.284
0
LINE
8
Red 2
10
181.153
20
-186.284
11
181.077
21
-186.157
0
LINE
8
Red 2
10
181.077
20
-186.157
11
181.077
21
-185.572
0
LINE
8
Red 2
10
181.077
20
-185.572
11
181.153
21
-185.445
0
LINE
8
Red 2
10
181.153
20
-185.445
11
181.305
21
-185.369
0
LINE
8
Red 2
10
181.305
20
-185.369
11
181.585
21
-185.369
0
LINE
8
Red 2
10
181.585
20
-185.369
11
181.737
21
-185.445
0
LINE
8
Red 2
10
181.737
20
-185.445
11
181.788
21
-185.572
0
LINE
8
Red 2
10
181.788
20
-185.572
11
181.788
21
-185.725
0
LINE
8
Red 2
10
181.788
20
-185.725
11
181.077
21
-185.877
0
LINE
8
Red 2
10
182.448
20
-186.233
11
182.524
21
-186.284
0
LINE
8
Red 2
10
182.524
20
-186.284
11
182.448
21
-186.36
0
LINE
8
Red 2
10
182.448
20
-186.36
11
182.372
21
-186.284
0
LINE
8
Red 2
10
182.372
20
-186.284
11
182.448
21
-186.233
0
LINE
8
Red 2
10
182.448
20
-186.233
11
182.448
21
-186.36
0
LINE
8
Red 2
10
182.448
20
-185.445
11
182.524
21
-185.496
0
LINE
8
Red 2
10
182.524
20
-185.496
11
182.448
21
-185.572
0
LINE
8
Red 2
10
182.448
20
-185.572
11
182.372
21
-185.496
0
LINE
8
Red 2
10
182.372
20
-185.496
11
182.448
21
-185.445
0
LINE
8
Red 2
10
182.448
20
-185.445
11
182.448
21
-185.572
0
LINE
8
Red 2
10
184.226
20
-186.284
11
184.455
21
-186.36
0
LINE
8
Red 2
10
184.455
20
-186.36
11
184.81
21
-186.36
0
LINE
8
Red 2
10
184.81
20
-186.36
11
184.937
21
-186.284
0
LINE
8
Red 2
10
184.937
20
-186.284
11
185.014
21
-186.233
0
LINE
8
Red 2
10
185.014
20
-186.233
11
185.09
21
-186.08
0
LINE
8
Red 2
10
185.09
20
-186.08
11
185.09
21
-185.928
0
LINE
8
Red 2
10
185.09
20
-185.928
11
185.014
21
-185.801
0
LINE
8
Red 2
10
185.014
20
-185.801
11
184.937
21
-185.725
0
LINE
8
Red 2
10
184.937
20
-185.725
11
184.81
21
-185.649
0
LINE
8
Red 2
10
184.81
20
-185.649
11
184.506
21
-185.572
0
LINE
8
Red 2
10
184.506
20
-185.572
11
184.379
21
-185.496
0
LINE
8
Red 2
10
184.379
20
-185.496
11
184.302
21
-185.445
0
LINE
8
Red 2
10
184.302
20
-185.445
11
184.226
21
-185.293
0
LINE
8
Red 2
10
184.226
20
-185.293
11
184.226
21
-185.141
0
LINE
8
Red 2
10
184.226
20
-185.141
11
184.302
21
-185.014
0
LINE
8
Red 2
10
184.302
20
-185.014
11
184.379
21
-184.937
0
LINE
8
Red 2
10
184.379
20
-184.937
11
184.506
21
-184.861
0
LINE
8
Red 2
10
184.506
20
-184.861
11
184.887
21
-184.861
0
LINE
8
Red 2
10
184.887
20
-184.861
11
185.09
21
-184.937
0
LINE
8
Red 2
10
185.725
20
-186.36
11
185.725
21
-185.369
0
LINE
8
Red 2
10
185.725
20
-184.861
11
185.649
21
-184.937
0
LINE
8
Red 2
10
185.649
20
-184.937
11
185.725
21
-185.014
0
LINE
8
Red 2
10
185.725
20
-185.014
11
185.801
21
-184.937
0
LINE
8
Red 2
10
185.801
20
-184.937
11
185.725
21
-184.861
0
LINE
8
Red 2
10
185.725
20
-184.861
11
185.725
21
-185.014
0
LINE
8
Red 2
10
186.436
20
-185.369
11
186.436
21
-186.36
0
LINE
8
Red 2
10
186.436
20
-185.496
11
186.512
21
-185.445
0
LINE
8
Red 2
10
186.512
20
-185.445
11
186.639
21
-185.369
0
LINE
8
Red 2
10
186.639
20
-185.369
11
186.868
21
-185.369
0
LINE
8
Red 2
10
186.868
20
-185.369
11
187.02
21
-185.445
0
LINE
8
Red 2
10
187.02
20
-185.445
11
187.071
21
-185.572
0
LINE
8
Red 2
10
187.071
20
-185.572
11
187.071
21
-186.36
0
LINE
8
Red 2
10
188.417
20
-185.369
11
188.417
21
-186.588
0
LINE
8
Red 2
10
188.417
20
-186.588
11
188.366
21
-186.715
0
LINE
8
Red 2
10
188.366
20
-186.715
11
188.29
21
-186.792
0
LINE
8
Red 2
10
188.29
20
-186.792
11
188.138
21
-186.868
0
LINE
8
Red 2
10
188.138
20
-186.868
11
187.935
21
-186.868
0
LINE
8
Red 2
10
187.935
20
-186.868
11
187.782
21
-186.792
0
LINE
8
Red 2
10
188.417
20
-186.284
11
188.29
21
-186.36
0
LINE
8
Red 2
10
188.29
20
-186.36
11
187.985
21
-186.36
0
LINE
8
Red 2
10
187.985
20
-186.36
11
187.858
21
-186.284
0
LINE
8
Red 2
10
187.858
20
-186.284
11
187.782
21
-186.233
0
LINE
8
Red 2
10
187.782
20
-186.233
11
187.706
21
-186.08
0
LINE
8
Red 2
10
187.706
20
-186.08
11
187.706
21
-185.649
0
LINE
8
Red 2
10
187.706
20
-185.649
11
187.782
21
-185.496
0
LINE
8
Red 2
10
187.782
20
-185.496
11
187.858
21
-185.445
0
LINE
8
Red 2
10
187.858
20
-185.445
11
187.985
21
-185.369
0
LINE
8
Red 2
10
187.985
20
-185.369
11
188.29
21
-185.369
0
LINE
8
Red 2
10
188.29
20
-185.369
11
188.417
21
-185.445
0
LINE
8
Red 2
10
189.332
20
-186.36
11
189.205
21
-186.284
0
LINE
8
Red 2
10
189.205
20
-186.284
11
189.128
21
-186.157
0
LINE
8
Red 2
10
189.128
20
-186.157
11
189.128
21
-184.861
0
LINE
8
Red 2
10
190.5
20
-186.284
11
190.348
21
-186.36
0
LINE
8
Red 2
10
190.348
20
-186.36
11
190.068
21
-186.36
0
LINE
8
Red 2
10
190.068
20
-186.36
11
189.916
21
-186.284
0
LINE
8
Red 2
10
189.916
20
-186.284
11
189.84
21
-186.157
0
LINE
8
Red 2
10
189.84
20
-186.157
11
189.84
21
-185.572
0
LINE
8
Red 2
10
189.84
20
-185.572
11
189.916
21
-185.445
0
LINE
8
Red 2
10
189.916
20
-185.445
11
190.068
21
-185.369
0
LINE
8
Red 2
10
190.068
20
-185.369
11
190.348
21
-185.369
0
LINE
8
Red 2
10
190.348
20
-185.369
11
190.5
21
-185.445
0
LINE
8
Red 2
10
190.5
20
-185.445
11
190.551
21
-185.572
0
LINE
8
Red 2
10
190.551
20
-185.572
11
190.551
21
-185.725
0
LINE
8
Red 2
10
190.551
20
-185.725
11
189.84
21
-185.877
0
LINE
8
Red 2
10
190.856
20
-186.512
11
191.999
21
-186.512
0
LINE
8
Red 2
10
192.151
20
-185.369
11
192.71
21
-185.369
0
LINE
8
Red 2
10
192.354
20
-184.861
11
192.354
21
-186.157
0
LINE
8
Red 2
10
192.354
20
-186.157
11
192.43
21
-186.284
0
LINE
8
Red 2
10
192.43
20
-186.284
11
192.557
21
-186.36
0
LINE
8
Red 2
10
192.557
20
-186.36
11
192.71
21
-186.36
0
LINE
8
Red 2
10
193.218
20
-186.36
11
193.218
21
-185.369
0
LINE
8
Red 2
10
193.218
20
-185.649
11
193.294
21
-185.496
0
LINE
8
Red 2
10
193.294
20
-185.496
11
193.37
21
-185.445
0
LINE
8
Red 2
10
193.37
20
-185.445
11
193.497
21
-185.369
0
LINE
8
Red 2
10
193.497
20
-185.369
11
193.65
21
-185.369
0
LINE
8
Red 2
10
194.793
20
-186.36
11
194.793
21
-185.572
0
LINE
8
Red 2
10
194.793
20
-185.572
11
194.742
21
-185.445
0
LINE
8
Red 2
10
194.742
20
-185.445
11
194.589
21
-185.369
0
LINE
8
Red 2
10
194.589
20
-185.369
11
194.31
21
-185.369
0
LINE
8
Red 2
10
194.31
20
-185.369
11
194.158
21
-185.445
0
LINE
8
Red 2
10
194.793
20
-186.284
11
194.666
21
-186.36
0
LINE
8
Red 2
10
194.666
20
-186.36
11
194.31
21
-186.36
0
LINE
8
Red 2
10
194.31
20
-186.36
11
194.158
21
-186.284
0
LINE
8
Red 2
10
194.158
20
-186.284
11
194.081
21
-186.157
0
LINE
8
Red 2
10
194.081
20
-186.157
11
194.081
21
-186.004
0
LINE
8
Red 2
10
194.081
20
-186.004
11
194.158
21
-185.877
0
LINE
8
Red 2
10
194.158
20
-185.877
11
194.31
21
-185.801
0
LINE
8
Red 2
10
194.31
20
-185.801
11
194.666
21
-185.801
0
LINE
8
Red 2
10
194.666
20
-185.801
11
194.793
21
-185.725
0
LINE
8
Red 2
10
195.504
20
-185.369
11
195.504
21
-186.36
0
LINE
8
Red 2
10
195.504
20
-185.496
11
195.58
21
-185.445
0
LINE
8
Red 2
10
195.58
20
-185.445
11
195.707
21
-185.369
0
LINE
8
Red 2
10
195.707
20
-185.369
11
195.936
21
-185.369
0
LINE
8
Red 2
10
195.936
20
-185.369
11
196.088
21
-185.445
0
LINE
8
Red 2
10
196.088
20
-185.445
11
196.139
21
-185.572
0
LINE
8
Red 2
10
196.139
20
-185.572
11
196.139
21
-186.36
0
LINE
8
Red 2
10
196.774
20
-186.284
11
196.926
21
-186.36
0
LINE
8
Red 2
10
196.926
20
-186.36
11
197.206
21
-186.36
0
LINE
8
Red 2
10
197.206
20
-186.36
11
197.358
21
-186.284
0
LINE
8
Red 2
10
197.358
20
-186.284
11
197.434
21
-186.157
0
LINE
8
Red 2
10
197.434
20
-186.157
11
197.434
21
-186.08
0
LINE
8
Red 2
10
197.434
20
-186.08
11
197.358
21
-185.928
0
LINE
8
Red 2
10
197.358
20
-185.928
11
197.206
21
-185.877
0
LINE
8
Red 2
10
197.206
20
-185.877
11
197.002
21
-185.877
0
LINE
8
Red 2
10
197.002
20
-185.877
11
196.85
21
-185.801
0
LINE
8
Red 2
10
196.85
20
-185.801
11
196.774
21
-185.649
0
LINE
8
Red 2
10
196.774
20
-185.649
11
196.774
21
-185.572
0
LINE
8
Red 2
10
196.774
20
-185.572
11
196.85
21
-185.445
0
LINE
8
Red 2
10
196.85
20
-185.445
11
197.002
21
-185.369
0
LINE
8
Red 2
10
197.002
20
-185.369
11
197.206
21
-185.369
0
LINE
8
Red 2
10
197.206
20
-185.369
11
197.358
21
-185.445
0
LINE
8
Red 2
10
198.069
20
-186.36
11
198.069
21
-185.369
0
LINE
8
Red 2
10
198.069
20
-184.861
11
197.993
21
-184.937
0
LINE
8
Red 2
10
197.993
20
-184.937
11
198.069
21
-185.014
0
LINE
8
Red 2
10
198.069
20
-185.014
11
198.145
21
-184.937
0
LINE
8
Red 2
10
198.145
20
-184.937
11
198.069
21
-184.861
0
LINE
8
Red 2
10
198.069
20
-184.861
11
198.069
21
-185.014
0
LINE
8
Red 2
10
198.704
20
-186.284
11
198.857
21
-186.36
0
LINE
8
Red 2
10
198.857
20
-186.36
11
199.136
21
-186.36
0
LINE
8
Red 2
10
199.136
20
-186.36
11
199.288
21
-186.284
0
LINE
8
Red 2
10
199.288
20
-186.284
11
199.365
21
-186.157
0
LINE
8
Red 2
10
199.365
20
-186.157
11
199.365
21
-186.08
0
LINE
8
Red 2
10
199.365
20
-186.08
11
199.288
21
-185.928
0
LINE
8
Red 2
10
199.288
20
-185.928
11
199.136
21
-185.877
0
LINE
8
Red 2
10
199.136
20
-185.877
11
198.933
21
-185.877
0
LINE
8
Red 2
10
198.933
20
-185.877
11
198.78
21
-185.801
0
LINE
8
Red 2
10
198.78
20
-185.801
11
198.704
21
-185.649
0
LINE
8
Red 2
10
198.704
20
-185.649
11
198.704
21
-185.572
0
LINE
8
Red 2
10
198.704
20
-185.572
11
198.78
21
-185.445
0
LINE
8
Red 2
10
198.78
20
-185.445
11
198.933
21
-185.369
0
LINE
8
Red 2
10
198.933
20
-185.369
11
199.136
21
-185.369
0
LINE
8
Red 2
10
199.136
20
-185.369
11
199.288
21
-185.445
0
LINE
8
Red 2
10
199.796
20
-185.369
11
200.355
21
-185.369
0
LINE
8
Red 2
10
200
20
-184.861
11
200
21
-186.157
0
LINE
8
Red 2
10
200
20
-186.157
11
200.076
21
-186.284
0
LINE
8
Red 2
10
200.076
20
-186.284
11
200.203
21
-186.36
0
LINE
8
Red 2
10
200.203
20
-186.36
11
200.355
21
-186.36
0
LINE
8
Red 2
10
201.066
20
-186.36
11
200.939
21
-186.284
0
LINE
8
Red 2
10
200.939
20
-186.284
11
200.863
21
-186.233
0
LINE
8
Red 2
10
200.863
20
-186.233
11
200.787
21
-186.08
0
LINE
8
Red 2
10
200.787
20
-186.08
11
200.787
21
-185.649
0
LINE
8
Red 2
10
200.787
20
-185.649
11
200.863
21
-185.496
0
LINE
8
Red 2
10
200.863
20
-185.496
11
200.939
21
-185.445
0
LINE
8
Red 2
10
200.939
20
-185.445
11
201.066
21
-185.369
0
LINE
8
Red 2
10
201.066
20
-185.369
11
201.295
21
-185.369
0
LINE
8
Red 2
10
201.295
20
-185.369
11
201.447
21
-185.445
0
LINE
8
Red 2
10
201.447
20
-185.445
11
201.498
21
-185.496
0
LINE
8
Red 2
10
201.498
20
-185.496
11
201.574
21
-185.649
0
LINE
8
Red 2
10
201.574
20
-185.649
11
201.574
21
-186.08
0
LINE
8
Red 2
10
201.574
20
-186.08
11
201.498
21
-186.233
0
LINE
8
Red 2
10
201.498
20
-186.233
11
201.447
21
-186.284
0
LINE
8
Red 2
10
201.447
20
-186.284
11
201.295
21
-186.36
0
LINE
8
Red 2
10
201.295
20
-186.36
11
201.066
21
-186.36
0
LINE
8
Red 2
10
202.209
20
-186.36
11
202.209
21
-185.369
0
LINE
8
Red 2
10
202.209
20
-185.649
11
202.286
21
-185.496
0
LINE
8
Red 2
10
202.286
20
-185.496
11
202.362
21
-185.445
0
LINE
8
Red 2
10
202.362
20
-185.445
11
202.489
21
-185.369
0
LINE
8
Red 2
10
202.489
20
-185.369
11
202.641
21
-185.369
0
LINE
8
Red 2
10
202.794
20
-186.512
11
203.937
21
-186.512
0
LINE
8
Red 2
10
204.216
20
-185.928
11
204.927
21
-185.928
0
LINE
8
Red 2
10
204.089
20
-186.36
11
204.572
21
-184.861
0
LINE
8
Red 2
10
204.572
20
-184.861
11
205.08
21
-186.36
0
LINE
8
Red 2
10
205.588
20
-186.36
11
205.588
21
-184.861
0
LINE
8
Red 2
10
205.588
20
-184.861
11
206.096
21
-185.928
0
LINE
8
Red 2
10
206.096
20
-185.928
11
206.578
21
-184.861
0
LINE
8
Red 2
10
206.578
20
-184.861
11
206.578
21
-186.36
0
LINE
8
Red 2
10
207.289
20
-186.36
11
207.289
21
-184.861
0
LINE
8
Red 2
10
207.289
20
-184.861
11
207.874
21
-184.861
0
LINE
8
Red 2
10
207.874
20
-184.861
11
208.001
21
-184.937
0
LINE
8
Red 2
10
208.001
20
-184.937
11
208.077
21
-185.014
0
LINE
8
Red 2
10
208.077
20
-185.014
11
208.153
21
-185.141
0
LINE
8
Red 2
10
208.153
20
-185.141
11
208.153
21
-185.369
0
LINE
8
Red 2
10
208.153
20
-185.369
11
208.077
21
-185.496
0
LINE
8
Red 2
10
208.077
20
-185.496
11
208.001
21
-185.572
0
LINE
8
Red 2
10
208.001
20
-185.572
11
207.874
21
-185.649
0
LINE
8
Red 2
10
207.874
20
-185.649
11
207.289
21
-185.649
0
LINE
8
Red 2
10
208.432
20
-186.512
11
209.575
21
-186.512
0
LINE
8
Red 2
10
209.931
20
-186.36
11
209.931
21
-185.369
0
LINE
8
Red 2
10
209.931
20
-185.496
11
210.007
21
-185.445
0
LINE
8
Red 2
10
210.007
20
-185.445
11
210.134
21
-185.369
0
LINE
8
Red 2
10
210.134
20
-185.369
11
210.363
21
-185.369
0
LINE
8
Red 2
10
210.363
20
-185.369
11
210.515
21
-185.445
0
LINE
8
Red 2
10
210.515
20
-185.445
11
210.566
21
-185.572
0
LINE
8
Red 2
10
210.566
20
-185.572
11
210.566
21
-186.36
0
LINE
8
Red 2
10
210.566
20
-185.572
11
210.642
21
-185.445
0
LINE
8
Red 2
10
210.642
20
-185.445
11
210.795
21
-185.369
0
LINE
8
Red 2
10
210.795
20
-185.369
11
210.998
21
-185.369
0
LINE
8
Red 2
10
210.998
20
-185.369
11
211.15
21
-185.445
0
LINE
8
Red 2
10
211.15
20
-185.445
11
211.226
21
-185.572
0
LINE
8
Red 2
10
211.226
20
-185.572
11
211.226
21
-186.36
0
LINE
8
Red 2
10
211.938
20
-186.36
11
211.938
21
-185.369
0
LINE
8
Red 2
10
211.938
20
-184.861
11
211.861
21
-184.937
0
LINE
8
Red 2
10
211.861
20
-184.937
11
211.938
21
-185.014
0
LINE
8
Red 2
10
211.938
20
-185.014
11
212.014
21
-184.937
0
LINE
8
Red 2
10
212.014
20
-184.937
11
211.938
21
-184.861
0
LINE
8
Red 2
10
211.938
20
-184.861
11
211.938
21
-185.014
0
LINE
8
Red 2
10
213.284
20
-186.284
11
213.157
21
-186.36
0
LINE
8
Red 2
10
213.157
20
-186.36
11
212.852
21
-186.36
0
LINE
8
Red 2
10
212.852
20
-186.36
11
212.725
21
-186.284
0
LINE
8
Red 2
10
212.725
20
-186.284
11
212.649
21
-186.233
0
LINE
8
Red 2
10
212.649
20
-186.233
11
212.573
21
-186.08
0
LINE
8
Red 2
10
212.573
20
-186.08
11
212.573
21
-185.649
0
LINE
8
Red 2
10
212.573
20
-185.649
11
212.649
21
-185.496
0
LINE
8
Red 2
10
212.649
20
-185.496
11
212.725
21
-185.445
0
LINE
8
Red 2
10
212.725
20
-185.445
11
212.852
21
-185.369
0
LINE
8
Red 2
10
212.852
20
-185.369
11
213.157
21
-185.369
0
LINE
8
Red 2
10
213.157
20
-185.369
11
213.284
21
-185.445
0
LINE
8
Red 2
10
214.579
20
-185.369
11
214.579
21
-186.36
0
LINE
8
Red 2
10
213.944
20
-185.369
11
213.944
21
-186.157
0
LINE
8
Red 2
10
213.944
20
-186.157
11
214.02
21
-186.284
0
LINE
8
Red 2
10
214.02
20
-186.284
11
214.147
21
-186.36
0
LINE
8
Red 2
10
214.147
20
-186.36
11
214.376
21
-186.36
0
LINE
8
Red 2
10
214.376
20
-186.36
11
214.528
21
-186.284
0
LINE
8
Red 2
10
214.528
20
-186.284
11
214.579
21
-186.233
0
LINE
8
Red 2
10
215.494
20
-186.36
11
215.367
21
-186.284
0
LINE
8
Red 2
10
215.367
20
-186.284
11
215.29
21
-186.157
0
LINE
8
Red 2
10
215.29
20
-186.157
11
215.29
21
-184.861
0
LINE
8
Red 2
10
216.078
20
-186.36
11
216.078
21
-185.369
0
LINE
8
Red 2
10
216.078
20
-184.861
11
216.002
21
-184.937
0
LINE
8
Red 2
10
216.002
20
-184.937
11
216.078
21
-185.014
0
LINE
8
Red 2
10
216.078
20
-185.014
11
216.154
21
-184.937
0
LINE
8
Red 2
10
216.154
20
-184.937
11
216.078
21
-184.861
0
LINE
8
Red 2
10
216.078
20
-184.861
11
216.078
21
-185.014
0
LINE
8
Red 2
10
216.713
20
-186.284
11
216.865
21
-186.36
0
LINE
8
Red 2
10
216.865
20
-186.36
11
217.145
21
-186.36
0
LINE
8
Red 2
10
217.145
20
-186.36
11
217.297
21
-186.284
0
LINE
8
Red 2
10
217.297
20
-186.284
11
217.373
21
-186.157
0
LINE
8
Red 2
10
217.373
20
-186.157
11
217.373
21
-186.08
0
LINE
8
Red 2
10
217.373
20
-186.08
11
217.297
21
-185.928
0
LINE
8
Red 2
10
217.297
20
-185.928
11
217.145
21
-185.877
0
LINE
8
Red 2
10
217.145
20
-185.877
11
216.941
21
-185.877
0
LINE
8
Red 2
10
216.941
20
-185.877
11
216.789
21
-185.801
0
LINE
8
Red 2
10
216.789
20
-185.801
11
216.713
21
-185.649
0
LINE
8
Red 2
10
216.713
20
-185.649
11
216.713
21
-185.572
0
LINE
8
Red 2
10
216.713
20
-185.572
11
216.789
21
-185.445
0
LINE
8
Red 2
10
216.789
20
-185.445
11
216.941
21
-185.369
0
LINE
8
Red 2
10
216.941
20
-185.369
11
217.145
21
-185.369
0
LINE
8
Red 2
10
217.145
20
-185.369
11
217.297
21
-185.445
0
LINE
8
Red 2
10
218.008
20
-186.233
11
218.084
21
-186.284
0
LINE
8
Red 2
10
218.084
20
-186.284
11
218.008
21
-186.36
0
LINE
8
Red 2
10
218.008
20
-186.36
11
217.932
21
-186.284
0
LINE
8
Red 2
10
217.932
20
-186.284
11
218.008
21
-186.233
0
LINE
8
Red 2
10
218.008
20
-186.233
11
218.008
21
-186.36
0
LINE
8
Red 2
10
218.643
20
-186.284
11
218.796
21
-186.36
0
LINE
8
Red 2
10
218.796
20
-186.36
11
219.075
21
-186.36
0
LINE
8
Red 2
10
219.075
20
-186.36
11
219.227
21
-186.284
0
LINE
8
Red 2
10
219.227
20
-186.284
11
219.304
21
-186.157
0
LINE
8
Red 2
10
219.304
20
-186.157
11
219.304
21
-186.08
0
LINE
8
Red 2
10
219.304
20
-186.08
11
219.227
21
-185.928
0
LINE
8
Red 2
10
219.227
20
-185.928
11
219.075
21
-185.877
0
LINE
8
Red 2
10
219.075
20
-185.877
11
218.872
21
-185.877
0
LINE
8
Red 2
10
218.872
20
-185.877
11
218.719
21
-185.801
0
LINE
8
Red 2
10
218.719
20
-185.801
11
218.643
21
-185.649
0
LINE
8
Red 2
10
218.643
20
-185.649
11
218.643
21
-185.572
0
LINE
8
Red 2
10
218.643
20
-185.572
11
218.719
21
-185.445
0
LINE
8
Red 2
10
218.719
20
-185.445
11
218.872
21
-185.369
0
LINE
8
Red 2
10
218.872
20
-185.369
11
219.075
21
-185.369
0
LINE
8
Red 2
10
219.075
20
-185.369
11
219.227
21
-185.445
0
LINE
8
Red 2
10
220.574
20
-186.284
11
220.447
21
-186.36
0
LINE
8
Red 2
10
220.447
20
-186.36
11
220.142
21
-186.36
0
LINE
8
Red 2
10
220.142
20
-186.36
11
220.015
21
-186.284
0
LINE
8
Red 2
10
220.015
20
-186.284
11
219.939
21
-186.233
0
LINE
8
Red 2
10
219.939
20
-186.233
11
219.862
21
-186.08
0
LINE
8
Red 2
10
219.862
20
-186.08
11
219.862
21
-185.649
0
LINE
8
Red 2
10
219.862
20
-185.649
11
219.939
21
-185.496
0
LINE
8
Red 2
10
219.939
20
-185.496
11
220.015
21
-185.445
0
LINE
8
Red 2
10
220.015
20
-185.445
11
220.142
21
-185.369
0
LINE
8
Red 2
10
220.142
20
-185.369
11
220.447
21
-185.369
0
LINE
8
Red 2
10
220.447
20
-185.369
11
220.574
21
-185.445
0
LINE
8
Red 2
10
221.234
20
-186.36
11
221.234
21
-184.861
0
LINE
8
Red 2
10
221.869
20
-186.36
11
221.869
21
-185.572
0
LINE
8
Red 2
10
221.869
20
-185.572
11
221.818
21
-185.445
0
LINE
8
Red 2
10
221.818
20
-185.445
11
221.666
21
-185.369
0
LINE
8
Red 2
10
221.666
20
-185.369
11
221.437
21
-185.369
0
LINE
8
Red 2
10
221.437
20
-185.369
11
221.31
21
-185.445
0
LINE
8
Red 2
10
221.31
20
-185.445
11
221.234
21
-185.496
0
LINE
8
Red 2
10
177.013
20
-181.508
11
285.013
21
-181.508
0
LINE
8
Red 2
10
178.283
20
-183.591
11
178.511
21
-183.667
0
LINE
8
Red 2
10
178.511
20
-183.667
11
178.867
21
-183.667
0
LINE
8
Red 2
10
178.867
20
-183.667
11
178.994
21
-183.591
0
LINE
8
Red 2
10
178.994
20
-183.591
11
179.07
21
-183.54
0
LINE
8
Red 2
10
179.07
20
-183.54
11
179.146
21
-183.388
0
LINE
8
Red 2
10
179.146
20
-183.388
11
179.146
21
-183.236
0
LINE
8
Red 2
10
179.146
20
-183.236
11
179.07
21
-183.109
0
LINE
8
Red 2
10
179.07
20
-183.109
11
178.994
21
-183.032
0
LINE
8
Red 2
10
178.994
20
-183.032
11
178.867
21
-182.956
0
LINE
8
Red 2
10
178.867
20
-182.956
11
178.562
21
-182.88
0
LINE
8
Red 2
10
178.562
20
-182.88
11
178.435
21
-182.804
0
LINE
8
Red 2
10
178.435
20
-182.804
11
178.359
21
-182.753
0
LINE
8
Red 2
10
178.359
20
-182.753
11
178.283
21
-182.601
0
LINE
8
Red 2
10
178.283
20
-182.601
11
178.283
21
-182.448
0
LINE
8
Red 2
10
178.283
20
-182.448
11
178.359
21
-182.321
0
LINE
8
Red 2
10
178.359
20
-182.321
11
178.435
21
-182.245
0
LINE
8
Red 2
10
178.435
20
-182.245
11
178.562
21
-182.169
0
LINE
8
Red 2
10
178.562
20
-182.169
11
178.943
21
-182.169
0
LINE
8
Red 2
10
178.943
20
-182.169
11
179.146
21
-182.245
0
LINE
8
Red 2
10
179.781
20
-183.667
11
179.781
21
-182.169
0
LINE
8
Red 2
10
180.416
20
-183.667
11
180.416
21
-182.88
0
LINE
8
Red 2
10
180.416
20
-182.88
11
180.365
21
-182.753
0
LINE
8
Red 2
10
180.365
20
-182.753
11
180.213
21
-182.677
0
LINE
8
Red 2
10
180.213
20
-182.677
11
179.984
21
-182.677
0
LINE
8
Red 2
10
179.984
20
-182.677
11
179.857
21
-182.753
0
LINE
8
Red 2
10
179.857
20
-182.753
11
179.781
21
-182.804
0
LINE
8
Red 2
10
181.712
20
-183.591
11
181.559
21
-183.667
0
LINE
8
Red 2
10
181.559
20
-183.667
11
181.28
21
-183.667
0
LINE
8
Red 2
10
181.28
20
-183.667
11
181.127
21
-183.591
0
LINE
8
Red 2
10
181.127
20
-183.591
11
181.051
21
-183.464
0
LINE
8
Red 2
10
181.051
20
-183.464
11
181.051
21
-182.88
0
LINE
8
Red 2
10
181.051
20
-182.88
11
181.127
21
-182.753
0
LINE
8
Red 2
10
181.127
20
-182.753
11
181.28
21
-182.677
0
LINE
8
Red 2
10
181.28
20
-182.677
11
181.559
21
-182.677
0
LINE
8
Red 2
10
181.559
20
-182.677
11
181.712
21
-182.753
0
LINE
8
Red 2
10
181.712
20
-182.753
11
181.762
21
-182.88
0
LINE
8
Red 2
10
181.762
20
-182.88
11
181.762
21
-183.032
0
LINE
8
Red 2
10
181.762
20
-183.032
11
181.051
21
-183.185
0
LINE
8
Red 2
10
183.007
20
-183.591
11
182.855
21
-183.667
0
LINE
8
Red 2
10
182.855
20
-183.667
11
182.575
21
-183.667
0
LINE
8
Red 2
10
182.575
20
-183.667
11
182.423
21
-183.591
0
LINE
8
Red 2
10
182.423
20
-183.591
11
182.347
21
-183.464
0
LINE
8
Red 2
10
182.347
20
-183.464
11
182.347
21
-182.88
0
LINE
8
Red 2
10
182.347
20
-182.88
11
182.423
21
-182.753
0
LINE
8
Red 2
10
182.423
20
-182.753
11
182.575
21
-182.677
0
LINE
8
Red 2
10
182.575
20
-182.677
11
182.855
21
-182.677
0
LINE
8
Red 2
10
182.855
20
-182.677
11
183.007
21
-182.753
0
LINE
8
Red 2
10
183.007
20
-182.753
11
183.058
21
-182.88
0
LINE
8
Red 2
10
183.058
20
-182.88
11
183.058
21
-183.032
0
LINE
8
Red 2
10
183.058
20
-183.032
11
182.347
21
-183.185
0
LINE
8
Red 2
10
183.515
20
-182.677
11
184.074
21
-182.677
0
LINE
8
Red 2
10
183.718
20
-182.169
11
183.718
21
-183.464
0
LINE
8
Red 2
10
183.718
20
-183.464
11
183.794
21
-183.591
0
LINE
8
Red 2
10
183.794
20
-183.591
11
183.921
21
-183.667
0
LINE
8
Red 2
10
183.921
20
-183.667
11
184.074
21
-183.667
0
LINE
8
Red 2
10
184.582
20
-183.54
11
184.658
21
-183.591
0
LINE
8
Red 2
10
184.658
20
-183.591
11
184.582
21
-183.667
0
LINE
8
Red 2
10
184.582
20
-183.667
11
184.506
21
-183.591
0
LINE
8
Red 2
10
184.506
20
-183.591
11
184.582
21
-183.54
0
LINE
8
Red 2
10
184.582
20
-183.54
11
184.582
21
-183.667
0
LINE
8
Red 2
10
184.582
20
-182.753
11
184.658
21
-182.804
0
LINE
8
Red 2
10
184.658
20
-182.804
11
184.582
21
-182.88
0
LINE
8
Red 2
10
184.582
20
-182.88
11
184.506
21
-182.804
0
LINE
8
Red 2
10
184.506
20
-182.804
11
184.582
21
-182.753
0
LINE
8
Red 2
10
184.582
20
-182.753
11
184.582
21
-182.88
0
LINE
8
Red 2
10
187.503
20
-182.093
11
186.233
21
-184.023
0
LINE
8
Red 2
10
197.002
20
-191.516
11
197.002
21
-194.513
0
LINE
8
Red 2
10
261.01
20
-191.516
11
261.01
21
-198.018
0
LINE
8
Red 2
10
110.744
20
-58.42
11
110.744
21
-53.34
0
LINE
8
Red 2
10
110.744
20
-53.34
11
112.776
21
-53.34
0
LINE
8
Red 2
10
112.776
20
-53.34
11
112.776
21
-58.42
0
LINE
8
Red 2
10
112.776
20
-58.42
11
110.744
21
-58.42
0
LINE
8
Red 2
10
111.76
20
-53.34
11
111.76
21
-52.07
0
LINE
8
Red 2
10
111.76
20
-58.42
11
111.76
21
-59.69
0
LINE
8
Cyan 2
10
114.452
20
-56.1086
11
113.843
21
-56.515
0
LINE
8
Cyan 2
10
114.452
20
-56.8198
11
113.182
21
-56.8198
0
LINE
8
Cyan 2
10
113.182
20
-56.8198
11
113.182
21
-56.3372
0
LINE
8
Cyan 2
10
113.182
20
-56.3372
11
113.233
21
-56.2102
0
LINE
8
Cyan 2
10
113.233
20
-56.2102
11
113.284
21
-56.1594
0
LINE
8
Cyan 2
10
113.284
20
-56.1594
11
113.411
21
-56.1086
0
LINE
8
Cyan 2
10
113.411
20
-56.1086
11
113.589
21
-56.1086
0
LINE
8
Cyan 2
10
113.589
20
-56.1086
11
113.716
21
-56.1594
0
LINE
8
Cyan 2
10
113.716
20
-56.1594
11
113.767
21
-56.2102
0
LINE
8
Cyan 2
10
113.767
20
-56.2102
11
113.843
21
-56.3372
0
LINE
8
Cyan 2
10
113.843
20
-56.3372
11
113.843
21
-56.8198
0
LINE
8
Cyan 2
10
113.182
20
-55.6768
11
113.182
21
-54.8894
0
LINE
8
Cyan 2
10
113.182
20
-54.8894
11
113.665
21
-55.3212
0
LINE
8
Cyan 2
10
113.665
20
-55.3212
11
113.665
21
-55.118
0
LINE
8
Cyan 2
10
113.665
20
-55.118
11
113.716
21
-55.0164
0
LINE
8
Cyan 2
10
113.716
20
-55.0164
11
113.767
21
-54.9402
0
LINE
8
Cyan 2
10
113.767
20
-54.9402
11
113.894
21
-54.8894
0
LINE
8
Cyan 2
10
113.894
20
-54.8894
11
114.198
21
-54.8894
0
LINE
8
Cyan 2
10
114.198
20
-54.8894
11
114.325
21
-54.9402
0
LINE
8
Cyan 2
10
114.325
20
-54.9402
11
114.376
21
-55.0164
0
LINE
8
Cyan 2
10
114.376
20
-55.0164
11
114.452
21
-55.118
0
LINE
8
Cyan 2
10
114.452
20
-55.118
11
114.452
21
-55.499
0
LINE
8
Cyan 2
10
114.452
20
-55.499
11
114.376
21
-55.6006
0
LINE
8
Cyan 2
10
114.376
20
-55.6006
11
114.325
21
-55.6768
0
LINE
8
Cyan 2
10
111.557
20
-57.0738
11
112.42
21
-57.0738
0
LINE
8
Cyan 2
10
111.074
20
-57.3786
11
111.989
21
-57.658
0
LINE
8
Cyan 2
10
111.989
20
-57.658
11
111.989
21
-56.896
0
LINE
8
Cyan 2
10
112.293
20
-56.388
11
112.344
21
-56.3372
0
LINE
8
Cyan 2
10
112.344
20
-56.3372
11
112.42
21
-56.388
0
LINE
8
Cyan 2
10
112.42
20
-56.388
11
112.344
21
-56.4388
0
LINE
8
Cyan 2
10
112.344
20
-56.4388
11
112.293
21
-56.388
0
LINE
8
Cyan 2
10
112.293
20
-56.388
11
112.42
21
-56.388
0
LINE
8
Cyan 2
10
111.15
20
-55.9054
11
111.15
21
-55.0672
0
LINE
8
Cyan 2
10
111.15
20
-55.0672
11
112.42
21
-55.6006
0
LINE
8
Cyan 2
10
112.42
20
-54.5592
11
111.15
21
-54.5592
0
LINE
8
Cyan 2
10
111.938
20
-54.4322
11
112.42
21
-54.0766
0
LINE
8
Cyan 2
10
111.557
20
-54.0766
11
112.039
21
-54.5592
0
LINE
8
Red 2
10
110.744
20
-83.82
11
110.744
21
-78.74
0
LINE
8
Red 2
10
110.744
20
-78.74
11
112.776
21
-78.74
0
LINE
8
Red 2
10
112.776
20
-78.74
11
112.776
21
-83.82
0
LINE
8
Red 2
10
112.776
20
-83.82
11
110.744
21
-83.82
0
LINE
8
Red 2
10
111.76
20
-78.74
11
111.76
21
-77.47
0
LINE
8
Red 2
10
111.76
20
-83.82
11
111.76
21
-85.09
0
LINE
8
Cyan 2
10
114.452
20
-81.5086
11
113.843
21
-81.915
0
LINE
8
Cyan 2
10
114.452
20
-82.2198
11
113.182
21
-82.2198
0
LINE
8
Cyan 2
10
113.182
20
-82.2198
11
113.182
21
-81.7372
0
LINE
8
Cyan 2
10
113.182
20
-81.7372
11
113.233
21
-81.6102
0
LINE
8
Cyan 2
10
113.233
20
-81.6102
11
113.284
21
-81.5594
0
LINE
8
Cyan 2
10
113.284
20
-81.5594
11
113.411
21
-81.5086
0
LINE
8
Cyan 2
10
113.411
20
-81.5086
11
113.589
21
-81.5086
0
LINE
8
Cyan 2
10
113.589
20
-81.5086
11
113.716
21
-81.5594
0
LINE
8
Cyan 2
10
113.716
20
-81.5594
11
113.767
21
-81.6102
0
LINE
8
Cyan 2
10
113.767
20
-81.6102
11
113.843
21
-81.7372
0
LINE
8
Cyan 2
10
113.843
20
-81.7372
11
113.843
21
-82.2198
0
LINE
8
Cyan 2
10
113.589
20
-80.4164
11
114.452
21
-80.4164
0
LINE
8
Cyan 2
10
113.106
20
-80.7212
11
114.021
21
-81.0006
0
LINE
8
Cyan 2
10
114.021
20
-81.0006
11
114.021
21
-80.2386
0
LINE
8
Cyan 2
10
112.42
20
-82.3468
11
112.42
21
-83.058
0
LINE
8
Cyan 2
10
112.42
20
-82.7024
11
111.15
21
-82.7024
0
LINE
8
Cyan 2
10
111.15
20
-82.7024
11
111.328
21
-82.8294
0
LINE
8
Cyan 2
10
111.328
20
-82.8294
11
111.455
21
-82.9564
0
LINE
8
Cyan 2
10
111.455
20
-82.9564
11
111.506
21
-83.058
0
LINE
8
Cyan 2
10
112.293
20
-81.788
11
112.344
21
-81.7372
0
LINE
8
Cyan 2
10
112.344
20
-81.7372
11
112.42
21
-81.788
0
LINE
8
Cyan 2
10
112.42
20
-81.788
11
112.344
21
-81.8388
0
LINE
8
Cyan 2
10
112.344
20
-81.8388
11
112.293
21
-81.788
0
LINE
8
Cyan 2
10
112.293
20
-81.788
11
112.42
21
-81.788
0
LINE
8
Cyan 2
10
111.684
20
-81.0006
11
111.633
21
-81.1276
0
LINE
8
Cyan 2
10
111.633
20
-81.1276
11
111.557
21
-81.1784
0
LINE
8
Cyan 2
10
111.557
20
-81.1784
11
111.455
21
-81.2292
0
LINE
8
Cyan 2
10
111.455
20
-81.2292
11
111.379
21
-81.2292
0
LINE
8
Cyan 2
10
111.379
20
-81.2292
11
111.252
21
-81.1784
0
LINE
8
Cyan 2
10
111.252
20
-81.1784
11
111.201
21
-81.1276
0
LINE
8
Cyan 2
10
111.201
20
-81.1276
11
111.15
21
-81.0006
0
LINE
8
Cyan 2
10
111.15
20
-81.0006
11
111.15
21
-80.7466
0
LINE
8
Cyan 2
10
111.15
20
-80.7466
11
111.201
21
-80.645
0
LINE
8
Cyan 2
10
111.201
20
-80.645
11
111.252
21
-80.5688
0
LINE
8
Cyan 2
10
111.252
20
-80.5688
11
111.379
21
-80.518
0
LINE
8
Cyan 2
10
111.379
20
-80.518
11
111.455
21
-80.518
0
LINE
8
Cyan 2
10
111.455
20
-80.518
11
111.557
21
-80.5688
0
LINE
8
Cyan 2
10
111.557
20
-80.5688
11
111.633
21
-80.645
0
LINE
8
Cyan 2
10
111.633
20
-80.645
11
111.684
21
-80.7466
0
LINE
8
Cyan 2
10
111.684
20
-80.7466
11
111.684
21
-81.0006
0
LINE
8
Cyan 2
10
111.684
20
-81.0006
11
111.735
21
-81.1276
0
LINE
8
Cyan 2
10
111.735
20
-81.1276
11
111.811
21
-81.1784
0
LINE
8
Cyan 2
10
111.811
20
-81.1784
11
111.938
21
-81.2292
0
LINE
8
Cyan 2
10
111.938
20
-81.2292
11
112.166
21
-81.2292
0
LINE
8
Cyan 2
10
112.166
20
-81.2292
11
112.293
21
-81.1784
0
LINE
8
Cyan 2
10
112.293
20
-81.1784
11
112.344
21
-81.1276
0
LINE
8
Cyan 2
10
112.344
20
-81.1276
11
112.42
21
-81.0006
0
LINE
8
Cyan 2
10
112.42
20
-81.0006
11
112.42
21
-80.7466
0
LINE
8
Cyan 2
10
112.42
20
-80.7466
11
112.344
21
-80.645
0
LINE
8
Cyan 2
10
112.344
20
-80.645
11
112.293
21
-80.5688
0
LINE
8
Cyan 2
10
112.293
20
-80.5688
11
112.166
21
-80.518
0
LINE
8
Cyan 2
10
112.166
20
-80.518
11
111.938
21
-80.518
0
LINE
8
Cyan 2
10
111.938
20
-80.518
11
111.811
21
-80.5688
0
LINE
8
Cyan 2
10
111.811
20
-80.5688
11
111.735
21
-80.645
0
LINE
8
Cyan 2
10
111.735
20
-80.645
11
111.684
21
-80.7466
0
LINE
8
Cyan 2
10
112.42
20
-79.9592
11
111.15
21
-79.9592
0
LINE
8
Cyan 2
10
111.938
20
-79.8322
11
112.42
21
-79.4766
0
LINE
8
Cyan 2
10
111.557
20
-79.4766
11
112.039
21
-79.9592
0
LINE
8
Red 2
10
95.504
20
-83.82
11
95.504
21
-78.74
0
LINE
8
Red 2
10
95.504
20
-78.74
11
97.536
21
-78.74
0
LINE
8
Red 2
10
97.536
20
-78.74
11
97.536
21
-83.82
0
LINE
8
Red 2
10
97.536
20
-83.82
11
95.504
21
-83.82
0
LINE
8
Red 2
10
96.52
20
-78.74
11
96.52
21
-77.47
0
LINE
8
Red 2
10
96.52
20
-83.82
11
96.52
21
-85.09
0
LINE
8
Cyan 2
10
99.2124
20
-81.5086
11
98.6028
21
-81.915
0
LINE
8
Cyan 2
10
99.2124
20
-82.2198
11
97.9424
21
-82.2198
0
LINE
8
Cyan 2
10
97.9424
20
-82.2198
11
97.9424
21
-81.7372
0
LINE
8
Cyan 2
10
97.9424
20
-81.7372
11
97.9932
21
-81.6102
0
LINE
8
Cyan 2
10
97.9932
20
-81.6102
11
98.044
21
-81.5594
0
LINE
8
Cyan 2
10
98.044
20
-81.5594
11
98.171
21
-81.5086
0
LINE
8
Cyan 2
10
98.171
20
-81.5086
11
98.3488
21
-81.5086
0
LINE
8
Cyan 2
10
98.3488
20
-81.5086
11
98.4758
21
-81.5594
0
LINE
8
Cyan 2
10
98.4758
20
-81.5594
11
98.5266
21
-81.6102
0
LINE
8
Cyan 2
10
98.5266
20
-81.6102
11
98.6028
21
-81.7372
0
LINE
8
Cyan 2
10
98.6028
20
-81.7372
11
98.6028
21
-82.2198
0
LINE
8
Cyan 2
10
98.044
20
-81.0006
11
97.9932
21
-80.9498
0
LINE
8
Cyan 2
10
97.9932
20
-80.9498
11
97.9424
21
-80.8228
0
LINE
8
Cyan 2
10
97.9424
20
-80.8228
11
97.9424
21
-80.518
0
LINE
8
Cyan 2
10
97.9424
20
-80.518
11
97.9932
21
-80.4164
0
LINE
8
Cyan 2
10
97.9932
20
-80.4164
11
98.044
21
-80.3402
0
LINE
8
Cyan 2
10
98.044
20
-80.3402
11
98.171
21
-80.2894
0
LINE
8
Cyan 2
10
98.171
20
-80.2894
11
98.298
21
-80.2894
0
LINE
8
Cyan 2
10
98.298
20
-80.2894
11
98.4758
21
-80.3402
0
LINE
8
Cyan 2
10
98.4758
20
-80.3402
11
99.2124
21
-81.0768
0
LINE
8
Cyan 2
10
99.2124
20
-81.0768
11
99.2124
21
-80.2894
0
LINE
8
Cyan 2
10
95.9104
20
-82.4738
11
95.9104
21
-82.7024
0
LINE
8
Cyan 2
10
95.9104
20
-82.7024
11
95.9612
21
-82.8294
0
LINE
8
Cyan 2
10
95.9612
20
-82.8294
11
96.012
21
-82.8802
0
LINE
8
Cyan 2
10
96.012
20
-82.8802
11
96.2152
21
-83.0072
0
LINE
8
Cyan 2
10
96.2152
20
-83.0072
11
96.4438
21
-83.058
0
LINE
8
Cyan 2
10
96.4438
20
-83.058
11
96.9264
21
-83.058
0
LINE
8
Cyan 2
10
96.9264
20
-83.058
11
97.0534
21
-83.0072
0
LINE
8
Cyan 2
10
97.0534
20
-83.0072
11
97.1042
21
-82.9564
0
LINE
8
Cyan 2
10
97.1042
20
-82.9564
11
97.1804
21
-82.8294
0
LINE
8
Cyan 2
10
97.1804
20
-82.8294
11
97.1804
21
-82.5754
0
LINE
8
Cyan 2
10
97.1804
20
-82.5754
11
97.1042
21
-82.4738
0
LINE
8
Cyan 2
10
97.1042
20
-82.4738
11
97.0534
21
-82.3976
0
LINE
8
Cyan 2
10
97.0534
20
-82.3976
11
96.9264
21
-82.3468
0
LINE
8
Cyan 2
10
96.9264
20
-82.3468
11
96.6216
21
-82.3468
0
LINE
8
Cyan 2
10
96.6216
20
-82.3468
11
96.4946
21
-82.3976
0
LINE
8
Cyan 2
10
96.4946
20
-82.3976
11
96.4438
21
-82.4738
0
LINE
8
Cyan 2
10
96.4438
20
-82.4738
11
96.393
21
-82.5754
0
LINE
8
Cyan 2
10
96.393
20
-82.5754
11
96.393
21
-82.8294
0
LINE
8
Cyan 2
10
96.393
20
-82.8294
11
96.4438
21
-82.9564
0
LINE
8
Cyan 2
10
96.4438
20
-82.9564
11
96.4946
21
-83.0072
0
LINE
8
Cyan 2
10
96.4946
20
-83.0072
11
96.6216
21
-83.058
0
LINE
8
Cyan 2
10
97.0534
20
-81.788
11
97.1042
21
-81.7372
0
LINE
8
Cyan 2
10
97.1042
20
-81.7372
11
97.1804
21
-81.788
0
LINE
8
Cyan 2
10
97.1804
20
-81.788
11
97.1042
21
-81.8388
0
LINE
8
Cyan 2
10
97.1042
20
-81.8388
11
97.0534
21
-81.788
0
LINE
8
Cyan 2
10
97.0534
20
-81.788
11
97.1804
21
-81.788
0
LINE
8
Cyan 2
10
96.4438
20
-81.0006
11
96.393
21
-81.1276
0
LINE
8
Cyan 2
10
96.393
20
-81.1276
11
96.3168
21
-81.1784
0
LINE
8
Cyan 2
10
96.3168
20
-81.1784
11
96.2152
21
-81.2292
0
LINE
8
Cyan 2
10
96.2152
20
-81.2292
11
96.139
21
-81.2292
0
LINE
8
Cyan 2
10
96.139
20
-81.2292
11
96.012
21
-81.1784
0
LINE
8
Cyan 2
10
96.012
20
-81.1784
11
95.9612
21
-81.1276
0
LINE
8
Cyan 2
10
95.9612
20
-81.1276
11
95.9104
21
-81.0006
0
LINE
8
Cyan 2
10
95.9104
20
-81.0006
11
95.9104
21
-80.7466
0
LINE
8
Cyan 2
10
95.9104
20
-80.7466
11
95.9612
21
-80.645
0
LINE
8
Cyan 2
10
95.9612
20
-80.645
11
96.012
21
-80.5688
0
LINE
8
Cyan 2
10
96.012
20
-80.5688
11
96.139
21
-80.518
0
LINE
8
Cyan 2
10
96.139
20
-80.518
11
96.2152
21
-80.518
0
LINE
8
Cyan 2
10
96.2152
20
-80.518
11
96.3168
21
-80.5688
0
LINE
8
Cyan 2
10
96.3168
20
-80.5688
11
96.393
21
-80.645
0
LINE
8
Cyan 2
10
96.393
20
-80.645
11
96.4438
21
-80.7466
0
LINE
8
Cyan 2
10
96.4438
20
-80.7466
11
96.4438
21
-81.0006
0
LINE
8
Cyan 2
10
96.4438
20
-81.0006
11
96.4946
21
-81.1276
0
LINE
8
Cyan 2
10
96.4946
20
-81.1276
11
96.5708
21
-81.1784
0
LINE
8
Cyan 2
10
96.5708
20
-81.1784
11
96.6978
21
-81.2292
0
LINE
8
Cyan 2
10
96.6978
20
-81.2292
11
96.9264
21
-81.2292
0
LINE
8
Cyan 2
10
96.9264
20
-81.2292
11
97.0534
21
-81.1784
0
LINE
8
Cyan 2
10
97.0534
20
-81.1784
11
97.1042
21
-81.1276
0
LINE
8
Cyan 2
10
97.1042
20
-81.1276
11
97.1804
21
-81.0006
0
LINE
8
Cyan 2
10
97.1804
20
-81.0006
11
97.1804
21
-80.7466
0
LINE
8
Cyan 2
10
97.1804
20
-80.7466
11
97.1042
21
-80.645
0
LINE
8
Cyan 2
10
97.1042
20
-80.645
11
97.0534
21
-80.5688
0
LINE
8
Cyan 2
10
97.0534
20
-80.5688
11
96.9264
21
-80.518
0
LINE
8
Cyan 2
10
96.9264
20
-80.518
11
96.6978
21
-80.518
0
LINE
8
Cyan 2
10
96.6978
20
-80.518
11
96.5708
21
-80.5688
0
LINE
8
Cyan 2
10
96.5708
20
-80.5688
11
96.4946
21
-80.645
0
LINE
8
Cyan 2
10
96.4946
20
-80.645
11
96.4438
21
-80.7466
0
LINE
8
Cyan 2
10
97.1804
20
-79.9592
11
95.9104
21
-79.9592
0
LINE
8
Cyan 2
10
96.6978
20
-79.8322
11
97.1804
21
-79.4766
0
LINE
8
Cyan 2
10
96.3168
20
-79.4766
11
96.7994
21
-79.9592
0
LINE
8
Red 2
10
95.504
20
-58.42
11
95.504
21
-53.34
0
LINE
8
Red 2
10
95.504
20
-53.34
11
97.536
21
-53.34
0
LINE
8
Red 2
10
97.536
20
-53.34
11
97.536
21
-58.42
0
LINE
8
Red 2
10
97.536
20
-58.42
11
95.504
21
-58.42
0
LINE
8
Red 2
10
96.52
20
-53.34
11
96.52
21
-52.07
0
LINE
8
Red 2
10
96.52
20
-58.42
11
96.52
21
-59.69
0
LINE
8
Cyan 2
10
99.2124
20
-56.1086
11
98.6028
21
-56.515
0
LINE
8
Cyan 2
10
99.2124
20
-56.8198
11
97.9424
21
-56.8198
0
LINE
8
Cyan 2
10
97.9424
20
-56.8198
11
97.9424
21
-56.3372
0
LINE
8
Cyan 2
10
97.9424
20
-56.3372
11
97.9932
21
-56.2102
0
LINE
8
Cyan 2
10
97.9932
20
-56.2102
11
98.044
21
-56.1594
0
LINE
8
Cyan 2
10
98.044
20
-56.1594
11
98.171
21
-56.1086
0
LINE
8
Cyan 2
10
98.171
20
-56.1086
11
98.3488
21
-56.1086
0
LINE
8
Cyan 2
10
98.3488
20
-56.1086
11
98.4758
21
-56.1594
0
LINE
8
Cyan 2
10
98.4758
20
-56.1594
11
98.5266
21
-56.2102
0
LINE
8
Cyan 2
10
98.5266
20
-56.2102
11
98.6028
21
-56.3372
0
LINE
8
Cyan 2
10
98.6028
20
-56.3372
11
98.6028
21
-56.8198
0
LINE
8
Cyan 2
10
99.2124
20
-54.8894
11
99.2124
21
-55.6006
0
LINE
8
Cyan 2
10
99.2124
20
-55.245
11
97.9424
21
-55.245
0
LINE
8
Cyan 2
10
97.9424
20
-55.245
11
98.1202
21
-55.372
0
LINE
8
Cyan 2
10
98.1202
20
-55.372
11
98.2472
21
-55.499
0
LINE
8
Cyan 2
10
98.2472
20
-55.499
11
98.298
21
-55.6006
0
LINE
8
Cyan 2
10
96.012
20
-57.3532
11
95.9612
21
-57.3024
0
LINE
8
Cyan 2
10
95.9612
20
-57.3024
11
95.9104
21
-57.1754
0
LINE
8
Cyan 2
10
95.9104
20
-57.1754
11
95.9104
21
-56.8706
0
LINE
8
Cyan 2
10
95.9104
20
-56.8706
11
95.9612
21
-56.769
0
LINE
8
Cyan 2
10
95.9612
20
-56.769
11
96.012
21
-56.6928
0
LINE
8
Cyan 2
10
96.012
20
-56.6928
11
96.139
21
-56.642
0
LINE
8
Cyan 2
10
96.139
20
-56.642
11
96.266
21
-56.642
0
LINE
8
Cyan 2
10
96.266
20
-56.642
11
96.4438
21
-56.6928
0
LINE
8
Cyan 2
10
96.4438
20
-56.6928
11
97.1804
21
-57.4294
0
LINE
8
Cyan 2
10
97.1804
20
-57.4294
11
97.1804
21
-56.642
0
LINE
8
Cyan 2
10
96.012
20
-56.134
11
95.9612
21
-56.0832
0
LINE
8
Cyan 2
10
95.9612
20
-56.0832
11
95.9104
21
-55.9562
0
LINE
8
Cyan 2
10
95.9104
20
-55.9562
11
95.9104
21
-55.6514
0
LINE
8
Cyan 2
10
95.9104
20
-55.6514
11
95.9612
21
-55.5498
0
LINE
8
Cyan 2
10
95.9612
20
-55.5498
11
96.012
21
-55.4736
0
LINE
8
Cyan 2
10
96.012
20
-55.4736
11
96.139
21
-55.4228
0
LINE
8
Cyan 2
10
96.139
20
-55.4228
11
96.266
21
-55.4228
0
LINE
8
Cyan 2
10
96.266
20
-55.4228
11
96.4438
21
-55.4736
0
LINE
8
Cyan 2
10
96.4438
20
-55.4736
11
97.1804
21
-56.2102
0
LINE
8
Cyan 2
10
97.1804
20
-56.2102
11
97.1804
21
-55.4228
0
LINE
8
Cyan 2
10
97.1804
20
-54.864
11
95.9104
21
-54.864
0
LINE
8
Cyan 2
10
96.6978
20
-54.737
11
97.1804
21
-54.3814
0
LINE
8
Cyan 2
10
96.3168
20
-54.3814
11
96.7994
21
-54.864
0
CIRCLE
8
Red 2
10
110.49
20
-67.31
40
2.8194
0
LINE
8
Red 2
10
109.22
20
-67.31
11
109.855
21
-67.31
0
LINE
8
Red 2
10
109.855
20
-66.675
11
111.76
21
-64.77
0
LINE
8
Red 2
10
109.855
20
-67.945
11
111.76
21
-69.85
0
LINE
8
Red 2
10
109.855
20
-65.405
11
109.855
21
-69.215
0
LINE
8
Red 2
10
111.074
20
-68.5546
11
111.582
21
-69.5706
0
LINE
8
Red 2
10
111.582
20
-69.5706
11
111.582
21
-69.6214
0
LINE
8
Red 2
10
111.582
20
-69.6214
11
111.531
21
-69.6722
0
LINE
8
Red 2
10
111.531
20
-69.6722
11
111.481
21
-69.6722
0
LINE
8
Red 2
10
111.481
20
-69.6722
11
110.465
21
-69.1642
0
LINE
8
Red 2
10
110.465
20
-69.1642
11
110.414
21
-69.1134
0
LINE
8
Red 2
10
110.414
20
-69.1134
11
110.414
21
-69.0626
0
LINE
8
Red 2
10
110.414
20
-69.0626
11
110.947
21
-68.5292
0
LINE
8
Red 2
10
110.947
20
-68.5292
11
110.947
21
-68.5038
0
LINE
8
Red 2
10
110.947
20
-68.5038
11
111.023
21
-68.5038
0
LINE
8
Red 2
10
111.023
20
-68.5038
11
111.074
21
-68.5546
0
LINE
8
Red 2
10
111.76
20
-64.77
11
111.76
21
-62.23
0
LINE
8
Red 2
10
113.233
20
-63.1444
11
113.233
21
-63.8556
0
LINE
8
Red 2
10
113.233
20
-63.5
11
111.963
21
-63.5
0
LINE
8
Red 2
10
111.963
20
-63.5
11
112.141
21
-63.627
0
LINE
8
Red 2
10
112.141
20
-63.627
11
112.268
21
-63.754
0
LINE
8
Red 2
10
112.268
20
-63.754
11
112.319
21
-63.8556
0
LINE
8
Red 2
10
109.22
20
-67.31
11
104.14
21
-67.31
0
LINE
8
Red 2
10
106.324
20
-67.6148
11
106.375
21
-67.564
0
LINE
8
Red 2
10
106.375
20
-67.564
11
106.502
21
-67.5132
0
LINE
8
Red 2
10
106.502
20
-67.5132
11
106.807
21
-67.5132
0
LINE
8
Red 2
10
106.807
20
-67.5132
11
106.909
21
-67.564
0
LINE
8
Red 2
10
106.909
20
-67.564
11
106.985
21
-67.6148
0
LINE
8
Red 2
10
106.985
20
-67.6148
11
107.036
21
-67.7418
0
LINE
8
Red 2
10
107.036
20
-67.7418
11
107.036
21
-67.8688
0
LINE
8
Red 2
10
107.036
20
-67.8688
11
106.985
21
-68.0466
0
LINE
8
Red 2
10
106.985
20
-68.0466
11
106.248
21
-68.7832
0
LINE
8
Red 2
10
106.248
20
-68.7832
11
107.036
21
-68.7832
0
LINE
8
Red 2
10
111.76
20
-69.85
11
111.76
21
-72.39
0
LINE
8
Red 2
10
111.963
20
-71.5518
11
111.963
21
-70.7644
0
LINE
8
Red 2
10
111.963
20
-70.7644
11
112.446
21
-71.1962
0
LINE
8
Red 2
10
112.446
20
-71.1962
11
112.446
21
-70.993
0
LINE
8
Red 2
10
112.446
20
-70.993
11
112.497
21
-70.8914
0
LINE
8
Red 2
10
112.497
20
-70.8914
11
112.547
21
-70.8152
0
LINE
8
Red 2
10
112.547
20
-70.8152
11
112.674
21
-70.7644
0
LINE
8
Red 2
10
112.674
20
-70.7644
11
112.979
21
-70.7644
0
LINE
8
Red 2
10
112.979
20
-70.7644
11
113.106
21
-70.8152
0
LINE
8
Red 2
10
113.106
20
-70.8152
11
113.157
21
-70.8914
0
LINE
8
Red 2
10
113.157
20
-70.8914
11
113.233
21
-70.993
0
LINE
8
Red 2
10
113.233
20
-70.993
11
113.233
21
-71.374
0
LINE
8
Red 2
10
113.233
20
-71.374
11
113.157
21
-71.4756
0
LINE
8
Red 2
10
113.157
20
-71.4756
11
113.106
21
-71.5518
0
LINE
8
Cyan 2
10
115.443
20
-66.167
11
115.316
21
-66.1162
0
LINE
8
Cyan 2
10
115.316
20
-66.1162
11
115.214
21
-65.9892
0
LINE
8
Cyan 2
10
115.214
20
-65.9892
11
115.037
21
-65.8114
0
LINE
8
Cyan 2
10
115.037
20
-65.8114
11
114.91
21
-65.7606
0
LINE
8
Cyan 2
10
114.91
20
-65.7606
11
114.783
21
-65.7606
0
LINE
8
Cyan 2
10
114.833
20
-66.0654
11
114.732
21
-65.9892
0
LINE
8
Cyan 2
10
114.732
20
-65.9892
11
114.605
21
-65.8622
0
LINE
8
Cyan 2
10
114.605
20
-65.8622
11
114.554
21
-65.6336
0
LINE
8
Cyan 2
10
114.554
20
-65.6336
11
114.554
21
-65.2018
0
LINE
8
Cyan 2
10
114.554
20
-65.2018
11
114.605
21
-64.9732
0
LINE
8
Cyan 2
10
114.605
20
-64.9732
11
114.732
21
-64.8462
0
LINE
8
Cyan 2
10
114.732
20
-64.8462
11
114.833
21
-64.7954
0
LINE
8
Cyan 2
10
114.833
20
-64.7954
11
115.087
21
-64.7954
0
LINE
8
Cyan 2
10
115.087
20
-64.7954
11
115.214
21
-64.8462
0
LINE
8
Cyan 2
10
115.214
20
-64.8462
11
115.316
21
-64.9732
0
LINE
8
Cyan 2
10
115.316
20
-64.9732
11
115.392
21
-65.2018
0
LINE
8
Cyan 2
10
115.392
20
-65.2018
11
115.392
21
-65.6336
0
LINE
8
Cyan 2
10
115.392
20
-65.6336
11
115.316
21
-65.8622
0
LINE
8
Cyan 2
10
115.316
20
-65.8622
11
115.214
21
-65.9892
0
LINE
8
Cyan 2
10
115.214
20
-65.9892
11
115.087
21
-66.0654
0
LINE
8
Cyan 2
10
115.087
20
-66.0654
11
114.833
21
-66.0654
0
LINE
8
Cyan 2
10
116.586
20
-66.0654
11
115.875
21
-66.0654
0
LINE
8
Cyan 2
10
116.23
20
-66.0654
11
116.23
21
-64.7954
0
LINE
8
Cyan 2
10
116.23
20
-64.7954
11
116.103
21
-64.9732
0
LINE
8
Cyan 2
10
116.103
20
-64.9732
11
115.976
21
-65.1002
0
LINE
8
Cyan 2
10
115.976
20
-65.1002
11
115.875
21
-65.151
0
LINE
8
Cyan 2
10
115.037
20
-67.2846
11
115.214
21
-67.3608
0
LINE
8
Cyan 2
10
115.214
20
-67.3608
11
115.265
21
-67.4116
0
LINE
8
Cyan 2
10
115.265
20
-67.4116
11
115.316
21
-67.5386
0
LINE
8
Cyan 2
10
115.316
20
-67.5386
11
115.316
21
-67.7164
0
LINE
8
Cyan 2
10
115.316
20
-67.7164
11
115.265
21
-67.8434
0
LINE
8
Cyan 2
10
115.265
20
-67.8434
11
115.214
21
-67.8942
0
LINE
8
Cyan 2
10
115.214
20
-67.8942
11
115.087
21
-67.9704
0
LINE
8
Cyan 2
10
115.087
20
-67.9704
11
114.605
21
-67.9704
0
LINE
8
Cyan 2
10
114.605
20
-67.9704
11
114.605
21
-66.7004
0
LINE
8
Cyan 2
10
114.605
20
-66.7004
11
115.037
21
-66.7004
0
LINE
8
Cyan 2
10
115.037
20
-66.7004
11
115.138
21
-66.7512
0
LINE
8
Cyan 2
10
115.138
20
-66.7512
11
115.214
21
-66.802
0
LINE
8
Cyan 2
10
115.214
20
-66.802
11
115.265
21
-66.929
0
LINE
8
Cyan 2
10
115.265
20
-66.929
11
115.265
21
-67.056
0
LINE
8
Cyan 2
10
115.265
20
-67.056
11
115.214
21
-67.183
0
LINE
8
Cyan 2
10
115.214
20
-67.183
11
115.138
21
-67.2338
0
LINE
8
Cyan 2
10
115.138
20
-67.2338
11
115.037
21
-67.2846
0
LINE
8
Cyan 2
10
115.037
20
-67.2846
11
114.605
21
-67.2846
0
LINE
8
Cyan 2
10
116.586
20
-67.8434
11
116.535
21
-67.8942
0
LINE
8
Cyan 2
10
116.535
20
-67.8942
11
116.357
21
-67.9704
0
LINE
8
Cyan 2
10
116.357
20
-67.9704
11
116.23
21
-67.9704
0
LINE
8
Cyan 2
10
116.23
20
-67.9704
11
116.053
21
-67.8942
0
LINE
8
Cyan 2
10
116.053
20
-67.8942
11
115.926
21
-67.7672
0
LINE
8
Cyan 2
10
115.926
20
-67.7672
11
115.875
21
-67.6656
0
LINE
8
Cyan 2
10
115.875
20
-67.6656
11
115.824
21
-67.4116
0
LINE
8
Cyan 2
10
115.824
20
-67.4116
11
115.824
21
-67.2338
0
LINE
8
Cyan 2
10
115.824
20
-67.2338
11
115.875
21
-67.0052
0
LINE
8
Cyan 2
10
115.875
20
-67.0052
11
115.926
21
-66.8782
0
LINE
8
Cyan 2
10
115.926
20
-66.8782
11
116.053
21
-66.7512
0
LINE
8
Cyan 2
10
116.053
20
-66.7512
11
116.23
21
-66.7004
0
LINE
8
Cyan 2
10
116.23
20
-66.7004
11
116.357
21
-66.7004
0
LINE
8
Cyan 2
10
116.357
20
-66.7004
11
116.535
21
-66.7512
0
LINE
8
Cyan 2
10
116.535
20
-66.7512
11
116.586
21
-66.802
0
LINE
8
Cyan 2
10
117.754
20
-66.7004
11
117.145
21
-66.7004
0
LINE
8
Cyan 2
10
117.145
20
-66.7004
11
117.094
21
-67.2846
0
LINE
8
Cyan 2
10
117.094
20
-67.2846
11
117.145
21
-67.2338
0
LINE
8
Cyan 2
10
117.145
20
-67.2338
11
117.272
21
-67.183
0
LINE
8
Cyan 2
10
117.272
20
-67.183
11
117.577
21
-67.183
0
LINE
8
Cyan 2
10
117.577
20
-67.183
11
117.678
21
-67.2338
0
LINE
8
Cyan 2
10
117.678
20
-67.2338
11
117.754
21
-67.2846
0
LINE
8
Cyan 2
10
117.754
20
-67.2846
11
117.805
21
-67.4116
0
LINE
8
Cyan 2
10
117.805
20
-67.4116
11
117.805
21
-67.7164
0
LINE
8
Cyan 2
10
117.805
20
-67.7164
11
117.754
21
-67.8434
0
LINE
8
Cyan 2
10
117.754
20
-67.8434
11
117.678
21
-67.8942
0
LINE
8
Cyan 2
10
117.678
20
-67.8942
11
117.577
21
-67.9704
0
LINE
8
Cyan 2
10
117.577
20
-67.9704
11
117.272
21
-67.9704
0
LINE
8
Cyan 2
10
117.272
20
-67.9704
11
117.145
21
-67.8942
0
LINE
8
Cyan 2
10
117.145
20
-67.8942
11
117.094
21
-67.8434
0
LINE
8
Cyan 2
10
118.897
20
-67.1068
11
118.897
21
-67.9704
0
LINE
8
Cyan 2
10
118.593
20
-66.6242
11
118.313
21
-67.5386
0
LINE
8
Cyan 2
10
118.313
20
-67.5386
11
119.075
21
-67.5386
0
LINE
8
Cyan 2
10
119.761
20
-67.2338
11
119.634
21
-67.183
0
LINE
8
Cyan 2
10
119.634
20
-67.183
11
119.583
21
-67.1068
0
LINE
8
Cyan 2
10
119.583
20
-67.1068
11
119.532
21
-67.0052
0
LINE
8
Cyan 2
10
119.532
20
-67.0052
11
119.532
21
-66.929
0
LINE
8
Cyan 2
10
119.532
20
-66.929
11
119.583
21
-66.802
0
LINE
8
Cyan 2
10
119.583
20
-66.802
11
119.634
21
-66.7512
0
LINE
8
Cyan 2
10
119.634
20
-66.7512
11
119.761
21
-66.7004
0
LINE
8
Cyan 2
10
119.761
20
-66.7004
11
120.015
21
-66.7004
0
LINE
8
Cyan 2
10
120.015
20
-66.7004
11
120.117
21
-66.7512
0
LINE
8
Cyan 2
10
120.117
20
-66.7512
11
120.193
21
-66.802
0
LINE
8
Cyan 2
10
120.193
20
-66.802
11
120.244
21
-66.929
0
LINE
8
Cyan 2
10
120.244
20
-66.929
11
120.244
21
-67.0052
0
LINE
8
Cyan 2
10
120.244
20
-67.0052
11
120.193
21
-67.1068
0
LINE
8
Cyan 2
10
120.193
20
-67.1068
11
120.117
21
-67.183
0
LINE
8
Cyan 2
10
120.117
20
-67.183
11
120.015
21
-67.2338
0
LINE
8
Cyan 2
10
120.015
20
-67.2338
11
119.761
21
-67.2338
0
LINE
8
Cyan 2
10
119.761
20
-67.2338
11
119.634
21
-67.2846
0
LINE
8
Cyan 2
10
119.634
20
-67.2846
11
119.583
21
-67.3608
0
LINE
8
Cyan 2
10
119.583
20
-67.3608
11
119.532
21
-67.4878
0
LINE
8
Cyan 2
10
119.532
20
-67.4878
11
119.532
21
-67.7164
0
LINE
8
Cyan 2
10
119.532
20
-67.7164
11
119.583
21
-67.8434
0
LINE
8
Cyan 2
10
119.583
20
-67.8434
11
119.634
21
-67.8942
0
LINE
8
Cyan 2
10
119.634
20
-67.8942
11
119.761
21
-67.9704
0
LINE
8
Cyan 2
10
119.761
20
-67.9704
11
120.015
21
-67.9704
0
LINE
8
Cyan 2
10
120.015
20
-67.9704
11
120.117
21
-67.8942
0
LINE
8
Cyan 2
10
120.117
20
-67.8942
11
120.193
21
-67.8434
0
LINE
8
Cyan 2
10
120.193
20
-67.8434
11
120.244
21
-67.7164
0
LINE
8
Cyan 2
10
120.244
20
-67.7164
11
120.244
21
-67.4878
0
LINE
8
Cyan 2
10
120.244
20
-67.4878
11
120.193
21
-67.3608
0
LINE
8
Cyan 2
10
120.193
20
-67.3608
11
120.117
21
-67.2846
0
LINE
8
Cyan 2
10
120.117
20
-67.2846
11
120.015
21
-67.2338
0
LINE
8
L.Yellow
10
74.93
20
-71.12
11
74.93
21
-66.04
0
LINE
8
L.Yellow
10
74.93
20
-66.04
11
72.39
21
-66.04
0
LINE
8
L.Yellow
10
72.39
20
-66.04
11
72.39
21
-71.12
0
LINE
8
L.Yellow
10
72.39
20
-71.12
11
74.93
21
-71.12
0
LINE
8
Red 2
10
74.93
20
-71.12
11
74.93
21
-66.04
0
LINE
8
Red 2
10
74.93
20
-66.04
11
72.39
21
-66.04
0
LINE
8
Red 2
10
72.39
20
-66.04
11
72.39
21
-71.12
0
LINE
8
Red 2
10
72.39
20
-71.12
11
74.93
21
-71.12
0
LINE
8
Red 2
10
74.93
20
-67.437
11
74.93
21
-67.183
0
LINE
8
Red 2
10
74.93
20
-67.183
11
73.66
21
-67.183
0
LINE
8
Red 2
10
73.66
20
-67.183
11
73.66
21
-67.437
0
LINE
8
Red 2
10
73.66
20
-67.437
11
74.93
21
-67.437
0
LINE
8
Red 2
10
74.93
20
-69.977
11
74.93
21
-69.723
0
LINE
8
Red 2
10
74.93
20
-69.723
11
73.66
21
-69.723
0
LINE
8
Red 2
10
73.66
20
-69.723
11
73.66
21
-69.977
0
LINE
8
Red 2
10
73.66
20
-69.977
11
74.93
21
-69.977
0
LINE
8
Red 2
10
74.93
20
-69.85
11
78.74
21
-69.85
0
LINE
8
Red 2
10
77.1906
20
-69.5452
11
76.4794
21
-69.5452
0
LINE
8
Red 2
10
76.835
20
-69.5452
11
76.835
21
-68.2752
0
LINE
8
Red 2
10
76.835
20
-68.2752
11
76.708
21
-68.453
0
LINE
8
Red 2
10
76.708
20
-68.453
11
76.581
21
-68.58
0
LINE
8
Red 2
10
76.581
20
-68.58
11
76.4794
21
-68.6308
0
LINE
8
Red 2
10
74.93
20
-67.31
11
78.74
21
-67.31
0
LINE
8
Red 2
10
76.4794
20
-65.8368
11
76.5302
21
-65.786
0
LINE
8
Red 2
10
76.5302
20
-65.786
11
76.6572
21
-65.7352
0
LINE
8
Red 2
10
76.6572
20
-65.7352
11
76.962
21
-65.7352
0
LINE
8
Red 2
10
76.962
20
-65.7352
11
77.0636
21
-65.786
0
LINE
8
Red 2
10
77.0636
20
-65.786
11
77.1398
21
-65.8368
0
LINE
8
Red 2
10
77.1398
20
-65.8368
11
77.1906
21
-65.9638
0
LINE
8
Red 2
10
77.1906
20
-65.9638
11
77.1906
21
-66.0908
0
LINE
8
Red 2
10
77.1906
20
-66.0908
11
77.1398
21
-66.2686
0
LINE
8
Red 2
10
77.1398
20
-66.2686
11
76.4032
21
-67.0052
0
LINE
8
Red 2
10
76.4032
20
-67.0052
11
77.1906
21
-67.0052
0
LINE
8
Cyan 2
10
73.2282
20
-71.6026
11
73.2282
21
-72.4916
0
LINE
8
Cyan 2
10
73.2282
20
-72.4916
11
73.1774
21
-72.6694
0
LINE
8
Cyan 2
10
73.1774
20
-72.6694
11
73.0504
21
-72.7964
0
LINE
8
Cyan 2
10
73.0504
20
-72.7964
11
72.8726
21
-72.8726
0
LINE
8
Cyan 2
10
72.8726
20
-72.8726
11
72.7456
21
-72.8726
0
LINE
8
Cyan 2
10
74.4982
20
-72.8726
11
73.787
21
-72.8726
0
LINE
8
Cyan 2
10
74.1426
20
-72.8726
11
74.1426
21
-71.6026
0
LINE
8
Cyan 2
10
74.1426
20
-71.6026
11
74.0156
21
-71.7804
0
LINE
8
Cyan 2
10
74.0156
20
-71.7804
11
73.8886
21
-71.9074
0
LINE
8
Cyan 2
10
73.8886
20
-71.9074
11
73.787
21
-71.9582
0
LINE
8
Cyan 2
10
68.8848
20
-65.1256
11
68.834
21
-65.1764
0
LINE
8
Cyan 2
10
68.834
20
-65.1764
11
68.6562
21
-65.2526
0
LINE
8
Cyan 2
10
68.6562
20
-65.2526
11
68.5292
21
-65.2526
0
LINE
8
Cyan 2
10
68.5292
20
-65.2526
11
68.3514
21
-65.1764
0
LINE
8
Cyan 2
10
68.3514
20
-65.1764
11
68.2244
21
-65.0494
0
LINE
8
Cyan 2
10
68.2244
20
-65.0494
11
68.1736
21
-64.9478
0
LINE
8
Cyan 2
10
68.1736
20
-64.9478
11
68.1228
21
-64.6938
0
LINE
8
Cyan 2
10
68.1228
20
-64.6938
11
68.1228
21
-64.516
0
LINE
8
Cyan 2
10
68.1228
20
-64.516
11
68.1736
21
-64.2874
0
LINE
8
Cyan 2
10
68.1736
20
-64.2874
11
68.2244
21
-64.1604
0
LINE
8
Cyan 2
10
68.2244
20
-64.1604
11
68.3514
21
-64.0334
0
LINE
8
Cyan 2
10
68.3514
20
-64.0334
11
68.5292
21
-63.9826
0
LINE
8
Cyan 2
10
68.5292
20
-63.9826
11
68.6562
21
-63.9826
0
LINE
8
Cyan 2
10
68.6562
20
-63.9826
11
68.834
21
-64.0334
0
LINE
8
Cyan 2
10
68.834
20
-64.0334
11
68.8848
21
-64.0842
0
LINE
8
Cyan 2
10
69.6214
20
-65.2526
11
69.4944
21
-65.1764
0
LINE
8
Cyan 2
10
69.4944
20
-65.1764
11
69.4436
21
-65.1256
0
LINE
8
Cyan 2
10
69.4436
20
-65.1256
11
69.3928
21
-64.9986
0
LINE
8
Cyan 2
10
69.3928
20
-64.9986
11
69.3928
21
-64.643
0
LINE
8
Cyan 2
10
69.3928
20
-64.643
11
69.4436
21
-64.516
0
LINE
8
Cyan 2
10
69.4436
20
-64.516
11
69.4944
21
-64.4652
0
LINE
8
Cyan 2
10
69.4944
20
-64.4652
11
69.6214
21
-64.389
0
LINE
8
Cyan 2
10
69.6214
20
-64.389
11
69.7992
21
-64.389
0
LINE
8
Cyan 2
10
69.7992
20
-64.389
11
69.9262
21
-64.4652
0
LINE
8
Cyan 2
10
69.9262
20
-64.4652
11
69.977
21
-64.516
0
LINE
8
Cyan 2
10
69.977
20
-64.516
11
70.0532
21
-64.643
0
LINE
8
Cyan 2
10
70.0532
20
-64.643
11
70.0532
21
-64.9986
0
LINE
8
Cyan 2
10
70.0532
20
-64.9986
11
69.977
21
-65.1256
0
LINE
8
Cyan 2
10
69.977
20
-65.1256
11
69.9262
21
-65.1764
0
LINE
8
Cyan 2
10
69.9262
20
-65.1764
11
69.7992
21
-65.2526
0
LINE
8
Cyan 2
10
69.7992
20
-65.2526
11
69.6214
21
-65.2526
0
LINE
8
Cyan 2
10
70.5866
20
-64.389
11
70.5866
21
-65.2526
0
LINE
8
Cyan 2
10
70.5866
20
-64.516
11
70.6374
21
-64.4652
0
LINE
8
Cyan 2
10
70.6374
20
-64.4652
11
70.7644
21
-64.389
0
LINE
8
Cyan 2
10
70.7644
20
-64.389
11
70.9422
21
-64.389
0
LINE
8
Cyan 2
10
70.9422
20
-64.389
11
71.0692
21
-64.4652
0
LINE
8
Cyan 2
10
71.0692
20
-64.4652
11
71.12
21
-64.5668
0
LINE
8
Cyan 2
10
71.12
20
-64.5668
11
71.12
21
-65.2526
0
LINE
8
Cyan 2
10
71.7296
20
-64.389
11
71.7296
21
-65.2526
0
LINE
8
Cyan 2
10
71.7296
20
-64.516
11
71.7804
21
-64.4652
0
LINE
8
Cyan 2
10
71.7804
20
-64.4652
11
71.9074
21
-64.389
0
LINE
8
Cyan 2
10
71.9074
20
-64.389
11
72.0852
21
-64.389
0
LINE
8
Cyan 2
10
72.0852
20
-64.389
11
72.2122
21
-64.4652
0
LINE
8
Cyan 2
10
72.2122
20
-64.4652
11
72.263
21
-64.5668
0
LINE
8
Cyan 2
10
72.263
20
-64.5668
11
72.263
21
-65.2526
0
LINE
8
Cyan 2
10
72.5678
20
-65.3542
11
73.533
21
-65.3542
0
LINE
8
Cyan 2
10
74.0664
20
-63.9826
11
74.1934
21
-63.9826
0
LINE
8
Cyan 2
10
74.1934
20
-63.9826
11
74.3204
21
-64.0334
0
LINE
8
Cyan 2
10
74.3204
20
-64.0334
11
74.3712
21
-64.0842
0
LINE
8
Cyan 2
10
74.3712
20
-64.0842
11
74.4474
21
-64.2112
0
LINE
8
Cyan 2
10
74.4474
20
-64.2112
11
74.4982
21
-64.4652
0
LINE
8
Cyan 2
10
74.4982
20
-64.4652
11
74.4982
21
-64.77
0
LINE
8
Cyan 2
10
74.4982
20
-64.77
11
74.4474
21
-64.9986
0
LINE
8
Cyan 2
10
74.4474
20
-64.9986
11
74.3712
21
-65.1256
0
LINE
8
Cyan 2
10
74.3712
20
-65.1256
11
74.3204
21
-65.1764
0
LINE
8
Cyan 2
10
74.3204
20
-65.1764
11
74.1934
21
-65.2526
0
LINE
8
Cyan 2
10
74.1934
20
-65.2526
11
74.0664
21
-65.2526
0
LINE
8
Cyan 2
10
74.0664
20
-65.2526
11
73.9648
21
-65.1764
0
LINE
8
Cyan 2
10
73.9648
20
-65.1764
11
73.8886
21
-65.1256
0
LINE
8
Cyan 2
10
73.8886
20
-65.1256
11
73.8378
21
-64.9986
0
LINE
8
Cyan 2
10
73.8378
20
-64.9986
11
73.787
21
-64.77
0
LINE
8
Cyan 2
10
73.787
20
-64.77
11
73.787
21
-64.4652
0
LINE
8
Cyan 2
10
73.787
20
-64.4652
11
73.8378
21
-64.2112
0
LINE
8
Cyan 2
10
73.8378
20
-64.2112
11
73.8886
21
-64.0842
0
LINE
8
Cyan 2
10
73.8886
20
-64.0842
11
73.9648
21
-64.0334
0
LINE
8
Cyan 2
10
73.9648
20
-64.0334
11
74.0664
21
-63.9826
0
LINE
8
Cyan 2
10
75.7174
20
-65.2526
11
75.0062
21
-65.2526
0
LINE
8
Cyan 2
10
75.3618
20
-65.2526
11
75.3618
21
-63.9826
0
LINE
8
Cyan 2
10
75.3618
20
-63.9826
11
75.2348
21
-64.1604
0
LINE
8
Cyan 2
10
75.2348
20
-64.1604
11
75.1078
21
-64.2874
0
LINE
8
Cyan 2
10
75.1078
20
-64.2874
11
75.0062
21
-64.3382
0
LINE
8
Cyan 2
10
76.1492
20
-65.2526
11
76.8096
21
-64.389
0
LINE
8
Cyan 2
10
76.1492
20
-64.389
11
76.8096
21
-65.2526
0
LINE
8
Cyan 2
10
77.5208
20
-63.9826
11
77.6478
21
-63.9826
0
LINE
8
Cyan 2
10
77.6478
20
-63.9826
11
77.7748
21
-64.0334
0
LINE
8
Cyan 2
10
77.7748
20
-64.0334
11
77.8256
21
-64.0842
0
LINE
8
Cyan 2
10
77.8256
20
-64.0842
11
77.9018
21
-64.2112
0
LINE
8
Cyan 2
10
77.9018
20
-64.2112
11
77.9526
21
-64.4652
0
LINE
8
Cyan 2
10
77.9526
20
-64.4652
11
77.9526
21
-64.77
0
LINE
8
Cyan 2
10
77.9526
20
-64.77
11
77.9018
21
-64.9986
0
LINE
8
Cyan 2
10
77.9018
20
-64.9986
11
77.8256
21
-65.1256
0
LINE
8
Cyan 2
10
77.8256
20
-65.1256
11
77.7748
21
-65.1764
0
LINE
8
Cyan 2
10
77.7748
20
-65.1764
11
77.6478
21
-65.2526
0
LINE
8
Cyan 2
10
77.6478
20
-65.2526
11
77.5208
21
-65.2526
0
LINE
8
Cyan 2
10
77.5208
20
-65.2526
11
77.4192
21
-65.1764
0
LINE
8
Cyan 2
10
77.4192
20
-65.1764
11
77.343
21
-65.1256
0
LINE
8
Cyan 2
10
77.343
20
-65.1256
11
77.2922
21
-64.9986
0
LINE
8
Cyan 2
10
77.2922
20
-64.9986
11
77.2414
21
-64.77
0
LINE
8
Cyan 2
10
77.2414
20
-64.77
11
77.2414
21
-64.4652
0
LINE
8
Cyan 2
10
77.2414
20
-64.4652
11
77.2922
21
-64.2112
0
LINE
8
Cyan 2
10
77.2922
20
-64.2112
11
77.343
21
-64.0842
0
LINE
8
Cyan 2
10
77.343
20
-64.0842
11
77.4192
21
-64.0334
0
LINE
8
Cyan 2
10
77.4192
20
-64.0334
11
77.5208
21
-63.9826
0
LINE
8
Cyan 2
10
78.4606
20
-64.0842
11
78.5114
21
-64.0334
0
LINE
8
Cyan 2
10
78.5114
20
-64.0334
11
78.6384
21
-63.9826
0
LINE
8
Cyan 2
10
78.6384
20
-63.9826
11
78.9432
21
-63.9826
0
LINE
8
Cyan 2
10
78.9432
20
-63.9826
11
79.0448
21
-64.0334
0
LINE
8
Cyan 2
10
79.0448
20
-64.0334
11
79.121
21
-64.0842
0
LINE
8
Cyan 2
10
79.121
20
-64.0842
11
79.1718
21
-64.2112
0
LINE
8
Cyan 2
10
79.1718
20
-64.2112
11
79.1718
21
-64.3382
0
LINE
8
Cyan 2
10
79.1718
20
-64.3382
11
79.121
21
-64.516
0
LINE
8
Cyan 2
10
79.121
20
-64.516
11
78.3844
21
-65.2526
0
LINE
8
Cyan 2
10
78.3844
20
-65.2526
11
79.1718
21
-65.2526
0
LINE
8
L.Yellow
10
144.78
20
-59.69
11
144.78
21
-64.77
0
LINE
8
L.Yellow
10
144.78
20
-64.77
11
147.32
21
-64.77
0
LINE
8
L.Yellow
10
147.32
20
-64.77
11
147.32
21
-59.69
0
LINE
8
L.Yellow
10
147.32
20
-59.69
11
144.78
21
-59.69
0
LINE
8
Red 2
10
144.78
20
-59.69
11
144.78
21
-64.77
0
LINE
8
Red 2
10
144.78
20
-64.77
11
147.32
21
-64.77
0
LINE
8
Red 2
10
147.32
20
-64.77
11
147.32
21
-59.69
0
LINE
8
Red 2
10
147.32
20
-59.69
11
144.78
21
-59.69
0
LINE
8
Red 2
10
144.78
20
-63.373
11
144.78
21
-63.627
0
LINE
8
Red 2
10
144.78
20
-63.627
11
146.05
21
-63.627
0
LINE
8
Red 2
10
146.05
20
-63.627
11
146.05
21
-63.373
0
LINE
8
Red 2
10
146.05
20
-63.373
11
144.78
21
-63.373
0
LINE
8
Red 2
10
144.78
20
-60.833
11
144.78
21
-61.087
0
LINE
8
Red 2
10
144.78
20
-61.087
11
146.05
21
-61.087
0
LINE
8
Red 2
10
146.05
20
-61.087
11
146.05
21
-60.833
0
LINE
8
Red 2
10
146.05
20
-60.833
11
144.78
21
-60.833
0
LINE
8
Red 2
10
144.78
20
-60.96
11
140.97
21
-60.96
0
LINE
8
Red 2
10
143.231
20
-60.6552
11
142.519
21
-60.6552
0
LINE
8
Red 2
10
142.875
20
-60.6552
11
142.875
21
-59.3852
0
LINE
8
Red 2
10
142.875
20
-59.3852
11
142.748
21
-59.563
0
LINE
8
Red 2
10
142.748
20
-59.563
11
142.621
21
-59.69
0
LINE
8
Red 2
10
142.621
20
-59.69
11
142.519
21
-59.7408
0
LINE
8
Red 2
10
144.78
20
-63.5
11
140.97
21
-63.5
0
LINE
8
Red 2
10
142.519
20
-62.0268
11
142.57
21
-61.976
0
LINE
8
Red 2
10
142.57
20
-61.976
11
142.697
21
-61.9252
0
LINE
8
Red 2
10
142.697
20
-61.9252
11
143.002
21
-61.9252
0
LINE
8
Red 2
10
143.002
20
-61.9252
11
143.104
21
-61.976
0
LINE
8
Red 2
10
143.104
20
-61.976
11
143.18
21
-62.0268
0
LINE
8
Red 2
10
143.18
20
-62.0268
11
143.231
21
-62.1538
0
LINE
8
Red 2
10
143.231
20
-62.1538
11
143.231
21
-62.2808
0
LINE
8
Red 2
10
143.231
20
-62.2808
11
143.18
21
-62.4586
0
LINE
8
Red 2
10
143.18
20
-62.4586
11
142.443
21
-63.1952
0
LINE
8
Red 2
10
142.443
20
-63.1952
11
143.231
21
-63.1952
0
LINE
8
Cyan 2
10
145.618
20
-57.8104
11
145.618
21
-58.6994
0
LINE
8
Cyan 2
10
145.618
20
-58.6994
11
145.567
21
-58.8772
0
LINE
8
Cyan 2
10
145.567
20
-58.8772
11
145.44
21
-59.0042
0
LINE
8
Cyan 2
10
145.44
20
-59.0042
11
145.263
21
-59.0804
0
LINE
8
Cyan 2
10
145.263
20
-59.0804
11
145.136
21
-59.0804
0
LINE
8
Cyan 2
10
146.177
20
-57.912
11
146.228
21
-57.8612
0
LINE
8
Cyan 2
10
146.228
20
-57.8612
11
146.355
21
-57.8104
0
LINE
8
Cyan 2
10
146.355
20
-57.8104
11
146.66
21
-57.8104
0
LINE
8
Cyan 2
10
146.66
20
-57.8104
11
146.761
21
-57.8612
0
LINE
8
Cyan 2
10
146.761
20
-57.8612
11
146.837
21
-57.912
0
LINE
8
Cyan 2
10
146.837
20
-57.912
11
146.888
21
-58.039
0
LINE
8
Cyan 2
10
146.888
20
-58.039
11
146.888
21
-58.166
0
LINE
8
Cyan 2
10
146.888
20
-58.166
11
146.837
21
-58.3438
0
LINE
8
Cyan 2
10
146.837
20
-58.3438
11
146.101
21
-59.0804
0
LINE
8
Cyan 2
10
146.101
20
-59.0804
11
146.888
21
-59.0804
0
LINE
8
Cyan 2
10
141.3
20
-66.5734
11
141.249
21
-66.6242
0
LINE
8
Cyan 2
10
141.249
20
-66.6242
11
141.072
21
-66.7004
0
LINE
8
Cyan 2
10
141.072
20
-66.7004
11
140.945
21
-66.7004
0
LINE
8
Cyan 2
10
140.945
20
-66.7004
11
140.767
21
-66.6242
0
LINE
8
Cyan 2
10
140.767
20
-66.6242
11
140.64
21
-66.4972
0
LINE
8
Cyan 2
10
140.64
20
-66.4972
11
140.589
21
-66.3956
0
LINE
8
Cyan 2
10
140.589
20
-66.3956
11
140.538
21
-66.1416
0
LINE
8
Cyan 2
10
140.538
20
-66.1416
11
140.538
21
-65.9638
0
LINE
8
Cyan 2
10
140.538
20
-65.9638
11
140.589
21
-65.7352
0
LINE
8
Cyan 2
10
140.589
20
-65.7352
11
140.64
21
-65.6082
0
LINE
8
Cyan 2
10
140.64
20
-65.6082
11
140.767
21
-65.4812
0
LINE
8
Cyan 2
10
140.767
20
-65.4812
11
140.945
21
-65.4304
0
LINE
8
Cyan 2
10
140.945
20
-65.4304
11
141.072
21
-65.4304
0
LINE
8
Cyan 2
10
141.072
20
-65.4304
11
141.249
21
-65.4812
0
LINE
8
Cyan 2
10
141.249
20
-65.4812
11
141.3
21
-65.532
0
LINE
8
Cyan 2
10
142.037
20
-66.7004
11
141.91
21
-66.6242
0
LINE
8
Cyan 2
10
141.91
20
-66.6242
11
141.859
21
-66.5734
0
LINE
8
Cyan 2
10
141.859
20
-66.5734
11
141.808
21
-66.4464
0
LINE
8
Cyan 2
10
141.808
20
-66.4464
11
141.808
21
-66.0908
0
LINE
8
Cyan 2
10
141.808
20
-66.0908
11
141.859
21
-65.9638
0
LINE
8
Cyan 2
10
141.859
20
-65.9638
11
141.91
21
-65.913
0
LINE
8
Cyan 2
10
141.91
20
-65.913
11
142.037
21
-65.8368
0
LINE
8
Cyan 2
10
142.037
20
-65.8368
11
142.215
21
-65.8368
0
LINE
8
Cyan 2
10
142.215
20
-65.8368
11
142.342
21
-65.913
0
LINE
8
Cyan 2
10
142.342
20
-65.913
11
142.392
21
-65.9638
0
LINE
8
Cyan 2
10
142.392
20
-65.9638
11
142.469
21
-66.0908
0
LINE
8
Cyan 2
10
142.469
20
-66.0908
11
142.469
21
-66.4464
0
LINE
8
Cyan 2
10
142.469
20
-66.4464
11
142.392
21
-66.5734
0
LINE
8
Cyan 2
10
142.392
20
-66.5734
11
142.342
21
-66.6242
0
LINE
8
Cyan 2
10
142.342
20
-66.6242
11
142.215
21
-66.7004
0
LINE
8
Cyan 2
10
142.215
20
-66.7004
11
142.037
21
-66.7004
0
LINE
8
Cyan 2
10
143.002
20
-65.8368
11
143.002
21
-66.7004
0
LINE
8
Cyan 2
10
143.002
20
-65.9638
11
143.053
21
-65.913
0
LINE
8
Cyan 2
10
143.053
20
-65.913
11
143.18
21
-65.8368
0
LINE
8
Cyan 2
10
143.18
20
-65.8368
11
143.358
21
-65.8368
0
LINE
8
Cyan 2
10
143.358
20
-65.8368
11
143.485
21
-65.913
0
LINE
8
Cyan 2
10
143.485
20
-65.913
11
143.535
21
-66.0146
0
LINE
8
Cyan 2
10
143.535
20
-66.0146
11
143.535
21
-66.7004
0
LINE
8
Cyan 2
10
144.145
20
-65.8368
11
144.145
21
-66.7004
0
LINE
8
Cyan 2
10
144.145
20
-65.9638
11
144.196
21
-65.913
0
LINE
8
Cyan 2
10
144.196
20
-65.913
11
144.323
21
-65.8368
0
LINE
8
Cyan 2
10
144.323
20
-65.8368
11
144.501
21
-65.8368
0
LINE
8
Cyan 2
10
144.501
20
-65.8368
11
144.628
21
-65.913
0
LINE
8
Cyan 2
10
144.628
20
-65.913
11
144.678
21
-66.0146
0
LINE
8
Cyan 2
10
144.678
20
-66.0146
11
144.678
21
-66.7004
0
LINE
8
Cyan 2
10
144.983
20
-66.802
11
145.948
21
-66.802
0
LINE
8
Cyan 2
10
146.482
20
-65.4304
11
146.609
21
-65.4304
0
LINE
8
Cyan 2
10
146.609
20
-65.4304
11
146.736
21
-65.4812
0
LINE
8
Cyan 2
10
146.736
20
-65.4812
11
146.787
21
-65.532
0
LINE
8
Cyan 2
10
146.787
20
-65.532
11
146.863
21
-65.659
0
LINE
8
Cyan 2
10
146.863
20
-65.659
11
146.914
21
-65.913
0
LINE
8
Cyan 2
10
146.914
20
-65.913
11
146.914
21
-66.2178
0
LINE
8
Cyan 2
10
146.914
20
-66.2178
11
146.863
21
-66.4464
0
LINE
8
Cyan 2
10
146.863
20
-66.4464
11
146.787
21
-66.5734
0
LINE
8
Cyan 2
10
146.787
20
-66.5734
11
146.736
21
-66.6242
0
LINE
8
Cyan 2
10
146.736
20
-66.6242
11
146.609
21
-66.7004
0
LINE
8
Cyan 2
10
146.609
20
-66.7004
11
146.482
21
-66.7004
0
LINE
8
Cyan 2
10
146.482
20
-66.7004
11
146.38
21
-66.6242
0
LINE
8
Cyan 2
10
146.38
20
-66.6242
11
146.304
21
-66.5734
0
LINE
8
Cyan 2
10
146.304
20
-66.5734
11
146.253
21
-66.4464
0
LINE
8
Cyan 2
10
146.253
20
-66.4464
11
146.202
21
-66.2178
0
LINE
8
Cyan 2
10
146.202
20
-66.2178
11
146.202
21
-65.913
0
LINE
8
Cyan 2
10
146.202
20
-65.913
11
146.253
21
-65.659
0
LINE
8
Cyan 2
10
146.253
20
-65.659
11
146.304
21
-65.532
0
LINE
8
Cyan 2
10
146.304
20
-65.532
11
146.38
21
-65.4812
0
LINE
8
Cyan 2
10
146.38
20
-65.4812
11
146.482
21
-65.4304
0
LINE
8
Cyan 2
10
148.133
20
-66.7004
11
147.422
21
-66.7004
0
LINE
8
Cyan 2
10
147.777
20
-66.7004
11
147.777
21
-65.4304
0
LINE
8
Cyan 2
10
147.777
20
-65.4304
11
147.65
21
-65.6082
0
LINE
8
Cyan 2
10
147.65
20
-65.6082
11
147.523
21
-65.7352
0
LINE
8
Cyan 2
10
147.523
20
-65.7352
11
147.422
21
-65.786
0
LINE
8
Cyan 2
10
148.565
20
-66.7004
11
149.225
21
-65.8368
0
LINE
8
Cyan 2
10
148.565
20
-65.8368
11
149.225
21
-66.7004
0
LINE
8
Cyan 2
10
149.936
20
-65.4304
11
150.063
21
-65.4304
0
LINE
8
Cyan 2
10
150.063
20
-65.4304
11
150.19
21
-65.4812
0
LINE
8
Cyan 2
10
150.19
20
-65.4812
11
150.241
21
-65.532
0
LINE
8
Cyan 2
10
150.241
20
-65.532
11
150.317
21
-65.659
0
LINE
8
Cyan 2
10
150.317
20
-65.659
11
150.368
21
-65.913
0
LINE
8
Cyan 2
10
150.368
20
-65.913
11
150.368
21
-66.2178
0
LINE
8
Cyan 2
10
150.368
20
-66.2178
11
150.317
21
-66.4464
0
LINE
8
Cyan 2
10
150.317
20
-66.4464
11
150.241
21
-66.5734
0
LINE
8
Cyan 2
10
150.241
20
-66.5734
11
150.19
21
-66.6242
0
LINE
8
Cyan 2
10
150.19
20
-66.6242
11
150.063
21
-66.7004
0
LINE
8
Cyan 2
10
150.063
20
-66.7004
11
149.936
21
-66.7004
0
LINE
8
Cyan 2
10
149.936
20
-66.7004
11
149.835
21
-66.6242
0
LINE
8
Cyan 2
10
149.835
20
-66.6242
11
149.758
21
-66.5734
0
LINE
8
Cyan 2
10
149.758
20
-66.5734
11
149.708
21
-66.4464
0
LINE
8
Cyan 2
10
149.708
20
-66.4464
11
149.657
21
-66.2178
0
LINE
8
Cyan 2
10
149.657
20
-66.2178
11
149.657
21
-65.913
0
LINE
8
Cyan 2
10
149.657
20
-65.913
11
149.708
21
-65.659
0
LINE
8
Cyan 2
10
149.708
20
-65.659
11
149.758
21
-65.532
0
LINE
8
Cyan 2
10
149.758
20
-65.532
11
149.835
21
-65.4812
0
LINE
8
Cyan 2
10
149.835
20
-65.4812
11
149.936
21
-65.4304
0
LINE
8
Cyan 2
10
150.876
20
-65.532
11
150.927
21
-65.4812
0
LINE
8
Cyan 2
10
150.927
20
-65.4812
11
151.054
21
-65.4304
0
LINE
8
Cyan 2
10
151.054
20
-65.4304
11
151.359
21
-65.4304
0
LINE
8
Cyan 2
10
151.359
20
-65.4304
11
151.46
21
-65.4812
0
LINE
8
Cyan 2
10
151.46
20
-65.4812
11
151.536
21
-65.532
0
LINE
8
Cyan 2
10
151.536
20
-65.532
11
151.587
21
-65.659
0
LINE
8
Cyan 2
10
151.587
20
-65.659
11
151.587
21
-65.786
0
LINE
8
Cyan 2
10
151.587
20
-65.786
11
151.536
21
-65.9638
0
LINE
8
Cyan 2
10
151.536
20
-65.9638
11
150.8
21
-66.7004
0
LINE
8
Cyan 2
10
150.8
20
-66.7004
11
151.587
21
-66.7004
0
LINE
8
Green 2
10
78.74
20
-67.31
11
85.09
21
-67.31
0
LINE
8
Red 2
10
78.74
20
-73.66
11
78.74
21
-74.93
0
LINE
8
Red 2
10
78.74
20
-74.93
11
80.01
21
-74.93
0
LINE
8
Red 2
10
80.01
20
-74.93
11
78.74
21
-76.2
0
LINE
8
Red 2
10
78.74
20
-76.2
11
77.47
21
-74.93
0
LINE
8
Red 2
10
77.47
20
-74.93
11
78.74
21
-74.93
0
LINE
8
Cyan 2
10
77.7748
20
-76.9112
11
77.6478
21
-76.8604
0
LINE
8
Cyan 2
10
77.6478
20
-76.8604
11
77.47
21
-76.8604
0
LINE
8
Cyan 2
10
77.47
20
-76.8604
11
77.2922
21
-76.9112
0
LINE
8
Cyan 2
10
77.2922
20
-76.9112
11
77.1652
21
-77.0382
0
LINE
8
Cyan 2
10
77.1652
20
-77.0382
11
77.1144
21
-77.1652
0
LINE
8
Cyan 2
10
77.1144
20
-77.1652
11
77.0636
21
-77.3938
0
LINE
8
Cyan 2
10
77.0636
20
-77.3938
11
77.0636
21
-77.5716
0
LINE
8
Cyan 2
10
77.0636
20
-77.5716
11
77.1144
21
-77.8256
0
LINE
8
Cyan 2
10
77.1144
20
-77.8256
11
77.1652
21
-77.9272
0
LINE
8
Cyan 2
10
77.1652
20
-77.9272
11
77.2922
21
-78.0542
0
LINE
8
Cyan 2
10
77.2922
20
-78.0542
11
77.47
21
-78.1304
0
LINE
8
Cyan 2
10
77.47
20
-78.1304
11
77.597
21
-78.1304
0
LINE
8
Cyan 2
10
77.597
20
-78.1304
11
77.7748
21
-78.0542
0
LINE
8
Cyan 2
10
77.7748
20
-78.0542
11
77.8256
21
-78.0034
0
LINE
8
Cyan 2
10
77.8256
20
-78.0034
11
77.8256
21
-77.5716
0
LINE
8
Cyan 2
10
77.8256
20
-77.5716
11
77.597
21
-77.5716
0
LINE
8
Cyan 2
10
78.3844
20
-78.1304
11
78.3844
21
-76.8604
0
LINE
8
Cyan 2
10
78.3844
20
-76.8604
11
79.0956
21
-78.1304
0
LINE
8
Cyan 2
10
79.0956
20
-78.1304
11
79.0956
21
-76.8604
0
LINE
8
Cyan 2
10
79.7052
20
-78.1304
11
79.7052
21
-76.8604
0
LINE
8
Cyan 2
10
79.7052
20
-76.8604
11
80.01
21
-76.8604
0
LINE
8
Cyan 2
10
80.01
20
-76.8604
11
80.1878
21
-76.9112
0
LINE
8
Cyan 2
10
80.1878
20
-76.9112
11
80.3148
21
-77.0382
0
LINE
8
Cyan 2
10
80.3148
20
-77.0382
11
80.3656
21
-77.1652
0
LINE
8
Cyan 2
10
80.3656
20
-77.1652
11
80.4164
21
-77.3938
0
LINE
8
Cyan 2
10
80.4164
20
-77.3938
11
80.4164
21
-77.5716
0
LINE
8
Cyan 2
10
80.4164
20
-77.5716
11
80.3656
21
-77.8256
0
LINE
8
Cyan 2
10
80.3656
20
-77.8256
11
80.3148
21
-77.9272
0
LINE
8
Cyan 2
10
80.3148
20
-77.9272
11
80.1878
21
-78.0542
0
LINE
8
Cyan 2
10
80.1878
20
-78.0542
11
80.01
21
-78.1304
0
LINE
8
Cyan 2
10
80.01
20
-78.1304
11
79.7052
21
-78.1304
0
LINE
8
Green 2
10
78.74
20
-69.85
11
78.74
21
-73.66
0
LINE
8
Green 2
10
96.52
20
-59.69
11
96.52
21
-77.47
0
LINE
8
Green 2
10
90.17
20
-67.31
11
104.14
21
-67.31
0
POLYLINE
8
Green 2
66
1
70
1
40
0.508
41
0.508
0
VERTEX
8
Green 2
10
96.266
 20
-67.31
42
1.0
0
VERTEX
8
Green 2
10
96.774
 20
-67.31
42
1.0
0
SEQEND
0
LINE
8
Green 2
10
96.52
20
-52.07
11
123.19
21
-52.07
0
LINE
8
Green 2
10
111.76
20
-59.69
11
111.76
21
-62.23
0
LINE
8
Green 2
10
96.52
20
-85.09
11
119.38
21
-85.09
0
LINE
8
Green 2
10
111.76
20
-72.39
11
111.76
21
-77.47
0
POLYLINE
8
Green 2
66
1
70
1
40
0.508
41
0.508
0
VERTEX
8
Green 2
10
111.506
 20
-85.09
42
1.0
0
VERTEX
8
Green 2
10
112.014
 20
-85.09
42
1.0
0
SEQEND
0
LINE
8
Green 2
10
111.76
20
-76.2
11
119.38
21
-76.2
0
LINE
8
Green 2
10
119.38
20
-76.2
11
119.38
21
-78.74
0
POLYLINE
8
Green 2
66
1
70
1
40
0.508
41
0.508
0
VERTEX
8
Green 2
10
111.506
 20
-76.2
42
1.0
0
VERTEX
8
Green 2
10
112.014
 20
-76.2
42
1.0
0
SEQEND
0
LINE
8
Red 2
10
115.57
20
-45.72
11
115.57
21
-44.45
0
LINE
8
Red 2
10
115.57
20
-44.45
11
114.554
21
-43.815
0
LINE
8
Red 2
10
114.554
20
-43.815
11
115.57
21
-43.18
0
LINE
8
Red 2
10
115.57
20
-43.18
11
116.586
21
-43.815
0
LINE
8
Red 2
10
116.586
20
-43.815
11
115.57
21
-44.45
0
LINE
8
Cyan 2
10
111.176
20
-42.5704
11
111.176
21
-41.3004
0
LINE
8
Cyan 2
10
111.176
20
-41.3004
11
111.658
21
-41.3004
0
LINE
8
Cyan 2
10
111.658
20
-41.3004
11
111.785
21
-41.3512
0
LINE
8
Cyan 2
10
111.785
20
-41.3512
11
111.836
21
-41.402
0
LINE
8
Cyan 2
10
111.836
20
-41.402
11
111.887
21
-41.529
0
LINE
8
Cyan 2
10
111.887
20
-41.529
11
111.887
21
-41.7068
0
LINE
8
Cyan 2
10
111.887
20
-41.7068
11
111.836
21
-41.8338
0
LINE
8
Cyan 2
10
111.836
20
-41.8338
11
111.785
21
-41.8846
0
LINE
8
Cyan 2
10
111.785
20
-41.8846
11
111.658
21
-41.9608
0
LINE
8
Cyan 2
10
111.658
20
-41.9608
11
111.176
21
-41.9608
0
LINE
8
Cyan 2
10
112.319
20
-41.3004
11
112.624
21
-42.5704
0
LINE
8
Cyan 2
10
112.624
20
-42.5704
11
112.878
21
-41.656
0
LINE
8
Cyan 2
10
112.878
20
-41.656
11
113.106
21
-42.5704
0
LINE
8
Cyan 2
10
113.106
20
-42.5704
11
113.411
21
-41.3004
0
LINE
8
Cyan 2
10
114.605
20
-42.5704
11
114.198
21
-41.9608
0
LINE
8
Cyan 2
10
113.894
20
-42.5704
11
113.894
21
-41.3004
0
LINE
8
Cyan 2
10
113.894
20
-41.3004
11
114.376
21
-41.3004
0
LINE
8
Cyan 2
10
114.376
20
-41.3004
11
114.503
21
-41.3512
0
LINE
8
Cyan 2
10
114.503
20
-41.3512
11
114.554
21
-41.402
0
LINE
8
Cyan 2
10
114.554
20
-41.402
11
114.605
21
-41.529
0
LINE
8
Cyan 2
10
114.605
20
-41.529
11
114.605
21
-41.7068
0
LINE
8
Cyan 2
10
114.605
20
-41.7068
11
114.554
21
-41.8338
0
LINE
8
Cyan 2
10
114.554
20
-41.8338
11
114.503
21
-41.8846
0
LINE
8
Cyan 2
10
114.503
20
-41.8846
11
114.376
21
-41.9608
0
LINE
8
Cyan 2
10
114.376
20
-41.9608
11
113.894
21
-41.9608
0
LINE
8
Cyan 2
10
114.859
20
-42.672
11
115.824
21
-42.672
0
LINE
8
Cyan 2
10
116.561
20
-41.8846
11
116.129
21
-41.8846
0
LINE
8
Cyan 2
10
116.129
20
-42.5704
11
116.129
21
-41.3004
0
LINE
8
Cyan 2
10
116.129
20
-41.3004
11
116.738
21
-41.3004
0
LINE
8
Cyan 2
10
117.831
20
-42.5704
11
117.221
21
-42.5704
0
LINE
8
Cyan 2
10
117.221
20
-42.5704
11
117.221
21
-41.3004
0
LINE
8
Cyan 2
10
118.186
20
-42.1894
11
118.77
21
-42.1894
0
LINE
8
Cyan 2
10
118.059
20
-42.5704
11
118.466
21
-41.3004
0
LINE
8
Cyan 2
10
118.466
20
-41.3004
11
118.897
21
-42.5704
0
LINE
8
Cyan 2
10
119.99
20
-41.3512
11
119.863
21
-41.3004
0
LINE
8
Cyan 2
10
119.863
20
-41.3004
11
119.685
21
-41.3004
0
LINE
8
Cyan 2
10
119.685
20
-41.3004
11
119.507
21
-41.3512
0
LINE
8
Cyan 2
10
119.507
20
-41.3512
11
119.38
21
-41.4782
0
LINE
8
Cyan 2
10
119.38
20
-41.4782
11
119.329
21
-41.6052
0
LINE
8
Cyan 2
10
119.329
20
-41.6052
11
119.278
21
-41.8338
0
LINE
8
Cyan 2
10
119.278
20
-41.8338
11
119.278
21
-42.0116
0
LINE
8
Cyan 2
10
119.278
20
-42.0116
11
119.329
21
-42.2656
0
LINE
8
Cyan 2
10
119.329
20
-42.2656
11
119.38
21
-42.3672
0
LINE
8
Cyan 2
10
119.38
20
-42.3672
11
119.507
21
-42.4942
0
LINE
8
Cyan 2
10
119.507
20
-42.4942
11
119.685
21
-42.5704
0
LINE
8
Cyan 2
10
119.685
20
-42.5704
11
119.812
21
-42.5704
0
LINE
8
Cyan 2
10
119.812
20
-42.5704
11
119.99
21
-42.4942
0
LINE
8
Cyan 2
10
119.99
20
-42.4942
11
120.04
21
-42.4434
0
LINE
8
Cyan 2
10
120.04
20
-42.4434
11
120.04
21
-42.0116
0
LINE
8
Cyan 2
10
120.04
20
-42.0116
11
119.812
21
-42.0116
0
LINE
8
Red 2
10
122.428
20
-44.45
11
123.19
21
-43.18
0
LINE
8
Red 2
10
123.19
20
-45.72
11
123.19
21
-43.18
0
LINE
8
Red 2
10
123.19
20
-43.18
11
123.952
21
-44.45
0
LINE
8
Cyan 2
10
120.955
20
-42.3418
11
121.92
21
-42.3418
0
LINE
8
Cyan 2
10
121.437
20
-42.8244
11
121.437
21
-41.8592
0
LINE
8
Cyan 2
10
123.19
20
-42.8244
11
122.479
21
-42.8244
0
LINE
8
Cyan 2
10
122.834
20
-42.8244
11
122.834
21
-41.5544
0
LINE
8
Cyan 2
10
122.834
20
-41.5544
11
122.707
21
-41.7322
0
LINE
8
Cyan 2
10
122.707
20
-41.7322
11
122.58
21
-41.8592
0
LINE
8
Cyan 2
10
122.58
20
-41.8592
11
122.479
21
-41.91
0
LINE
8
Cyan 2
10
123.698
20
-41.656
11
123.749
21
-41.6052
0
LINE
8
Cyan 2
10
123.749
20
-41.6052
11
123.876
21
-41.5544
0
LINE
8
Cyan 2
10
123.876
20
-41.5544
11
124.181
21
-41.5544
0
LINE
8
Cyan 2
10
124.181
20
-41.5544
11
124.282
21
-41.6052
0
LINE
8
Cyan 2
10
124.282
20
-41.6052
11
124.358
21
-41.656
0
LINE
8
Cyan 2
10
124.358
20
-41.656
11
124.409
21
-41.783
0
LINE
8
Cyan 2
10
124.409
20
-41.783
11
124.409
21
-41.91
0
LINE
8
Cyan 2
10
124.409
20
-41.91
11
124.358
21
-42.0878
0
LINE
8
Cyan 2
10
124.358
20
-42.0878
11
123.622
21
-42.8244
0
LINE
8
Cyan 2
10
123.622
20
-42.8244
11
124.409
21
-42.8244
0
LINE
8
Cyan 2
10
124.79
20
-41.5544
11
125.197
21
-42.8244
0
LINE
8
Cyan 2
10
125.197
20
-42.8244
11
125.628
21
-41.5544
0
LINE
8
Green 2
10
132.08
20
-60.96
11
140.97
21
-60.96
0
LINE
8
Red 2
10
138.43
20
-69.85
11
138.43
21
-71.12
0
LINE
8
Red 2
10
138.43
20
-71.12
11
139.7
21
-71.12
0
LINE
8
Red 2
10
139.7
20
-71.12
11
138.43
21
-72.39
0
LINE
8
Red 2
10
138.43
20
-72.39
11
137.16
21
-71.12
0
LINE
8
Red 2
10
137.16
20
-71.12
11
138.43
21
-71.12
0
LINE
8
Cyan 2
10
137.465
20
-73.1012
11
137.338
21
-73.0504
0
LINE
8
Cyan 2
10
137.338
20
-73.0504
11
137.16
21
-73.0504
0
LINE
8
Cyan 2
10
137.16
20
-73.0504
11
136.982
21
-73.1012
0
LINE
8
Cyan 2
10
136.982
20
-73.1012
11
136.855
21
-73.2282
0
LINE
8
Cyan 2
10
136.855
20
-73.2282
11
136.804
21
-73.3552
0
LINE
8
Cyan 2
10
136.804
20
-73.3552
11
136.754
21
-73.5838
0
LINE
8
Cyan 2
10
136.754
20
-73.5838
11
136.754
21
-73.7616
0
LINE
8
Cyan 2
10
136.754
20
-73.7616
11
136.804
21
-74.0156
0
LINE
8
Cyan 2
10
136.804
20
-74.0156
11
136.855
21
-74.1172
0
LINE
8
Cyan 2
10
136.855
20
-74.1172
11
136.982
21
-74.2442
0
LINE
8
Cyan 2
10
136.982
20
-74.2442
11
137.16
21
-74.3204
0
LINE
8
Cyan 2
10
137.16
20
-74.3204
11
137.287
21
-74.3204
0
LINE
8
Cyan 2
10
137.287
20
-74.3204
11
137.465
21
-74.2442
0
LINE
8
Cyan 2
10
137.465
20
-74.2442
11
137.516
21
-74.1934
0
LINE
8
Cyan 2
10
137.516
20
-74.1934
11
137.516
21
-73.7616
0
LINE
8
Cyan 2
10
137.516
20
-73.7616
11
137.287
21
-73.7616
0
LINE
8
Cyan 2
10
138.074
20
-74.3204
11
138.074
21
-73.0504
0
LINE
8
Cyan 2
10
138.074
20
-73.0504
11
138.786
21
-74.3204
0
LINE
8
Cyan 2
10
138.786
20
-74.3204
11
138.786
21
-73.0504
0
LINE
8
Cyan 2
10
139.395
20
-74.3204
11
139.395
21
-73.0504
0
LINE
8
Cyan 2
10
139.395
20
-73.0504
11
139.7
21
-73.0504
0
LINE
8
Cyan 2
10
139.7
20
-73.0504
11
139.878
21
-73.1012
0
LINE
8
Cyan 2
10
139.878
20
-73.1012
11
140.005
21
-73.2282
0
LINE
8
Cyan 2
10
140.005
20
-73.2282
11
140.056
21
-73.3552
0
LINE
8
Cyan 2
10
140.056
20
-73.3552
11
140.106
21
-73.5838
0
LINE
8
Cyan 2
10
140.106
20
-73.5838
11
140.106
21
-73.7616
0
LINE
8
Cyan 2
10
140.106
20
-73.7616
11
140.056
21
-74.0156
0
LINE
8
Cyan 2
10
140.056
20
-74.0156
11
140.005
21
-74.1172
0
LINE
8
Cyan 2
10
140.005
20
-74.1172
11
139.878
21
-74.2442
0
LINE
8
Cyan 2
10
139.878
20
-74.2442
11
139.7
21
-74.3204
0
LINE
8
Cyan 2
10
139.7
20
-74.3204
11
139.395
21
-74.3204
0
LINE
8
Green 2
10
140.97
20
-63.5
11
138.43
21
-63.5
0
LINE
8
Green 2
10
138.43
20
-63.5
11
138.43
21
-69.85
0
LINE
8
Green 2
10
115.57
20
-45.72
11
115.57
21
-52.07
0
POLYLINE
8
Green 2
66
1
70
1
40
0.508
41
0.508
0
VERTEX
8
Green 2
10
111.506
 20
-52.07
42
1.0
0
VERTEX
8
Green 2
10
112.014
 20
-52.07
42
1.0
0
SEQEND
0
LINE
8
Green 2
10
123.19
20
-52.07
11
123.19
21
-45.72
0
POLYLINE
8
Green 2
66
1
70
1
40
0.508
41
0.508
0
VERTEX
8
Green 2
10
115.316
 20
-52.07
42
1.0
0
VERTEX
8
Green 2
10
115.824
 20
-52.07
42
1.0
0
SEQEND
0
ARC
8
Red 2
10
91.186
20
-67.31
40
3.175
50
-208.6
51
-151.4
0
LINE
8
Red 2
10
87.122
20
-68.834
11
87.122
21
-65.786
0
LINE
8
Red 2
10
86.106
20
-68.58
11
86.106
21
-68.072
0
LINE
8
Red 2
10
86.36
20
-68.326
11
85.852
21
-68.326
0
LINE
8
Red 2
10
87.122
20
-67.31
11
85.09
21
-67.31
0
LINE
8
Red 2
10
88.138
20
-67.31
11
90.17
21
-67.31
0
LINE
8
Cyan 2
10
86.3854
20
-66.04
11
86.4362
21
-66.0908
0
LINE
8
Cyan 2
10
86.4362
20
-66.0908
11
86.5124
21
-66.2686
0
LINE
8
Cyan 2
10
86.5124
20
-66.2686
11
86.5124
21
-66.3956
0
LINE
8
Cyan 2
10
86.5124
20
-66.3956
11
86.4362
21
-66.5734
0
LINE
8
Cyan 2
10
86.4362
20
-66.5734
11
86.3092
21
-66.7004
0
LINE
8
Cyan 2
10
86.3092
20
-66.7004
11
86.2076
21
-66.7512
0
LINE
8
Cyan 2
10
86.2076
20
-66.7512
11
85.9536
21
-66.802
0
LINE
8
Cyan 2
10
85.9536
20
-66.802
11
85.7758
21
-66.802
0
LINE
8
Cyan 2
10
85.7758
20
-66.802
11
85.5472
21
-66.7512
0
LINE
8
Cyan 2
10
85.5472
20
-66.7512
11
85.4202
21
-66.7004
0
LINE
8
Cyan 2
10
85.4202
20
-66.7004
11
85.2932
21
-66.5734
0
LINE
8
Cyan 2
10
85.2932
20
-66.5734
11
85.2424
21
-66.3956
0
LINE
8
Cyan 2
10
85.2424
20
-66.3956
11
85.2424
21
-66.2686
0
LINE
8
Cyan 2
10
85.2424
20
-66.2686
11
85.2932
21
-66.0908
0
LINE
8
Cyan 2
10
85.2932
20
-66.0908
11
85.344
21
-66.04
0
LINE
8
Cyan 2
10
86.5124
20
-64.8208
11
86.5124
21
-65.532
0
LINE
8
Cyan 2
10
86.5124
20
-65.1764
11
85.2424
21
-65.1764
0
LINE
8
Cyan 2
10
85.2424
20
-65.1764
11
85.4202
21
-65.3034
0
LINE
8
Cyan 2
10
85.4202
20
-65.3034
11
85.5472
21
-65.4304
0
LINE
8
Cyan 2
10
85.5472
20
-65.4304
11
85.598
21
-65.532
0
LINE
8
Cyan 2
10
89.154
20
-66.802
11
89.1032
21
-66.7512
0
LINE
8
Cyan 2
10
89.1032
20
-66.7512
11
89.0524
21
-66.6242
0
LINE
8
Cyan 2
10
89.0524
20
-66.6242
11
89.0524
21
-66.3194
0
LINE
8
Cyan 2
10
89.0524
20
-66.3194
11
89.1032
21
-66.2178
0
LINE
8
Cyan 2
10
89.1032
20
-66.2178
11
89.154
21
-66.1416
0
LINE
8
Cyan 2
10
89.154
20
-66.1416
11
89.281
21
-66.0908
0
LINE
8
Cyan 2
10
89.281
20
-66.0908
11
89.408
21
-66.0908
0
LINE
8
Cyan 2
10
89.408
20
-66.0908
11
89.5858
21
-66.1416
0
LINE
8
Cyan 2
10
89.5858
20
-66.1416
11
90.3224
21
-66.8782
0
LINE
8
Cyan 2
10
90.3224
20
-66.8782
11
90.3224
21
-66.0908
0
LINE
8
Cyan 2
10
89.0524
20
-65.3034
11
89.0524
21
-65.1764
0
LINE
8
Cyan 2
10
89.0524
20
-65.1764
11
89.1032
21
-65.0494
0
LINE
8
Cyan 2
10
89.1032
20
-65.0494
11
89.154
21
-64.9986
0
LINE
8
Cyan 2
10
89.154
20
-64.9986
11
89.281
21
-64.9224
0
LINE
8
Cyan 2
10
89.281
20
-64.9224
11
89.535
21
-64.8716
0
LINE
8
Cyan 2
10
89.535
20
-64.8716
11
89.8398
21
-64.8716
0
LINE
8
Cyan 2
10
89.8398
20
-64.8716
11
90.0684
21
-64.9224
0
LINE
8
Cyan 2
10
90.0684
20
-64.9224
11
90.1954
21
-64.9986
0
LINE
8
Cyan 2
10
90.1954
20
-64.9986
11
90.2462
21
-65.0494
0
LINE
8
Cyan 2
10
90.2462
20
-65.0494
11
90.3224
21
-65.1764
0
LINE
8
Cyan 2
10
90.3224
20
-65.1764
11
90.3224
21
-65.3034
0
LINE
8
Cyan 2
10
90.3224
20
-65.3034
11
90.2462
21
-65.405
0
LINE
8
Cyan 2
10
90.2462
20
-65.405
11
90.1954
21
-65.4812
0
LINE
8
Cyan 2
10
90.1954
20
-65.4812
11
90.0684
21
-65.532
0
LINE
8
Cyan 2
10
90.0684
20
-65.532
11
89.8398
21
-65.5828
0
LINE
8
Cyan 2
10
89.8398
20
-65.5828
11
89.535
21
-65.5828
0
LINE
8
Cyan 2
10
89.535
20
-65.5828
11
89.281
21
-65.532
0
LINE
8
Cyan 2
10
89.281
20
-65.532
11
89.154
21
-65.4812
0
LINE
8
Cyan 2
10
89.154
20
-65.4812
11
89.1032
21
-65.405
0
LINE
8
Cyan 2
10
89.1032
20
-65.405
11
89.0524
21
-65.3034
0
LINE
8
Cyan 2
10
89.4588
20
-63.7794
11
90.3224
21
-63.7794
0
LINE
8
Cyan 2
10
89.4588
20
-64.3128
11
90.1192
21
-64.3128
0
LINE
8
Cyan 2
10
90.1192
20
-64.3128
11
90.2462
21
-64.262
0
LINE
8
Cyan 2
10
90.2462
20
-64.262
11
90.3224
21
-64.135
0
LINE
8
Cyan 2
10
90.3224
20
-64.135
11
90.3224
21
-63.9572
0
LINE
8
Cyan 2
10
90.3224
20
-63.9572
11
90.2462
21
-63.8302
0
LINE
8
Cyan 2
10
90.2462
20
-63.8302
11
90.1954
21
-63.7794
0
LINE
8
Cyan 2
10
89.6366
20
-62.738
11
89.6366
21
-63.1698
0
LINE
8
Cyan 2
10
90.3224
20
-63.1698
11
89.0524
21
-63.1698
0
LINE
8
Cyan 2
10
89.0524
20
-63.1698
11
89.0524
21
-62.5602
0
ARC
8
Red 2
10
119.38
20
-84.836
40
3.175
50
-298.6
51
-241.4
0
LINE
8
Red 2
10
117.856
20
-80.772
11
120.904
21
-80.772
0
LINE
8
Red 2
10
118.11
20
-79.756
11
118.618
21
-79.756
0
LINE
8
Red 2
10
118.364
20
-80.01
11
118.364
21
-79.502
0
LINE
8
Red 2
10
119.38
20
-80.772
11
119.38
21
-78.74
0
LINE
8
Red 2
10
119.38
20
-81.788
11
119.38
21
-83.82
0
LINE
8
Cyan 2
10
120.65
20
-80.0354
11
120.599
21
-80.0862
0
LINE
8
Cyan 2
10
120.599
20
-80.0862
11
120.421
21
-80.1624
0
LINE
8
Cyan 2
10
120.421
20
-80.1624
11
120.294
21
-80.1624
0
LINE
8
Cyan 2
10
120.294
20
-80.1624
11
120.117
21
-80.0862
0
LINE
8
Cyan 2
10
120.117
20
-80.0862
11
119.99
21
-79.9592
0
LINE
8
Cyan 2
10
119.99
20
-79.9592
11
119.939
21
-79.8576
0
LINE
8
Cyan 2
10
119.939
20
-79.8576
11
119.888
21
-79.6036
0
LINE
8
Cyan 2
10
119.888
20
-79.6036
11
119.888
21
-79.4258
0
LINE
8
Cyan 2
10
119.888
20
-79.4258
11
119.939
21
-79.1972
0
LINE
8
Cyan 2
10
119.939
20
-79.1972
11
119.99
21
-79.0702
0
LINE
8
Cyan 2
10
119.99
20
-79.0702
11
120.117
21
-78.9432
0
LINE
8
Cyan 2
10
120.117
20
-78.9432
11
120.294
21
-78.8924
0
LINE
8
Cyan 2
10
120.294
20
-78.8924
11
120.421
21
-78.8924
0
LINE
8
Cyan 2
10
120.421
20
-78.8924
11
120.599
21
-78.9432
0
LINE
8
Cyan 2
10
120.599
20
-78.9432
11
120.65
21
-78.994
0
LINE
8
Cyan 2
10
121.158
20
-78.994
11
121.209
21
-78.9432
0
LINE
8
Cyan 2
10
121.209
20
-78.9432
11
121.336
21
-78.8924
0
LINE
8
Cyan 2
10
121.336
20
-78.8924
11
121.641
21
-78.8924
0
LINE
8
Cyan 2
10
121.641
20
-78.8924
11
121.742
21
-78.9432
0
LINE
8
Cyan 2
10
121.742
20
-78.9432
11
121.818
21
-78.994
0
LINE
8
Cyan 2
10
121.818
20
-78.994
11
121.869
21
-79.121
0
LINE
8
Cyan 2
10
121.869
20
-79.121
11
121.869
21
-79.248
0
LINE
8
Cyan 2
10
121.869
20
-79.248
11
121.818
21
-79.4258
0
LINE
8
Cyan 2
10
121.818
20
-79.4258
11
121.082
21
-80.1624
0
LINE
8
Cyan 2
10
121.082
20
-80.1624
11
121.869
21
-80.1624
0
LINE
8
Cyan 2
10
120.548
20
-82.7024
11
119.939
21
-82.7024
0
LINE
8
Cyan 2
10
119.939
20
-82.7024
11
119.888
21
-83.2866
0
LINE
8
Cyan 2
10
119.888
20
-83.2866
11
119.939
21
-83.2358
0
LINE
8
Cyan 2
10
119.939
20
-83.2358
11
120.066
21
-83.185
0
LINE
8
Cyan 2
10
120.066
20
-83.185
11
120.371
21
-83.185
0
LINE
8
Cyan 2
10
120.371
20
-83.185
11
120.472
21
-83.2358
0
LINE
8
Cyan 2
10
120.472
20
-83.2358
11
120.548
21
-83.2866
0
LINE
8
Cyan 2
10
120.548
20
-83.2866
11
120.599
21
-83.4136
0
LINE
8
Cyan 2
10
120.599
20
-83.4136
11
120.599
21
-83.7184
0
LINE
8
Cyan 2
10
120.599
20
-83.7184
11
120.548
21
-83.8454
0
LINE
8
Cyan 2
10
120.548
20
-83.8454
11
120.472
21
-83.8962
0
LINE
8
Cyan 2
10
120.472
20
-83.8962
11
120.371
21
-83.9724
0
LINE
8
Cyan 2
10
120.371
20
-83.9724
11
120.066
21
-83.9724
0
LINE
8
Cyan 2
10
120.066
20
-83.9724
11
119.939
21
-83.8962
0
LINE
8
Cyan 2
10
119.939
20
-83.8962
11
119.888
21
-83.8454
0
LINE
8
Cyan 2
10
121.387
20
-82.7024
11
121.514
21
-82.7024
0
LINE
8
Cyan 2
10
121.514
20
-82.7024
11
121.641
21
-82.7532
0
LINE
8
Cyan 2
10
121.641
20
-82.7532
11
121.691
21
-82.804
0
LINE
8
Cyan 2
10
121.691
20
-82.804
11
121.768
21
-82.931
0
LINE
8
Cyan 2
10
121.768
20
-82.931
11
121.818
21
-83.185
0
LINE
8
Cyan 2
10
121.818
20
-83.185
11
121.818
21
-83.4898
0
LINE
8
Cyan 2
10
121.818
20
-83.4898
11
121.768
21
-83.7184
0
LINE
8
Cyan 2
10
121.768
20
-83.7184
11
121.691
21
-83.8454
0
LINE
8
Cyan 2
10
121.691
20
-83.8454
11
121.641
21
-83.8962
0
LINE
8
Cyan 2
10
121.641
20
-83.8962
11
121.514
21
-83.9724
0
LINE
8
Cyan 2
10
121.514
20
-83.9724
11
121.387
21
-83.9724
0
LINE
8
Cyan 2
10
121.387
20
-83.9724
11
121.285
21
-83.8962
0
LINE
8
Cyan 2
10
121.285
20
-83.8962
11
121.209
21
-83.8454
0
LINE
8
Cyan 2
10
121.209
20
-83.8454
11
121.158
21
-83.7184
0
LINE
8
Cyan 2
10
121.158
20
-83.7184
11
121.107
21
-83.4898
0
LINE
8
Cyan 2
10
121.107
20
-83.4898
11
121.107
21
-83.185
0
LINE
8
Cyan 2
10
121.107
20
-83.185
11
121.158
21
-82.931
0
LINE
8
Cyan 2
10
121.158
20
-82.931
11
121.209
21
-82.804
0
LINE
8
Cyan 2
10
121.209
20
-82.804
11
121.285
21
-82.7532
0
LINE
8
Cyan 2
10
121.285
20
-82.7532
11
121.387
21
-82.7024
0
LINE
8
Cyan 2
10
122.911
20
-83.1088
11
122.911
21
-83.9724
0
LINE
8
Cyan 2
10
122.377
20
-83.1088
11
122.377
21
-83.7692
0
LINE
8
Cyan 2
10
122.377
20
-83.7692
11
122.428
21
-83.8962
0
LINE
8
Cyan 2
10
122.428
20
-83.8962
11
122.555
21
-83.9724
0
LINE
8
Cyan 2
10
122.555
20
-83.9724
11
122.733
21
-83.9724
0
LINE
8
Cyan 2
10
122.733
20
-83.9724
11
122.86
21
-83.8962
0
LINE
8
Cyan 2
10
122.86
20
-83.8962
11
122.911
21
-83.8454
0
LINE
8
Cyan 2
10
123.952
20
-83.2866
11
123.52
21
-83.2866
0
LINE
8
Cyan 2
10
123.52
20
-83.9724
11
123.52
21
-82.7024
0
LINE
8
Cyan 2
10
123.52
20
-82.7024
11
124.13
21
-82.7024
0
ARC
8
Red 2
10
133.096
20
-60.96
40
3.175
50
-208.6
51
-151.4
0
LINE
8
Red 2
10
129.032
20
-62.484
11
129.032
21
-59.436
0
LINE
8
Red 2
10
128.016
20
-62.23
11
128.016
21
-61.722
0
LINE
8
Red 2
10
128.27
20
-61.976
11
127.762
21
-61.976
0
LINE
8
Red 2
10
129.032
20
-60.96
11
127
21
-60.96
0
LINE
8
Red 2
10
130.048
20
-60.96
11
132.08
21
-60.96
0
LINE
8
Cyan 2
10
128.295
20
-59.69
11
128.346
21
-59.7408
0
LINE
8
Cyan 2
10
128.346
20
-59.7408
11
128.422
21
-59.9186
0
LINE
8
Cyan 2
10
128.422
20
-59.9186
11
128.422
21
-60.0456
0
LINE
8
Cyan 2
10
128.422
20
-60.0456
11
128.346
21
-60.2234
0
LINE
8
Cyan 2
10
128.346
20
-60.2234
11
128.219
21
-60.3504
0
LINE
8
Cyan 2
10
128.219
20
-60.3504
11
128.118
21
-60.4012
0
LINE
8
Cyan 2
10
128.118
20
-60.4012
11
127.864
21
-60.452
0
LINE
8
Cyan 2
10
127.864
20
-60.452
11
127.686
21
-60.452
0
LINE
8
Cyan 2
10
127.686
20
-60.452
11
127.457
21
-60.4012
0
LINE
8
Cyan 2
10
127.457
20
-60.4012
11
127.33
21
-60.3504
0
LINE
8
Cyan 2
10
127.33
20
-60.3504
11
127.203
21
-60.2234
0
LINE
8
Cyan 2
10
127.203
20
-60.2234
11
127.152
21
-60.0456
0
LINE
8
Cyan 2
10
127.152
20
-60.0456
11
127.152
21
-59.9186
0
LINE
8
Cyan 2
10
127.152
20
-59.9186
11
127.203
21
-59.7408
0
LINE
8
Cyan 2
10
127.203
20
-59.7408
11
127.254
21
-59.69
0
LINE
8
Cyan 2
10
127.152
20
-59.2582
11
127.152
21
-58.4708
0
LINE
8
Cyan 2
10
127.152
20
-58.4708
11
127.635
21
-58.9026
0
LINE
8
Cyan 2
10
127.635
20
-58.9026
11
127.635
21
-58.6994
0
LINE
8
Cyan 2
10
127.635
20
-58.6994
11
127.686
21
-58.5978
0
LINE
8
Cyan 2
10
127.686
20
-58.5978
11
127.737
21
-58.5216
0
LINE
8
Cyan 2
10
127.737
20
-58.5216
11
127.864
21
-58.4708
0
LINE
8
Cyan 2
10
127.864
20
-58.4708
11
128.168
21
-58.4708
0
LINE
8
Cyan 2
10
128.168
20
-58.4708
11
128.295
21
-58.5216
0
LINE
8
Cyan 2
10
128.295
20
-58.5216
11
128.346
21
-58.5978
0
LINE
8
Cyan 2
10
128.346
20
-58.5978
11
128.422
21
-58.6994
0
LINE
8
Cyan 2
10
128.422
20
-58.6994
11
128.422
21
-59.0804
0
LINE
8
Cyan 2
10
128.422
20
-59.0804
11
128.346
21
-59.182
0
LINE
8
Cyan 2
10
128.346
20
-59.182
11
128.295
21
-59.2582
0
LINE
8
Cyan 2
10
131.064
20
-60.452
11
131.013
21
-60.4012
0
LINE
8
Cyan 2
10
131.013
20
-60.4012
11
130.962
21
-60.2742
0
LINE
8
Cyan 2
10
130.962
20
-60.2742
11
130.962
21
-59.9694
0
LINE
8
Cyan 2
10
130.962
20
-59.9694
11
131.013
21
-59.8678
0
LINE
8
Cyan 2
10
131.013
20
-59.8678
11
131.064
21
-59.7916
0
LINE
8
Cyan 2
10
131.064
20
-59.7916
11
131.191
21
-59.7408
0
LINE
8
Cyan 2
10
131.191
20
-59.7408
11
131.318
21
-59.7408
0
LINE
8
Cyan 2
10
131.318
20
-59.7408
11
131.496
21
-59.7916
0
LINE
8
Cyan 2
10
131.496
20
-59.7916
11
132.232
21
-60.5282
0
LINE
8
Cyan 2
10
132.232
20
-60.5282
11
132.232
21
-59.7408
0
LINE
8
Cyan 2
10
130.962
20
-58.9534
11
130.962
21
-58.8264
0
LINE
8
Cyan 2
10
130.962
20
-58.8264
11
131.013
21
-58.6994
0
LINE
8
Cyan 2
10
131.013
20
-58.6994
11
131.064
21
-58.6486
0
LINE
8
Cyan 2
10
131.064
20
-58.6486
11
131.191
21
-58.5724
0
LINE
8
Cyan 2
10
131.191
20
-58.5724
11
131.445
21
-58.5216
0
LINE
8
Cyan 2
10
131.445
20
-58.5216
11
131.75
21
-58.5216
0
LINE
8
Cyan 2
10
131.75
20
-58.5216
11
131.978
21
-58.5724
0
LINE
8
Cyan 2
10
131.978
20
-58.5724
11
132.105
21
-58.6486
0
LINE
8
Cyan 2
10
132.105
20
-58.6486
11
132.156
21
-58.6994
0
LINE
8
Cyan 2
10
132.156
20
-58.6994
11
132.232
21
-58.8264
0
LINE
8
Cyan 2
10
132.232
20
-58.8264
11
132.232
21
-58.9534
0
LINE
8
Cyan 2
10
132.232
20
-58.9534
11
132.156
21
-59.055
0
LINE
8
Cyan 2
10
132.156
20
-59.055
11
132.105
21
-59.1312
0
LINE
8
Cyan 2
10
132.105
20
-59.1312
11
131.978
21
-59.182
0
LINE
8
Cyan 2
10
131.978
20
-59.182
11
131.75
21
-59.2328
0
LINE
8
Cyan 2
10
131.75
20
-59.2328
11
131.445
21
-59.2328
0
LINE
8
Cyan 2
10
131.445
20
-59.2328
11
131.191
21
-59.182
0
LINE
8
Cyan 2
10
131.191
20
-59.182
11
131.064
21
-59.1312
0
LINE
8
Cyan 2
10
131.064
20
-59.1312
11
131.013
21
-59.055
0
LINE
8
Cyan 2
10
131.013
20
-59.055
11
130.962
21
-58.9534
0
LINE
8
Cyan 2
10
131.369
20
-57.4294
11
132.232
21
-57.4294
0
LINE
8
Cyan 2
10
131.369
20
-57.9628
11
132.029
21
-57.9628
0
LINE
8
Cyan 2
10
132.029
20
-57.9628
11
132.156
21
-57.912
0
LINE
8
Cyan 2
10
132.156
20
-57.912
11
132.232
21
-57.785
0
LINE
8
Cyan 2
10
132.232
20
-57.785
11
132.232
21
-57.6072
0
LINE
8
Cyan 2
10
132.232
20
-57.6072
11
132.156
21
-57.4802
0
LINE
8
Cyan 2
10
132.156
20
-57.4802
11
132.105
21
-57.4294
0
LINE
8
Cyan 2
10
131.547
20
-56.388
11
131.547
21
-56.8198
0
LINE
8
Cyan 2
10
132.232
20
-56.8198
11
130.962
21
-56.8198
0
LINE
8
Cyan 2
10
130.962
20
-56.8198
11
130.962
21
-56.2102
0
LINE
8
Green 2
10
119.38
20
-83.82
11
119.38
21
-88.9
0
LINE
8
Red 2
10
119.38
20
-88.9
11
119.38
21
-90.17
0
LINE
8
Red 2
10
119.38
20
-90.17
11
120.65
21
-90.17
0
LINE
8
Red 2
10
120.65
20
-90.17
11
119.38
21
-91.44
0
LINE
8
Red 2
10
119.38
20
-91.44
11
118.11
21
-90.17
0
LINE
8
Red 2
10
118.11
20
-90.17
11
119.38
21
-90.17
0
LINE
8
Cyan 2
10
118.415
20
-92.1512
11
118.288
21
-92.1004
0
LINE
8
Cyan 2
10
118.288
20
-92.1004
11
118.11
21
-92.1004
0
LINE
8
Cyan 2
10
118.11
20
-92.1004
11
117.932
21
-92.1512
0
LINE
8
Cyan 2
10
117.932
20
-92.1512
11
117.805
21
-92.2782
0
LINE
8
Cyan 2
10
117.805
20
-92.2782
11
117.754
21
-92.4052
0
LINE
8
Cyan 2
10
117.754
20
-92.4052
11
117.704
21
-92.6338
0
LINE
8
Cyan 2
10
117.704
20
-92.6338
11
117.704
21
-92.8116
0
LINE
8
Cyan 2
10
117.704
20
-92.8116
11
117.754
21
-93.0656
0
LINE
8
Cyan 2
10
117.754
20
-93.0656
11
117.805
21
-93.1672
0
LINE
8
Cyan 2
10
117.805
20
-93.1672
11
117.932
21
-93.2942
0
LINE
8
Cyan 2
10
117.932
20
-93.2942
11
118.11
21
-93.3704
0
LINE
8
Cyan 2
10
118.11
20
-93.3704
11
118.237
21
-93.3704
0
LINE
8
Cyan 2
10
118.237
20
-93.3704
11
118.415
21
-93.2942
0
LINE
8
Cyan 2
10
118.415
20
-93.2942
11
118.466
21
-93.2434
0
LINE
8
Cyan 2
10
118.466
20
-93.2434
11
118.466
21
-92.8116
0
LINE
8
Cyan 2
10
118.466
20
-92.8116
11
118.237
21
-92.8116
0
LINE
8
Cyan 2
10
119.024
20
-93.3704
11
119.024
21
-92.1004
0
LINE
8
Cyan 2
10
119.024
20
-92.1004
11
119.736
21
-93.3704
0
LINE
8
Cyan 2
10
119.736
20
-93.3704
11
119.736
21
-92.1004
0
LINE
8
Cyan 2
10
120.345
20
-93.3704
11
120.345
21
-92.1004
0
LINE
8
Cyan 2
10
120.345
20
-92.1004
11
120.65
21
-92.1004
0
LINE
8
Cyan 2
10
120.65
20
-92.1004
11
120.828
21
-92.1512
0
LINE
8
Cyan 2
10
120.828
20
-92.1512
11
120.955
21
-92.2782
0
LINE
8
Cyan 2
10
120.955
20
-92.2782
11
121.006
21
-92.4052
0
LINE
8
Cyan 2
10
121.006
20
-92.4052
11
121.056
21
-92.6338
0
LINE
8
Cyan 2
10
121.056
20
-92.6338
11
121.056
21
-92.8116
0
LINE
8
Cyan 2
10
121.056
20
-92.8116
11
121.006
21
-93.0656
0
LINE
8
Cyan 2
10
121.006
20
-93.0656
11
120.955
21
-93.1672
0
LINE
8
Cyan 2
10
120.955
20
-93.1672
11
120.828
21
-93.2942
0
LINE
8
Cyan 2
10
120.828
20
-93.2942
11
120.65
21
-93.3704
0
LINE
8
Cyan 2
10
120.65
20
-93.3704
11
120.345
21
-93.3704
0
POLYLINE
8
Green 2
66
1
70
1
40
0.508
41
0.508
0
VERTEX
8
Green 2
10
119.126
 20
-85.09
42
1.0
0
VERTEX
8
Green 2
10
119.634
 20
-85.09
42
1.0
0
SEQEND
0
LINE
8
Green 2
10
111.76
20
-60.96
11
127
21
-60.96
0
POLYLINE
8
Green 2
66
1
70
1
40
0.508
41
0.508
0
VERTEX
8
Green 2
10
111.506
 20
-60.96
42
1.0
0
VERTEX
8
Green 2
10
112.014
 20
-60.96
42
1.0
0
SEQEND
0
LINE
8
Red 2
10
127
20
-90.17
11
127
21
-91.44
0
LINE
8
Red 2
10
127
20
-91.44
11
128.016
21
-92.075
0
LINE
8
Red 2
10
128.016
20
-92.075
11
127
21
-92.71
0
LINE
8
Red 2
10
127
20
-92.71
11
125.984
21
-92.075
0
LINE
8
Red 2
10
125.984
20
-92.075
11
127
21
-91.44
0
LINE
8
Cyan 2
10
122.58
20
-94.4626
11
122.58
21
-93.1926
0
LINE
8
Cyan 2
10
122.58
20
-93.1926
11
123.063
21
-93.1926
0
LINE
8
Cyan 2
10
123.063
20
-93.1926
11
123.19
21
-93.2434
0
LINE
8
Cyan 2
10
123.19
20
-93.2434
11
123.241
21
-93.2942
0
LINE
8
Cyan 2
10
123.241
20
-93.2942
11
123.292
21
-93.4212
0
LINE
8
Cyan 2
10
123.292
20
-93.4212
11
123.292
21
-93.599
0
LINE
8
Cyan 2
10
123.292
20
-93.599
11
123.241
21
-93.726
0
LINE
8
Cyan 2
10
123.241
20
-93.726
11
123.19
21
-93.7768
0
LINE
8
Cyan 2
10
123.19
20
-93.7768
11
123.063
21
-93.853
0
LINE
8
Cyan 2
10
123.063
20
-93.853
11
122.58
21
-93.853
0
LINE
8
Cyan 2
10
123.723
20
-93.1926
11
124.028
21
-94.4626
0
LINE
8
Cyan 2
10
124.028
20
-94.4626
11
124.282
21
-93.5482
0
LINE
8
Cyan 2
10
124.282
20
-93.5482
11
124.511
21
-94.4626
0
LINE
8
Cyan 2
10
124.511
20
-94.4626
11
124.816
21
-93.1926
0
LINE
8
Cyan 2
10
126.009
20
-94.4626
11
125.603
21
-93.853
0
LINE
8
Cyan 2
10
125.298
20
-94.4626
11
125.298
21
-93.1926
0
LINE
8
Cyan 2
10
125.298
20
-93.1926
11
125.781
21
-93.1926
0
LINE
8
Cyan 2
10
125.781
20
-93.1926
11
125.908
21
-93.2434
0
LINE
8
Cyan 2
10
125.908
20
-93.2434
11
125.959
21
-93.2942
0
LINE
8
Cyan 2
10
125.959
20
-93.2942
11
126.009
21
-93.4212
0
LINE
8
Cyan 2
10
126.009
20
-93.4212
11
126.009
21
-93.599
0
LINE
8
Cyan 2
10
126.009
20
-93.599
11
125.959
21
-93.726
0
LINE
8
Cyan 2
10
125.959
20
-93.726
11
125.908
21
-93.7768
0
LINE
8
Cyan 2
10
125.908
20
-93.7768
11
125.781
21
-93.853
0
LINE
8
Cyan 2
10
125.781
20
-93.853
11
125.298
21
-93.853
0
LINE
8
Cyan 2
10
126.263
20
-94.5642
11
127.229
21
-94.5642
0
LINE
8
Cyan 2
10
127.965
20
-93.7768
11
127.533
21
-93.7768
0
LINE
8
Cyan 2
10
127.533
20
-94.4626
11
127.533
21
-93.1926
0
LINE
8
Cyan 2
10
127.533
20
-93.1926
11
128.143
21
-93.1926
0
LINE
8
Cyan 2
10
129.235
20
-94.4626
11
128.626
21
-94.4626
0
LINE
8
Cyan 2
10
128.626
20
-94.4626
11
128.626
21
-93.1926
0
LINE
8
Cyan 2
10
129.591
20
-94.0816
11
130.175
21
-94.0816
0
LINE
8
Cyan 2
10
129.464
20
-94.4626
11
129.87
21
-93.1926
0
LINE
8
Cyan 2
10
129.87
20
-93.1926
11
130.302
21
-94.4626
0
LINE
8
Cyan 2
10
131.394
20
-93.2434
11
131.267
21
-93.1926
0
LINE
8
Cyan 2
10
131.267
20
-93.1926
11
131.089
21
-93.1926
0
LINE
8
Cyan 2
10
131.089
20
-93.1926
11
130.912
21
-93.2434
0
LINE
8
Cyan 2
10
130.912
20
-93.2434
11
130.785
21
-93.3704
0
LINE
8
Cyan 2
10
130.785
20
-93.3704
11
130.734
21
-93.4974
0
LINE
8
Cyan 2
10
130.734
20
-93.4974
11
130.683
21
-93.726
0
LINE
8
Cyan 2
10
130.683
20
-93.726
11
130.683
21
-93.9038
0
LINE
8
Cyan 2
10
130.683
20
-93.9038
11
130.734
21
-94.1578
0
LINE
8
Cyan 2
10
130.734
20
-94.1578
11
130.785
21
-94.2594
0
LINE
8
Cyan 2
10
130.785
20
-94.2594
11
130.912
21
-94.3864
0
LINE
8
Cyan 2
10
130.912
20
-94.3864
11
131.089
21
-94.4626
0
LINE
8
Cyan 2
10
131.089
20
-94.4626
11
131.216
21
-94.4626
0
LINE
8
Cyan 2
10
131.216
20
-94.4626
11
131.394
21
-94.3864
0
LINE
8
Cyan 2
10
131.394
20
-94.3864
11
131.445
21
-94.3356
0
LINE
8
Cyan 2
10
131.445
20
-94.3356
11
131.445
21
-93.9038
0
LINE
8
Cyan 2
10
131.445
20
-93.9038
11
131.216
21
-93.9038
0
LINE
8
Green 2
10
119.38
20
-87.63
11
127
21
-87.63
0
LINE
8
Green 2
10
127
20
-87.63
11
127
21
-90.17
0
POLYLINE
8
Green 2
66
1
70
1
40
0.508
41
0.508
0
VERTEX
8
Green 2
10
119.126
 20
-87.63
42
1.0
0
VERTEX
8
Green 2
10
119.634
 20
-87.63
42
1.0
0
SEQEND
  0
ENDSEC
  0
EOF
