<?xml version="1.0" standalone="no"?>
 <!DOCTYPE svg PUBLIC "-//W3C//DTD SVG 1.1//EN" 
 "http://www.w3.org/Graphics/SVG/1.1/DTD/svg11.dtd"> 
<svg xmlns="http://www.w3.org/2000/svg" version="1.1" 
    width="29.7002cm" height="21.0007cm" viewBox="0 0 116930 82680 ">
<title>SVG Picture created as Single_transistor_AMP_miculis-F.SilkS.svg date 2018/06/12 10:32:26 </title>
  <desc>Picture generated by PCBNEW </desc>
<g style="fill:#000000; fill-opacity:1;stroke:#000000; stroke-opacity:1;
stroke-linecap:round; stroke-linejoin:round; "
 transform="translate(0 0) scale(1 1)">
</g>
<g style="fill:#000000; fill-opacity:0.0; 
stroke:#000000; stroke-width:-0.000393701; stroke-opacity:1; 
stroke-linecap:round; stroke-linejoin:round;">
</g>
<g style="fill:#000000; fill-opacity:0.0; 
stroke:#000000; stroke-width:39.3701; stroke-opacity:1; 
stroke-linecap:round; stroke-linejoin:round;">
</g>
<g style="fill:#000000; fill-opacity:0.0; 
stroke:#000000; stroke-width:59.0551; stroke-opacity:1; 
stroke-linecap:round; stroke-linejoin:round;">
<rect x="69685.9" y="65357.2" width="42519.7" height="12598.4" rx="0" />
</g>
<g style="fill:#000000; fill-opacity:0.0; 
stroke:#000000; stroke-width:39.3701; stroke-opacity:1; 
stroke-linecap:round; stroke-linejoin:round;">
</g>
<g style="fill:#000000; fill-opacity:0.0; 
stroke:#000000; stroke-width:59.0551; stroke-opacity:1; 
stroke-linecap:round; stroke-linejoin:round;">
<rect x="3937.01" y="3937.01" width="109056" height="74806" rx="0" />
</g>
<g style="fill:#000000; fill-opacity:0.0; 
stroke:#000000; stroke-width:39.3701; stroke-opacity:1; 
stroke-linecap:round; stroke-linejoin:round;">
</g>
<g style="fill:#000000; fill-opacity:0.0; 
stroke:#000000; stroke-width:59.0551; stroke-opacity:1; 
stroke-linecap:round; stroke-linejoin:round;">
<rect x="4724.41" y="4724.41" width="107481" height="73231.2" rx="0" />
</g>
<g style="fill:#000000; fill-opacity:0.0; 
stroke:#000000; stroke-width:39.3701; stroke-opacity:1; 
stroke-linecap:round; stroke-linejoin:round;">
</g>
<g style="fill:#000000; fill-opacity:0.0; 
stroke:#000000; stroke-width:59.0551; stroke-opacity:1; 
stroke-linecap:round; stroke-linejoin:round;">
<path d="M23622 4724
L23622 3937
" />
</g>
<g style="fill:#000000; fill-opacity:0.0; 
stroke:#000000; stroke-width:39.3701; stroke-opacity:1; 
stroke-linecap:round; stroke-linejoin:round;">
</g>
<g style="fill:#000000; fill-opacity:0.0; 
stroke:#000000; stroke-width:59.0551; stroke-opacity:1; 
stroke-linecap:round; stroke-linejoin:round;">
<path d="M43307 4724
L43307 3937
" />
</g>
<g style="fill:#000000; fill-opacity:0.0; 
stroke:#000000; stroke-width:39.3701; stroke-opacity:1; 
stroke-linecap:round; stroke-linejoin:round;">
</g>
<g style="fill:#000000; fill-opacity:0.0; 
stroke:#000000; stroke-width:59.0551; stroke-opacity:1; 
stroke-linecap:round; stroke-linejoin:round;">
<path d="M62992 4724
L62992 3937
" />
</g>
<g style="fill:#000000; fill-opacity:0.0; 
stroke:#000000; stroke-width:39.3701; stroke-opacity:1; 
stroke-linecap:round; stroke-linejoin:round;">
</g>
<g style="fill:#000000; fill-opacity:0.0; 
stroke:#000000; stroke-width:59.0551; stroke-opacity:1; 
stroke-linecap:round; stroke-linejoin:round;">
<path d="M82677 4724
L82677 3937
" />
</g>
<g style="fill:#000000; fill-opacity:0.0; 
stroke:#000000; stroke-width:39.3701; stroke-opacity:1; 
stroke-linecap:round; stroke-linejoin:round;">
</g>
<g style="fill:#000000; fill-opacity:0.0; 
stroke:#000000; stroke-width:59.0551; stroke-opacity:1; 
stroke-linecap:round; stroke-linejoin:round;">
<path d="M102362 4724
L102362 3937
" />
</g>
<g style="fill:#000000; fill-opacity:0.0; 
stroke:#000000; stroke-width:39.3701; stroke-opacity:1; 
stroke-linecap:round; stroke-linejoin:round;">
</g>
<g style="fill:#000000; fill-opacity:0.0; 
stroke:#000000; stroke-width:59.0551; stroke-opacity:1; 
stroke-linecap:round; stroke-linejoin:round;">
<path d="M14169 4562
L13877 4562
" />
<path d="M14023 4562
L14023 4050
L13974 4123
L13925 4172
L13877 4196
" />
</g>
<g style="fill:#000000; fill-opacity:0.0; 
stroke:#000000; stroke-width:39.3701; stroke-opacity:1; 
stroke-linecap:round; stroke-linejoin:round;">
</g>
<g style="fill:#000000; fill-opacity:0.0; 
stroke:#000000; stroke-width:59.0551; stroke-opacity:1; 
stroke-linecap:round; stroke-linejoin:round;">
<path d="M33562 4099
L33586 4074
L33635 4050
L33757 4050
L33805 4074
L33830 4099
L33854 4147
L33854 4196
L33830 4269
L33537 4562
L33854 4562
" />
</g>
<g style="fill:#000000; fill-opacity:0.0; 
stroke:#000000; stroke-width:39.3701; stroke-opacity:1; 
stroke-linecap:round; stroke-linejoin:round;">
</g>
<g style="fill:#000000; fill-opacity:0.0; 
stroke:#000000; stroke-width:59.0551; stroke-opacity:1; 
stroke-linecap:round; stroke-linejoin:round;">
<path d="M53222 4050
L53539 4050
L53368 4245
L53442 4245
L53490 4269
L53515 4294
L53539 4342
L53539 4464
L53515 4513
L53490 4537
L53442 4562
L53295 4562
L53247 4537
L53222 4513
" />
</g>
<g style="fill:#000000; fill-opacity:0.0; 
stroke:#000000; stroke-width:39.3701; stroke-opacity:1; 
stroke-linecap:round; stroke-linejoin:round;">
</g>
<g style="fill:#000000; fill-opacity:0.0; 
stroke:#000000; stroke-width:59.0551; stroke-opacity:1; 
stroke-linecap:round; stroke-linejoin:round;">
<path d="M73175 4221
L73175 4562
" />
<path d="M73053 4026
L72932 4391
L73248 4391
" />
</g>
<g style="fill:#000000; fill-opacity:0.0; 
stroke:#000000; stroke-width:39.3701; stroke-opacity:1; 
stroke-linecap:round; stroke-linejoin:round;">
</g>
<g style="fill:#000000; fill-opacity:0.0; 
stroke:#000000; stroke-width:59.0551; stroke-opacity:1; 
stroke-linecap:round; stroke-linejoin:round;">
<path d="M92885 4050
L92641 4050
L92617 4294
L92641 4269
L92690 4245
L92812 4245
L92860 4269
L92885 4294
L92909 4342
L92909 4464
L92885 4513
L92860 4537
L92812 4562
L92690 4562
L92641 4537
L92617 4513
" />
</g>
<g style="fill:#000000; fill-opacity:0.0; 
stroke:#000000; stroke-width:39.3701; stroke-opacity:1; 
stroke-linecap:round; stroke-linejoin:round;">
</g>
<g style="fill:#000000; fill-opacity:0.0; 
stroke:#000000; stroke-width:59.0551; stroke-opacity:1; 
stroke-linecap:round; stroke-linejoin:round;">
<path d="M112545 4050
L112448 4050
L112399 4074
L112375 4099
L112326 4172
L112302 4269
L112302 4464
L112326 4513
L112350 4537
L112399 4562
L112497 4562
L112545 4537
L112570 4513
L112594 4464
L112594 4342
L112570 4294
L112545 4269
L112497 4245
L112399 4245
L112350 4269
L112326 4294
L112302 4342
" />
</g>
<g style="fill:#000000; fill-opacity:0.0; 
stroke:#000000; stroke-width:39.3701; stroke-opacity:1; 
stroke-linecap:round; stroke-linejoin:round;">
</g>
<g style="fill:#000000; fill-opacity:0.0; 
stroke:#000000; stroke-width:59.0551; stroke-opacity:1; 
stroke-linecap:round; stroke-linejoin:round;">
<path d="M23622 77955
L23622 78742
" />
</g>
<g style="fill:#000000; fill-opacity:0.0; 
stroke:#000000; stroke-width:39.3701; stroke-opacity:1; 
stroke-linecap:round; stroke-linejoin:round;">
</g>
<g style="fill:#000000; fill-opacity:0.0; 
stroke:#000000; stroke-width:59.0551; stroke-opacity:1; 
stroke-linecap:round; stroke-linejoin:round;">
<path d="M43307 77955
L43307 78742
" />
</g>
<g style="fill:#000000; fill-opacity:0.0; 
stroke:#000000; stroke-width:39.3701; stroke-opacity:1; 
stroke-linecap:round; stroke-linejoin:round;">
</g>
<g style="fill:#000000; fill-opacity:0.0; 
stroke:#000000; stroke-width:59.0551; stroke-opacity:1; 
stroke-linecap:round; stroke-linejoin:round;">
<path d="M62992 77955
L62992 78742
" />
</g>
<g style="fill:#000000; fill-opacity:0.0; 
stroke:#000000; stroke-width:39.3701; stroke-opacity:1; 
stroke-linecap:round; stroke-linejoin:round;">
</g>
<g style="fill:#000000; fill-opacity:0.0; 
stroke:#000000; stroke-width:59.0551; stroke-opacity:1; 
stroke-linecap:round; stroke-linejoin:round;">
<path d="M82677 77955
L82677 78742
" />
</g>
<g style="fill:#000000; fill-opacity:0.0; 
stroke:#000000; stroke-width:39.3701; stroke-opacity:1; 
stroke-linecap:round; stroke-linejoin:round;">
</g>
<g style="fill:#000000; fill-opacity:0.0; 
stroke:#000000; stroke-width:59.0551; stroke-opacity:1; 
stroke-linecap:round; stroke-linejoin:round;">
<path d="M102362 77955
L102362 78742
" />
</g>
<g style="fill:#000000; fill-opacity:0.0; 
stroke:#000000; stroke-width:39.3701; stroke-opacity:1; 
stroke-linecap:round; stroke-linejoin:round;">
</g>
<g style="fill:#000000; fill-opacity:0.0; 
stroke:#000000; stroke-width:59.0551; stroke-opacity:1; 
stroke-linecap:round; stroke-linejoin:round;">
<path d="M14169 78580
L13877 78580
" />
<path d="M14023 78580
L14023 78069
L13974 78142
L13925 78190
L13877 78215
" />
</g>
<g style="fill:#000000; fill-opacity:0.0; 
stroke:#000000; stroke-width:39.3701; stroke-opacity:1; 
stroke-linecap:round; stroke-linejoin:round;">
</g>
<g style="fill:#000000; fill-opacity:0.0; 
stroke:#000000; stroke-width:59.0551; stroke-opacity:1; 
stroke-linecap:round; stroke-linejoin:round;">
<path d="M33562 78117
L33586 78093
L33635 78069
L33757 78069
L33805 78093
L33830 78117
L33854 78166
L33854 78215
L33830 78288
L33537 78580
L33854 78580
" />
</g>
<g style="fill:#000000; fill-opacity:0.0; 
stroke:#000000; stroke-width:39.3701; stroke-opacity:1; 
stroke-linecap:round; stroke-linejoin:round;">
</g>
<g style="fill:#000000; fill-opacity:0.0; 
stroke:#000000; stroke-width:59.0551; stroke-opacity:1; 
stroke-linecap:round; stroke-linejoin:round;">
<path d="M53222 78069
L53539 78069
L53368 78263
L53442 78263
L53490 78288
L53515 78312
L53539 78361
L53539 78483
L53515 78532
L53490 78556
L53442 78580
L53295 78580
L53247 78556
L53222 78532
" />
</g>
<g style="fill:#000000; fill-opacity:0.0; 
stroke:#000000; stroke-width:39.3701; stroke-opacity:1; 
stroke-linecap:round; stroke-linejoin:round;">
</g>
<g style="fill:#000000; fill-opacity:0.0; 
stroke:#000000; stroke-width:59.0551; stroke-opacity:1; 
stroke-linecap:round; stroke-linejoin:round;">
<path d="M73175 78239
L73175 78580
" />
<path d="M73053 78044
L72932 78410
L73248 78410
" />
</g>
<g style="fill:#000000; fill-opacity:0.0; 
stroke:#000000; stroke-width:39.3701; stroke-opacity:1; 
stroke-linecap:round; stroke-linejoin:round;">
</g>
<g style="fill:#000000; fill-opacity:0.0; 
stroke:#000000; stroke-width:59.0551; stroke-opacity:1; 
stroke-linecap:round; stroke-linejoin:round;">
<path d="M92885 78069
L92641 78069
L92617 78312
L92641 78288
L92690 78263
L92812 78263
L92860 78288
L92885 78312
L92909 78361
L92909 78483
L92885 78532
L92860 78556
L92812 78580
L92690 78580
L92641 78556
L92617 78532
" />
</g>
<g style="fill:#000000; fill-opacity:0.0; 
stroke:#000000; stroke-width:39.3701; stroke-opacity:1; 
stroke-linecap:round; stroke-linejoin:round;">
</g>
<g style="fill:#000000; fill-opacity:0.0; 
stroke:#000000; stroke-width:59.0551; stroke-opacity:1; 
stroke-linecap:round; stroke-linejoin:round;">
<path d="M112545 78069
L112448 78069
L112399 78093
L112375 78117
L112326 78190
L112302 78288
L112302 78483
L112326 78532
L112350 78556
L112399 78580
L112497 78580
L112545 78556
L112570 78532
L112594 78483
L112594 78361
L112570 78312
L112545 78288
L112497 78263
L112399 78263
L112350 78288
L112326 78312
L112302 78361
" />
</g>
<g style="fill:#000000; fill-opacity:0.0; 
stroke:#000000; stroke-width:39.3701; stroke-opacity:1; 
stroke-linecap:round; stroke-linejoin:round;">
</g>
<g style="fill:#000000; fill-opacity:0.0; 
stroke:#000000; stroke-width:59.0551; stroke-opacity:1; 
stroke-linecap:round; stroke-linejoin:round;">
<path d="M3937 23622
L4724 23622
" />
</g>
<g style="fill:#000000; fill-opacity:0.0; 
stroke:#000000; stroke-width:39.3701; stroke-opacity:1; 
stroke-linecap:round; stroke-linejoin:round;">
</g>
<g style="fill:#000000; fill-opacity:0.0; 
stroke:#000000; stroke-width:59.0551; stroke-opacity:1; 
stroke-linecap:round; stroke-linejoin:round;">
<path d="M3937 43307
L4724 43307
" />
</g>
<g style="fill:#000000; fill-opacity:0.0; 
stroke:#000000; stroke-width:39.3701; stroke-opacity:1; 
stroke-linecap:round; stroke-linejoin:round;">
</g>
<g style="fill:#000000; fill-opacity:0.0; 
stroke:#000000; stroke-width:59.0551; stroke-opacity:1; 
stroke-linecap:round; stroke-linejoin:round;">
<path d="M3937 62992
L4724 62992
" />
</g>
<g style="fill:#000000; fill-opacity:0.0; 
stroke:#000000; stroke-width:39.3701; stroke-opacity:1; 
stroke-linecap:round; stroke-linejoin:round;">
</g>
<g style="fill:#000000; fill-opacity:0.0; 
stroke:#000000; stroke-width:59.0551; stroke-opacity:1; 
stroke-linecap:round; stroke-linejoin:round;">
<path d="M4208 13864
L4452 13864
" />
<path d="M4160 14011
L4330 13499
L4501 14011
" />
</g>
<g style="fill:#000000; fill-opacity:0.0; 
stroke:#000000; stroke-width:39.3701; stroke-opacity:1; 
stroke-linecap:round; stroke-linejoin:round;">
</g>
<g style="fill:#000000; fill-opacity:0.0; 
stroke:#000000; stroke-width:59.0551; stroke-opacity:1; 
stroke-linecap:round; stroke-linejoin:round;">
<path d="M4367 33428
L4440 33452
L4464 33476
L4489 33525
L4489 33598
L4464 33647
L4440 33671
L4391 33696
L4196 33696
L4196 33184
L4367 33184
L4416 33208
L4440 33233
L4464 33281
L4464 33330
L4440 33379
L4416 33403
L4367 33428
L4196 33428
" />
</g>
<g style="fill:#000000; fill-opacity:0.0; 
stroke:#000000; stroke-width:39.3701; stroke-opacity:1; 
stroke-linecap:round; stroke-linejoin:round;">
</g>
<g style="fill:#000000; fill-opacity:0.0; 
stroke:#000000; stroke-width:59.0551; stroke-opacity:1; 
stroke-linecap:round; stroke-linejoin:round;">
<path d="M4489 53332
L4464 53356
L4391 53381
L4342 53381
L4269 53356
L4221 53308
L4196 53259
L4172 53161
L4172 53088
L4196 52991
L4221 52942
L4269 52893
L4342 52869
L4391 52869
L4464 52893
L4489 52918
" />
</g>
<g style="fill:#000000; fill-opacity:0.0; 
stroke:#000000; stroke-width:39.3701; stroke-opacity:1; 
stroke-linecap:round; stroke-linejoin:round;">
</g>
<g style="fill:#000000; fill-opacity:0.0; 
stroke:#000000; stroke-width:59.0551; stroke-opacity:1; 
stroke-linecap:round; stroke-linejoin:round;">
<path d="M4196 73066
L4196 72554
L4318 72554
L4391 72578
L4440 72627
L4464 72676
L4489 72773
L4489 72846
L4464 72944
L4440 72993
L4391 73041
L4318 73066
L4196 73066
" />
</g>
<g style="fill:#000000; fill-opacity:0.0; 
stroke:#000000; stroke-width:39.3701; stroke-opacity:1; 
stroke-linecap:round; stroke-linejoin:round;">
</g>
<g style="fill:#000000; fill-opacity:0.0; 
stroke:#000000; stroke-width:59.0551; stroke-opacity:1; 
stroke-linecap:round; stroke-linejoin:round;">
<path d="M112992 23622
L112205 23622
" />
</g>
<g style="fill:#000000; fill-opacity:0.0; 
stroke:#000000; stroke-width:39.3701; stroke-opacity:1; 
stroke-linecap:round; stroke-linejoin:round;">
</g>
<g style="fill:#000000; fill-opacity:0.0; 
stroke:#000000; stroke-width:59.0551; stroke-opacity:1; 
stroke-linecap:round; stroke-linejoin:round;">
<path d="M112992 43307
L112205 43307
" />
</g>
<g style="fill:#000000; fill-opacity:0.0; 
stroke:#000000; stroke-width:39.3701; stroke-opacity:1; 
stroke-linecap:round; stroke-linejoin:round;">
</g>
<g style="fill:#000000; fill-opacity:0.0; 
stroke:#000000; stroke-width:59.0551; stroke-opacity:1; 
stroke-linecap:round; stroke-linejoin:round;">
<path d="M112992 62992
L112205 62992
" />
</g>
<g style="fill:#000000; fill-opacity:0.0; 
stroke:#000000; stroke-width:39.3701; stroke-opacity:1; 
stroke-linecap:round; stroke-linejoin:round;">
</g>
<g style="fill:#000000; fill-opacity:0.0; 
stroke:#000000; stroke-width:59.0551; stroke-opacity:1; 
stroke-linecap:round; stroke-linejoin:round;">
<path d="M112477 13864
L112721 13864
" />
<path d="M112428 14011
L112599 13499
L112769 14011
" />
</g>
<g style="fill:#000000; fill-opacity:0.0; 
stroke:#000000; stroke-width:39.3701; stroke-opacity:1; 
stroke-linecap:round; stroke-linejoin:round;">
</g>
<g style="fill:#000000; fill-opacity:0.0; 
stroke:#000000; stroke-width:59.0551; stroke-opacity:1; 
stroke-linecap:round; stroke-linejoin:round;">
<path d="M112635 33428
L112708 33452
L112733 33476
L112757 33525
L112757 33598
L112733 33647
L112708 33671
L112660 33696
L112465 33696
L112465 33184
L112635 33184
L112684 33208
L112708 33233
L112733 33281
L112733 33330
L112708 33379
L112684 33403
L112635 33428
L112465 33428
" />
</g>
<g style="fill:#000000; fill-opacity:0.0; 
stroke:#000000; stroke-width:39.3701; stroke-opacity:1; 
stroke-linecap:round; stroke-linejoin:round;">
</g>
<g style="fill:#000000; fill-opacity:0.0; 
stroke:#000000; stroke-width:59.0551; stroke-opacity:1; 
stroke-linecap:round; stroke-linejoin:round;">
<path d="M112757 53332
L112733 53356
L112660 53381
L112611 53381
L112538 53356
L112489 53308
L112465 53259
L112440 53161
L112440 53088
L112465 52991
L112489 52942
L112538 52893
L112611 52869
L112660 52869
L112733 52893
L112757 52918
" />
</g>
<g style="fill:#000000; fill-opacity:0.0; 
stroke:#000000; stroke-width:39.3701; stroke-opacity:1; 
stroke-linecap:round; stroke-linejoin:round;">
</g>
<g style="fill:#000000; fill-opacity:0.0; 
stroke:#000000; stroke-width:59.0551; stroke-opacity:1; 
stroke-linecap:round; stroke-linejoin:round;">
<path d="M112465 73066
L112465 72554
L112587 72554
L112660 72578
L112708 72627
L112733 72676
L112757 72773
L112757 72846
L112733 72944
L112708 72993
L112660 73041
L112587 73066
L112465 73066
" />
</g>
<g style="fill:#000000; fill-opacity:0.0; 
stroke:#000000; stroke-width:39.3701; stroke-opacity:1; 
stroke-linecap:round; stroke-linejoin:round;">
</g>
<g style="fill:#000000; fill-opacity:0.0; 
stroke:#000000; stroke-width:59.0551; stroke-opacity:1; 
stroke-linecap:round; stroke-linejoin:round;">
<path d="M78881 76293
L78881 75703
L79022 75703
L79106 75731
L79162 75787
L79190 75843
L79219 75956
L79219 76040
L79190 76153
L79162 76209
L79106 76265
L79022 76293
L78881 76293
" />
<path d="M79725 76293
L79725 75984
L79697 75928
L79640 75899
L79528 75899
L79472 75928
" />
<path d="M79725 76265
L79669 76293
L79528 76293
L79472 76265
L79444 76209
L79444 76153
L79472 76096
L79528 76068
L79669 76068
L79725 76040
" />
<path d="M79922 75899
L80147 75899
" />
<path d="M80006 75703
L80006 76209
L80034 76265
L80090 76293
L80147 76293
" />
<path d="M80568 76265
L80512 76293
L80400 76293
L80343 76265
L80315 76209
L80315 75984
L80343 75928
L80400 75899
L80512 75899
L80568 75928
L80597 75984
L80597 76040
L80315 76096
" />
<path d="M80850 76237
L80878 76265
L80850 76293
L80822 76265
L80850 76237
L80850 76293
" />
<path d="M80850 75928
L80878 75956
L80850 75984
L80822 75956
L80850 75928
L80850 75984
" />
</g>
<g style="fill:#000000; fill-opacity:0.0; 
stroke:#000000; stroke-width:39.3701; stroke-opacity:1; 
stroke-linecap:round; stroke-linejoin:round;">
</g>
<g style="fill:#000000; fill-opacity:0.0; 
stroke:#000000; stroke-width:59.0551; stroke-opacity:1; 
stroke-linecap:round; stroke-linejoin:round;">
<path d="M69685 76577
L112205 76577
" />
</g>
<g style="fill:#000000; fill-opacity:0.0; 
stroke:#000000; stroke-width:39.3701; stroke-opacity:1; 
stroke-linecap:round; stroke-linejoin:round;">
</g>
<g style="fill:#000000; fill-opacity:0.0; 
stroke:#000000; stroke-width:59.0551; stroke-opacity:1; 
stroke-linecap:round; stroke-linejoin:round;">
<path d="M70220 77395
L70220 76805
" />
<path d="M70557 77395
L70304 77058
" />
<path d="M70557 76805
L70220 77142
" />
<path d="M70810 77395
L70810 77002
" />
<path d="M70810 76805
L70782 76833
L70810 76861
L70838 76833
L70810 76805
L70810 76861
" />
<path d="M71429 77339
L71401 77367
L71316 77395
L71260 77395
L71176 77367
L71120 77311
L71091 77255
L71063 77142
L71063 77058
L71091 76946
L71120 76889
L71176 76833
L71260 76805
L71316 76805
L71401 76833
L71429 76861
" />
<path d="M71935 77395
L71935 77086
L71907 77030
L71851 77002
L71738 77002
L71682 77030
" />
<path d="M71935 77367
L71879 77395
L71738 77395
L71682 77367
L71654 77311
L71654 77255
L71682 77199
L71738 77171
L71879 77171
L71935 77142
" />
<path d="M72469 77395
L72469 76805
" />
<path d="M72469 77367
L72413 77395
L72301 77395
L72244 77367
L72216 77339
L72188 77283
L72188 77114
L72216 77058
L72244 77030
L72301 77002
L72413 77002
L72469 77030
" />
<path d="M73201 77086
L73397 77086
" />
<path d="M73482 77395
L73201 77395
L73201 76805
L73482 76805
" />
<path d="M73735 77339
L73763 77367
L73735 77395
L73707 77367
L73735 77339
L73735 77395
" />
<path d="M74016 77395
L74016 76805
L74157 76805
L74241 76833
L74297 76889
L74325 76946
L74354 77058
L74354 77142
L74325 77255
L74297 77311
L74241 77367
L74157 77395
L74016 77395
" />
<path d="M74607 77339
L74635 77367
L74607 77395
L74579 77367
L74607 77339
L74607 77395
" />
<path d="M74860 77227
L75141 77227
" />
<path d="M74804 77395
L75000 76805
L75197 77395
" />
<path d="M75394 77339
L75422 77367
L75394 77395
L75366 77367
L75394 77339
L75394 77395
" />
<path d="M76575 77395
L76575 76805
" />
<path d="M76631 77171
L76800 77395
" />
<path d="M76800 77002
L76575 77227
" />
<path d="M77053 77395
L77053 77002
" />
<path d="M77053 76805
L77025 76833
L77053 76861
L77081 76833
L77053 76805
L77053 76861
" />
<path d="M77588 77367
L77531 77395
L77419 77395
L77363 77367
L77334 77339
L77306 77283
L77306 77114
L77334 77058
L77363 77030
L77419 77002
L77531 77002
L77588 77030
" />
<path d="M78094 77395
L78094 77086
L78066 77030
L78009 77002
L77897 77002
L77841 77030
" />
<path d="M78094 77367
L78037 77395
L77897 77395
L77841 77367
L77813 77311
L77813 77255
L77841 77199
L77897 77171
L78037 77171
L78094 77142
" />
<path d="M78628 77395
L78628 76805
" />
<path d="M78628 77367
L78572 77395
L78459 77395
L78403 77367
L78375 77339
L78347 77283
L78347 77114
L78375 77058
L78403 77030
L78459 77002
L78572 77002
L78628 77030
" />
<path d="M79612 77002
L79612 77395
" />
<path d="M79472 76777
L79331 77199
L79697 77199
" />
<path d="M79922 77339
L79950 77367
L79922 77395
L79894 77367
L79922 77339
L79922 77395
" />
<path d="M80315 76805
L80372 76805
L80428 76833
L80456 76861
L80484 76917
L80512 77030
L80512 77171
L80484 77283
L80456 77339
L80428 77367
L80372 77395
L80315 77395
L80259 77367
L80231 77339
L80203 77283
L80175 77171
L80175 77030
L80203 76917
L80231 76861
L80259 76833
L80315 76805
" />
<path d="M80765 77339
L80793 77367
L80765 77395
L80737 77367
L80765 77339
L80765 77395
" />
<path d="M80990 76805
L81384 76805
L81131 77395
" />
</g>
<g style="fill:#000000; fill-opacity:0.0; 
stroke:#000000; stroke-width:39.3701; stroke-opacity:1; 
stroke-linecap:round; stroke-linejoin:round;">
</g>
<g style="fill:#000000; fill-opacity:0.0; 
stroke:#000000; stroke-width:59.0551; stroke-opacity:1; 
stroke-linecap:round; stroke-linejoin:round;">
<path d="M69685 75396
L112205 75396
" />
</g>
<g style="fill:#000000; fill-opacity:0.0; 
stroke:#000000; stroke-width:39.3701; stroke-opacity:1; 
stroke-linecap:round; stroke-linejoin:round;">
</g>
<g style="fill:#000000; fill-opacity:0.0; 
stroke:#000000; stroke-width:118.11; stroke-opacity:1; 
stroke-linecap:round; stroke-linejoin:round;">
<path d="M104022 76293
L103825 76012
" />
<path d="M103684 76293
L103684 75703
L103909 75703
L103965 75731
L103994 75759
L104022 75815
L104022 75899
L103994 75956
L103965 75984
L103909 76012
L103684 76012
" />
<path d="M104500 76265
L104444 76293
L104331 76293
L104275 76265
L104247 76209
L104247 75984
L104275 75928
L104331 75899
L104444 75899
L104500 75928
L104528 75984
L104528 76040
L104247 76096
" />
<path d="M104725 75899
L104865 76293
L105006 75899
" />
<path d="M105231 76237
L105259 76265
L105231 76293
L105203 76265
L105231 76237
L105231 76293
" />
<path d="M105231 75928
L105259 75956
L105231 75984
L105203 75956
L105231 75928
L105231 75984
" />
</g>
<g style="fill:#000000; fill-opacity:0.0; 
stroke:#000000; stroke-width:39.3701; stroke-opacity:1; 
stroke-linecap:round; stroke-linejoin:round;">
</g>
<g style="fill:#000000; fill-opacity:0.0; 
stroke:#000000; stroke-width:59.0551; stroke-opacity:1; 
stroke-linecap:round; stroke-linejoin:round;">
<path d="M70192 76265
L70276 76293
L70417 76293
L70473 76265
L70501 76237
L70529 76181
L70529 76124
L70501 76068
L70473 76040
L70417 76012
L70304 75984
L70248 75956
L70220 75928
L70192 75871
L70192 75815
L70220 75759
L70248 75731
L70304 75703
L70445 75703
L70529 75731
" />
<path d="M70782 76293
L70782 75899
" />
<path d="M70782 75703
L70754 75731
L70782 75759
L70810 75731
L70782 75703
L70782 75759
" />
<path d="M71007 75899
L71316 75899
L71007 76293
L71316 76293
" />
<path d="M71766 76265
L71710 76293
L71598 76293
L71541 76265
L71513 76209
L71513 75984
L71541 75928
L71598 75899
L71710 75899
L71766 75928
L71795 75984
L71795 76040
L71513 76096
" />
<path d="M72048 76237
L72076 76265
L72048 76293
L72019 76265
L72048 76237
L72048 76293
" />
<path d="M72048 75928
L72076 75956
L72048 75984
L72019 75956
L72048 75928
L72048 75984
" />
<path d="M72751 76124
L73032 76124
" />
<path d="M72694 76293
L72891 75703
L73088 76293
" />
<path d="M73538 75899
L73538 76293
" />
<path d="M73397 75674
L73257 76096
L73622 76096
" />
</g>
<g style="fill:#000000; fill-opacity:0.0; 
stroke:#000000; stroke-width:39.3701; stroke-opacity:1; 
stroke-linecap:round; stroke-linejoin:round;">
</g>
<g style="fill:#000000; fill-opacity:0.0; 
stroke:#000000; stroke-width:59.0551; stroke-opacity:1; 
stroke-linecap:round; stroke-linejoin:round;">
<path d="M103684 77395
L103684 76805
" />
<path d="M104219 77395
L104219 76805
" />
<path d="M104219 77367
L104162 77395
L104050 77395
L103994 77367
L103965 77339
L103937 77283
L103937 77114
L103965 77058
L103994 77030
L104050 77002
L104162 77002
L104219 77030
" />
<path d="M104500 77339
L104528 77367
L104500 77395
L104472 77367
L104500 77339
L104500 77395
" />
<path d="M104500 77030
L104528 77058
L104500 77086
L104472 77058
L104500 77030
L104500 77086
" />
<path d="M105540 77395
L105203 77395
" />
<path d="M105372 77395
L105372 76805
L105315 76889
L105259 76946
L105203 76974
" />
<path d="M106215 76777
L105709 77536
" />
<path d="M106721 77395
L106384 77395
" />
<path d="M106553 77395
L106553 76805
L106496 76889
L106440 76946
L106384 76974
" />
</g>
<g style="fill:#000000; fill-opacity:0.0; 
stroke:#000000; stroke-width:39.3701; stroke-opacity:1; 
stroke-linecap:round; stroke-linejoin:round;">
</g>
<g style="fill:#000000; fill-opacity:0.0; 
stroke:#000000; stroke-width:59.0551; stroke-opacity:1; 
stroke-linecap:round; stroke-linejoin:round;">
<path d="M69685 73821
L112205 73821
" />
</g>
<g style="fill:#000000; fill-opacity:0.0; 
stroke:#000000; stroke-width:39.3701; stroke-opacity:1; 
stroke-linecap:round; stroke-linejoin:round;">
</g>
<g style="fill:#000000; fill-opacity:0.0; 
stroke:#000000; stroke-width:157.48; stroke-opacity:1; 
stroke-linecap:round; stroke-linejoin:round;">
<path d="M70257 74099
L70707 74099
" />
<path d="M70384 74886
L70482 74099
" />
<path d="M70871 74886
L70937 74361
" />
<path d="M70970 74099
L70927 74136
L70960 74174
L71002 74136
L70970 74099
L70960 74174
" />
<path d="M71199 74361
L71499 74361
" />
<path d="M71345 74099
L71260 74774
L71288 74849
L71359 74886
L71434 74886
" />
<path d="M71809 74886
L71738 74849
L71710 74774
L71795 74099
" />
<path d="M72413 74849
L72334 74886
L72184 74886
L72113 74849
L72085 74774
L72123 74474
L72169 74399
L72249 74361
L72399 74361
L72469 74399
L72498 74474
L72488 74549
L72104 74624
" />
<path d="M72793 74811
L72826 74849
L72783 74886
L72751 74849
L72793 74811
L72783 74886
" />
<path d="M72844 74399
L72877 74436
L72835 74474
L72802 74436
L72844 74399
L72835 74474
" />
</g>
<g style="fill:#000000; fill-opacity:0.0; 
stroke:#000000; stroke-width:39.3701; stroke-opacity:1; 
stroke-linecap:round; stroke-linejoin:round;">
</g>
<g style="fill:#000000; fill-opacity:0.0; 
stroke:#000000; stroke-width:59.0551; stroke-opacity:1; 
stroke-linecap:round; stroke-linejoin:round;">
<path d="M70417 73070
L70220 73070
" />
<path d="M70220 73380
L70220 72789
L70501 72789
" />
<path d="M70726 73380
L70726 72986
" />
<path d="M70726 72789
L70698 72817
L70726 72845
L70754 72817
L70726 72789
L70726 72845
" />
<path d="M71091 73380
L71035 73352
L71007 73295
L71007 72789
" />
<path d="M71541 73352
L71485 73380
L71373 73380
L71316 73352
L71288 73295
L71288 73070
L71316 73014
L71373 72986
L71485 72986
L71541 73014
L71570 73070
L71570 73127
L71288 73183
" />
<path d="M71823 73323
L71851 73352
L71823 73380
L71795 73352
L71823 73323
L71823 73380
" />
<path d="M71823 73014
L71851 73042
L71823 73070
L71795 73042
L71823 73014
L71823 73070
" />
<path d="M72526 73352
L72610 73380
L72751 73380
L72807 73352
L72835 73323
L72863 73267
L72863 73211
L72835 73155
L72807 73127
L72751 73099
L72638 73070
L72582 73042
L72554 73014
L72526 72958
L72526 72902
L72554 72845
L72582 72817
L72638 72789
L72779 72789
L72863 72817
" />
<path d="M73116 73380
L73116 72986
" />
<path d="M73116 72789
L73088 72817
L73116 72845
L73144 72817
L73116 72789
L73116 72845
" />
<path d="M73397 72986
L73397 73380
" />
<path d="M73397 73042
L73426 73014
L73482 72986
L73566 72986
L73622 73014
L73651 73070
L73651 73380
" />
<path d="M74185 72986
L74185 73464
L74157 73520
L74129 73548
L74072 73577
L73988 73577
L73932 73548
" />
<path d="M74185 73352
L74129 73380
L74016 73380
L73960 73352
L73932 73323
L73904 73267
L73904 73099
L73932 73042
L73960 73014
L74016 72986
L74129 72986
L74185 73014
" />
<path d="M74550 73380
L74494 73352
L74466 73295
L74466 72789
" />
<path d="M75000 73352
L74944 73380
L74832 73380
L74775 73352
L74747 73295
L74747 73070
L74775 73014
L74832 72986
L74944 72986
L75000 73014
L75028 73070
L75028 73127
L74747 73183
" />
<path d="M75141 73436
L75591 73436
" />
<path d="M75647 72986
L75872 72986
" />
<path d="M75732 72789
L75732 73295
L75760 73352
L75816 73380
L75872 73380
" />
<path d="M76069 73380
L76069 72986
" />
<path d="M76069 73099
L76097 73042
L76125 73014
L76181 72986
L76238 72986
" />
<path d="M76688 73380
L76688 73070
L76660 73014
L76603 72986
L76491 72986
L76435 73014
" />
<path d="M76688 73352
L76631 73380
L76491 73380
L76435 73352
L76406 73295
L76406 73239
L76435 73183
L76491 73155
L76631 73155
L76688 73127
" />
<path d="M76969 72986
L76969 73380
" />
<path d="M76969 73042
L76997 73014
L77053 72986
L77138 72986
L77194 73014
L77222 73070
L77222 73380
" />
<path d="M77475 73352
L77531 73380
L77644 73380
L77700 73352
L77728 73295
L77728 73267
L77700 73211
L77644 73183
L77559 73183
L77503 73155
L77475 73099
L77475 73070
L77503 73014
L77559 72986
L77644 72986
L77700 73014
" />
<path d="M77981 73380
L77981 72986
" />
<path d="M77981 72789
L77953 72817
L77981 72845
L78009 72817
L77981 72789
L77981 72845
" />
<path d="M78234 73352
L78291 73380
L78403 73380
L78459 73352
L78487 73295
L78487 73267
L78459 73211
L78403 73183
L78319 73183
L78262 73155
L78234 73099
L78234 73070
L78262 73014
L78319 72986
L78403 72986
L78459 73014
" />
<path d="M78656 72986
L78881 72986
" />
<path d="M78741 72789
L78741 73295
L78769 73352
L78825 73380
L78881 73380
" />
<path d="M79162 73380
L79106 73352
L79078 73323
L79050 73267
L79050 73099
L79078 73042
L79106 73014
L79162 72986
L79247 72986
L79303 73014
L79331 73042
L79359 73099
L79359 73267
L79331 73323
L79303 73352
L79247 73380
L79162 73380
" />
<path d="M79612 73380
L79612 72986
" />
<path d="M79612 73099
L79640 73042
L79669 73014
L79725 72986
L79781 72986
" />
<path d="M79837 73436
L80287 73436
" />
<path d="M80400 73211
L80681 73211
" />
<path d="M80343 73380
L80540 72789
L80737 73380
" />
<path d="M80934 73380
L80934 72789
L81131 73211
L81328 72789
L81328 73380
" />
<path d="M81609 73380
L81609 72789
L81834 72789
L81890 72817
L81918 72845
L81946 72902
L81946 72986
L81918 73042
L81890 73070
L81834 73099
L81609 73099
" />
<path d="M82059 73436
L82509 73436
" />
<path d="M82649 73380
L82649 72986
" />
<path d="M82649 73042
L82678 73014
L82734 72986
L82818 72986
L82874 73014
L82903 73070
L82903 73380
" />
<path d="M82903 73070
L82931 73014
L82987 72986
L83071 72986
L83127 73014
L83156 73070
L83156 73380
" />
<path d="M83437 73380
L83437 72986
" />
<path d="M83437 72789
L83409 72817
L83437 72845
L83465 72817
L83437 72789
L83437 72845
" />
<path d="M83971 73352
L83915 73380
L83802 73380
L83746 73352
L83718 73323
L83690 73267
L83690 73099
L83718 73042
L83746 73014
L83802 72986
L83915 72986
L83971 73014
" />
<path d="M84477 72986
L84477 73380
" />
<path d="M84224 72986
L84224 73295
L84252 73352
L84309 73380
L84393 73380
L84449 73352
L84477 73323
" />
<path d="M84843 73380
L84787 73352
L84759 73295
L84759 72789
" />
<path d="M85068 73380
L85068 72986
" />
<path d="M85068 72789
L85040 72817
L85068 72845
L85096 72817
L85068 72789
L85068 72845
" />
<path d="M85321 73352
L85377 73380
L85490 73380
L85546 73352
L85574 73295
L85574 73267
L85546 73211
L85490 73183
L85405 73183
L85349 73155
L85321 73099
L85321 73070
L85349 73014
L85405 72986
L85490 72986
L85546 73014
" />
<path d="M85827 73323
L85855 73352
L85827 73380
L85799 73352
L85827 73323
L85827 73380
" />
<path d="M86108 73380
L86108 72789
" />
<path d="M86165 73155
L86333 73380
" />
<path d="M86333 72986
L86108 73211
" />
<path d="M86586 73380
L86586 72986
" />
<path d="M86586 72789
L86558 72817
L86586 72845
L86615 72817
L86586 72789
L86586 72845
" />
<path d="M87121 73352
L87064 73380
L86952 73380
L86896 73352
L86868 73323
L86840 73267
L86840 73099
L86868 73042
L86896 73014
L86952 72986
L87064 72986
L87121 73014
" />
<path d="M87627 73380
L87627 73070
L87599 73014
L87543 72986
L87430 72986
L87374 73014
" />
<path d="M87627 73352
L87571 73380
L87430 73380
L87374 73352
L87346 73295
L87346 73239
L87374 73183
L87430 73155
L87571 73155
L87627 73127
" />
<path d="M88161 73380
L88161 72789
" />
<path d="M88161 73352
L88105 73380
L87992 73380
L87936 73352
L87908 73323
L87880 73267
L87880 73099
L87908 73042
L87936 73014
L87992 72986
L88105 72986
L88161 73014
" />
<path d="M88302 73436
L88752 73436
" />
<path d="M88892 72986
L88892 73577
" />
<path d="M88892 73014
L88949 72986
L89061 72986
L89117 73014
L89145 73042
L89174 73099
L89174 73267
L89145 73323
L89117 73352
L89061 73380
L88949 73380
L88892 73352
" />
<path d="M89680 73352
L89624 73380
L89511 73380
L89455 73352
L89427 73323
L89399 73267
L89399 73099
L89427 73042
L89455 73014
L89511 72986
L89624 72986
L89680 73014
" />
<path d="M89933 73380
L89933 72789
" />
<path d="M89933 73014
L89989 72986
L90102 72986
L90158 73014
L90186 73042
L90214 73099
L90214 73267
L90186 73323
L90158 73352
L90102 73380
L89989 73380
L89933 73352
" />
</g>
<g style="fill:#000000; fill-opacity:0.0; 
stroke:#000000; stroke-width:39.3701; stroke-opacity:1; 
stroke-linecap:round; stroke-linejoin:round;">
</g>
<g style="fill:#000000; fill-opacity:0.0; 
stroke:#000000; stroke-width:59.0551; stroke-opacity:1; 
stroke-linecap:round; stroke-linejoin:round;">
<path d="M69685 71459
L112205 71459
" />
</g>
<g style="fill:#000000; fill-opacity:0.0; 
stroke:#000000; stroke-width:39.3701; stroke-opacity:1; 
stroke-linecap:round; stroke-linejoin:round;">
</g>
<g style="fill:#000000; fill-opacity:0.0; 
stroke:#000000; stroke-width:59.0551; stroke-opacity:1; 
stroke-linecap:round; stroke-linejoin:round;">
<path d="M70192 72289
L70276 72317
L70417 72317
L70473 72289
L70501 72260
L70529 72204
L70529 72148
L70501 72092
L70473 72064
L70417 72036
L70304 72007
L70248 71979
L70220 71951
L70192 71895
L70192 71839
L70220 71782
L70248 71754
L70304 71726
L70445 71726
L70529 71754
" />
<path d="M70782 72317
L70782 71726
" />
<path d="M71035 72317
L71035 72007
L71007 71951
L70951 71923
L70867 71923
L70810 71951
L70782 71979
" />
<path d="M71541 72289
L71485 72317
L71373 72317
L71316 72289
L71288 72232
L71288 72007
L71316 71951
L71373 71923
L71485 71923
L71541 71951
L71570 72007
L71570 72064
L71288 72120
" />
<path d="M72048 72289
L71991 72317
L71879 72317
L71823 72289
L71795 72232
L71795 72007
L71823 71951
L71879 71923
L71991 71923
L72048 71951
L72076 72007
L72076 72064
L71795 72120
" />
<path d="M72244 71923
L72469 71923
" />
<path d="M72329 71726
L72329 72232
L72357 72289
L72413 72317
L72469 72317
" />
<path d="M72666 72260
L72694 72289
L72666 72317
L72638 72289
L72666 72260
L72666 72317
" />
<path d="M72666 71951
L72694 71979
L72666 72007
L72638 71979
L72666 71951
L72666 72007
" />
</g>
<g style="fill:#000000; fill-opacity:0.0; 
stroke:#000000; stroke-width:39.3701; stroke-opacity:1; 
stroke-linecap:round; stroke-linejoin:round;">
</g>
<g style="fill:#000000; fill-opacity:0.0; 
stroke:#000000; stroke-width:59.0551; stroke-opacity:1; 
stroke-linecap:round; stroke-linejoin:round;">
<path d="M77559 75396
L77559 76577
" />
</g>
<g style="fill:#000000; fill-opacity:0.0; 
stroke:#000000; stroke-width:39.3701; stroke-opacity:1; 
stroke-linecap:round; stroke-linejoin:round;">
</g>
<g style="fill:#000000; fill-opacity:0.0; 
stroke:#000000; stroke-width:59.0551; stroke-opacity:1; 
stroke-linecap:round; stroke-linejoin:round;">
<path d="M102756 75396
L102756 77955
" />
</g>
<g style="fill:#C2C200; fill-opacity:0.0; 
stroke:#C2C200; stroke-width:59.0551; stroke-opacity:1; 
stroke-linecap:round; stroke-linejoin:round;">
<path d="M75000 44500
L75000 44000
" />
<path d="M75000 44000
L75000 44500
" />
<path d="M75000 42500
L75000 44000
" />
<path d="M58500 42500
L75000 42500
" />
<path d="M58500 52500
L58500 42500
" />
<path d="M60000 52500
L58500 52500
" />
<path d="M75000 52500
L60000 52500
" />
<path d="M75000 51000
L75000 52500
" />
<path d="M75000 44000
L75000 51000
" />
<path d="M71868 51701
L71868 51982
L71850 52039
L71812 52076
L71756 52095
L71718 52095
" />
<path d="M72262 52095
L72037 52095
" />
<path d="M72149 52095
L72149 51701
L72112 51757
L72074 51795
L72037 51814
" />
<path d="M72942 44884
L72923 44903
L72867 44922
L72829 44922
L72773 44903
L72736 44865
L72717 44828
L72698 44753
L72698 44697
L72717 44622
L72736 44584
L72773 44547
L72829 44528
L72867 44528
L72923 44547
L72942 44565
" />
<path d="M73317 44922
L73092 44922
" />
<path d="M73204 44922
L73204 44528
L73167 44584
L73129 44622
L73092 44640
" />
<path d="M66148 50073
L66167 50092
L66185 50148
L66185 50185
L66167 50242
L66129 50279
L66092 50298
L66017 50317
L65961 50317
L65886 50298
L65848 50279
L65811 50242
L65792 50185
L65792 50148
L65811 50092
L65829 50073
" />
<path d="M65829 49923
L65811 49904
L65792 49867
L65792 49773
L65811 49736
L65829 49717
L65867 49698
L65904 49698
L65961 49717
L66185 49942
L66185 49698
" />
<path d="M64384 46541
L64403 46560
L64422 46616
L64422 46654
L64403 46710
L64365 46748
L64328 46766
L64253 46785
L64197 46785
L64122 46766
L64084 46748
L64047 46710
L64028 46654
L64028 46616
L64047 46560
L64065 46541
" />
<path d="M64028 46410
L64028 46167
L64178 46298
L64178 46242
L64197 46204
L64215 46185
L64253 46167
L64347 46167
L64384 46185
L64403 46204
L64422 46242
L64422 46354
L64403 46392
L64384 46410
" />
<path d="M63784 45631
L64065 45631
L64121 45649
L64159 45687
L64178 45743
L64178 45781
" />
<path d="M63821 45462
L63803 45443
L63784 45406
L63784 45312
L63803 45275
L63821 45256
L63859 45237
L63896 45237
L63953 45256
L64178 45481
L64178 45237
" />
<path d="M71117 46537
L71098 46574
L71060 46612
L71004 46668
L70985 46706
L70985 46743
" />
<path d="M71079 46724
L71060 46762
L71023 46799
L70948 46818
L70817 46818
L70742 46799
L70704 46762
L70685 46724
L70685 46649
L70704 46612
L70742 46574
L70817 46556
L70948 46556
L71023 46574
L71060 46612
L71079 46649
L71079 46724
" />
<path d="M71079 46181
L71079 46406
" />
<path d="M71079 46293
L70685 46293
L70742 46331
L70779 46368
L70798 46406
" />
<path d="M71434 43445
L71303 43258
" />
<path d="M71209 43445
L71209 43052
L71359 43052
L71396 43070
L71415 43089
L71434 43127
L71434 43183
L71415 43220
L71396 43239
L71359 43258
L71209 43258
" />
<path d="M71809 43445
L71584 43445
" />
<path d="M71696 43445
L71696 43052
L71659 43108
L71621 43145
L71584 43164
" />
<path d="M63434 49910
L63303 49722
" />
<path d="M63209 49910
L63209 49516
L63359 49516
L63396 49535
L63415 49554
L63434 49591
L63434 49647
L63415 49685
L63396 49704
L63359 49722
L63209 49722
" />
<path d="M63584 49554
L63603 49535
L63640 49516
L63734 49516
L63771 49535
L63790 49554
L63809 49591
L63809 49629
L63790 49685
L63565 49910
L63809 49910
" />
<path d="M66434 44910
L66303 44722
" />
<path d="M66209 44910
L66209 44516
L66359 44516
L66396 44535
L66415 44554
L66434 44591
L66434 44647
L66415 44685
L66396 44704
L66359 44722
L66209 44722
" />
<path d="M66565 44516
L66809 44516
L66678 44666
L66734 44666
L66771 44685
L66790 44704
L66809 44741
L66809 44835
L66790 44872
L66771 44891
L66734 44910
L66621 44910
L66584 44891
L66565 44872
" />
<path d="M63434 51910
L63303 51722
" />
<path d="M63209 51910
L63209 51516
L63359 51516
L63396 51535
L63415 51554
L63434 51591
L63434 51647
L63415 51685
L63396 51704
L63359 51722
L63209 51722
" />
<path d="M63771 51647
L63771 51910
" />
<path d="M63678 51497
L63584 51779
L63828 51779
" />
</g>
<g style="fill:#008484; fill-opacity:0.0; 
stroke:#008484; stroke-width:59.0551; stroke-opacity:1; 
stroke-linecap:round; stroke-linejoin:round;">
</g>
<g style="fill:#008484; fill-opacity:0.0; 
stroke:#008484; stroke-width:47.2441; stroke-opacity:1; 
stroke-linecap:round; stroke-linejoin:round;">
<path d="M72523 49476
L71476 49476
" />
<path d="M72523 50500
L72523 49476
" />
<path d="M71476 50500
L71476 49476
" />
<path d="M72523 50500
L71476 50500
" />
<path d="M72523 51000
L72523 51523
" />
<path d="M72523 51523
L72000 51523
" />
<path d="M74196 46035.8 A1275.59 1275.59 0.0 0 0 71819.9 46035.4 " />
<path d="M71819.9 46964.6 A1275.59 1275.59 0.0 0 0 74196 46964.2 " />
<path d="M74196 46964.2 A1275.59 1275.59 0.0 0 0 74195.9 46035.4 " />
<path d="M73007 45240
L73007 47759
" />
<path d="M73023 45240
L73023 47759
" />
<path d="M73039 45240
L73039 47759
" />
<path d="M73055 45240
L73055 47759
" />
<path d="M73070 45241
L73070 47758
" />
<path d="M73086 45242
L73086 47757
" />
<path d="M73102 45243
L73102 47756
" />
<path d="M73118 45244
L73118 46114
" />
<path d="M73118 46885
L73118 47755
" />
<path d="M73133 45246
L73133 46114
" />
<path d="M73133 46885
L73133 47753
" />
<path d="M73149 45248
L73149 46114
" />
<path d="M73149 46885
L73149 47751
" />
<path d="M73165 45249
L73165 46114
" />
<path d="M73165 46885
L73165 47750
" />
<path d="M73181 45251
L73181 46114
" />
<path d="M73181 46885
L73181 47748
" />
<path d="M73196 45253
L73196 46114
" />
<path d="M73196 46885
L73196 47746
" />
<path d="M73212 45256
L73212 46114
" />
<path d="M73212 46885
L73212 47743
" />
<path d="M73228 45259
L73228 46114
" />
<path d="M73228 46885
L73228 47740
" />
<path d="M73244 45262
L73244 46114
" />
<path d="M73244 46885
L73244 47737
" />
<path d="M73259 45264
L73259 46114
" />
<path d="M73259 46885
L73259 47735
" />
<path d="M73275 45268
L73275 46114
" />
<path d="M73275 46885
L73275 47731
" />
<path d="M73291 45272
L73291 46114
" />
<path d="M73291 46885
L73291 47727
" />
<path d="M73307 45275
L73307 46114
" />
<path d="M73307 46885
L73307 47724
" />
<path d="M73323 45279
L73323 46114
" />
<path d="M73323 46885
L73323 47720
" />
<path d="M73338 45283
L73338 46114
" />
<path d="M73338 46885
L73338 47716
" />
<path d="M73354 45287
L73354 46114
" />
<path d="M73354 46885
L73354 47712
" />
<path d="M73370 45292
L73370 46114
" />
<path d="M73370 46885
L73370 47707
" />
<path d="M73386 45297
L73386 46114
" />
<path d="M73386 46885
L73386 47702
" />
<path d="M73401 45302
L73401 46114
" />
<path d="M73401 46885
L73401 47697
" />
<path d="M73417 45307
L73417 46114
" />
<path d="M73417 46885
L73417 47692
" />
<path d="M73433 45312
L73433 46114
" />
<path d="M73433 46885
L73433 47687
" />
<path d="M73449 45318
L73449 46114
" />
<path d="M73449 46885
L73449 47681
" />
<path d="M73464 45324
L73464 46114
" />
<path d="M73464 46885
L73464 47675
" />
<path d="M73480 45330
L73480 46114
" />
<path d="M73480 46885
L73480 47669
" />
<path d="M73496 45337
L73496 46114
" />
<path d="M73496 46885
L73496 47662
" />
<path d="M73512 45343
L73512 46114
" />
<path d="M73512 46885
L73512 47656
" />
<path d="M73527 45350
L73527 46114
" />
<path d="M73527 46885
L73527 47649
" />
<path d="M73543 45357
L73543 46114
" />
<path d="M73543 46885
L73543 47642
" />
<path d="M73559 45365
L73559 46114
" />
<path d="M73559 46885
L73559 47634
" />
<path d="M73575 45372
L73575 46114
" />
<path d="M73575 46885
L73575 47627
" />
<path d="M73590 45380
L73590 46114
" />
<path d="M73590 46885
L73590 47619
" />
<path d="M73606 45388
L73606 46114
" />
<path d="M73606 46885
L73606 47611
" />
<path d="M73622 45397
L73622 46114
" />
<path d="M73622 46885
L73622 47602
" />
<path d="M73638 45406
L73638 46114
" />
<path d="M73638 46885
L73638 47593
" />
<path d="M73653 45415
L73653 46114
" />
<path d="M73653 46885
L73653 47584
" />
<path d="M73669 45424
L73669 46114
" />
<path d="M73669 46885
L73669 47575
" />
<path d="M73685 45434
L73685 46114
" />
<path d="M73685 46885
L73685 47565
" />
<path d="M73701 45444
L73701 46114
" />
<path d="M73701 46885
L73701 47555
" />
<path d="M73716 45455
L73716 46114
" />
<path d="M73716 46885
L73716 47544
" />
<path d="M73732 45465
L73732 46114
" />
<path d="M73732 46885
L73732 47534
" />
<path d="M73748 45476
L73748 46114
" />
<path d="M73748 46885
L73748 47523
" />
<path d="M73764 45488
L73764 46114
" />
<path d="M73764 46885
L73764 47511
" />
<path d="M73779 45500
L73779 46114
" />
<path d="M73779 46885
L73779 47500
" />
<path d="M73795 45511
L73795 46114
" />
<path d="M73795 46885
L73795 47488
" />
<path d="M73811 45524
L73811 46114
" />
<path d="M73811 46885
L73811 47475
" />
<path d="M73827 45537
L73827 46114
" />
<path d="M73827 46885
L73827 47462
" />
<path d="M73842 45550
L73842 46114
" />
<path d="M73842 46885
L73842 47449
" />
<path d="M73858 45564
L73858 46114
" />
<path d="M73858 46885
L73858 47435
" />
<path d="M73874 45579
L73874 46114
" />
<path d="M73874 46885
L73874 47420
" />
<path d="M73890 45594
L73890 47405
" />
<path d="M73905 45609
L73905 47390
" />
<path d="M73921 45625
L73921 47374
" />
<path d="M73937 45641
L73937 47358
" />
<path d="M73953 45658
L73953 47341
" />
<path d="M73968 45676
L73968 47323
" />
<path d="M73984 45694
L73984 47305
" />
<path d="M74000 45713
L74000 47286
" />
<path d="M74016 45733
L74016 47266
" />
<path d="M74031 45754
L74031 47245
" />
<path d="M74047 45775
L74047 47224
" />
<path d="M74063 45798
L74063 47201
" />
<path d="M74079 45822
L74079 47177
" />
<path d="M74094 45847
L74094 47152
" />
<path d="M74110 45873
L74110 47126
" />
<path d="M74126 45901
L74126 47098
" />
<path d="M74142 45931
L74142 47068
" />
<path d="M74157 45962
L74157 47037
" />
<path d="M74173 45996
L74173 47003
" />
<path d="M74189 46033
L74189 46966
" />
<path d="M74205 46074
L74205 46925
" />
<path d="M74220 46119
L74220 46880
" />
<path d="M74236 46171
L74236 46828
" />
<path d="M74252 46233
L74252 46766
" />
<path d="M74268 46315
L74268 46684
" />
<path d="M71649 46500
L72122 46500
" />
<path d="M71885 46244
L71885 46755
" />
<circle cx="68000" cy="50007.9" r="1511.81" /> 
<path d="M66503 50007
L69496 50007
" />
<path d="M66503 49992
L69496 49992
" />
<path d="M66503 49976
L69496 49976
" />
<path d="M66504 49960
L69495 49960
" />
<path d="M66505 49944
L69494 49944
" />
<path d="M66505 49929
L69494 49929
" />
<path d="M66506 49913
L69493 49913
" />
<path d="M66507 49897
L67614 49897
" />
<path d="M68385 49897
L69492 49897
" />
<path d="M66509 49881
L67614 49881
" />
<path d="M68385 49881
L69490 49881
" />
<path d="M66510 49866
L67614 49866
" />
<path d="M68385 49866
L69489 49866
" />
<path d="M66511 49850
L67614 49850
" />
<path d="M68385 49850
L69488 49850
" />
<path d="M66513 49834
L67614 49834
" />
<path d="M68385 49834
L69486 49834
" />
<path d="M66515 49818
L67614 49818
" />
<path d="M68385 49818
L69484 49818
" />
<path d="M66517 49803
L67614 49803
" />
<path d="M68385 49803
L69482 49803
" />
<path d="M66520 49787
L67614 49787
" />
<path d="M68385 49787
L69479 49787
" />
<path d="M66522 49771
L67614 49771
" />
<path d="M68385 49771
L69477 49771
" />
<path d="M66524 49755
L67614 49755
" />
<path d="M68385 49755
L69475 49755
" />
<path d="M66527 49740
L67614 49740
" />
<path d="M68385 49740
L69472 49740
" />
<path d="M66530 49724
L67614 49724
" />
<path d="M68385 49724
L69469 49724
" />
<path d="M66533 49708
L67614 49708
" />
<path d="M68385 49708
L69466 49708
" />
<path d="M66537 49692
L67614 49692
" />
<path d="M68385 49692
L69462 49692
" />
<path d="M66540 49676
L67614 49676
" />
<path d="M68385 49676
L69459 49676
" />
<path d="M66544 49661
L67614 49661
" />
<path d="M68385 49661
L69455 49661
" />
<path d="M66547 49645
L67614 49645
" />
<path d="M68385 49645
L69452 49645
" />
<path d="M66551 49629
L67614 49629
" />
<path d="M68385 49629
L69448 49629
" />
<path d="M66555 49613
L67614 49613
" />
<path d="M68385 49613
L69444 49613
" />
<path d="M66560 49598
L67614 49598
" />
<path d="M68385 49598
L69439 49598
" />
<path d="M66564 49582
L67614 49582
" />
<path d="M68385 49582
L69435 49582
" />
<path d="M66569 49566
L67614 49566
" />
<path d="M68385 49566
L69430 49566
" />
<path d="M66574 49550
L67614 49550
" />
<path d="M68385 49550
L69425 49550
" />
<path d="M66579 49535
L67614 49535
" />
<path d="M68385 49535
L69420 49535
" />
<path d="M66584 49519
L67614 49519
" />
<path d="M68385 49519
L69415 49519
" />
<path d="M66590 49503
L67614 49503
" />
<path d="M68385 49503
L69409 49503
" />
<path d="M66596 49487
L67614 49487
" />
<path d="M68385 49487
L69403 49487
" />
<path d="M66601 49472
L67614 49472
" />
<path d="M68385 49472
L69398 49472
" />
<path d="M66607 49456
L67614 49456
" />
<path d="M68385 49456
L69392 49456
" />
<path d="M66614 49440
L67614 49440
" />
<path d="M68385 49440
L69385 49440
" />
<path d="M66620 49424
L67614 49424
" />
<path d="M68385 49424
L69379 49424
" />
<path d="M66627 49409
L67614 49409
" />
<path d="M68385 49409
L69372 49409
" />
<path d="M66634 49393
L67614 49393
" />
<path d="M68385 49393
L69365 49393
" />
<path d="M66641 49377
L67614 49377
" />
<path d="M68385 49377
L69358 49377
" />
<path d="M66648 49361
L67614 49361
" />
<path d="M68385 49361
L69351 49361
" />
<path d="M66656 49346
L67614 49346
" />
<path d="M68385 49346
L69343 49346
" />
<path d="M66663 49330
L67614 49330
" />
<path d="M68385 49330
L69336 49330
" />
<path d="M66672 49314
L67614 49314
" />
<path d="M68385 49314
L69327 49314
" />
<path d="M66680 49298
L67614 49298
" />
<path d="M68385 49298
L69319 49298
" />
<path d="M66688 49283
L67614 49283
" />
<path d="M68385 49283
L69311 49283
" />
<path d="M66697 49267
L67614 49267
" />
<path d="M68385 49267
L69302 49267
" />
<path d="M66706 49251
L67614 49251
" />
<path d="M68385 49251
L69293 49251
" />
<path d="M66715 49235
L67614 49235
" />
<path d="M68385 49235
L69284 49235
" />
<path d="M66724 49220
L67614 49220
" />
<path d="M68385 49220
L69275 49220
" />
<path d="M66734 49204
L67614 49204
" />
<path d="M68385 49204
L69265 49204
" />
<path d="M66744 49188
L67614 49188
" />
<path d="M68385 49188
L69255 49188
" />
<path d="M66755 49172
L67614 49172
" />
<path d="M68385 49172
L69244 49172
" />
<path d="M66765 49157
L67614 49157
" />
<path d="M68385 49157
L69234 49157
" />
<path d="M66776 49141
L67614 49141
" />
<path d="M68385 49141
L69223 49141
" />
<path d="M66787 49125
L69212 49125
" />
<path d="M66799 49109
L69200 49109
" />
<path d="M66811 49094
L69188 49094
" />
<path d="M66822 49078
L69177 49078
" />
<path d="M66835 49062
L69164 49062
" />
<path d="M66848 49046
L69151 49046
" />
<path d="M66861 49031
L69138 49031
" />
<path d="M66874 49015
L69125 49015
" />
<path d="M66888 48999
L69111 48999
" />
<path d="M66903 48983
L69096 48983
" />
<path d="M66917 48968
L69082 48968
" />
<path d="M66932 48952
L69067 48952
" />
<path d="M66948 48936
L69051 48936
" />
<path d="M66964 48920
L69035 48920
" />
<path d="M66981 48905
L69018 48905
" />
<path d="M66998 48889
L69001 48889
" />
<path d="M67015 48873
L68984 48873
" />
<path d="M67033 48857
L68966 48857
" />
<path d="M67052 48842
L68947 48842
" />
<path d="M67072 48826
L68927 48826
" />
<path d="M67091 48810
L68908 48810
" />
<path d="M67112 48794
L68887 48794
" />
<path d="M67134 48779
L68865 48779
" />
<path d="M67156 48763
L68843 48763
" />
<path d="M67179 48747
L68820 48747
" />
<path d="M67203 48731
L68796 48731
" />
<path d="M67229 48716
L68770 48716
" />
<path d="M67255 48700
L68744 48700
" />
<path d="M67283 48684
L68716 48684
" />
<path d="M67312 48668
L68687 48668
" />
<path d="M67343 48653
L68656 48653
" />
<path d="M67376 48637
L68623 48637
" />
<path d="M67411 48621
L68588 48621
" />
<path d="M67448 48605
L68551 48605
" />
<path d="M67489 48590
L68510 48590
" />
<path d="M67533 48574
L68466 48574
" />
<path d="M67583 48558
L68416 48558
" />
<path d="M67640 48542
L68359 48542
" />
<path d="M67708 48527
L68291 48527
" />
<path d="M67798 48511
L68201 48511
" />
<path d="M68000 51366
L68000 50893
" />
<path d="M67744 51129
L68255 51129
" />
<path d="M65535.8 45288.3 A1275.59 1275.59 0.0 0 0 65535.4 47664.4 " />
<path d="M66464.6 47664.4 A1275.59 1275.59 0.0 0 0 66464.2 45288.3 " />
<path d="M66464.2 45288.3 A1275.59 1275.59 0.0 0 0 65535.4 45288.4 " />
<path d="M64740 46476
L67259 46476
" />
<path d="M64740 46460
L67259 46460
" />
<path d="M64740 46444
L67259 46444
" />
<path d="M64740 46429
L67259 46429
" />
<path d="M64741 46413
L67258 46413
" />
<path d="M64742 46397
L67257 46397
" />
<path d="M64743 46381
L67256 46381
" />
<path d="M64744 46366
L65614 46366
" />
<path d="M66385 46366
L67255 46366
" />
<path d="M64746 46350
L65614 46350
" />
<path d="M66385 46350
L67253 46350
" />
<path d="M64748 46334
L65614 46334
" />
<path d="M66385 46334
L67251 46334
" />
<path d="M64749 46318
L65614 46318
" />
<path d="M66385 46318
L67250 46318
" />
<path d="M64751 46303
L65614 46303
" />
<path d="M66385 46303
L67248 46303
" />
<path d="M64753 46287
L65614 46287
" />
<path d="M66385 46287
L67246 46287
" />
<path d="M64756 46271
L65614 46271
" />
<path d="M66385 46271
L67243 46271
" />
<path d="M64759 46255
L65614 46255
" />
<path d="M66385 46255
L67240 46255
" />
<path d="M64762 46240
L65614 46240
" />
<path d="M66385 46240
L67237 46240
" />
<path d="M64764 46224
L65614 46224
" />
<path d="M66385 46224
L67235 46224
" />
<path d="M64768 46208
L65614 46208
" />
<path d="M66385 46208
L67231 46208
" />
<path d="M64772 46192
L65614 46192
" />
<path d="M66385 46192
L67227 46192
" />
<path d="M64775 46176
L65614 46176
" />
<path d="M66385 46176
L67224 46176
" />
<path d="M64779 46161
L65614 46161
" />
<path d="M66385 46161
L67220 46161
" />
<path d="M64783 46145
L65614 46145
" />
<path d="M66385 46145
L67216 46145
" />
<path d="M64787 46129
L65614 46129
" />
<path d="M66385 46129
L67212 46129
" />
<path d="M64792 46113
L65614 46113
" />
<path d="M66385 46113
L67207 46113
" />
<path d="M64797 46098
L65614 46098
" />
<path d="M66385 46098
L67202 46098
" />
<path d="M64802 46082
L65614 46082
" />
<path d="M66385 46082
L67197 46082
" />
<path d="M64807 46066
L65614 46066
" />
<path d="M66385 46066
L67192 46066
" />
<path d="M64812 46050
L65614 46050
" />
<path d="M66385 46050
L67187 46050
" />
<path d="M64818 46035
L65614 46035
" />
<path d="M66385 46035
L67181 46035
" />
<path d="M64824 46019
L65614 46019
" />
<path d="M66385 46019
L67175 46019
" />
<path d="M64830 46003
L65614 46003
" />
<path d="M66385 46003
L67169 46003
" />
<path d="M64837 45987
L65614 45987
" />
<path d="M66385 45987
L67162 45987
" />
<path d="M64843 45972
L65614 45972
" />
<path d="M66385 45972
L67156 45972
" />
<path d="M64850 45956
L65614 45956
" />
<path d="M66385 45956
L67149 45956
" />
<path d="M64857 45940
L65614 45940
" />
<path d="M66385 45940
L67142 45940
" />
<path d="M64865 45924
L65614 45924
" />
<path d="M66385 45924
L67134 45924
" />
<path d="M64872 45909
L65614 45909
" />
<path d="M66385 45909
L67127 45909
" />
<path d="M64880 45893
L65614 45893
" />
<path d="M66385 45893
L67119 45893
" />
<path d="M64888 45877
L65614 45877
" />
<path d="M66385 45877
L67111 45877
" />
<path d="M64897 45861
L65614 45861
" />
<path d="M66385 45861
L67102 45861
" />
<path d="M64906 45846
L65614 45846
" />
<path d="M66385 45846
L67093 45846
" />
<path d="M64915 45830
L65614 45830
" />
<path d="M66385 45830
L67084 45830
" />
<path d="M64924 45814
L65614 45814
" />
<path d="M66385 45814
L67075 45814
" />
<path d="M64934 45798
L65614 45798
" />
<path d="M66385 45798
L67065 45798
" />
<path d="M64944 45783
L65614 45783
" />
<path d="M66385 45783
L67055 45783
" />
<path d="M64955 45767
L65614 45767
" />
<path d="M66385 45767
L67044 45767
" />
<path d="M64965 45751
L65614 45751
" />
<path d="M66385 45751
L67034 45751
" />
<path d="M64976 45735
L65614 45735
" />
<path d="M66385 45735
L67023 45735
" />
<path d="M64988 45720
L65614 45720
" />
<path d="M66385 45720
L67011 45720
" />
<path d="M65000 45704
L65614 45704
" />
<path d="M66385 45704
L67000 45704
" />
<path d="M65011 45688
L65614 45688
" />
<path d="M66385 45688
L66988 45688
" />
<path d="M65024 45672
L65614 45672
" />
<path d="M66385 45672
L66975 45672
" />
<path d="M65037 45657
L65614 45657
" />
<path d="M66385 45657
L66962 45657
" />
<path d="M65050 45641
L65614 45641
" />
<path d="M66385 45641
L66949 45641
" />
<path d="M65064 45625
L65614 45625
" />
<path d="M66385 45625
L66935 45625
" />
<path d="M65079 45609
L65614 45609
" />
<path d="M66385 45609
L66920 45609
" />
<path d="M65094 45594
L66905 45594
" />
<path d="M65109 45578
L66890 45578
" />
<path d="M65125 45562
L66874 45562
" />
<path d="M65141 45546
L66858 45546
" />
<path d="M65158 45531
L66841 45531
" />
<path d="M65176 45515
L66823 45515
" />
<path d="M65194 45499
L66805 45499
" />
<path d="M65213 45483
L66786 45483
" />
<path d="M65233 45468
L66766 45468
" />
<path d="M65254 45452
L66745 45452
" />
<path d="M65275 45436
L66724 45436
" />
<path d="M65298 45420
L66701 45420
" />
<path d="M65322 45405
L66677 45405
" />
<path d="M65347 45389
L66652 45389
" />
<path d="M65373 45373
L66626 45373
" />
<path d="M65401 45357
L66598 45357
" />
<path d="M65431 45342
L66568 45342
" />
<path d="M65462 45326
L66537 45326
" />
<path d="M65496 45310
L66503 45310
" />
<path d="M65533 45294
L66466 45294
" />
<path d="M65574 45279
L66425 45279
" />
<path d="M65619 45263
L66380 45263
" />
<path d="M65671 45247
L66328 45247
" />
<path d="M65733 45231
L66266 45231
" />
<path d="M65815 45216
L66184 45216
" />
<path d="M66000 47834
L66000 47362
" />
<path d="M65744 47598
L66255 47598
" />
<path d="M61000 47500
L61000 43500
" />
<path d="M60500 47500
L63500 47500
" />
<path d="M63500 47500
L63500 43500
" />
<path d="M63500 43500
L60500 43500
" />
<path d="M60500 43500
L60500 47500
" />
<path d="M68771 45791
L68771 47208
" />
<path d="M70523.6 46500 A1023.62 1023.62 0.0 0 0 68776.2 45776.2 " />
<path d="M68776.2 47223.8 A1023.62 1023.62 0.0 0 0 70523.6 46500 " />
<path d="M70767 43661
L70767 44338
" />
<path d="M70767 44338
L72232 44338
" />
<path d="M72232 44338
L72232 43661
" />
<path d="M72232 43661
L70767 43661
" />
<path d="M70346 44000
L70767 44000
" />
<path d="M72653 44000
L72232 44000
" />
<path d="M64232 49338
L64232 48661
" />
<path d="M64232 48661
L62767 48661
" />
<path d="M62767 48661
L62767 49338
" />
<path d="M62767 49338
L64232 49338
" />
<path d="M64653 49000
L64232 49000
" />
<path d="M62346 49000
L62767 49000
" />
<path d="M67232 44338
L67232 43661
" />
<path d="M67232 43661
L65767 43661
" />
<path d="M65767 43661
L65767 44338
" />
<path d="M65767 44338
L67232 44338
" />
<path d="M67653 44000
L67232 44000
" />
<path d="M65346 44000
L65767 44000
" />
<path d="M64232 51338
L64232 50661
" />
<path d="M64232 50661
L62767 50661
" />
<path d="M62767 50661
L62767 51338
" />
<path d="M62767 51338
L64232 51338
" />
<path d="M64653 51000
L64232 51000
" />
<path d="M62346 51000
L62767 51000
" />
</g> 
</svg>
