<?xml version="1.0" standalone="no"?>
 <!DOCTYPE svg PUBLIC "-//W3C//DTD SVG 1.1//EN" 
 "http://www.w3.org/Graphics/SVG/1.1/DTD/svg11.dtd"> 
<svg xmlns="http://www.w3.org/2000/svg" version="1.1" 
    width="29.7002cm" height="21.0007cm" viewBox="0 0 116930 82680 ">
<title>SVG Picture created as Single_transistor_AMP_miculis.svg date 2018/06/12 10:31:29 </title>
  <desc>Picture generated by Eeschema-SVG </desc>
<g style="fill:#000000; fill-opacity:1;stroke:#000000; stroke-opacity:1;
stroke-linecap:round; stroke-linejoin:round; "
 transform="translate(0 0) scale(1 1)">
</g>
<g style="fill:#000000; fill-opacity:0.0; 
stroke:#000000; stroke-width:-10; stroke-opacity:1; 
stroke-linecap:round; stroke-linejoin:round;">
</g>
<g style="fill:#840000; fill-opacity:0.0; 
stroke:#840000; stroke-width:-10; stroke-opacity:1; 
stroke-linecap:round; stroke-linejoin:round;">
</g>
<g style="fill:#840000; fill-opacity:0.0; 
stroke:#840000; stroke-width:100; stroke-opacity:1; 
stroke-linecap:round; stroke-linejoin:round;">
</g>
<g style="fill:#840000; fill-opacity:0.0; 
stroke:#840000; stroke-width:60; stroke-opacity:1; 
stroke-linecap:round; stroke-linejoin:round;">
<rect x="69690" y="65360" width="42520" height="12600" rx="0" />
</g>
<g style="fill:#840000; fill-opacity:0.0; 
stroke:#840000; stroke-width:100; stroke-opacity:1; 
stroke-linecap:round; stroke-linejoin:round;">
</g>
<g style="fill:#840000; fill-opacity:0.0; 
stroke:#840000; stroke-width:60; stroke-opacity:1; 
stroke-linecap:round; stroke-linejoin:round;">
<rect x="3940" y="3940" width="109050" height="74800" rx="0" />
</g>
<g style="fill:#840000; fill-opacity:0.0; 
stroke:#840000; stroke-width:100; stroke-opacity:1; 
stroke-linecap:round; stroke-linejoin:round;">
</g>
<g style="fill:#840000; fill-opacity:0.0; 
stroke:#840000; stroke-width:60; stroke-opacity:1; 
stroke-linecap:round; stroke-linejoin:round;">
<rect x="4720" y="4720" width="107490" height="73240" rx="0" />
</g>
<g style="fill:#840000; fill-opacity:0.0; 
stroke:#840000; stroke-width:100; stroke-opacity:1; 
stroke-linecap:round; stroke-linejoin:round;">
</g>
<g style="fill:#840000; fill-opacity:0.0; 
stroke:#840000; stroke-width:60; stroke-opacity:1; 
stroke-linecap:round; stroke-linejoin:round;">
<path d="M23620 4720
L23620 3940
" />
</g>
<g style="fill:#840000; fill-opacity:0.0; 
stroke:#840000; stroke-width:100; stroke-opacity:1; 
stroke-linecap:round; stroke-linejoin:round;">
</g>
<g style="fill:#840000; fill-opacity:0.0; 
stroke:#840000; stroke-width:60; stroke-opacity:1; 
stroke-linecap:round; stroke-linejoin:round;">
<path d="M43310 4720
L43310 3940
" />
</g>
<g style="fill:#840000; fill-opacity:0.0; 
stroke:#840000; stroke-width:100; stroke-opacity:1; 
stroke-linecap:round; stroke-linejoin:round;">
</g>
<g style="fill:#840000; fill-opacity:0.0; 
stroke:#840000; stroke-width:60; stroke-opacity:1; 
stroke-linecap:round; stroke-linejoin:round;">
<path d="M62990 4720
L62990 3940
" />
</g>
<g style="fill:#840000; fill-opacity:0.0; 
stroke:#840000; stroke-width:100; stroke-opacity:1; 
stroke-linecap:round; stroke-linejoin:round;">
</g>
<g style="fill:#840000; fill-opacity:0.0; 
stroke:#840000; stroke-width:60; stroke-opacity:1; 
stroke-linecap:round; stroke-linejoin:round;">
<path d="M82680 4720
L82680 3940
" />
</g>
<g style="fill:#840000; fill-opacity:0.0; 
stroke:#840000; stroke-width:100; stroke-opacity:1; 
stroke-linecap:round; stroke-linejoin:round;">
</g>
<g style="fill:#840000; fill-opacity:0.0; 
stroke:#840000; stroke-width:60; stroke-opacity:1; 
stroke-linecap:round; stroke-linejoin:round;">
<path d="M102360 4720
L102360 3940
" />
</g>
<g style="fill:#840000; fill-opacity:0.0; 
stroke:#840000; stroke-width:100; stroke-opacity:1; 
stroke-linecap:round; stroke-linejoin:round;">
</g>
<g style="fill:#840000; fill-opacity:0.0; 
stroke:#840000; stroke-width:60; stroke-opacity:1; 
stroke-linecap:round; stroke-linejoin:round;">
<path d="M14170 4560
L13880 4560
" />
<path d="M14020 4560
L14020 4050
L13970 4120
L13930 4170
L13880 4190
" />
</g>
<g style="fill:#840000; fill-opacity:0.0; 
stroke:#840000; stroke-width:100; stroke-opacity:1; 
stroke-linecap:round; stroke-linejoin:round;">
</g>
<g style="fill:#840000; fill-opacity:0.0; 
stroke:#840000; stroke-width:60; stroke-opacity:1; 
stroke-linecap:round; stroke-linejoin:round;">
<path d="M33560 4090
L33580 4070
L33630 4050
L33750 4050
L33800 4070
L33820 4090
L33850 4140
L33850 4190
L33820 4260
L33530 4560
L33850 4560
" />
</g>
<g style="fill:#840000; fill-opacity:0.0; 
stroke:#840000; stroke-width:100; stroke-opacity:1; 
stroke-linecap:round; stroke-linejoin:round;">
</g>
<g style="fill:#840000; fill-opacity:0.0; 
stroke:#840000; stroke-width:60; stroke-opacity:1; 
stroke-linecap:round; stroke-linejoin:round;">
<path d="M53220 4050
L53540 4050
L53370 4240
L53440 4240
L53490 4260
L53510 4290
L53540 4340
L53540 4460
L53510 4510
L53490 4530
L53440 4560
L53300 4560
L53250 4530
L53220 4510
" />
</g>
<g style="fill:#840000; fill-opacity:0.0; 
stroke:#840000; stroke-width:100; stroke-opacity:1; 
stroke-linecap:round; stroke-linejoin:round;">
</g>
<g style="fill:#840000; fill-opacity:0.0; 
stroke:#840000; stroke-width:60; stroke-opacity:1; 
stroke-linecap:round; stroke-linejoin:round;">
<path d="M73170 4220
L73170 4560
" />
<path d="M73050 4020
L72930 4390
L73240 4390
" />
</g>
<g style="fill:#840000; fill-opacity:0.0; 
stroke:#840000; stroke-width:100; stroke-opacity:1; 
stroke-linecap:round; stroke-linejoin:round;">
</g>
<g style="fill:#840000; fill-opacity:0.0; 
stroke:#840000; stroke-width:60; stroke-opacity:1; 
stroke-linecap:round; stroke-linejoin:round;">
<path d="M92880 4050
L92640 4050
L92620 4290
L92640 4260
L92690 4240
L92810 4240
L92860 4260
L92880 4290
L92910 4340
L92910 4460
L92880 4510
L92860 4530
L92810 4560
L92690 4560
L92640 4530
L92620 4510
" />
</g>
<g style="fill:#840000; fill-opacity:0.0; 
stroke:#840000; stroke-width:100; stroke-opacity:1; 
stroke-linecap:round; stroke-linejoin:round;">
</g>
<g style="fill:#840000; fill-opacity:0.0; 
stroke:#840000; stroke-width:60; stroke-opacity:1; 
stroke-linecap:round; stroke-linejoin:round;">
<path d="M112540 4050
L112440 4050
L112390 4070
L112370 4090
L112320 4170
L112300 4260
L112300 4460
L112320 4510
L112350 4530
L112390 4560
L112490 4560
L112540 4530
L112560 4510
L112590 4460
L112590 4340
L112560 4290
L112540 4260
L112490 4240
L112390 4240
L112350 4260
L112320 4290
L112300 4340
" />
</g>
<g style="fill:#840000; fill-opacity:0.0; 
stroke:#840000; stroke-width:100; stroke-opacity:1; 
stroke-linecap:round; stroke-linejoin:round;">
</g>
<g style="fill:#840000; fill-opacity:0.0; 
stroke:#840000; stroke-width:60; stroke-opacity:1; 
stroke-linecap:round; stroke-linejoin:round;">
<path d="M23620 77960
L23620 78740
" />
</g>
<g style="fill:#840000; fill-opacity:0.0; 
stroke:#840000; stroke-width:100; stroke-opacity:1; 
stroke-linecap:round; stroke-linejoin:round;">
</g>
<g style="fill:#840000; fill-opacity:0.0; 
stroke:#840000; stroke-width:60; stroke-opacity:1; 
stroke-linecap:round; stroke-linejoin:round;">
<path d="M43310 77960
L43310 78740
" />
</g>
<g style="fill:#840000; fill-opacity:0.0; 
stroke:#840000; stroke-width:100; stroke-opacity:1; 
stroke-linecap:round; stroke-linejoin:round;">
</g>
<g style="fill:#840000; fill-opacity:0.0; 
stroke:#840000; stroke-width:60; stroke-opacity:1; 
stroke-linecap:round; stroke-linejoin:round;">
<path d="M62990 77960
L62990 78740
" />
</g>
<g style="fill:#840000; fill-opacity:0.0; 
stroke:#840000; stroke-width:100; stroke-opacity:1; 
stroke-linecap:round; stroke-linejoin:round;">
</g>
<g style="fill:#840000; fill-opacity:0.0; 
stroke:#840000; stroke-width:60; stroke-opacity:1; 
stroke-linecap:round; stroke-linejoin:round;">
<path d="M82680 77960
L82680 78740
" />
</g>
<g style="fill:#840000; fill-opacity:0.0; 
stroke:#840000; stroke-width:100; stroke-opacity:1; 
stroke-linecap:round; stroke-linejoin:round;">
</g>
<g style="fill:#840000; fill-opacity:0.0; 
stroke:#840000; stroke-width:60; stroke-opacity:1; 
stroke-linecap:round; stroke-linejoin:round;">
<path d="M102360 77960
L102360 78740
" />
</g>
<g style="fill:#840000; fill-opacity:0.0; 
stroke:#840000; stroke-width:100; stroke-opacity:1; 
stroke-linecap:round; stroke-linejoin:round;">
</g>
<g style="fill:#840000; fill-opacity:0.0; 
stroke:#840000; stroke-width:60; stroke-opacity:1; 
stroke-linecap:round; stroke-linejoin:round;">
<path d="M14170 78580
L13880 78580
" />
<path d="M14020 78580
L14020 78070
L13970 78140
L13930 78190
L13880 78210
" />
</g>
<g style="fill:#840000; fill-opacity:0.0; 
stroke:#840000; stroke-width:100; stroke-opacity:1; 
stroke-linecap:round; stroke-linejoin:round;">
</g>
<g style="fill:#840000; fill-opacity:0.0; 
stroke:#840000; stroke-width:60; stroke-opacity:1; 
stroke-linecap:round; stroke-linejoin:round;">
<path d="M33560 78110
L33580 78090
L33630 78070
L33750 78070
L33800 78090
L33820 78110
L33850 78160
L33850 78210
L33820 78280
L33530 78580
L33850 78580
" />
</g>
<g style="fill:#840000; fill-opacity:0.0; 
stroke:#840000; stroke-width:100; stroke-opacity:1; 
stroke-linecap:round; stroke-linejoin:round;">
</g>
<g style="fill:#840000; fill-opacity:0.0; 
stroke:#840000; stroke-width:60; stroke-opacity:1; 
stroke-linecap:round; stroke-linejoin:round;">
<path d="M53220 78070
L53540 78070
L53370 78260
L53440 78260
L53490 78280
L53510 78310
L53540 78360
L53540 78480
L53510 78530
L53490 78550
L53440 78580
L53300 78580
L53250 78550
L53220 78530
" />
</g>
<g style="fill:#840000; fill-opacity:0.0; 
stroke:#840000; stroke-width:100; stroke-opacity:1; 
stroke-linecap:round; stroke-linejoin:round;">
</g>
<g style="fill:#840000; fill-opacity:0.0; 
stroke:#840000; stroke-width:60; stroke-opacity:1; 
stroke-linecap:round; stroke-linejoin:round;">
<path d="M73170 78240
L73170 78580
" />
<path d="M73050 78040
L72930 78410
L73240 78410
" />
</g>
<g style="fill:#840000; fill-opacity:0.0; 
stroke:#840000; stroke-width:100; stroke-opacity:1; 
stroke-linecap:round; stroke-linejoin:round;">
</g>
<g style="fill:#840000; fill-opacity:0.0; 
stroke:#840000; stroke-width:60; stroke-opacity:1; 
stroke-linecap:round; stroke-linejoin:round;">
<path d="M92880 78070
L92640 78070
L92620 78310
L92640 78280
L92690 78260
L92810 78260
L92860 78280
L92880 78310
L92910 78360
L92910 78480
L92880 78530
L92860 78550
L92810 78580
L92690 78580
L92640 78550
L92620 78530
" />
</g>
<g style="fill:#840000; fill-opacity:0.0; 
stroke:#840000; stroke-width:100; stroke-opacity:1; 
stroke-linecap:round; stroke-linejoin:round;">
</g>
<g style="fill:#840000; fill-opacity:0.0; 
stroke:#840000; stroke-width:60; stroke-opacity:1; 
stroke-linecap:round; stroke-linejoin:round;">
<path d="M112540 78070
L112440 78070
L112390 78090
L112370 78110
L112320 78190
L112300 78280
L112300 78480
L112320 78530
L112350 78550
L112390 78580
L112490 78580
L112540 78550
L112560 78530
L112590 78480
L112590 78360
L112560 78310
L112540 78280
L112490 78260
L112390 78260
L112350 78280
L112320 78310
L112300 78360
" />
</g>
<g style="fill:#840000; fill-opacity:0.0; 
stroke:#840000; stroke-width:100; stroke-opacity:1; 
stroke-linecap:round; stroke-linejoin:round;">
</g>
<g style="fill:#840000; fill-opacity:0.0; 
stroke:#840000; stroke-width:60; stroke-opacity:1; 
stroke-linecap:round; stroke-linejoin:round;">
<path d="M3940 23620
L4720 23620
" />
</g>
<g style="fill:#840000; fill-opacity:0.0; 
stroke:#840000; stroke-width:100; stroke-opacity:1; 
stroke-linecap:round; stroke-linejoin:round;">
</g>
<g style="fill:#840000; fill-opacity:0.0; 
stroke:#840000; stroke-width:60; stroke-opacity:1; 
stroke-linecap:round; stroke-linejoin:round;">
<path d="M3940 43310
L4720 43310
" />
</g>
<g style="fill:#840000; fill-opacity:0.0; 
stroke:#840000; stroke-width:100; stroke-opacity:1; 
stroke-linecap:round; stroke-linejoin:round;">
</g>
<g style="fill:#840000; fill-opacity:0.0; 
stroke:#840000; stroke-width:60; stroke-opacity:1; 
stroke-linecap:round; stroke-linejoin:round;">
<path d="M3940 62990
L4720 62990
" />
</g>
<g style="fill:#840000; fill-opacity:0.0; 
stroke:#840000; stroke-width:100; stroke-opacity:1; 
stroke-linecap:round; stroke-linejoin:round;">
</g>
<g style="fill:#840000; fill-opacity:0.0; 
stroke:#840000; stroke-width:60; stroke-opacity:1; 
stroke-linecap:round; stroke-linejoin:round;">
<path d="M4210 13860
L4450 13860
" />
<path d="M4160 14010
L4330 13500
L4500 14010
" />
</g>
<g style="fill:#840000; fill-opacity:0.0; 
stroke:#840000; stroke-width:100; stroke-opacity:1; 
stroke-linecap:round; stroke-linejoin:round;">
</g>
<g style="fill:#840000; fill-opacity:0.0; 
stroke:#840000; stroke-width:60; stroke-opacity:1; 
stroke-linecap:round; stroke-linejoin:round;">
<path d="M4370 33420
L4440 33440
L4470 33470
L4490 33520
L4490 33590
L4470 33640
L4440 33660
L4400 33690
L4200 33690
L4200 33180
L4370 33180
L4420 33200
L4440 33220
L4470 33270
L4470 33320
L4440 33370
L4420 33390
L4370 33420
L4200 33420
" />
</g>
<g style="fill:#840000; fill-opacity:0.0; 
stroke:#840000; stroke-width:100; stroke-opacity:1; 
stroke-linecap:round; stroke-linejoin:round;">
</g>
<g style="fill:#840000; fill-opacity:0.0; 
stroke:#840000; stroke-width:60; stroke-opacity:1; 
stroke-linecap:round; stroke-linejoin:round;">
<path d="M4490 53330
L4470 53350
L4400 53380
L4350 53380
L4270 53350
L4230 53300
L4200 53250
L4180 53160
L4180 53080
L4200 52990
L4230 52940
L4270 52890
L4350 52870
L4400 52870
L4470 52890
L4490 52910
" />
</g>
<g style="fill:#840000; fill-opacity:0.0; 
stroke:#840000; stroke-width:100; stroke-opacity:1; 
stroke-linecap:round; stroke-linejoin:round;">
</g>
<g style="fill:#840000; fill-opacity:0.0; 
stroke:#840000; stroke-width:60; stroke-opacity:1; 
stroke-linecap:round; stroke-linejoin:round;">
<path d="M4200 73060
L4200 72550
L4320 72550
L4400 72570
L4440 72620
L4470 72670
L4490 72760
L4490 72840
L4470 72930
L4440 72980
L4400 73030
L4320 73060
L4200 73060
" />
</g>
<g style="fill:#840000; fill-opacity:0.0; 
stroke:#840000; stroke-width:100; stroke-opacity:1; 
stroke-linecap:round; stroke-linejoin:round;">
</g>
<g style="fill:#840000; fill-opacity:0.0; 
stroke:#840000; stroke-width:60; stroke-opacity:1; 
stroke-linecap:round; stroke-linejoin:round;">
<path d="M112990 23620
L112210 23620
" />
</g>
<g style="fill:#840000; fill-opacity:0.0; 
stroke:#840000; stroke-width:100; stroke-opacity:1; 
stroke-linecap:round; stroke-linejoin:round;">
</g>
<g style="fill:#840000; fill-opacity:0.0; 
stroke:#840000; stroke-width:60; stroke-opacity:1; 
stroke-linecap:round; stroke-linejoin:round;">
<path d="M112990 43310
L112210 43310
" />
</g>
<g style="fill:#840000; fill-opacity:0.0; 
stroke:#840000; stroke-width:100; stroke-opacity:1; 
stroke-linecap:round; stroke-linejoin:round;">
</g>
<g style="fill:#840000; fill-opacity:0.0; 
stroke:#840000; stroke-width:60; stroke-opacity:1; 
stroke-linecap:round; stroke-linejoin:round;">
<path d="M112990 62990
L112210 62990
" />
</g>
<g style="fill:#840000; fill-opacity:0.0; 
stroke:#840000; stroke-width:100; stroke-opacity:1; 
stroke-linecap:round; stroke-linejoin:round;">
</g>
<g style="fill:#840000; fill-opacity:0.0; 
stroke:#840000; stroke-width:60; stroke-opacity:1; 
stroke-linecap:round; stroke-linejoin:round;">
<path d="M112480 13860
L112720 13860
" />
<path d="M112430 14010
L112600 13500
L112770 14010
" />
</g>
<g style="fill:#840000; fill-opacity:0.0; 
stroke:#840000; stroke-width:100; stroke-opacity:1; 
stroke-linecap:round; stroke-linejoin:round;">
</g>
<g style="fill:#840000; fill-opacity:0.0; 
stroke:#840000; stroke-width:60; stroke-opacity:1; 
stroke-linecap:round; stroke-linejoin:round;">
<path d="M112640 33420
L112710 33440
L112740 33470
L112760 33520
L112760 33590
L112740 33640
L112710 33660
L112670 33690
L112470 33690
L112470 33180
L112640 33180
L112690 33200
L112710 33220
L112740 33270
L112740 33320
L112710 33370
L112690 33390
L112640 33420
L112470 33420
" />
</g>
<g style="fill:#840000; fill-opacity:0.0; 
stroke:#840000; stroke-width:100; stroke-opacity:1; 
stroke-linecap:round; stroke-linejoin:round;">
</g>
<g style="fill:#840000; fill-opacity:0.0; 
stroke:#840000; stroke-width:60; stroke-opacity:1; 
stroke-linecap:round; stroke-linejoin:round;">
<path d="M112760 53330
L112740 53350
L112670 53380
L112620 53380
L112540 53350
L112500 53300
L112470 53250
L112450 53160
L112450 53080
L112470 52990
L112500 52940
L112540 52890
L112620 52870
L112670 52870
L112740 52890
L112760 52910
" />
</g>
<g style="fill:#840000; fill-opacity:0.0; 
stroke:#840000; stroke-width:100; stroke-opacity:1; 
stroke-linecap:round; stroke-linejoin:round;">
</g>
<g style="fill:#840000; fill-opacity:0.0; 
stroke:#840000; stroke-width:60; stroke-opacity:1; 
stroke-linecap:round; stroke-linejoin:round;">
<path d="M112470 73060
L112470 72550
L112590 72550
L112670 72570
L112710 72620
L112740 72670
L112760 72760
L112760 72840
L112740 72930
L112710 72980
L112670 73030
L112590 73060
L112470 73060
" />
</g>
<g style="fill:#840000; fill-opacity:0.0; 
stroke:#840000; stroke-width:100; stroke-opacity:1; 
stroke-linecap:round; stroke-linejoin:round;">
</g>
<g style="fill:#840000; fill-opacity:0.0; 
stroke:#840000; stroke-width:60; stroke-opacity:1; 
stroke-linecap:round; stroke-linejoin:round;">
<path d="M78880 76290
L78880 75700
L79020 75700
L79110 75730
L79160 75790
L79190 75840
L79220 75950
L79220 76040
L79190 76150
L79160 76210
L79110 76260
L79020 76290
L78880 76290
" />
<path d="M79720 76290
L79720 75980
L79700 75930
L79640 75900
L79530 75900
L79470 75930
" />
<path d="M79720 76260
L79670 76290
L79530 76290
L79470 76260
L79440 76210
L79440 76150
L79470 76100
L79530 76070
L79670 76070
L79720 76040
" />
<path d="M79920 75900
L80140 75900
" />
<path d="M80000 75700
L80000 76210
L80030 76260
L80080 76290
L80140 76290
" />
<path d="M80570 76260
L80510 76290
L80400 76290
L80340 76260
L80310 76210
L80310 75980
L80340 75930
L80400 75900
L80510 75900
L80570 75930
L80590 75980
L80590 76040
L80310 76100
" />
<path d="M80850 76240
L80880 76260
L80850 76290
L80820 76260
L80850 76240
L80850 76290
" />
<path d="M80850 75930
L80880 75950
L80850 75980
L80820 75950
L80850 75930
L80850 75980
" />
</g>
<g style="fill:#840000; fill-opacity:0.0; 
stroke:#840000; stroke-width:100; stroke-opacity:1; 
stroke-linecap:round; stroke-linejoin:round;">
</g>
<g style="fill:#840000; fill-opacity:0.0; 
stroke:#840000; stroke-width:60; stroke-opacity:1; 
stroke-linecap:round; stroke-linejoin:round;">
<path d="M69690 76580
L112210 76580
" />
</g>
<g style="fill:#840000; fill-opacity:0.0; 
stroke:#840000; stroke-width:100; stroke-opacity:1; 
stroke-linecap:round; stroke-linejoin:round;">
</g>
<g style="fill:#840000; fill-opacity:0.0; 
stroke:#840000; stroke-width:60; stroke-opacity:1; 
stroke-linecap:round; stroke-linejoin:round;">
<path d="M70220 77390
L70220 76800
" />
<path d="M70560 77390
L70300 77050
" />
<path d="M70560 76800
L70220 77140
" />
<path d="M70810 77390
L70810 77000
" />
<path d="M70810 76800
L70780 76830
L70810 76860
L70840 76830
L70810 76800
L70810 76860
" />
<path d="M71430 77340
L71400 77360
L71320 77390
L71260 77390
L71170 77360
L71120 77310
L71090 77250
L71060 77140
L71060 77050
L71090 76940
L71120 76890
L71170 76830
L71260 76800
L71320 76800
L71400 76830
L71430 76860
" />
<path d="M71930 77390
L71930 77080
L71910 77030
L71850 77000
L71740 77000
L71680 77030
" />
<path d="M71930 77360
L71880 77390
L71740 77390
L71680 77360
L71650 77310
L71650 77250
L71680 77200
L71740 77170
L71880 77170
L71930 77140
" />
<path d="M72460 77390
L72460 76800
" />
<path d="M72460 77360
L72410 77390
L72290 77390
L72240 77360
L72210 77340
L72180 77280
L72180 77110
L72210 77050
L72240 77030
L72290 77000
L72410 77000
L72460 77030
" />
<path d="M73190 77080
L73390 77080
" />
<path d="M73470 77390
L73190 77390
L73190 76800
L73470 76800
" />
<path d="M73720 77340
L73750 77360
L73720 77390
L73690 77360
L73720 77340
L73720 77390
" />
<path d="M74000 77390
L74000 76800
L74140 76800
L74230 76830
L74280 76890
L74310 76940
L74340 77050
L74340 77140
L74310 77250
L74280 77310
L74230 77360
L74140 77390
L74000 77390
" />
<path d="M74590 77340
L74620 77360
L74590 77390
L74560 77360
L74590 77340
L74590 77390
" />
<path d="M74840 77220
L75120 77220
" />
<path d="M74790 77390
L74980 76800
L75180 77390
" />
<path d="M75380 77340
L75410 77360
L75380 77390
L75350 77360
L75380 77340
L75380 77390
" />
<path d="M76560 77390
L76560 76800
" />
<path d="M76620 77170
L76790 77390
" />
<path d="M76790 77000
L76560 77220
" />
<path d="M77040 77390
L77040 77000
" />
<path d="M77040 76800
L77010 76830
L77040 76860
L77070 76830
L77040 76800
L77040 76860
" />
<path d="M77570 77360
L77520 77390
L77400 77390
L77350 77360
L77320 77340
L77290 77280
L77290 77110
L77320 77050
L77350 77030
L77400 77000
L77520 77000
L77570 77030
" />
<path d="M78080 77390
L78080 77080
L78060 77030
L78000 77000
L77890 77000
L77830 77030
" />
<path d="M78080 77360
L78030 77390
L77890 77390
L77830 77360
L77800 77310
L77800 77250
L77830 77200
L77890 77170
L78030 77170
L78080 77140
" />
<path d="M78610 77390
L78610 76800
" />
<path d="M78610 77360
L78560 77390
L78440 77390
L78390 77360
L78360 77340
L78330 77280
L78330 77110
L78360 77050
L78390 77030
L78440 77000
L78560 77000
L78610 77030
" />
<path d="M79590 77000
L79590 77390
" />
<path d="M79450 76770
L79310 77200
L79680 77200
" />
<path d="M79900 77340
L79930 77360
L79900 77390
L79870 77360
L79900 77340
L79900 77390
" />
<path d="M80290 76800
L80350 76800
L80410 76830
L80430 76860
L80460 76910
L80490 77030
L80490 77170
L80460 77280
L80430 77340
L80410 77360
L80350 77390
L80290 77390
L80240 77360
L80210 77340
L80180 77280
L80150 77170
L80150 77030
L80180 76910
L80210 76860
L80240 76830
L80290 76800
" />
<path d="M80740 77340
L80770 77360
L80740 77390
L80710 77360
L80740 77340
L80740 77390
" />
<path d="M80960 76800
L81360 76800
L81100 77390
" />
</g>
<g style="fill:#840000; fill-opacity:0.0; 
stroke:#840000; stroke-width:100; stroke-opacity:1; 
stroke-linecap:round; stroke-linejoin:round;">
</g>
<g style="fill:#840000; fill-opacity:0.0; 
stroke:#840000; stroke-width:60; stroke-opacity:1; 
stroke-linecap:round; stroke-linejoin:round;">
<path d="M69690 75400
L112210 75400
" />
</g>
<g style="fill:#840000; fill-opacity:0.0; 
stroke:#840000; stroke-width:100; stroke-opacity:1; 
stroke-linecap:round; stroke-linejoin:round;">
</g>
<g style="fill:#840000; fill-opacity:0.0; 
stroke:#840000; stroke-width:120; stroke-opacity:1; 
stroke-linecap:round; stroke-linejoin:round;">
<path d="M104020 76290
L103820 76010
" />
<path d="M103680 76290
L103680 75700
L103910 75700
L103960 75730
L103990 75760
L104020 75810
L104020 75900
L103990 75950
L103960 75980
L103910 76010
L103680 76010
" />
<path d="M104500 76260
L104440 76290
L104330 76290
L104270 76260
L104240 76210
L104240 75980
L104270 75930
L104330 75900
L104440 75900
L104500 75930
L104520 75980
L104520 76040
L104240 76100
" />
<path d="M104720 75900
L104860 76290
L105010 75900
" />
<path d="M105230 76240
L105260 76260
L105230 76290
L105200 76260
L105230 76240
L105230 76290
" />
<path d="M105230 75930
L105260 75950
L105230 75980
L105200 75950
L105230 75930
L105230 75980
" />
</g>
<g style="fill:#840000; fill-opacity:0.0; 
stroke:#840000; stroke-width:100; stroke-opacity:1; 
stroke-linecap:round; stroke-linejoin:round;">
</g>
<g style="fill:#840000; fill-opacity:0.0; 
stroke:#840000; stroke-width:60; stroke-opacity:1; 
stroke-linecap:round; stroke-linejoin:round;">
<path d="M70190 76260
L70280 76290
L70420 76290
L70470 76260
L70500 76240
L70530 76180
L70530 76120
L70500 76070
L70470 76040
L70420 76010
L70300 75980
L70250 75950
L70220 75930
L70190 75870
L70190 75810
L70220 75760
L70250 75730
L70300 75700
L70450 75700
L70530 75730
" />
<path d="M70780 76290
L70780 75900
" />
<path d="M70780 75700
L70750 75730
L70780 75760
L70810 75730
L70780 75700
L70780 75760
" />
<path d="M71000 75900
L71310 75900
L71000 76290
L71310 76290
" />
<path d="M71770 76260
L71710 76290
L71600 76290
L71540 76260
L71510 76210
L71510 75980
L71540 75930
L71600 75900
L71710 75900
L71770 75930
L71790 75980
L71790 76040
L71510 76100
" />
<path d="M72050 76240
L72080 76260
L72050 76290
L72020 76260
L72050 76240
L72050 76290
" />
<path d="M72050 75930
L72080 75950
L72050 75980
L72020 75950
L72050 75930
L72050 75980
" />
<path d="M72750 76120
L73030 76120
" />
<path d="M72700 76290
L72890 75700
L73090 76290
" />
<path d="M73540 75900
L73540 76290
" />
<path d="M73400 75670
L73260 76100
L73630 76100
" />
</g>
<g style="fill:#840000; fill-opacity:0.0; 
stroke:#840000; stroke-width:100; stroke-opacity:1; 
stroke-linecap:round; stroke-linejoin:round;">
</g>
<g style="fill:#840000; fill-opacity:0.0; 
stroke:#840000; stroke-width:60; stroke-opacity:1; 
stroke-linecap:round; stroke-linejoin:round;">
<path d="M103680 77390
L103680 76800
" />
<path d="M104210 77390
L104210 76800
" />
<path d="M104210 77360
L104160 77390
L104040 77390
L103990 77360
L103960 77340
L103930 77280
L103930 77110
L103960 77050
L103990 77030
L104040 77000
L104160 77000
L104210 77030
" />
<path d="M104490 77340
L104520 77360
L104490 77390
L104460 77360
L104490 77340
L104490 77390
" />
<path d="M104490 77030
L104520 77050
L104490 77080
L104460 77050
L104490 77030
L104490 77080
" />
<path d="M105530 77390
L105190 77390
" />
<path d="M105360 77390
L105360 76800
L105300 76890
L105250 76940
L105190 76970
" />
<path d="M106200 76770
L105700 77530
" />
<path d="M106710 77390
L106370 77390
" />
<path d="M106540 77390
L106540 76800
L106480 76890
L106430 76940
L106370 76970
" />
</g>
<g style="fill:#840000; fill-opacity:0.0; 
stroke:#840000; stroke-width:100; stroke-opacity:1; 
stroke-linecap:round; stroke-linejoin:round;">
</g>
<g style="fill:#840000; fill-opacity:0.0; 
stroke:#840000; stroke-width:60; stroke-opacity:1; 
stroke-linecap:round; stroke-linejoin:round;">
<path d="M69690 73820
L112210 73820
" />
</g>
<g style="fill:#840000; fill-opacity:0.0; 
stroke:#840000; stroke-width:100; stroke-opacity:1; 
stroke-linecap:round; stroke-linejoin:round;">
</g>
<g style="fill:#840000; fill-opacity:0.0; 
stroke:#840000; stroke-width:160; stroke-opacity:1; 
stroke-linecap:round; stroke-linejoin:round;">
<path d="M70260 74090
L70710 74090
" />
<path d="M70390 74880
L70480 74090
" />
<path d="M70880 74880
L70940 74360
" />
<path d="M70970 74090
L70930 74130
L70960 74170
L71010 74130
L70970 74090
L70960 74170
" />
<path d="M71210 74360
L71510 74360
" />
<path d="M71350 74090
L71270 74770
L71300 74840
L71370 74880
L71450 74880
" />
<path d="M71820 74880
L71750 74840
L71720 74770
L71800 74090
" />
<path d="M72420 74840
L72340 74880
L72190 74880
L72120 74840
L72090 74770
L72130 74470
L72180 74390
L72250 74360
L72400 74360
L72480 74390
L72510 74470
L72500 74540
L72110 74620
" />
<path d="M72800 74810
L72840 74840
L72800 74880
L72760 74840
L72800 74810
L72800 74880
" />
<path d="M72860 74390
L72890 74430
L72850 74470
L72810 74430
L72860 74390
L72850 74470
" />
</g>
<g style="fill:#840000; fill-opacity:0.0; 
stroke:#840000; stroke-width:100; stroke-opacity:1; 
stroke-linecap:round; stroke-linejoin:round;">
</g>
<g style="fill:#840000; fill-opacity:0.0; 
stroke:#840000; stroke-width:60; stroke-opacity:1; 
stroke-linecap:round; stroke-linejoin:round;">
<path d="M70420 73060
L70220 73060
" />
<path d="M70220 73370
L70220 72780
L70500 72780
" />
<path d="M70730 73370
L70730 72980
" />
<path d="M70730 72780
L70700 72810
L70730 72840
L70760 72810
L70730 72780
L70730 72840
" />
<path d="M71090 73370
L71040 73340
L71010 73290
L71010 72780
" />
<path d="M71550 73340
L71490 73370
L71380 73370
L71320 73340
L71290 73290
L71290 73060
L71320 73010
L71380 72980
L71490 72980
L71550 73010
L71570 73060
L71570 73120
L71290 73180
" />
<path d="M71830 73320
L71860 73340
L71830 73370
L71800 73340
L71830 73320
L71830 73370
" />
<path d="M71830 73010
L71860 73030
L71830 73060
L71800 73030
L71830 73010
L71830 73060
" />
<path d="M72530 73340
L72620 73370
L72760 73370
L72810 73340
L72840 73320
L72870 73260
L72870 73200
L72840 73150
L72810 73120
L72760 73090
L72640 73060
L72590 73030
L72560 73010
L72530 72950
L72530 72890
L72560 72840
L72590 72810
L72640 72780
L72790 72780
L72870 72810
" />
<path d="M73120 73370
L73120 72980
" />
<path d="M73120 72780
L73090 72810
L73120 72840
L73150 72810
L73120 72780
L73120 72840
" />
<path d="M73400 72980
L73400 73370
" />
<path d="M73400 73030
L73430 73010
L73480 72980
L73570 72980
L73630 73010
L73650 73060
L73650 73370
" />
<path d="M74180 72980
L74180 73460
L74160 73510
L74130 73540
L74070 73570
L73990 73570
L73930 73540
" />
<path d="M74180 73340
L74130 73370
L74010 73370
L73960 73340
L73930 73320
L73900 73260
L73900 73090
L73930 73030
L73960 73010
L74010 72980
L74130 72980
L74180 73010
" />
<path d="M74540 73370
L74490 73340
L74460 73290
L74460 72780
" />
<path d="M75000 73340
L74940 73370
L74830 73370
L74770 73340
L74740 73290
L74740 73060
L74770 73010
L74830 72980
L74940 72980
L75000 73010
L75020 73060
L75020 73120
L74740 73180
" />
<path d="M75140 73430
L75590 73430
" />
<path d="M75650 72980
L75870 72980
" />
<path d="M75730 72780
L75730 73290
L75760 73340
L75810 73370
L75870 73370
" />
<path d="M76070 73370
L76070 72980
" />
<path d="M76070 73090
L76100 73030
L76130 73010
L76180 72980
L76240 72980
" />
<path d="M76690 73370
L76690 73060
L76670 73010
L76610 72980
L76500 72980
L76440 73010
" />
<path d="M76690 73340
L76640 73370
L76500 73370
L76440 73340
L76410 73290
L76410 73230
L76440 73180
L76500 73150
L76640 73150
L76690 73120
" />
<path d="M76970 72980
L76970 73370
" />
<path d="M76970 73030
L77000 73010
L77050 72980
L77140 72980
L77200 73010
L77220 73060
L77220 73370
" />
<path d="M77470 73340
L77530 73370
L77640 73370
L77700 73340
L77730 73290
L77730 73260
L77700 73200
L77640 73180
L77560 73180
L77500 73150
L77470 73090
L77470 73060
L77500 73010
L77560 72980
L77640 72980
L77700 73010
" />
<path d="M77980 73370
L77980 72980
" />
<path d="M77980 72780
L77950 72810
L77980 72840
L78010 72810
L77980 72780
L77980 72840
" />
<path d="M78230 73340
L78290 73370
L78400 73370
L78460 73340
L78490 73290
L78490 73260
L78460 73200
L78400 73180
L78320 73180
L78260 73150
L78230 73090
L78230 73060
L78260 73010
L78320 72980
L78400 72980
L78460 73010
" />
<path d="M78660 72980
L78880 72980
" />
<path d="M78740 72780
L78740 73290
L78770 73340
L78820 73370
L78880 73370
" />
<path d="M79160 73370
L79110 73340
L79080 73320
L79050 73260
L79050 73090
L79080 73030
L79110 73010
L79160 72980
L79250 72980
L79310 73010
L79330 73030
L79360 73090
L79360 73260
L79330 73320
L79310 73340
L79250 73370
L79160 73370
" />
<path d="M79610 73370
L79610 72980
" />
<path d="M79610 73090
L79640 73030
L79670 73010
L79720 72980
L79780 72980
" />
<path d="M79840 73430
L80290 73430
" />
<path d="M80400 73200
L80680 73200
" />
<path d="M80350 73370
L80540 72780
L80740 73370
" />
<path d="M80940 73370
L80940 72780
L81140 73200
L81330 72780
L81330 73370
" />
<path d="M81610 73370
L81610 72780
L81840 72780
L81890 72810
L81920 72840
L81950 72890
L81950 72980
L81920 73030
L81890 73060
L81840 73090
L81610 73090
" />
<path d="M82060 73430
L82510 73430
" />
<path d="M82650 73370
L82650 72980
" />
<path d="M82650 73030
L82680 73010
L82730 72980
L82820 72980
L82880 73010
L82900 73060
L82900 73370
" />
<path d="M82900 73060
L82930 73010
L82990 72980
L83070 72980
L83130 73010
L83160 73060
L83160 73370
" />
<path d="M83440 73370
L83440 72980
" />
<path d="M83440 72780
L83410 72810
L83440 72840
L83470 72810
L83440 72780
L83440 72840
" />
<path d="M83970 73340
L83920 73370
L83800 73370
L83750 73340
L83720 73320
L83690 73260
L83690 73090
L83720 73030
L83750 73010
L83800 72980
L83920 72980
L83970 73010
" />
<path d="M84480 72980
L84480 73370
" />
<path d="M84230 72980
L84230 73290
L84260 73340
L84310 73370
L84400 73370
L84460 73340
L84480 73320
" />
<path d="M84840 73370
L84790 73340
L84760 73290
L84760 72780
" />
<path d="M85070 73370
L85070 72980
" />
<path d="M85070 72780
L85040 72810
L85070 72840
L85100 72810
L85070 72780
L85070 72840
" />
<path d="M85320 73340
L85380 73370
L85490 73370
L85550 73340
L85580 73290
L85580 73260
L85550 73200
L85490 73180
L85410 73180
L85350 73150
L85320 73090
L85320 73060
L85350 73010
L85410 72980
L85490 72980
L85550 73010
" />
<path d="M85830 73320
L85860 73340
L85830 73370
L85800 73340
L85830 73320
L85830 73370
" />
<path d="M86080 73340
L86140 73370
L86250 73370
L86310 73340
L86340 73290
L86340 73260
L86310 73200
L86250 73180
L86170 73180
L86110 73150
L86080 73090
L86080 73060
L86110 73010
L86170 72980
L86250 72980
L86310 73010
" />
<path d="M86840 73340
L86790 73370
L86670 73370
L86620 73340
L86590 73320
L86560 73260
L86560 73090
L86590 73030
L86620 73010
L86670 72980
L86790 72980
L86840 73010
" />
<path d="M87100 73370
L87100 72780
" />
<path d="M87350 73370
L87350 73060
L87330 73010
L87270 72980
L87180 72980
L87130 73010
L87100 73030
" />
</g>
<g style="fill:#840000; fill-opacity:0.0; 
stroke:#840000; stroke-width:100; stroke-opacity:1; 
stroke-linecap:round; stroke-linejoin:round;">
</g>
<g style="fill:#840000; fill-opacity:0.0; 
stroke:#840000; stroke-width:60; stroke-opacity:1; 
stroke-linecap:round; stroke-linejoin:round;">
<path d="M69690 71460
L112210 71460
" />
</g>
<g style="fill:#840000; fill-opacity:0.0; 
stroke:#840000; stroke-width:100; stroke-opacity:1; 
stroke-linecap:round; stroke-linejoin:round;">
</g>
<g style="fill:#840000; fill-opacity:0.0; 
stroke:#840000; stroke-width:60; stroke-opacity:1; 
stroke-linecap:round; stroke-linejoin:round;">
<path d="M70190 72280
L70280 72310
L70420 72310
L70470 72280
L70500 72260
L70530 72200
L70530 72140
L70500 72090
L70470 72060
L70420 72030
L70300 72000
L70250 71970
L70220 71950
L70190 71890
L70190 71830
L70220 71780
L70250 71750
L70300 71720
L70450 71720
L70530 71750
" />
<path d="M70780 72310
L70780 71720
" />
<path d="M71030 72310
L71030 72000
L71010 71950
L70950 71920
L70860 71920
L70810 71950
L70780 71970
" />
<path d="M71540 72280
L71480 72310
L71370 72310
L71310 72280
L71280 72230
L71280 72000
L71310 71950
L71370 71920
L71480 71920
L71540 71950
L71560 72000
L71560 72060
L71280 72120
" />
<path d="M72050 72280
L71990 72310
L71880 72310
L71820 72280
L71790 72230
L71790 72000
L71820 71950
L71880 71920
L71990 71920
L72050 71950
L72070 72000
L72070 72060
L71790 72120
" />
<path d="M72250 71920
L72470 71920
" />
<path d="M72330 71720
L72330 72230
L72360 72280
L72410 72310
L72470 72310
" />
<path d="M72670 72260
L72700 72280
L72670 72310
L72640 72280
L72670 72260
L72670 72310
" />
<path d="M72670 71950
L72700 71970
L72670 72000
L72640 71970
L72670 71950
L72670 72000
" />
<path d="M73820 71690
L73320 72450
" />
</g>
<g style="fill:#840000; fill-opacity:0.0; 
stroke:#840000; stroke-width:100; stroke-opacity:1; 
stroke-linecap:round; stroke-linejoin:round;">
</g>
<g style="fill:#840000; fill-opacity:0.0; 
stroke:#840000; stroke-width:60; stroke-opacity:1; 
stroke-linecap:round; stroke-linejoin:round;">
<path d="M77560 75400
L77560 76580
" />
</g>
<g style="fill:#840000; fill-opacity:0.0; 
stroke:#840000; stroke-width:100; stroke-opacity:1; 
stroke-linecap:round; stroke-linejoin:round;">
</g>
<g style="fill:#840000; fill-opacity:0.0; 
stroke:#840000; stroke-width:60; stroke-opacity:1; 
stroke-linecap:round; stroke-linejoin:round;">
<path d="M102760 75400
L102760 77960
" />
</g>
<g style="fill:#840000; fill-opacity:0.0; 
stroke:#840000; stroke-width:0; stroke-opacity:1; 
stroke-linecap:round; stroke-linejoin:round;">
</g>
<g style="fill:#840000; fill-opacity:0.0; 
stroke:#840000; stroke-width:100; stroke-opacity:1; 
stroke-linecap:round; stroke-linejoin:round;">
<rect x="43600" y="21000" width="800" height="2000" rx="0" />
</g>
<g style="fill:#840000; fill-opacity:0.0; 
stroke:#840000; stroke-width:60; stroke-opacity:1; 
stroke-linecap:round; stroke-linejoin:round;">
<path d="M44000 21000
L44000 20500
" />
<path d="M44000 23000
L44000 23500
" />
</g>
<g style="fill:#008484; fill-opacity:0.0; 
stroke:#008484; stroke-width:60; stroke-opacity:1; 
stroke-linecap:round; stroke-linejoin:round;">
<path d="M45060 22090
L44820 22250
" />
<path d="M45060 22370
L44560 22370
L44560 22180
L44580 22130
L44600 22110
L44650 22090
L44720 22090
L44770 22110
L44790 22130
L44820 22180
L44820 22370
" />
<path d="M44560 21920
L44560 21610
L44750 21780
L44750 21700
L44770 21660
L44790 21630
L44840 21610
L44960 21610
L45010 21630
L45030 21660
L45060 21700
L45060 21850
L45030 21890
L45010 21920
" />
<path d="M43920 22470
L44260 22470
" />
<path d="M43730 22590
L44090 22700
L44090 22400
" />
<path d="M44210 22200
L44230 22180
L44260 22200
L44230 22220
L44210 22200
L44260 22200
" />
<path d="M43760 22010
L43760 21680
L44260 21890
" />
<path d="M44260 21480
L43760 21480
" />
<path d="M44070 21430
L44260 21290
" />
<path d="M43920 21290
L44110 21480
" />
</g>
<g style="fill:#008484; fill-opacity:0.0; 
stroke:#008484; stroke-width:0; stroke-opacity:1; 
stroke-linecap:round; stroke-linejoin:round;">
</g>
<g style="fill:#840000; fill-opacity:0.0; 
stroke:#840000; stroke-width:0; stroke-opacity:1; 
stroke-linecap:round; stroke-linejoin:round;">
</g>
<g style="fill:#840000; fill-opacity:0.0; 
stroke:#840000; stroke-width:100; stroke-opacity:1; 
stroke-linecap:round; stroke-linejoin:round;">
<rect x="43600" y="31000" width="800" height="2000" rx="0" />
</g>
<g style="fill:#840000; fill-opacity:0.0; 
stroke:#840000; stroke-width:60; stroke-opacity:1; 
stroke-linecap:round; stroke-linejoin:round;">
<path d="M44000 31000
L44000 30500
" />
<path d="M44000 33000
L44000 33500
" />
</g>
<g style="fill:#008484; fill-opacity:0.0; 
stroke:#008484; stroke-width:60; stroke-opacity:1; 
stroke-linecap:round; stroke-linejoin:round;">
<path d="M45060 32090
L44820 32250
" />
<path d="M45060 32370
L44560 32370
L44560 32180
L44580 32130
L44600 32110
L44650 32090
L44720 32090
L44770 32110
L44790 32130
L44820 32180
L44820 32370
" />
<path d="M44720 31660
L45060 31660
" />
<path d="M44530 31780
L44890 31890
L44890 31590
" />
<path d="M44260 32420
L44260 32700
" />
<path d="M44260 32560
L43760 32560
L43830 32610
L43880 32660
L43900 32700
" />
<path d="M44210 32200
L44230 32180
L44260 32200
L44230 32220
L44210 32200
L44260 32200
" />
<path d="M43970 31890
L43950 31940
L43920 31960
L43880 31980
L43850 31980
L43800 31960
L43780 31940
L43760 31890
L43760 31790
L43780 31750
L43800 31720
L43850 31700
L43880 31700
L43920 31720
L43950 31750
L43970 31790
L43970 31890
L43990 31940
L44020 31960
L44070 31980
L44160 31980
L44210 31960
L44230 31940
L44260 31890
L44260 31790
L44230 31750
L44210 31720
L44160 31700
L44070 31700
L44020 31720
L43990 31750
L43970 31790
" />
<path d="M44260 31480
L43760 31480
" />
<path d="M44070 31430
L44260 31290
" />
<path d="M43920 31290
L44110 31480
" />
</g>
<g style="fill:#008484; fill-opacity:0.0; 
stroke:#008484; stroke-width:0; stroke-opacity:1; 
stroke-linecap:round; stroke-linejoin:round;">
</g>
<g style="fill:#840000; fill-opacity:0.0; 
stroke:#840000; stroke-width:0; stroke-opacity:1; 
stroke-linecap:round; stroke-linejoin:round;">
</g>
<g style="fill:#840000; fill-opacity:0.0; 
stroke:#840000; stroke-width:100; stroke-opacity:1; 
stroke-linecap:round; stroke-linejoin:round;">
<rect x="37600" y="31000" width="800" height="2000" rx="0" />
</g>
<g style="fill:#840000; fill-opacity:0.0; 
stroke:#840000; stroke-width:60; stroke-opacity:1; 
stroke-linecap:round; stroke-linejoin:round;">
<path d="M38000 31000
L38000 30500
" />
<path d="M38000 33000
L38000 33500
" />
</g>
<g style="fill:#008484; fill-opacity:0.0; 
stroke:#008484; stroke-width:60; stroke-opacity:1; 
stroke-linecap:round; stroke-linejoin:round;">
<path d="M39060 32090
L38820 32250
" />
<path d="M39060 32370
L38560 32370
L38560 32180
L38580 32130
L38600 32110
L38650 32090
L38720 32090
L38770 32110
L38790 32130
L38820 32180
L38820 32370
" />
<path d="M38600 31890
L38580 31870
L38560 31820
L38560 31700
L38580 31660
L38600 31630
L38650 31610
L38700 31610
L38770 31630
L39060 31920
L39060 31610
" />
<path d="M37760 32470
L37760 32560
L37780 32610
L37800 32630
L37880 32680
L37970 32700
L38160 32700
L38210 32680
L38230 32660
L38260 32610
L38260 32510
L38230 32470
L38210 32440
L38160 32420
L38040 32420
L37990 32440
L37970 32470
L37950 32510
L37950 32610
L37970 32660
L37990 32680
L38040 32700
" />
<path d="M38210 32200
L38230 32180
L38260 32200
L38230 32220
L38210 32200
L38260 32200
" />
<path d="M37970 31890
L37950 31940
L37920 31960
L37880 31980
L37850 31980
L37800 31960
L37780 31940
L37760 31890
L37760 31790
L37780 31750
L37800 31720
L37850 31700
L37880 31700
L37920 31720
L37950 31750
L37970 31790
L37970 31890
L37990 31940
L38020 31960
L38070 31980
L38160 31980
L38210 31960
L38230 31940
L38260 31890
L38260 31790
L38230 31750
L38210 31720
L38160 31700
L38070 31700
L38020 31720
L37990 31750
L37970 31790
" />
<path d="M38260 31480
L37760 31480
" />
<path d="M38070 31430
L38260 31290
" />
<path d="M37920 31290
L38110 31480
" />
</g>
<g style="fill:#008484; fill-opacity:0.0; 
stroke:#008484; stroke-width:0; stroke-opacity:1; 
stroke-linecap:round; stroke-linejoin:round;">
</g>
<g style="fill:#840000; fill-opacity:0.0; 
stroke:#840000; stroke-width:0; stroke-opacity:1; 
stroke-linecap:round; stroke-linejoin:round;">
</g>
<g style="fill:#840000; fill-opacity:0.0; 
stroke:#840000; stroke-width:100; stroke-opacity:1; 
stroke-linecap:round; stroke-linejoin:round;">
<rect x="37600" y="21000" width="800" height="2000" rx="0" />
</g>
<g style="fill:#840000; fill-opacity:0.0; 
stroke:#840000; stroke-width:60; stroke-opacity:1; 
stroke-linecap:round; stroke-linejoin:round;">
<path d="M38000 21000
L38000 20500
" />
<path d="M38000 23000
L38000 23500
" />
</g>
<g style="fill:#008484; fill-opacity:0.0; 
stroke:#008484; stroke-width:60; stroke-opacity:1; 
stroke-linecap:round; stroke-linejoin:round;">
<path d="M39060 22090
L38820 22250
" />
<path d="M39060 22370
L38560 22370
L38560 22180
L38580 22130
L38600 22110
L38650 22090
L38720 22090
L38770 22110
L38790 22130
L38820 22180
L38820 22370
" />
<path d="M39060 21610
L39060 21890
" />
<path d="M39060 21750
L38560 21750
L38630 21800
L38680 21850
L38700 21890
" />
<path d="M37800 22580
L37780 22560
L37760 22510
L37760 22390
L37780 22350
L37800 22320
L37850 22300
L37900 22300
L37970 22320
L38260 22610
L38260 22300
" />
<path d="M37800 22100
L37780 22080
L37760 22030
L37760 21910
L37780 21870
L37800 21840
L37850 21820
L37900 21820
L37970 21840
L38260 22130
L38260 21820
" />
<path d="M38260 21600
L37760 21600
" />
<path d="M38070 21550
L38260 21410
" />
<path d="M37920 21410
L38110 21600
" />
</g>
<g style="fill:#008484; fill-opacity:0.0; 
stroke:#008484; stroke-width:0; stroke-opacity:1; 
stroke-linecap:round; stroke-linejoin:round;">
</g>
<g style="fill:#840000; fill-opacity:0.0; 
stroke:#840000; stroke-width:0; stroke-opacity:1; 
stroke-linecap:round; stroke-linejoin:round;">
</g>
<g style="fill:#840000; fill-opacity:0.0; 
stroke:#840000; stroke-width:100; stroke-opacity:1; 
stroke-linecap:round; stroke-linejoin:round;">
<circle cx="43500" cy="26500" r="1110" /> 
</g>
<g style="fill:#840000; fill-opacity:0.0; 
stroke:#840000; stroke-width:60; stroke-opacity:1; 
stroke-linecap:round; stroke-linejoin:round;">
<polyline fill="none;"
points="43000,26500
43250,26500
" /> 
<polyline fill="none;"
points="43250,26250
44000,25500
" /> 
<polyline fill="none;"
points="43250,26750
44000,27500
44000,27500
" /> 
</g>
<g style="fill:#840000; fill-opacity:0.0; 
stroke:#840000; stroke-width:200; stroke-opacity:1; 
stroke-linecap:round; stroke-linejoin:round;">
<polyline fill="none;"
points="43250,25750
43250,27250
43250,27250
" /> 
</g>
<g style="fill:#840000; fill-opacity:1.0; 
stroke:#840000; stroke-width:60; stroke-opacity:1; 
stroke-linecap:round; stroke-linejoin:round;">
<polyline style="fill-rule:evenodd;"
points="43500,27200
43700,27000
43900,27400
43500,27200
43500,27200
" /> 
</g>
<g style="fill:#840000; fill-opacity:0.0; 
stroke:#840000; stroke-width:60; stroke-opacity:1; 
stroke-linecap:round; stroke-linejoin:round;">
<path d="M44000 25500
L44000 24500
" />
<path d="M44580 24860
L44580 25140
" />
<path d="M44580 25000
L44080 25000
L44150 25050
L44200 25100
L44220 25140
" />
<path d="M43000 26500
L41000 26500
" />
<path d="M41860 26620
L41880 26600
L41930 26580
L42050 26580
L42090 26600
L42120 26620
L42140 26670
L42140 26720
L42120 26790
L41830 27080
L42140 27080
" />
<path d="M44000 27500
L44000 28500
" />
<path d="M44080 28170
L44080 27860
L44270 28030
L44270 27950
L44290 27910
L44310 27880
L44360 27860
L44480 27860
L44530 27880
L44550 27910
L44580 27950
L44580 28100
L44550 28140
L44530 28170
" />
</g>
<g style="fill:#008484; fill-opacity:0.0; 
stroke:#008484; stroke-width:60; stroke-opacity:1; 
stroke-linecap:round; stroke-linejoin:round;">
<path d="M45450 26050
L45400 26030
L45360 25980
L45290 25910
L45240 25890
L45190 25890
" />
<path d="M45210 26010
L45170 25980
L45120 25930
L45100 25840
L45100 25670
L45120 25580
L45170 25530
L45210 25510
L45310 25510
L45360 25530
L45400 25580
L45430 25670
L45430 25840
L45400 25930
L45360 25980
L45310 26010
L45210 26010
" />
<path d="M45900 26010
L45620 26010
" />
<path d="M45760 26010
L45760 25510
L45710 25580
L45660 25630
L45620 25650
" />
<path d="M45290 26490
L45360 26520
L45380 26540
L45400 26590
L45400 26660
L45380 26710
L45360 26730
L45310 26760
L45120 26760
L45120 26260
L45290 26260
L45330 26280
L45360 26300
L45380 26350
L45380 26400
L45360 26450
L45330 26470
L45290 26490
L45120 26490
" />
<path d="M45900 26710
L45880 26730
L45810 26760
L45760 26760
L45690 26730
L45640 26680
L45620 26640
L45600 26540
L45600 26470
L45620 26380
L45640 26330
L45690 26280
L45760 26260
L45810 26260
L45880 26280
L45900 26300
" />
<path d="M46360 26260
L46120 26260
L46100 26490
L46120 26470
L46170 26450
L46290 26450
L46330 26470
L46360 26490
L46380 26540
L46380 26660
L46360 26710
L46330 26730
L46290 26760
L46170 26760
L46120 26730
L46100 26710
" />
<path d="M46810 26420
L46810 26760
" />
<path d="M46690 26230
L46580 26590
L46880 26590
" />
<path d="M47150 26470
L47100 26450
L47080 26420
L47060 26380
L47060 26350
L47080 26300
L47100 26280
L47150 26260
L47250 26260
L47290 26280
L47320 26300
L47340 26350
L47340 26380
L47320 26420
L47290 26450
L47250 26470
L47150 26470
L47100 26490
L47080 26520
L47060 26570
L47060 26660
L47080 26710
L47100 26730
L47150 26760
L47250 26760
L47290 26730
L47320 26710
L47340 26660
L47340 26570
L47320 26520
L47290 26490
L47250 26470
" />
</g>
<g style="fill:#008484; fill-opacity:0.0; 
stroke:#008484; stroke-width:0; stroke-opacity:1; 
stroke-linecap:round; stroke-linejoin:round;">
</g>
<g style="fill:#840000; fill-opacity:0.0; 
stroke:#840000; stroke-width:0; stroke-opacity:1; 
stroke-linecap:round; stroke-linejoin:round;">
</g>
<g style="fill:#FFFFC2; fill-opacity:0.0; 
stroke:#FFFFC2; stroke-width:0; stroke-opacity:1; 
stroke-linecap:round; stroke-linejoin:round;">
</g>
<g style="fill:#FFFFC2; fill-opacity:0.6; 
stroke:#FFFFC2; stroke-width:0; stroke-opacity:1; 
stroke-linecap:round; stroke-linejoin:round;">
<rect x="28500" y="26000" width="1000" height="2000" rx="0" />
</g>
<g style="fill:#840000; fill-opacity:0.6; 
stroke:#840000; stroke-width:0; stroke-opacity:1; 
stroke-linecap:round; stroke-linejoin:round;">
</g>
<g style="fill:#840000; fill-opacity:0.0; 
stroke:#840000; stroke-width:100; stroke-opacity:1; 
stroke-linecap:round; stroke-linejoin:round;">
<rect x="28500" y="26000" width="1000" height="2000" rx="0" />
</g>
<g style="fill:#840000; fill-opacity:0.0; 
stroke:#840000; stroke-width:60; stroke-opacity:1; 
stroke-linecap:round; stroke-linejoin:round;">
<rect x="29000" y="26450" width="500" height="100" rx="0" />
<rect x="29000" y="27450" width="500" height="100" rx="0" />
<path d="M29500 27500
L31000 27500
" />
<path d="M30390 27380
L30110 27380
" />
<path d="M30250 27380
L30250 26880
L30200 26950
L30150 27000
L30110 27020
" />
<path d="M29500 26500
L31000 26500
" />
<path d="M30110 25920
L30130 25900
L30180 25880
L30300 25880
L30340 25900
L30370 25920
L30390 25970
L30390 26020
L30370 26090
L30080 26380
L30390 26380
" />
</g>
<g style="fill:#008484; fill-opacity:0.0; 
stroke:#008484; stroke-width:60; stroke-opacity:1; 
stroke-linecap:round; stroke-linejoin:round;">
<path d="M28830 28190
L28830 28540
L28810 28610
L28760 28660
L28690 28690
L28640 28690
" />
<path d="M29330 28690
L29050 28690
" />
<path d="M29190 28690
L29190 28190
L29140 28260
L29090 28310
L29050 28330
" />
<path d="M27120 25640
L27100 25660
L27030 25690
L26980 25690
L26910 25660
L26860 25610
L26840 25570
L26820 25470
L26820 25400
L26840 25310
L26860 25260
L26910 25210
L26980 25190
L27030 25190
L27100 25210
L27120 25230
" />
<path d="M27410 25690
L27360 25660
L27340 25640
L27320 25590
L27320 25450
L27340 25400
L27360 25380
L27410 25350
L27480 25350
L27530 25380
L27550 25400
L27580 25450
L27580 25590
L27550 25640
L27530 25660
L27480 25690
L27410 25690
" />
<path d="M27790 25350
L27790 25690
" />
<path d="M27790 25400
L27810 25380
L27860 25350
L27930 25350
L27980 25380
L28000 25420
L28000 25690
" />
<path d="M28240 25350
L28240 25690
" />
<path d="M28240 25400
L28260 25380
L28310 25350
L28380 25350
L28430 25380
L28450 25420
L28450 25690
" />
<path d="M28570 25730
L28950 25730
" />
<path d="M29160 25190
L29210 25190
L29260 25210
L29280 25230
L29310 25280
L29330 25380
L29330 25500
L29310 25590
L29280 25640
L29260 25660
L29210 25690
L29160 25690
L29120 25660
L29090 25640
L29070 25590
L29050 25500
L29050 25380
L29070 25280
L29090 25230
L29120 25210
L29160 25190
" />
<path d="M29810 25690
L29530 25690
" />
<path d="M29670 25690
L29670 25190
L29620 25260
L29570 25310
L29530 25330
" />
<path d="M29980 25690
L30240 25350
" />
<path d="M29980 25350
L30240 25690
" />
<path d="M30520 25190
L30570 25190
L30620 25210
L30640 25230
L30670 25280
L30690 25380
L30690 25500
L30670 25590
L30640 25640
L30620 25660
L30570 25690
L30520 25690
L30480 25660
L30450 25640
L30430 25590
L30410 25500
L30410 25380
L30430 25280
L30450 25230
L30480 25210
L30520 25190
" />
<path d="M30890 25230
L30910 25210
L30960 25190
L31080 25190
L31120 25210
L31150 25230
L31170 25280
L31170 25330
L31150 25400
L30860 25690
L31170 25690
" />
</g>
<g style="fill:#008484; fill-opacity:0.0; 
stroke:#008484; stroke-width:0; stroke-opacity:1; 
stroke-linecap:round; stroke-linejoin:round;">
</g>
<g style="fill:#840000; fill-opacity:0.0; 
stroke:#840000; stroke-width:0; stroke-opacity:1; 
stroke-linecap:round; stroke-linejoin:round;">
</g>
<g style="fill:#FFFFC2; fill-opacity:0.0; 
stroke:#FFFFC2; stroke-width:0; stroke-opacity:1; 
stroke-linecap:round; stroke-linejoin:round;">
</g>
<g style="fill:#FFFFC2; fill-opacity:0.6; 
stroke:#FFFFC2; stroke-width:0; stroke-opacity:1; 
stroke-linecap:round; stroke-linejoin:round;">
<rect x="57000" y="23500" width="1000" height="2000" rx="0" />
</g>
<g style="fill:#840000; fill-opacity:0.6; 
stroke:#840000; stroke-width:0; stroke-opacity:1; 
stroke-linecap:round; stroke-linejoin:round;">
</g>
<g style="fill:#840000; fill-opacity:0.0; 
stroke:#840000; stroke-width:100; stroke-opacity:1; 
stroke-linecap:round; stroke-linejoin:round;">
<rect x="57000" y="23500" width="1000" height="2000" rx="0" />
</g>
<g style="fill:#840000; fill-opacity:0.0; 
stroke:#840000; stroke-width:60; stroke-opacity:1; 
stroke-linecap:round; stroke-linejoin:round;">
<rect x="57000" y="24950" width="500" height="100" rx="0" />
<rect x="57000" y="23950" width="500" height="100" rx="0" />
<path d="M57000 24000
L55500 24000
" />
<path d="M56390 23880
L56110 23880
" />
<path d="M56250 23880
L56250 23380
L56200 23450
L56150 23500
L56110 23520
" />
<path d="M57000 25000
L55500 25000
" />
<path d="M56110 24420
L56130 24400
L56180 24380
L56300 24380
L56340 24400
L56370 24420
L56390 24470
L56390 24520
L56370 24590
L56080 24880
L56390 24880
" />
</g>
<g style="fill:#008484; fill-opacity:0.0; 
stroke:#008484; stroke-width:60; stroke-opacity:1; 
stroke-linecap:round; stroke-linejoin:round;">
<path d="M57330 22760
L57330 23110
L57310 23180
L57260 23230
L57190 23260
L57140 23260
" />
<path d="M57550 22800
L57570 22780
L57620 22760
L57740 22760
L57780 22780
L57810 22800
L57830 22850
L57830 22900
L57810 22970
L57520 23260
L57830 23260
" />
<path d="M55630 26210
L55610 26230
L55540 26260
L55490 26260
L55420 26230
L55370 26180
L55350 26140
L55330 26040
L55330 25970
L55350 25880
L55370 25830
L55420 25780
L55490 25760
L55540 25760
L55610 25780
L55630 25800
" />
<path d="M55920 26260
L55870 26230
L55850 26210
L55830 26160
L55830 26020
L55850 25970
L55870 25950
L55920 25920
L55990 25920
L56040 25950
L56060 25970
L56090 26020
L56090 26160
L56060 26210
L56040 26230
L55990 26260
L55920 26260
" />
<path d="M56300 25920
L56300 26260
" />
<path d="M56300 25970
L56320 25950
L56370 25920
L56440 25920
L56490 25950
L56510 25990
L56510 26260
" />
<path d="M56750 25920
L56750 26260
" />
<path d="M56750 25970
L56770 25950
L56820 25920
L56890 25920
L56940 25950
L56960 25990
L56960 26260
" />
<path d="M57080 26300
L57460 26300
" />
<path d="M57670 25760
L57720 25760
L57770 25780
L57790 25800
L57820 25850
L57840 25950
L57840 26070
L57820 26160
L57790 26210
L57770 26230
L57720 26260
L57670 26260
L57630 26230
L57600 26210
L57580 26160
L57560 26070
L57560 25950
L57580 25850
L57600 25800
L57630 25780
L57670 25760
" />
<path d="M58320 26260
L58040 26260
" />
<path d="M58180 26260
L58180 25760
L58130 25830
L58080 25880
L58040 25900
" />
<path d="M58490 26260
L58750 25920
" />
<path d="M58490 25920
L58750 26260
" />
<path d="M59030 25760
L59080 25760
L59130 25780
L59150 25800
L59180 25850
L59200 25950
L59200 26070
L59180 26160
L59150 26210
L59130 26230
L59080 26260
L59030 26260
L58990 26230
L58960 26210
L58940 26160
L58920 26070
L58920 25950
L58940 25850
L58960 25800
L58990 25780
L59030 25760
" />
<path d="M59400 25800
L59420 25780
L59470 25760
L59590 25760
L59630 25780
L59660 25800
L59680 25850
L59680 25900
L59660 25970
L59370 26260
L59680 26260
" />
</g>
<g style="fill:#008400; fill-opacity:0.0; 
stroke:#008400; stroke-width:60; stroke-opacity:1; 
stroke-linecap:round; stroke-linejoin:round;">
<path d="M31000 26500
L33500 26500
" />
</g>
<g style="fill:#008400; fill-opacity:0.0; 
stroke:#008400; stroke-width:0; stroke-opacity:1; 
stroke-linecap:round; stroke-linejoin:round;">
</g>
<g style="fill:#840000; fill-opacity:0.0; 
stroke:#840000; stroke-width:0; stroke-opacity:1; 
stroke-linecap:round; stroke-linejoin:round;">
</g>
<g style="fill:#840000; fill-opacity:0.0; 
stroke:#840000; stroke-width:60; stroke-opacity:1; 
stroke-linecap:round; stroke-linejoin:round;">
<polyline fill="none;"
points="31000,29000
31000,29500
31500,29500
31000,30000
30500,29500
31000,29500
" /> 
</g>
<g style="fill:#008484; fill-opacity:0.0; 
stroke:#008484; stroke-width:60; stroke-opacity:1; 
stroke-linecap:round; stroke-linejoin:round;">
<path d="M30620 30280
L30570 30260
L30500 30260
L30430 30280
L30380 30330
L30360 30380
L30340 30470
L30340 30540
L30360 30640
L30380 30680
L30430 30730
L30500 30760
L30550 30760
L30620 30730
L30640 30710
L30640 30540
L30550 30540
" />
<path d="M30860 30760
L30860 30260
L31140 30760
L31140 30260
" />
<path d="M31380 30760
L31380 30260
L31500 30260
L31570 30280
L31620 30330
L31640 30380
L31660 30470
L31660 30540
L31640 30640
L31620 30680
L31570 30730
L31500 30760
L31380 30760
" />
</g>
<g style="fill:#008400; fill-opacity:0.0; 
stroke:#008400; stroke-width:60; stroke-opacity:1; 
stroke-linecap:round; stroke-linejoin:round;">
<path d="M31000 27500
L31000 29000
" />
<path d="M38000 23500
L38000 30500
" />
<path d="M35500 26500
L41000 26500
" />
</g>
<g style="fill:#008400; fill-opacity:0.0; 
stroke:#008400; stroke-width:0; stroke-opacity:1; 
stroke-linecap:round; stroke-linejoin:round;">
</g>
<g style="fill:#008400; fill-opacity:1.0; 
stroke:#008400; stroke-width:100; stroke-opacity:1; 
stroke-linecap:round; stroke-linejoin:round;">
<circle cx="38000" cy="26500" r="200" /> 
</g>
<g style="fill:#008400; fill-opacity:1.0; 
stroke:#008400; stroke-width:60; stroke-opacity:1; 
stroke-linecap:round; stroke-linejoin:round;">
</g>
<g style="fill:#008400; fill-opacity:0.0; 
stroke:#008400; stroke-width:60; stroke-opacity:1; 
stroke-linecap:round; stroke-linejoin:round;">
<path d="M38000 20500
L48500 20500
" />
<path d="M44000 23500
L44000 24500
" />
<path d="M38000 33500
L47000 33500
" />
<path d="M44000 28500
L44000 30500
" />
</g>
<g style="fill:#008400; fill-opacity:0.0; 
stroke:#008400; stroke-width:0; stroke-opacity:1; 
stroke-linecap:round; stroke-linejoin:round;">
</g>
<g style="fill:#008400; fill-opacity:1.0; 
stroke:#008400; stroke-width:100; stroke-opacity:1; 
stroke-linecap:round; stroke-linejoin:round;">
<circle cx="44000" cy="33500" r="200" /> 
</g>
<g style="fill:#008400; fill-opacity:1.0; 
stroke:#008400; stroke-width:60; stroke-opacity:1; 
stroke-linecap:round; stroke-linejoin:round;">
</g>
<g style="fill:#008400; fill-opacity:0.0; 
stroke:#008400; stroke-width:60; stroke-opacity:1; 
stroke-linecap:round; stroke-linejoin:round;">
<path d="M44000 30000
L47000 30000
" />
<path d="M47000 30000
L47000 31000
" />
</g>
<g style="fill:#008400; fill-opacity:0.0; 
stroke:#008400; stroke-width:0; stroke-opacity:1; 
stroke-linecap:round; stroke-linejoin:round;">
</g>
<g style="fill:#008400; fill-opacity:1.0; 
stroke:#008400; stroke-width:100; stroke-opacity:1; 
stroke-linecap:round; stroke-linejoin:round;">
<circle cx="44000" cy="30000" r="200" /> 
</g>
<g style="fill:#008400; fill-opacity:1.0; 
stroke:#008400; stroke-width:0; stroke-opacity:1; 
stroke-linecap:round; stroke-linejoin:round;">
</g>
<g style="fill:#840000; fill-opacity:1.0; 
stroke:#840000; stroke-width:0; stroke-opacity:1; 
stroke-linecap:round; stroke-linejoin:round;">
</g>
<g style="fill:#840000; fill-opacity:1.0; 
stroke:#840000; stroke-width:60; stroke-opacity:1; 
stroke-linecap:round; stroke-linejoin:round;">
</g>
<g style="fill:#840000; fill-opacity:0.0; 
stroke:#840000; stroke-width:60; stroke-opacity:1; 
stroke-linecap:round; stroke-linejoin:round;">
<path d="M45500 18000
L45500 18000
" />
<polyline fill="none;"
points="45500,18000
45500,17500
45100,17250
45500,17000
45900,17250
45500,17500
" /> 
</g>
<g style="fill:#008484; fill-opacity:0.0; 
stroke:#008484; stroke-width:60; stroke-opacity:1; 
stroke-linecap:round; stroke-linejoin:round;">
<path d="M43770 16760
L43770 16260
L43960 16260
L44010 16280
L44030 16300
L44050 16350
L44050 16420
L44030 16470
L44010 16490
L43960 16520
L43770 16520
" />
<path d="M44220 16260
L44340 16760
L44440 16400
L44530 16760
L44650 16260
" />
<path d="M45120 16760
L44960 16520
" />
<path d="M44840 16760
L44840 16260
L45030 16260
L45080 16280
L45100 16300
L45120 16350
L45120 16420
L45100 16470
L45080 16490
L45030 16520
L44840 16520
" />
<path d="M45220 16800
L45600 16800
" />
<path d="M45890 16490
L45720 16490
" />
<path d="M45720 16760
L45720 16260
L45960 16260
" />
<path d="M46390 16760
L46150 16760
L46150 16260
" />
<path d="M46530 16610
L46760 16610
" />
<path d="M46480 16760
L46640 16260
L46810 16760
" />
<path d="M47240 16280
L47190 16260
L47120 16260
L47050 16280
L47000 16330
L46980 16380
L46960 16470
L46960 16540
L46980 16640
L47000 16680
L47050 16730
L47120 16760
L47170 16760
L47240 16730
L47260 16710
L47260 16540
L47170 16540
" />
</g>
<g style="fill:#008484; fill-opacity:0.0; 
stroke:#008484; stroke-width:0; stroke-opacity:1; 
stroke-linecap:round; stroke-linejoin:round;">
</g>
<g style="fill:#840000; fill-opacity:0.0; 
stroke:#840000; stroke-width:0; stroke-opacity:1; 
stroke-linecap:round; stroke-linejoin:round;">
</g>
<g style="fill:#840000; fill-opacity:0.0; 
stroke:#840000; stroke-width:60; stroke-opacity:1; 
stroke-linecap:round; stroke-linejoin:round;">
<polyline fill="none;"
points="48200,17500
48500,17000
" /> 
<polyline fill="none;"
points="48500,18000
48500,17000
" /> 
<polyline fill="none;"
points="48500,17000
48800,17500
" /> 
</g>
<g style="fill:#008484; fill-opacity:0.0; 
stroke:#008484; stroke-width:60; stroke-opacity:1; 
stroke-linecap:round; stroke-linejoin:round;">
<path d="M47620 16670
L48000 16670
" />
<path d="M47810 16860
L47810 16480
" />
<path d="M48500 16860
L48220 16860
" />
<path d="M48360 16860
L48360 16360
L48310 16430
L48260 16480
L48220 16500
" />
<path d="M48700 16400
L48720 16380
L48770 16360
L48890 16360
L48930 16380
L48960 16400
L48980 16450
L48980 16500
L48960 16570
L48670 16860
L48980 16860
" />
<path d="M49130 16360
L49290 16860
L49460 16360
" />
</g>
<g style="fill:#008400; fill-opacity:0.0; 
stroke:#008400; stroke-width:60; stroke-opacity:1; 
stroke-linecap:round; stroke-linejoin:round;">
<path d="M52000 24000
L55500 24000
" />
</g>
<g style="fill:#008400; fill-opacity:0.0; 
stroke:#008400; stroke-width:0; stroke-opacity:1; 
stroke-linecap:round; stroke-linejoin:round;">
</g>
<g style="fill:#840000; fill-opacity:0.0; 
stroke:#840000; stroke-width:0; stroke-opacity:1; 
stroke-linecap:round; stroke-linejoin:round;">
</g>
<g style="fill:#840000; fill-opacity:0.0; 
stroke:#840000; stroke-width:60; stroke-opacity:1; 
stroke-linecap:round; stroke-linejoin:round;">
<polyline fill="none;"
points="54500,27500
54500,28000
55000,28000
54500,28500
54000,28000
54500,28000
" /> 
</g>
<g style="fill:#008484; fill-opacity:0.0; 
stroke:#008484; stroke-width:60; stroke-opacity:1; 
stroke-linecap:round; stroke-linejoin:round;">
<path d="M54120 28780
L54070 28760
L54000 28760
L53930 28780
L53880 28830
L53860 28880
L53840 28970
L53840 29040
L53860 29140
L53880 29180
L53930 29230
L54000 29260
L54050 29260
L54120 29230
L54140 29210
L54140 29040
L54050 29040
" />
<path d="M54360 29260
L54360 28760
L54640 29260
L54640 28760
" />
<path d="M54880 29260
L54880 28760
L55000 28760
L55070 28780
L55120 28830
L55140 28880
L55160 28970
L55160 29040
L55140 29140
L55120 29180
L55070 29230
L55000 29260
L54880 29260
" />
</g>
<g style="fill:#008400; fill-opacity:0.0; 
stroke:#008400; stroke-width:60; stroke-opacity:1; 
stroke-linecap:round; stroke-linejoin:round;">
<path d="M55500 25000
L54500 25000
" />
<path d="M54500 25000
L54500 27500
" />
<path d="M45500 18000
L45500 20500
" />
</g>
<g style="fill:#008400; fill-opacity:0.0; 
stroke:#008400; stroke-width:0; stroke-opacity:1; 
stroke-linecap:round; stroke-linejoin:round;">
</g>
<g style="fill:#008400; fill-opacity:1.0; 
stroke:#008400; stroke-width:100; stroke-opacity:1; 
stroke-linecap:round; stroke-linejoin:round;">
<circle cx="44000" cy="20500" r="200" /> 
</g>
<g style="fill:#008400; fill-opacity:1.0; 
stroke:#008400; stroke-width:60; stroke-opacity:1; 
stroke-linecap:round; stroke-linejoin:round;">
</g>
<g style="fill:#008400; fill-opacity:0.0; 
stroke:#008400; stroke-width:60; stroke-opacity:1; 
stroke-linecap:round; stroke-linejoin:round;">
<path d="M48500 20500
L48500 18000
" />
</g>
<g style="fill:#008400; fill-opacity:0.0; 
stroke:#008400; stroke-width:0; stroke-opacity:1; 
stroke-linecap:round; stroke-linejoin:round;">
</g>
<g style="fill:#008400; fill-opacity:1.0; 
stroke:#008400; stroke-width:100; stroke-opacity:1; 
stroke-linecap:round; stroke-linejoin:round;">
<circle cx="45500" cy="20500" r="200" /> 
</g>
<g style="fill:#008400; fill-opacity:1.0; 
stroke:#008400; stroke-width:0; stroke-opacity:1; 
stroke-linecap:round; stroke-linejoin:round;">
</g>
<g style="fill:#840000; fill-opacity:1.0; 
stroke:#840000; stroke-width:0; stroke-opacity:1; 
stroke-linecap:round; stroke-linejoin:round;">
</g>
<g style="fill:#840000; fill-opacity:0.0; 
stroke:#840000; stroke-width:120; stroke-opacity:1; 
stroke-linecap:round; stroke-linejoin:round;">
<path d="M34802.5 25901.6 A1250 1250 0.0 0 0 34802.5 27098.4 " />
<polyline fill="none;"
points="34300,27100
34300,25900
" /> 
</g>
<g style="fill:#840000; fill-opacity:0.0; 
stroke:#840000; stroke-width:60; stroke-opacity:1; 
stroke-linecap:round; stroke-linejoin:round;">
<polyline fill="none;"
points="33900,27000
33900,26800
" /> 
<polyline fill="none;"
points="34000,26900
33800,26900
" /> 
<path d="M34300 26500
L33500 26500
" />
<path d="M34700 26500
L35500 26500
" />
</g>
<g style="fill:#008484; fill-opacity:0.0; 
stroke:#008484; stroke-width:60; stroke-opacity:1; 
stroke-linecap:round; stroke-linejoin:round;">
<path d="M34010 26000
L34030 26020
L34060 26090
L34060 26140
L34030 26210
L33980 26260
L33940 26280
L33840 26300
L33770 26300
L33680 26280
L33630 26260
L33580 26210
L33560 26140
L33560 26090
L33580 26020
L33600 26000
" />
<path d="M34060 25520
L34060 25800
" />
<path d="M34060 25660
L33560 25660
L33630 25710
L33680 25760
L33700 25800
" />
<path d="M35100 26300
L35080 26280
L35060 26230
L35060 26110
L35080 26070
L35100 26040
L35150 26020
L35200 26020
L35270 26040
L35560 26330
L35560 26020
" />
<path d="M35060 25710
L35060 25660
L35080 25610
L35100 25590
L35150 25560
L35250 25540
L35370 25540
L35460 25560
L35510 25590
L35530 25610
L35560 25660
L35560 25710
L35530 25750
L35510 25780
L35460 25800
L35370 25820
L35250 25820
L35150 25800
L35100 25780
L35080 25750
L35060 25710
" />
<path d="M35220 25110
L35560 25110
" />
<path d="M35220 25320
L35480 25320
L35530 25300
L35560 25250
L35560 25180
L35530 25130
L35510 25110
" />
<path d="M35290 24700
L35290 24870
" />
<path d="M35560 24870
L35060 24870
L35060 24630
" />
</g>
<g style="fill:#008484; fill-opacity:0.0; 
stroke:#008484; stroke-width:0; stroke-opacity:1; 
stroke-linecap:round; stroke-linejoin:round;">
</g>
<g style="fill:#840000; fill-opacity:0.0; 
stroke:#840000; stroke-width:0; stroke-opacity:1; 
stroke-linecap:round; stroke-linejoin:round;">
</g>
<g style="fill:#840000; fill-opacity:0.0; 
stroke:#840000; stroke-width:120; stroke-opacity:1; 
stroke-linecap:round; stroke-linejoin:round;">
<path d="M47598.4 32302.5 A1250 1250 0.0 0 0 46401.6 32302.5 " />
<polyline fill="none;"
points="46400,31800
47600,31800
" /> 
</g>
<g style="fill:#840000; fill-opacity:0.0; 
stroke:#840000; stroke-width:60; stroke-opacity:1; 
stroke-linecap:round; stroke-linejoin:round;">
<polyline fill="none;"
points="46500,31400
46700,31400
" /> 
<polyline fill="none;"
points="46600,31500
46600,31300
" /> 
<path d="M47000 31800
L47000 31000
" />
<path d="M47000 32200
L47000 33000
" />
</g>
<g style="fill:#008484; fill-opacity:0.0; 
stroke:#008484; stroke-width:60; stroke-opacity:1; 
stroke-linecap:round; stroke-linejoin:round;">
<path d="M47500 31510
L47480 31530
L47410 31560
L47360 31560
L47290 31530
L47240 31480
L47220 31440
L47200 31340
L47200 31270
L47220 31180
L47240 31130
L47290 31080
L47360 31060
L47410 31060
L47480 31080
L47500 31100
" />
<path d="M47700 31100
L47720 31080
L47770 31060
L47890 31060
L47930 31080
L47960 31100
L47980 31150
L47980 31200
L47960 31270
L47670 31560
L47980 31560
" />
<path d="M47460 32560
L47220 32560
L47200 32790
L47220 32770
L47270 32750
L47390 32750
L47430 32770
L47460 32790
L47480 32840
L47480 32960
L47460 33010
L47430 33030
L47390 33060
L47270 33060
L47220 33030
L47200 33010
" />
<path d="M47790 32560
L47840 32560
L47890 32580
L47910 32600
L47940 32650
L47960 32750
L47960 32870
L47940 32960
L47910 33010
L47890 33030
L47840 33060
L47790 33060
L47750 33030
L47720 33010
L47700 32960
L47680 32870
L47680 32750
L47700 32650
L47720 32600
L47750 32580
L47790 32560
" />
<path d="M48390 32720
L48390 33060
" />
<path d="M48180 32720
L48180 32980
L48200 33030
L48250 33060
L48320 33060
L48370 33030
L48390 33010
" />
<path d="M48800 32790
L48630 32790
" />
<path d="M48630 33060
L48630 32560
L48870 32560
" />
</g>
<g style="fill:#008484; fill-opacity:0.0; 
stroke:#008484; stroke-width:0; stroke-opacity:1; 
stroke-linecap:round; stroke-linejoin:round;">
</g>
<g style="fill:#840000; fill-opacity:0.0; 
stroke:#840000; stroke-width:0; stroke-opacity:1; 
stroke-linecap:round; stroke-linejoin:round;">
</g>
<g style="fill:#840000; fill-opacity:0.0; 
stroke:#840000; stroke-width:120; stroke-opacity:1; 
stroke-linecap:round; stroke-linejoin:round;">
<path d="M51302.5 23401.6 A1250 1250 0.0 0 0 51302.5 24598.4 " />
<polyline fill="none;"
points="50800,24600
50800,23400
" /> 
</g>
<g style="fill:#840000; fill-opacity:0.0; 
stroke:#840000; stroke-width:60; stroke-opacity:1; 
stroke-linecap:round; stroke-linejoin:round;">
<polyline fill="none;"
points="50400,24500
50400,24300
" /> 
<polyline fill="none;"
points="50500,24400
50300,24400
" /> 
<path d="M50800 24000
L50000 24000
" />
<path d="M51200 24000
L52000 24000
" />
</g>
<g style="fill:#008484; fill-opacity:0.0; 
stroke:#008484; stroke-width:60; stroke-opacity:1; 
stroke-linecap:round; stroke-linejoin:round;">
<path d="M50510 23500
L50530 23520
L50560 23590
L50560 23640
L50530 23710
L50480 23760
L50440 23780
L50340 23800
L50270 23800
L50180 23780
L50130 23760
L50080 23710
L50060 23640
L50060 23590
L50080 23520
L50100 23500
" />
<path d="M50060 23330
L50060 23020
L50250 23190
L50250 23110
L50270 23070
L50290 23040
L50340 23020
L50460 23020
L50510 23040
L50530 23070
L50560 23110
L50560 23260
L50530 23300
L50510 23330
" />
<path d="M51600 23800
L51580 23780
L51560 23730
L51560 23610
L51580 23570
L51600 23540
L51650 23520
L51700 23520
L51770 23540
L52060 23830
L52060 23520
" />
<path d="M51560 23210
L51560 23160
L51580 23110
L51600 23090
L51650 23060
L51750 23040
L51870 23040
L51960 23060
L52010 23090
L52030 23110
L52060 23160
L52060 23210
L52030 23250
L52010 23280
L51960 23300
L51870 23320
L51750 23320
L51650 23300
L51600 23280
L51580 23250
L51560 23210
" />
<path d="M51720 22610
L52060 22610
" />
<path d="M51720 22820
L51980 22820
L52030 22800
L52060 22750
L52060 22680
L52030 22630
L52010 22610
" />
<path d="M51790 22200
L51790 22370
" />
<path d="M52060 22370
L51560 22370
L51560 22130
" />
</g>
<g style="fill:#008400; fill-opacity:0.0; 
stroke:#008400; stroke-width:60; stroke-opacity:1; 
stroke-linecap:round; stroke-linejoin:round;">
<path d="M47000 33000
L47000 35000
" />
</g>
<g style="fill:#008400; fill-opacity:0.0; 
stroke:#008400; stroke-width:0; stroke-opacity:1; 
stroke-linecap:round; stroke-linejoin:round;">
</g>
<g style="fill:#840000; fill-opacity:0.0; 
stroke:#840000; stroke-width:0; stroke-opacity:1; 
stroke-linecap:round; stroke-linejoin:round;">
</g>
<g style="fill:#840000; fill-opacity:0.0; 
stroke:#840000; stroke-width:60; stroke-opacity:1; 
stroke-linecap:round; stroke-linejoin:round;">
<polyline fill="none;"
points="47000,35000
47000,35500
47500,35500
47000,36000
46500,35500
47000,35500
" /> 
</g>
<g style="fill:#008484; fill-opacity:0.0; 
stroke:#008484; stroke-width:60; stroke-opacity:1; 
stroke-linecap:round; stroke-linejoin:round;">
<path d="M46620 36280
L46570 36260
L46500 36260
L46430 36280
L46380 36330
L46360 36380
L46340 36470
L46340 36540
L46360 36640
L46380 36680
L46430 36730
L46500 36760
L46550 36760
L46620 36730
L46640 36710
L46640 36540
L46550 36540
" />
<path d="M46860 36760
L46860 36260
L47140 36760
L47140 36260
" />
<path d="M47380 36760
L47380 36260
L47500 36260
L47570 36280
L47620 36330
L47640 36380
L47660 36470
L47660 36540
L47640 36640
L47620 36680
L47570 36730
L47500 36760
L47380 36760
" />
</g>
<g style="fill:#008484; fill-opacity:0.0; 
stroke:#008484; stroke-width:0; stroke-opacity:1; 
stroke-linecap:round; stroke-linejoin:round;">
</g>
<g style="fill:#008400; fill-opacity:0.0; 
stroke:#008400; stroke-width:0; stroke-opacity:1; 
stroke-linecap:round; stroke-linejoin:round;">
</g>
<g style="fill:#008400; fill-opacity:1.0; 
stroke:#008400; stroke-width:100; stroke-opacity:1; 
stroke-linecap:round; stroke-linejoin:round;">
<circle cx="47000" cy="33500" r="200" /> 
</g>
<g style="fill:#008400; fill-opacity:1.0; 
stroke:#008400; stroke-width:60; stroke-opacity:1; 
stroke-linecap:round; stroke-linejoin:round;">
</g>
<g style="fill:#008400; fill-opacity:0.0; 
stroke:#008400; stroke-width:60; stroke-opacity:1; 
stroke-linecap:round; stroke-linejoin:round;">
<path d="M44000 24000
L50000 24000
" />
</g>
<g style="fill:#008400; fill-opacity:0.0; 
stroke:#008400; stroke-width:0; stroke-opacity:1; 
stroke-linecap:round; stroke-linejoin:round;">
</g>
<g style="fill:#008400; fill-opacity:1.0; 
stroke:#008400; stroke-width:100; stroke-opacity:1; 
stroke-linecap:round; stroke-linejoin:round;">
<circle cx="44000" cy="24000" r="200" /> 
</g>
<g style="fill:#008400; fill-opacity:1.0; 
stroke:#008400; stroke-width:0; stroke-opacity:1; 
stroke-linecap:round; stroke-linejoin:round;">
</g>
<g style="fill:#840000; fill-opacity:1.0; 
stroke:#840000; stroke-width:0; stroke-opacity:1; 
stroke-linecap:round; stroke-linejoin:round;">
</g>
<g style="fill:#840000; fill-opacity:1.0; 
stroke:#840000; stroke-width:60; stroke-opacity:1; 
stroke-linecap:round; stroke-linejoin:round;">
</g>
<g style="fill:#840000; fill-opacity:0.0; 
stroke:#840000; stroke-width:60; stroke-opacity:1; 
stroke-linecap:round; stroke-linejoin:round;">
<path d="M50000 35500
L50000 35500
" />
<polyline fill="none;"
points="50000,35500
50000,36000
50400,36250
50000,36500
49600,36250
50000,36000
" /> 
</g>
<g style="fill:#008484; fill-opacity:0.0; 
stroke:#008484; stroke-width:60; stroke-opacity:1; 
stroke-linecap:round; stroke-linejoin:round;">
<path d="M48260 37190
L48260 36690
L48450 36690
L48500 36710
L48520 36730
L48540 36780
L48540 36850
L48520 36900
L48500 36920
L48450 36950
L48260 36950
" />
<path d="M48710 36690
L48830 37190
L48930 36830
L49020 37190
L49140 36690
" />
<path d="M49610 37190
L49450 36950
" />
<path d="M49330 37190
L49330 36690
L49520 36690
L49570 36710
L49590 36730
L49610 36780
L49610 36850
L49590 36900
L49570 36920
L49520 36950
L49330 36950
" />
<path d="M49710 37230
L50090 37230
" />
<path d="M50380 36920
L50210 36920
" />
<path d="M50210 37190
L50210 36690
L50450 36690
" />
<path d="M50880 37190
L50640 37190
L50640 36690
" />
<path d="M51020 37040
L51250 37040
" />
<path d="M50970 37190
L51130 36690
L51300 37190
" />
<path d="M51730 36710
L51680 36690
L51610 36690
L51540 36710
L51490 36760
L51470 36810
L51450 36900
L51450 36970
L51470 37070
L51490 37110
L51540 37160
L51610 37190
L51660 37190
L51730 37160
L51750 37140
L51750 36970
L51660 36970
" />
</g>
<g style="fill:#008400; fill-opacity:0.0; 
stroke:#008400; stroke-width:60; stroke-opacity:1; 
stroke-linecap:round; stroke-linejoin:round;">
<path d="M47000 34500
L50000 34500
" />
<path d="M50000 34500
L50000 35500
" />
</g>
<g style="fill:#008400; fill-opacity:0.0; 
stroke:#008400; stroke-width:0; stroke-opacity:1; 
stroke-linecap:round; stroke-linejoin:round;">
</g>
<g style="fill:#008400; fill-opacity:1.0; 
stroke:#008400; stroke-width:100; stroke-opacity:1; 
stroke-linecap:round; stroke-linejoin:round;">
<circle cx="47000" cy="34500" r="200" /> 
</g> 
</svg>
