M48
;DRILL file {KiCad 4.0.7} date 06/12/18 10:28:34
;FORMAT={-:-/ absolute / inch / decimal}
FMAT,2
INCH,TZ
T1C0.024
T2C0.028
T3C0.031
T4C0.039
T5C0.060
%
G90
G05
M72
T1
X6.95Y-4.6
X6.95Y-4.65
X6.95Y-4.7
T2
X6.2Y-4.9
X6.2Y-5.1
X6.5Y-4.4
X6.5Y-4.9
X6.5Y-5.1
X6.8Y-4.4
X7.Y-4.4
X7.3Y-4.4
T3
X6.6Y-4.5984
X6.6Y-4.6969
X6.8Y-4.9516
X6.8Y-5.05
X7.2516Y-4.65
X7.35Y-4.65
T4
X7.2Y-5.
X7.2Y-5.1
T5
X6.2Y-4.45
X6.2Y-4.65
T0
M30
