M48
;DRILL file {KiCad 4.0.7} date 06/12/18 23:47:44
;FORMAT={-:-/ absolute / inch / decimal}
FMAT,2
INCH,TZ
T1C0.024
T2C0.028
T3C0.031
T4C0.039
T5C0.047
%
G90
G05
M72
T1
X3.29Y-2.95
X3.34Y-2.9
X3.34Y-3.
X4.03Y-2.95
X4.08Y-2.9
X4.08Y-3.
T2
X3.3Y-3.38
X3.6Y-3.16
X3.6Y-3.38
X3.64Y-3.66
X3.9Y-3.16
X3.94Y-3.66
X4.12Y-3.38
X4.12Y-3.68
T3
X2.9Y-3.15
X2.9031Y-2.9
X3.0969Y-3.15
X3.1Y-2.9
X3.2631Y-3.16
X3.3Y-3.65
X3.46Y-3.16
X3.4969Y-3.65
X3.62Y-2.7
X3.6231Y-2.94
X3.7431Y-3.38
X3.8169Y-2.7
X3.82Y-2.94
X3.94Y-3.38
X3.98Y-2.7
X4.0431Y-3.16
X4.1769Y-2.7
X4.24Y-3.16
T4
X4.1Y-2.38
X4.2Y-2.38
T5
X2.68Y-2.52
X2.68Y-3.12
X3.24Y-2.42
X3.84Y-2.42
T0
M30
