G04 #@! TF.FileFunction,Copper,L1,Top,Signal*
%FSLAX46Y46*%
G04 Gerber Fmt 4.6, Leading zero omitted, Abs format (unit mm)*
G04 Created by KiCad (PCBNEW 4.0.7) date 06/12/18 23:48:04*
%MOMM*%
%LPD*%
G01*
G04 APERTURE LIST*
%ADD10C,0.100000*%
%ADD11C,1.600000*%
%ADD12R,1.500000X2.500000*%
%ADD13R,1.500000X3.400000*%
%ADD14C,2.400000*%
%ADD15O,2.400000X2.400000*%
%ADD16C,1.000000*%
%ADD17R,1.000000X1.000000*%
%ADD18C,1.400000*%
%ADD19O,1.400000X1.400000*%
%ADD20R,1.700000X1.700000*%
%ADD21O,1.700000X1.700000*%
%ADD22C,0.250000*%
%ADD23C,0.781437*%
%ADD24C,0.254000*%
G04 APERTURE END LIST*
D10*
D11*
X83820000Y-92710000D03*
X88820000Y-92710000D03*
X78660000Y-80010000D03*
X73660000Y-80010000D03*
X87884000Y-80264000D03*
X82884000Y-80264000D03*
X91948000Y-68580000D03*
X96948000Y-68580000D03*
X97028000Y-74676000D03*
X92028000Y-74676000D03*
X95076000Y-85852000D03*
X100076000Y-85852000D03*
X101092000Y-68580000D03*
X106092000Y-68580000D03*
X102696000Y-80264000D03*
X107696000Y-80264000D03*
X73740000Y-73660000D03*
X78740000Y-73660000D03*
D12*
X78380000Y-92550000D03*
X73280000Y-92550000D03*
X70580000Y-92550000D03*
D13*
X79280000Y-85700000D03*
D12*
X77080000Y-85250000D03*
D13*
X70580000Y-85900000D03*
D14*
X68072000Y-79248000D03*
D15*
X68072000Y-64008000D03*
D14*
X82296000Y-61468000D03*
D15*
X97536000Y-61468000D03*
D16*
X83566000Y-74930000D03*
X84836000Y-73660000D03*
D17*
X84836000Y-76200000D03*
D16*
X102362000Y-74930000D03*
X103632000Y-73660000D03*
D17*
X103632000Y-76200000D03*
D18*
X91440000Y-85852000D03*
D19*
X83820000Y-85852000D03*
D18*
X100076000Y-92964000D03*
D19*
X92456000Y-92964000D03*
D18*
X99060000Y-80264000D03*
D19*
X91440000Y-80264000D03*
D18*
X104648000Y-93472000D03*
D19*
X104648000Y-85852000D03*
D20*
X104140000Y-60452000D03*
D21*
X106680000Y-60452000D03*
D22*
X83820000Y-85852000D02*
X83820000Y-92710000D01*
X86970000Y-94590000D02*
X86970000Y-94560000D01*
X86970000Y-94560000D02*
X88820000Y-92710000D01*
X71120000Y-94590000D02*
X86970000Y-94590000D01*
X70580000Y-92550000D02*
X70580000Y-94050000D01*
X70580000Y-94050000D02*
X71120000Y-94590000D01*
X70580000Y-92550000D02*
X70580000Y-92050000D01*
D23*
X108712000Y-65024000D02*
X105156000Y-65024000D01*
X106680000Y-60452000D02*
X106680000Y-63500000D01*
X105156000Y-65024000D02*
X104648000Y-65024000D01*
X106680000Y-63500000D02*
X105156000Y-65024000D01*
X100076000Y-92964000D02*
X100076000Y-93953949D01*
X100076000Y-93953949D02*
X101626051Y-95504000D01*
X104648000Y-65024000D02*
X101092000Y-68580000D01*
X101626051Y-95504000D02*
X106680000Y-95504000D01*
X106680000Y-95504000D02*
X110236000Y-91948000D01*
X110236000Y-91948000D02*
X110236000Y-66548000D01*
X110236000Y-66548000D02*
X108712000Y-65024000D01*
X78660000Y-80010000D02*
X78660000Y-78878630D01*
X78660000Y-78878630D02*
X75393370Y-75612000D01*
X75393370Y-75612000D02*
X73740000Y-75612000D01*
X73740000Y-73660000D02*
X73740000Y-74791370D01*
X70104000Y-79248000D02*
X73740000Y-75612000D01*
X73740000Y-75612000D02*
X73740000Y-73660000D01*
X68072000Y-79248000D02*
X70104000Y-79248000D01*
X82296000Y-66548000D02*
X84328000Y-68580000D01*
X84328000Y-68580000D02*
X91948000Y-68580000D01*
X82296000Y-61468000D02*
X82296000Y-66548000D01*
X82296000Y-61468000D02*
X65024000Y-61468000D01*
X65024000Y-61468000D02*
X63500000Y-62992000D01*
X63500000Y-62992000D02*
X63500000Y-74676000D01*
X63500000Y-74676000D02*
X68072000Y-79248000D01*
X93356630Y-71120000D02*
X98552000Y-71120000D01*
X98552000Y-71120000D02*
X101092000Y-68580000D01*
X91948000Y-68580000D02*
X91948000Y-69711370D01*
X91948000Y-69711370D02*
X93356630Y-71120000D01*
X100076000Y-92964000D02*
X104140000Y-92964000D01*
X104140000Y-92964000D02*
X104648000Y-93472000D01*
X73660000Y-80010000D02*
X73660000Y-81830000D01*
X73660000Y-81830000D02*
X77080000Y-85250000D01*
D22*
X91440000Y-83820000D02*
X87884000Y-80264000D01*
X91440000Y-86841949D02*
X91440000Y-85852000D01*
X91440000Y-85852000D02*
X91440000Y-83820000D01*
X92456000Y-92964000D02*
X92456000Y-86868000D01*
X92456000Y-86868000D02*
X91440000Y-85852000D01*
X81280000Y-71628000D02*
X81280000Y-73865002D01*
X81280000Y-73865002D02*
X83614998Y-76200000D01*
X83614998Y-76200000D02*
X84086000Y-76200000D01*
X84086000Y-76200000D02*
X84836000Y-76200000D01*
X74859999Y-65207999D02*
X81280000Y-71628000D01*
X68072000Y-64008000D02*
X69271999Y-65207999D01*
X69271999Y-65207999D02*
X74859999Y-65207999D01*
X93472000Y-78232000D02*
X97028000Y-78232000D01*
X97028000Y-78232000D02*
X99060000Y-80264000D01*
X92028000Y-76788000D02*
X93472000Y-78232000D01*
X92028000Y-74676000D02*
X92028000Y-76788000D01*
X84836000Y-73660000D02*
X91012000Y-73660000D01*
X91012000Y-73660000D02*
X92028000Y-74676000D01*
X96520000Y-85852000D02*
X100584000Y-81788000D01*
X95076000Y-85852000D02*
X96520000Y-85852000D01*
X100584000Y-76000894D02*
X100584000Y-81788000D01*
X100584000Y-81788000D02*
X104648000Y-85852000D01*
X102362000Y-74930000D02*
X101654894Y-74930000D01*
X101654894Y-74930000D02*
X100584000Y-76000894D01*
X103632000Y-76200000D02*
X103632000Y-79328000D01*
X103632000Y-79328000D02*
X102696000Y-80264000D01*
X106891999Y-73871999D02*
X104563998Y-76200000D01*
X104563998Y-76200000D02*
X103632000Y-76200000D01*
X106092000Y-68580000D02*
X106891999Y-69379999D01*
X106891999Y-69379999D02*
X106891999Y-73871999D01*
D24*
G36*
X111633000Y-96393000D02*
X107160287Y-96393000D01*
X107405292Y-96229292D01*
X110961292Y-92673292D01*
X111043673Y-92550000D01*
X111183640Y-92340525D01*
X111261718Y-91948000D01*
X111261718Y-66548000D01*
X111183640Y-66155475D01*
X110961292Y-65822708D01*
X109437292Y-64298708D01*
X109104526Y-64076360D01*
X108712000Y-63998282D01*
X107556975Y-63998282D01*
X107627640Y-63892525D01*
X107705718Y-63500000D01*
X107705718Y-61547408D01*
X107730054Y-61531147D01*
X108051961Y-61049378D01*
X108165000Y-60481093D01*
X108165000Y-60422907D01*
X108051961Y-59854622D01*
X107730054Y-59372853D01*
X107248285Y-59050946D01*
X106680000Y-58937907D01*
X106111715Y-59050946D01*
X105629946Y-59372853D01*
X105600597Y-59416777D01*
X105528327Y-59242302D01*
X105349699Y-59063673D01*
X105116310Y-58967000D01*
X104425750Y-58967000D01*
X104267000Y-59125750D01*
X104267000Y-60325000D01*
X104287000Y-60325000D01*
X104287000Y-60579000D01*
X104267000Y-60579000D01*
X104267000Y-61778250D01*
X104425750Y-61937000D01*
X105116310Y-61937000D01*
X105349699Y-61840327D01*
X105528327Y-61661698D01*
X105600597Y-61487223D01*
X105629946Y-61531147D01*
X105654282Y-61547408D01*
X105654282Y-63075134D01*
X104731134Y-63998282D01*
X104648000Y-63998282D01*
X104255475Y-64076360D01*
X104255473Y-64076361D01*
X104255474Y-64076361D01*
X103922708Y-64298708D01*
X101076430Y-67144986D01*
X100807813Y-67144752D01*
X100280200Y-67362757D01*
X99876176Y-67766077D01*
X99657250Y-68293309D01*
X99657014Y-68564402D01*
X98127134Y-70094282D01*
X93781496Y-70094282D01*
X93122444Y-69435230D01*
X93163824Y-69393923D01*
X93382750Y-68866691D01*
X93382752Y-68864187D01*
X95512752Y-68864187D01*
X95730757Y-69391800D01*
X96134077Y-69795824D01*
X96661309Y-70014750D01*
X97232187Y-70015248D01*
X97759800Y-69797243D01*
X98163824Y-69393923D01*
X98382750Y-68866691D01*
X98383248Y-68295813D01*
X98165243Y-67768200D01*
X97761923Y-67364176D01*
X97234691Y-67145250D01*
X96663813Y-67144752D01*
X96136200Y-67362757D01*
X95732176Y-67766077D01*
X95513250Y-68293309D01*
X95512752Y-68864187D01*
X93382752Y-68864187D01*
X93383248Y-68295813D01*
X93165243Y-67768200D01*
X92761923Y-67364176D01*
X92234691Y-67145250D01*
X91663813Y-67144752D01*
X91136200Y-67362757D01*
X90944341Y-67554282D01*
X84752866Y-67554282D01*
X83321718Y-66123134D01*
X83321718Y-63029655D01*
X83334086Y-63024545D01*
X83850730Y-62508801D01*
X84130681Y-61834605D01*
X84131000Y-61468000D01*
X95665050Y-61468000D01*
X95804731Y-62170224D01*
X96202509Y-62765541D01*
X96797826Y-63163319D01*
X97500050Y-63303000D01*
X97571950Y-63303000D01*
X98274174Y-63163319D01*
X98869491Y-62765541D01*
X99267269Y-62170224D01*
X99406950Y-61468000D01*
X99267269Y-60765776D01*
X99248543Y-60737750D01*
X102655000Y-60737750D01*
X102655000Y-61428309D01*
X102751673Y-61661698D01*
X102930301Y-61840327D01*
X103163690Y-61937000D01*
X103854250Y-61937000D01*
X104013000Y-61778250D01*
X104013000Y-60579000D01*
X102813750Y-60579000D01*
X102655000Y-60737750D01*
X99248543Y-60737750D01*
X98869491Y-60170459D01*
X98274174Y-59772681D01*
X97571950Y-59633000D01*
X97500050Y-59633000D01*
X96797826Y-59772681D01*
X96202509Y-60170459D01*
X95804731Y-60765776D01*
X95665050Y-61468000D01*
X84131000Y-61468000D01*
X84131318Y-61104597D01*
X83852545Y-60429914D01*
X83336801Y-59913270D01*
X82662605Y-59633319D01*
X81932597Y-59632682D01*
X81257914Y-59911455D01*
X80741270Y-60427199D01*
X80735007Y-60442282D01*
X65024000Y-60442282D01*
X64631475Y-60520360D01*
X64631473Y-60520361D01*
X64631474Y-60520361D01*
X64298708Y-60742708D01*
X62774708Y-62266708D01*
X62552360Y-62599474D01*
X62552360Y-62599475D01*
X62474282Y-62992000D01*
X62474282Y-74676000D01*
X62552360Y-75068526D01*
X62774708Y-75401292D01*
X66242451Y-78869035D01*
X66237319Y-78881395D01*
X66236682Y-79611403D01*
X66515455Y-80286086D01*
X67031199Y-80802730D01*
X67705395Y-81082681D01*
X68435403Y-81083318D01*
X68594101Y-81017745D01*
X72831861Y-81017745D01*
X72905995Y-81263864D01*
X73443223Y-81456965D01*
X74013454Y-81429778D01*
X74414005Y-81263864D01*
X74488139Y-81017745D01*
X73660000Y-80189605D01*
X72831861Y-81017745D01*
X68594101Y-81017745D01*
X69110086Y-80804545D01*
X69626730Y-80288801D01*
X69632993Y-80273718D01*
X70104000Y-80273718D01*
X70496526Y-80195640D01*
X70829292Y-79973292D01*
X71009361Y-79793223D01*
X72213035Y-79793223D01*
X72240222Y-80363454D01*
X72406136Y-80764005D01*
X72652255Y-80838139D01*
X73480395Y-80010000D01*
X73839605Y-80010000D01*
X74667745Y-80838139D01*
X74913864Y-80764005D01*
X75106965Y-80226777D01*
X75079778Y-79656546D01*
X74913864Y-79255995D01*
X74667745Y-79181861D01*
X73839605Y-80010000D01*
X73480395Y-80010000D01*
X72652255Y-79181861D01*
X72406136Y-79255995D01*
X72213035Y-79793223D01*
X71009361Y-79793223D01*
X71800329Y-79002255D01*
X72831861Y-79002255D01*
X73660000Y-79830395D01*
X74488139Y-79002255D01*
X74414005Y-78756136D01*
X73876777Y-78563035D01*
X73306546Y-78590222D01*
X72905995Y-78756136D01*
X72831861Y-79002255D01*
X71800329Y-79002255D01*
X74164866Y-76637718D01*
X74968504Y-76637718D01*
X77485556Y-79154770D01*
X77444176Y-79196077D01*
X77225250Y-79723309D01*
X77224752Y-80294187D01*
X77442757Y-80821800D01*
X77846077Y-81225824D01*
X78373309Y-81444750D01*
X78944187Y-81445248D01*
X79364096Y-81271745D01*
X82055861Y-81271745D01*
X82129995Y-81517864D01*
X82667223Y-81710965D01*
X83237454Y-81683778D01*
X83638005Y-81517864D01*
X83712139Y-81271745D01*
X82884000Y-80443605D01*
X82055861Y-81271745D01*
X79364096Y-81271745D01*
X79471800Y-81227243D01*
X79875824Y-80823923D01*
X80094750Y-80296691D01*
X80094967Y-80047223D01*
X81437035Y-80047223D01*
X81464222Y-80617454D01*
X81630136Y-81018005D01*
X81876255Y-81092139D01*
X82704395Y-80264000D01*
X83063605Y-80264000D01*
X83891745Y-81092139D01*
X84137864Y-81018005D01*
X84306735Y-80548187D01*
X86448752Y-80548187D01*
X86666757Y-81075800D01*
X87070077Y-81479824D01*
X87597309Y-81698750D01*
X88168187Y-81699248D01*
X88222149Y-81676951D01*
X90680000Y-84134802D01*
X90680000Y-84724345D01*
X90308902Y-85094796D01*
X90105232Y-85585287D01*
X90104769Y-86116383D01*
X90307582Y-86607229D01*
X90682796Y-86983098D01*
X90710353Y-86994541D01*
X90737852Y-87132788D01*
X90902599Y-87379350D01*
X91149161Y-87544097D01*
X91440000Y-87601949D01*
X91696000Y-87551027D01*
X91696000Y-91879600D01*
X91485858Y-92020012D01*
X91196467Y-92453118D01*
X91094846Y-92964000D01*
X91196467Y-93474882D01*
X91485858Y-93907988D01*
X91918964Y-94197379D01*
X92429846Y-94299000D01*
X92482154Y-94299000D01*
X92993036Y-94197379D01*
X93426142Y-93907988D01*
X93715533Y-93474882D01*
X93817154Y-92964000D01*
X93715533Y-92453118D01*
X93426142Y-92020012D01*
X93216000Y-91879600D01*
X93216000Y-86868000D01*
X93158148Y-86577161D01*
X92993401Y-86330599D01*
X92774774Y-86111972D01*
X92775231Y-85587617D01*
X92572418Y-85096771D01*
X92200000Y-84723703D01*
X92200000Y-83820000D01*
X92146007Y-83548559D01*
X92142148Y-83529160D01*
X91977401Y-83282599D01*
X89297256Y-80602454D01*
X89299384Y-80597329D01*
X90147284Y-80597329D01*
X90290203Y-80942396D01*
X90637337Y-81330764D01*
X91106669Y-81556727D01*
X91313000Y-81434206D01*
X91313000Y-80391000D01*
X91567000Y-80391000D01*
X91567000Y-81434206D01*
X91773331Y-81556727D01*
X92242663Y-81330764D01*
X92589797Y-80942396D01*
X92732716Y-80597329D01*
X92609374Y-80391000D01*
X91567000Y-80391000D01*
X91313000Y-80391000D01*
X90270626Y-80391000D01*
X90147284Y-80597329D01*
X89299384Y-80597329D01*
X89318750Y-80550691D01*
X89319248Y-79979813D01*
X89298943Y-79930671D01*
X90147284Y-79930671D01*
X90270626Y-80137000D01*
X91313000Y-80137000D01*
X91313000Y-79093794D01*
X91567000Y-79093794D01*
X91567000Y-80137000D01*
X92609374Y-80137000D01*
X92732716Y-79930671D01*
X92589797Y-79585604D01*
X92242663Y-79197236D01*
X91773331Y-78971273D01*
X91567000Y-79093794D01*
X91313000Y-79093794D01*
X91106669Y-78971273D01*
X90637337Y-79197236D01*
X90290203Y-79585604D01*
X90147284Y-79930671D01*
X89298943Y-79930671D01*
X89101243Y-79452200D01*
X88697923Y-79048176D01*
X88170691Y-78829250D01*
X87599813Y-78828752D01*
X87072200Y-79046757D01*
X86668176Y-79450077D01*
X86449250Y-79977309D01*
X86448752Y-80548187D01*
X84306735Y-80548187D01*
X84330965Y-80480777D01*
X84303778Y-79910546D01*
X84137864Y-79509995D01*
X83891745Y-79435861D01*
X83063605Y-80264000D01*
X82704395Y-80264000D01*
X81876255Y-79435861D01*
X81630136Y-79509995D01*
X81437035Y-80047223D01*
X80094967Y-80047223D01*
X80095248Y-79725813D01*
X79901231Y-79256255D01*
X82055861Y-79256255D01*
X82884000Y-80084395D01*
X83712139Y-79256255D01*
X83638005Y-79010136D01*
X83100777Y-78817035D01*
X82530546Y-78844222D01*
X82129995Y-79010136D01*
X82055861Y-79256255D01*
X79901231Y-79256255D01*
X79877243Y-79198200D01*
X79685718Y-79006341D01*
X79685718Y-78878630D01*
X79607640Y-78486105D01*
X79385292Y-78153338D01*
X76118662Y-74886708D01*
X75790962Y-74667745D01*
X77911861Y-74667745D01*
X77985995Y-74913864D01*
X78523223Y-75106965D01*
X79093454Y-75079778D01*
X79494005Y-74913864D01*
X79568139Y-74667745D01*
X78740000Y-73839605D01*
X77911861Y-74667745D01*
X75790962Y-74667745D01*
X75785896Y-74664360D01*
X75393370Y-74586282D01*
X74843269Y-74586282D01*
X74955824Y-74473923D01*
X75174750Y-73946691D01*
X75175189Y-73443223D01*
X77293035Y-73443223D01*
X77320222Y-74013454D01*
X77486136Y-74414005D01*
X77732255Y-74488139D01*
X78560395Y-73660000D01*
X78919605Y-73660000D01*
X79747745Y-74488139D01*
X79993864Y-74414005D01*
X80186965Y-73876777D01*
X80159778Y-73306546D01*
X79993864Y-72905995D01*
X79747745Y-72831861D01*
X78919605Y-73660000D01*
X78560395Y-73660000D01*
X77732255Y-72831861D01*
X77486136Y-72905995D01*
X77293035Y-73443223D01*
X75175189Y-73443223D01*
X75175248Y-73375813D01*
X74957243Y-72848200D01*
X74761640Y-72652255D01*
X77911861Y-72652255D01*
X78740000Y-73480395D01*
X79568139Y-72652255D01*
X79494005Y-72406136D01*
X78956777Y-72213035D01*
X78386546Y-72240222D01*
X77985995Y-72406136D01*
X77911861Y-72652255D01*
X74761640Y-72652255D01*
X74553923Y-72444176D01*
X74026691Y-72225250D01*
X73455813Y-72224752D01*
X72928200Y-72442757D01*
X72524176Y-72846077D01*
X72305250Y-73373309D01*
X72304752Y-73944187D01*
X72522757Y-74471800D01*
X72714282Y-74663659D01*
X72714282Y-75187134D01*
X69679134Y-78222282D01*
X69633655Y-78222282D01*
X69628545Y-78209914D01*
X69112801Y-77693270D01*
X68438605Y-77413319D01*
X67708597Y-77412682D01*
X67693503Y-77418919D01*
X64525718Y-74251134D01*
X64525718Y-63416866D01*
X65448866Y-62493718D01*
X67045032Y-62493718D01*
X66774459Y-62674509D01*
X66376681Y-63269826D01*
X66237000Y-63972050D01*
X66237000Y-64043950D01*
X66376681Y-64746174D01*
X66774459Y-65341491D01*
X67369776Y-65739269D01*
X68072000Y-65878950D01*
X68736618Y-65746749D01*
X68981160Y-65910147D01*
X69271999Y-65967999D01*
X74545197Y-65967999D01*
X80520000Y-71942802D01*
X80520000Y-73865002D01*
X80577852Y-74155841D01*
X80742599Y-74402403D01*
X83077597Y-76737401D01*
X83324159Y-76902148D01*
X83614998Y-76960000D01*
X83748721Y-76960000D01*
X83871910Y-77151441D01*
X84084110Y-77296431D01*
X84336000Y-77347440D01*
X85336000Y-77347440D01*
X85571317Y-77303162D01*
X85787441Y-77164090D01*
X85932431Y-76951890D01*
X85983440Y-76700000D01*
X85983440Y-75700000D01*
X85939162Y-75464683D01*
X85800090Y-75248559D01*
X85587890Y-75103569D01*
X85336000Y-75052560D01*
X84700894Y-75052560D01*
X84701119Y-74794883D01*
X85060775Y-74795197D01*
X85478086Y-74622767D01*
X85681207Y-74420000D01*
X90593223Y-74420000D01*
X90592752Y-74960187D01*
X90810757Y-75487800D01*
X91214077Y-75891824D01*
X91268000Y-75914215D01*
X91268000Y-76788000D01*
X91325852Y-77078839D01*
X91490599Y-77325401D01*
X92934599Y-78769401D01*
X93181160Y-78934148D01*
X93472000Y-78992000D01*
X96713198Y-78992000D01*
X97725226Y-80004028D01*
X97724769Y-80528383D01*
X97927582Y-81019229D01*
X98302796Y-81395098D01*
X98793287Y-81598768D01*
X99324383Y-81599231D01*
X99815229Y-81396418D01*
X99824000Y-81387662D01*
X99824000Y-81473198D01*
X96275136Y-85022062D01*
X95889923Y-84636176D01*
X95362691Y-84417250D01*
X94791813Y-84416752D01*
X94264200Y-84634757D01*
X93860176Y-85038077D01*
X93641250Y-85565309D01*
X93640752Y-86136187D01*
X93858757Y-86663800D01*
X94262077Y-87067824D01*
X94789309Y-87286750D01*
X95360187Y-87287248D01*
X95887800Y-87069243D01*
X96291824Y-86665923D01*
X96314215Y-86612000D01*
X96520000Y-86612000D01*
X96810839Y-86554148D01*
X97057401Y-86389401D01*
X97310615Y-86136187D01*
X98640752Y-86136187D01*
X98858757Y-86663800D01*
X99262077Y-87067824D01*
X99789309Y-87286750D01*
X100360187Y-87287248D01*
X100887800Y-87069243D01*
X101291824Y-86665923D01*
X101510750Y-86138691D01*
X101511248Y-85567813D01*
X101293243Y-85040200D01*
X100889923Y-84636176D01*
X100362691Y-84417250D01*
X99791813Y-84416752D01*
X99264200Y-84634757D01*
X98860176Y-85038077D01*
X98641250Y-85565309D01*
X98640752Y-86136187D01*
X97310615Y-86136187D01*
X100584000Y-82862802D01*
X103351830Y-85630632D01*
X103313000Y-85825846D01*
X103313000Y-85878154D01*
X103414621Y-86389036D01*
X103704012Y-86822142D01*
X104137118Y-87111533D01*
X104648000Y-87213154D01*
X105158882Y-87111533D01*
X105591988Y-86822142D01*
X105881379Y-86389036D01*
X105983000Y-85878154D01*
X105983000Y-85825846D01*
X105881379Y-85314964D01*
X105591988Y-84881858D01*
X105158882Y-84592467D01*
X104648000Y-84490846D01*
X104409157Y-84538355D01*
X101344000Y-81473198D01*
X101344000Y-80749663D01*
X101478757Y-81075800D01*
X101882077Y-81479824D01*
X102409309Y-81698750D01*
X102980187Y-81699248D01*
X103507800Y-81481243D01*
X103911824Y-81077923D01*
X104130750Y-80550691D01*
X104130752Y-80548187D01*
X106260752Y-80548187D01*
X106478757Y-81075800D01*
X106882077Y-81479824D01*
X107409309Y-81698750D01*
X107980187Y-81699248D01*
X108507800Y-81481243D01*
X108911824Y-81077923D01*
X109130750Y-80550691D01*
X109131248Y-79979813D01*
X108913243Y-79452200D01*
X108509923Y-79048176D01*
X107982691Y-78829250D01*
X107411813Y-78828752D01*
X106884200Y-79046757D01*
X106480176Y-79450077D01*
X106261250Y-79977309D01*
X106260752Y-80548187D01*
X104130752Y-80548187D01*
X104131248Y-79979813D01*
X104108951Y-79925851D01*
X104169401Y-79865401D01*
X104334148Y-79618839D01*
X104392000Y-79328000D01*
X104392000Y-77287279D01*
X104583441Y-77164090D01*
X104728431Y-76951890D01*
X104733621Y-76926260D01*
X104854837Y-76902148D01*
X105101399Y-76737401D01*
X107429400Y-74409400D01*
X107594147Y-74162838D01*
X107651999Y-73871999D01*
X107651999Y-69379999D01*
X107594147Y-69089160D01*
X107594147Y-69089159D01*
X107495609Y-68941687D01*
X107526750Y-68866691D01*
X107527248Y-68295813D01*
X107309243Y-67768200D01*
X106905923Y-67364176D01*
X106378691Y-67145250D01*
X105807813Y-67144752D01*
X105280200Y-67362757D01*
X104876176Y-67766077D01*
X104657250Y-68293309D01*
X104656752Y-68864187D01*
X104874757Y-69391800D01*
X105278077Y-69795824D01*
X105805309Y-70014750D01*
X106131999Y-70015035D01*
X106131999Y-73557197D01*
X104503738Y-75185458D01*
X104383890Y-75103569D01*
X104132000Y-75052560D01*
X103496894Y-75052560D01*
X103497108Y-74807394D01*
X103937375Y-74776217D01*
X104205352Y-74665217D01*
X104242499Y-74450104D01*
X103632000Y-73839605D01*
X103617858Y-73853748D01*
X103438253Y-73674143D01*
X103452395Y-73660000D01*
X103811605Y-73660000D01*
X104422104Y-74270499D01*
X104637217Y-74233352D01*
X104780112Y-73805028D01*
X104748217Y-73354625D01*
X104637217Y-73086648D01*
X104422104Y-73049501D01*
X103811605Y-73660000D01*
X103452395Y-73660000D01*
X102841896Y-73049501D01*
X102626783Y-73086648D01*
X102483888Y-73514972D01*
X102503727Y-73795123D01*
X102137225Y-73794803D01*
X101719914Y-73967233D01*
X101482427Y-74204306D01*
X101364055Y-74227852D01*
X101117493Y-74392599D01*
X100046599Y-75463493D01*
X99881852Y-75710055D01*
X99824000Y-76000894D01*
X99824000Y-79139710D01*
X99817204Y-79132902D01*
X99326713Y-78929232D01*
X98799574Y-78928772D01*
X97565401Y-77694599D01*
X97318839Y-77529852D01*
X97028000Y-77472000D01*
X93786802Y-77472000D01*
X92788000Y-76473198D01*
X92788000Y-75914646D01*
X92839800Y-75893243D01*
X93243824Y-75489923D01*
X93462750Y-74962691D01*
X93462752Y-74960187D01*
X95592752Y-74960187D01*
X95810757Y-75487800D01*
X96214077Y-75891824D01*
X96741309Y-76110750D01*
X97312187Y-76111248D01*
X97839800Y-75893243D01*
X98243824Y-75489923D01*
X98462750Y-74962691D01*
X98463248Y-74391813D01*
X98245243Y-73864200D01*
X97841923Y-73460176D01*
X97314691Y-73241250D01*
X96743813Y-73240752D01*
X96216200Y-73458757D01*
X95812176Y-73862077D01*
X95593250Y-74389309D01*
X95592752Y-74960187D01*
X93462752Y-74960187D01*
X93463248Y-74391813D01*
X93245243Y-73864200D01*
X92841923Y-73460176D01*
X92314691Y-73241250D01*
X91743813Y-73240752D01*
X91689851Y-73263049D01*
X91549401Y-73122599D01*
X91302839Y-72957852D01*
X91012000Y-72900000D01*
X85681059Y-72900000D01*
X85651008Y-72869896D01*
X103021501Y-72869896D01*
X103632000Y-73480395D01*
X104242499Y-72869896D01*
X104205352Y-72654783D01*
X103777028Y-72511888D01*
X103326625Y-72543783D01*
X103058648Y-72654783D01*
X103021501Y-72869896D01*
X85651008Y-72869896D01*
X85479765Y-72698355D01*
X85062756Y-72525197D01*
X84611225Y-72524803D01*
X84193914Y-72697233D01*
X83874355Y-73016235D01*
X83701197Y-73433244D01*
X83700881Y-73795117D01*
X83341225Y-73794803D01*
X82923914Y-73967233D01*
X82690270Y-74200470D01*
X82040000Y-73550200D01*
X82040000Y-71628000D01*
X81982148Y-71337161D01*
X81817401Y-71090599D01*
X75397400Y-64670598D01*
X75150838Y-64505851D01*
X74859999Y-64447999D01*
X69826630Y-64447999D01*
X69907000Y-64043950D01*
X69907000Y-63972050D01*
X69767319Y-63269826D01*
X69369541Y-62674509D01*
X69098968Y-62493718D01*
X80734345Y-62493718D01*
X80739455Y-62506086D01*
X81255199Y-63022730D01*
X81270282Y-63028993D01*
X81270282Y-66548000D01*
X81348360Y-66940526D01*
X81570708Y-67273292D01*
X83602708Y-69305292D01*
X83935474Y-69527640D01*
X84328000Y-69605718D01*
X90922282Y-69605718D01*
X90922282Y-69711370D01*
X91000360Y-70103896D01*
X91222708Y-70436662D01*
X92631338Y-71845292D01*
X92964105Y-72067640D01*
X93356630Y-72145718D01*
X98552000Y-72145718D01*
X98944526Y-72067640D01*
X99277292Y-71845292D01*
X101107570Y-70015014D01*
X101376187Y-70015248D01*
X101903800Y-69797243D01*
X102307824Y-69393923D01*
X102526750Y-68866691D01*
X102526986Y-68595598D01*
X105072866Y-66049718D01*
X108287134Y-66049718D01*
X109210282Y-66972866D01*
X109210282Y-91523134D01*
X106255134Y-94478282D01*
X105529585Y-94478282D01*
X105779098Y-94229204D01*
X105982768Y-93738713D01*
X105983231Y-93207617D01*
X105780418Y-92716771D01*
X105405204Y-92340902D01*
X104914713Y-92137232D01*
X104713160Y-92137056D01*
X104532526Y-92016360D01*
X104140000Y-91938282D01*
X100938400Y-91938282D01*
X100833204Y-91832902D01*
X100342713Y-91629232D01*
X99811617Y-91628769D01*
X99320771Y-91831582D01*
X98944902Y-92206796D01*
X98741232Y-92697287D01*
X98740769Y-93228383D01*
X98943582Y-93719229D01*
X99050282Y-93826115D01*
X99050282Y-93953949D01*
X99128360Y-94346475D01*
X99350708Y-94679241D01*
X100900759Y-96229292D01*
X101145764Y-96393000D01*
X61087000Y-96393000D01*
X61087000Y-91300000D01*
X69182560Y-91300000D01*
X69182560Y-93800000D01*
X69226838Y-94035317D01*
X69365910Y-94251441D01*
X69578110Y-94396431D01*
X69830000Y-94447440D01*
X69949080Y-94447440D01*
X70042599Y-94587401D01*
X70582599Y-95127401D01*
X70829160Y-95292148D01*
X71120000Y-95350000D01*
X86970000Y-95350000D01*
X87260839Y-95292148D01*
X87507401Y-95127401D01*
X87567811Y-95036991D01*
X88481546Y-94123256D01*
X88533309Y-94144750D01*
X89104187Y-94145248D01*
X89631800Y-93927243D01*
X90035824Y-93523923D01*
X90254750Y-92996691D01*
X90255248Y-92425813D01*
X90037243Y-91898200D01*
X89633923Y-91494176D01*
X89106691Y-91275250D01*
X88535813Y-91274752D01*
X88008200Y-91492757D01*
X87604176Y-91896077D01*
X87385250Y-92423309D01*
X87384752Y-92994187D01*
X87407049Y-93048149D01*
X86625198Y-93830000D01*
X84729213Y-93830000D01*
X85035824Y-93523923D01*
X85254750Y-92996691D01*
X85255248Y-92425813D01*
X85037243Y-91898200D01*
X84633923Y-91494176D01*
X84580000Y-91471785D01*
X84580000Y-86936400D01*
X84790142Y-86795988D01*
X85079533Y-86362882D01*
X85181154Y-85852000D01*
X85079533Y-85341118D01*
X84790142Y-84908012D01*
X84357036Y-84618621D01*
X83846154Y-84517000D01*
X83793846Y-84517000D01*
X83282964Y-84618621D01*
X82849858Y-84908012D01*
X82560467Y-85341118D01*
X82458846Y-85852000D01*
X82560467Y-86362882D01*
X82849858Y-86795988D01*
X83060000Y-86936400D01*
X83060000Y-91471354D01*
X83008200Y-91492757D01*
X82604176Y-91896077D01*
X82385250Y-92423309D01*
X82384752Y-92994187D01*
X82602757Y-93521800D01*
X82910420Y-93830000D01*
X79771365Y-93830000D01*
X79777440Y-93800000D01*
X79777440Y-91300000D01*
X79733162Y-91064683D01*
X79594090Y-90848559D01*
X79381890Y-90703569D01*
X79130000Y-90652560D01*
X77630000Y-90652560D01*
X77394683Y-90696838D01*
X77178559Y-90835910D01*
X77033569Y-91048110D01*
X76982560Y-91300000D01*
X76982560Y-93800000D01*
X76988205Y-93830000D01*
X74671365Y-93830000D01*
X74677440Y-93800000D01*
X74677440Y-91300000D01*
X74633162Y-91064683D01*
X74494090Y-90848559D01*
X74281890Y-90703569D01*
X74030000Y-90652560D01*
X72530000Y-90652560D01*
X72294683Y-90696838D01*
X72078559Y-90835910D01*
X71933569Y-91048110D01*
X71930919Y-91061197D01*
X71794090Y-90848559D01*
X71581890Y-90703569D01*
X71330000Y-90652560D01*
X69830000Y-90652560D01*
X69594683Y-90696838D01*
X69378559Y-90835910D01*
X69233569Y-91048110D01*
X69182560Y-91300000D01*
X61087000Y-91300000D01*
X61087000Y-89174285D01*
X76894760Y-89174285D01*
X77105169Y-89683515D01*
X77494436Y-90073461D01*
X78003298Y-90284759D01*
X78554285Y-90285240D01*
X79063515Y-90074831D01*
X79453461Y-89685564D01*
X79664759Y-89176702D01*
X79665240Y-88625715D01*
X79454831Y-88116485D01*
X79385906Y-88047440D01*
X80030000Y-88047440D01*
X80265317Y-88003162D01*
X80481441Y-87864090D01*
X80626431Y-87651890D01*
X80677440Y-87400000D01*
X80677440Y-84000000D01*
X80633162Y-83764683D01*
X80494090Y-83548559D01*
X80281890Y-83403569D01*
X80030000Y-83352560D01*
X78530000Y-83352560D01*
X78294683Y-83396838D01*
X78191354Y-83463328D01*
X78189699Y-83461673D01*
X77956310Y-83365000D01*
X77365750Y-83365000D01*
X77207000Y-83523750D01*
X77207000Y-85123000D01*
X77227000Y-85123000D01*
X77227000Y-85377000D01*
X77207000Y-85377000D01*
X77207000Y-86976250D01*
X77365750Y-87135000D01*
X77882560Y-87135000D01*
X77882560Y-87400000D01*
X77911480Y-87553697D01*
X77496485Y-87725169D01*
X77106539Y-88114436D01*
X76895241Y-88623298D01*
X76894760Y-89174285D01*
X61087000Y-89174285D01*
X61087000Y-84200000D01*
X69182560Y-84200000D01*
X69182560Y-87600000D01*
X69226838Y-87835317D01*
X69365910Y-88051441D01*
X69578110Y-88196431D01*
X69830000Y-88247440D01*
X71330000Y-88247440D01*
X71565317Y-88203162D01*
X71781441Y-88064090D01*
X71926431Y-87851890D01*
X71977440Y-87600000D01*
X71977440Y-85535750D01*
X75695000Y-85535750D01*
X75695000Y-86626309D01*
X75791673Y-86859698D01*
X75970301Y-87038327D01*
X76203690Y-87135000D01*
X76794250Y-87135000D01*
X76953000Y-86976250D01*
X76953000Y-85377000D01*
X75853750Y-85377000D01*
X75695000Y-85535750D01*
X71977440Y-85535750D01*
X71977440Y-84200000D01*
X71933162Y-83964683D01*
X71874611Y-83873691D01*
X75695000Y-83873691D01*
X75695000Y-84964250D01*
X75853750Y-85123000D01*
X76953000Y-85123000D01*
X76953000Y-83523750D01*
X76794250Y-83365000D01*
X76203690Y-83365000D01*
X75970301Y-83461673D01*
X75791673Y-83640302D01*
X75695000Y-83873691D01*
X71874611Y-83873691D01*
X71794090Y-83748559D01*
X71581890Y-83603569D01*
X71330000Y-83552560D01*
X69830000Y-83552560D01*
X69594683Y-83596838D01*
X69378559Y-83735910D01*
X69233569Y-83948110D01*
X69182560Y-84200000D01*
X61087000Y-84200000D01*
X61087000Y-59475691D01*
X102655000Y-59475691D01*
X102655000Y-60166250D01*
X102813750Y-60325000D01*
X104013000Y-60325000D01*
X104013000Y-59125750D01*
X103854250Y-58967000D01*
X103163690Y-58967000D01*
X102930301Y-59063673D01*
X102751673Y-59242302D01*
X102655000Y-59475691D01*
X61087000Y-59475691D01*
X61087000Y-56007000D01*
X111633000Y-56007000D01*
X111633000Y-96393000D01*
X111633000Y-96393000D01*
G37*
X111633000Y-96393000D02*
X107160287Y-96393000D01*
X107405292Y-96229292D01*
X110961292Y-92673292D01*
X111043673Y-92550000D01*
X111183640Y-92340525D01*
X111261718Y-91948000D01*
X111261718Y-66548000D01*
X111183640Y-66155475D01*
X110961292Y-65822708D01*
X109437292Y-64298708D01*
X109104526Y-64076360D01*
X108712000Y-63998282D01*
X107556975Y-63998282D01*
X107627640Y-63892525D01*
X107705718Y-63500000D01*
X107705718Y-61547408D01*
X107730054Y-61531147D01*
X108051961Y-61049378D01*
X108165000Y-60481093D01*
X108165000Y-60422907D01*
X108051961Y-59854622D01*
X107730054Y-59372853D01*
X107248285Y-59050946D01*
X106680000Y-58937907D01*
X106111715Y-59050946D01*
X105629946Y-59372853D01*
X105600597Y-59416777D01*
X105528327Y-59242302D01*
X105349699Y-59063673D01*
X105116310Y-58967000D01*
X104425750Y-58967000D01*
X104267000Y-59125750D01*
X104267000Y-60325000D01*
X104287000Y-60325000D01*
X104287000Y-60579000D01*
X104267000Y-60579000D01*
X104267000Y-61778250D01*
X104425750Y-61937000D01*
X105116310Y-61937000D01*
X105349699Y-61840327D01*
X105528327Y-61661698D01*
X105600597Y-61487223D01*
X105629946Y-61531147D01*
X105654282Y-61547408D01*
X105654282Y-63075134D01*
X104731134Y-63998282D01*
X104648000Y-63998282D01*
X104255475Y-64076360D01*
X104255473Y-64076361D01*
X104255474Y-64076361D01*
X103922708Y-64298708D01*
X101076430Y-67144986D01*
X100807813Y-67144752D01*
X100280200Y-67362757D01*
X99876176Y-67766077D01*
X99657250Y-68293309D01*
X99657014Y-68564402D01*
X98127134Y-70094282D01*
X93781496Y-70094282D01*
X93122444Y-69435230D01*
X93163824Y-69393923D01*
X93382750Y-68866691D01*
X93382752Y-68864187D01*
X95512752Y-68864187D01*
X95730757Y-69391800D01*
X96134077Y-69795824D01*
X96661309Y-70014750D01*
X97232187Y-70015248D01*
X97759800Y-69797243D01*
X98163824Y-69393923D01*
X98382750Y-68866691D01*
X98383248Y-68295813D01*
X98165243Y-67768200D01*
X97761923Y-67364176D01*
X97234691Y-67145250D01*
X96663813Y-67144752D01*
X96136200Y-67362757D01*
X95732176Y-67766077D01*
X95513250Y-68293309D01*
X95512752Y-68864187D01*
X93382752Y-68864187D01*
X93383248Y-68295813D01*
X93165243Y-67768200D01*
X92761923Y-67364176D01*
X92234691Y-67145250D01*
X91663813Y-67144752D01*
X91136200Y-67362757D01*
X90944341Y-67554282D01*
X84752866Y-67554282D01*
X83321718Y-66123134D01*
X83321718Y-63029655D01*
X83334086Y-63024545D01*
X83850730Y-62508801D01*
X84130681Y-61834605D01*
X84131000Y-61468000D01*
X95665050Y-61468000D01*
X95804731Y-62170224D01*
X96202509Y-62765541D01*
X96797826Y-63163319D01*
X97500050Y-63303000D01*
X97571950Y-63303000D01*
X98274174Y-63163319D01*
X98869491Y-62765541D01*
X99267269Y-62170224D01*
X99406950Y-61468000D01*
X99267269Y-60765776D01*
X99248543Y-60737750D01*
X102655000Y-60737750D01*
X102655000Y-61428309D01*
X102751673Y-61661698D01*
X102930301Y-61840327D01*
X103163690Y-61937000D01*
X103854250Y-61937000D01*
X104013000Y-61778250D01*
X104013000Y-60579000D01*
X102813750Y-60579000D01*
X102655000Y-60737750D01*
X99248543Y-60737750D01*
X98869491Y-60170459D01*
X98274174Y-59772681D01*
X97571950Y-59633000D01*
X97500050Y-59633000D01*
X96797826Y-59772681D01*
X96202509Y-60170459D01*
X95804731Y-60765776D01*
X95665050Y-61468000D01*
X84131000Y-61468000D01*
X84131318Y-61104597D01*
X83852545Y-60429914D01*
X83336801Y-59913270D01*
X82662605Y-59633319D01*
X81932597Y-59632682D01*
X81257914Y-59911455D01*
X80741270Y-60427199D01*
X80735007Y-60442282D01*
X65024000Y-60442282D01*
X64631475Y-60520360D01*
X64631473Y-60520361D01*
X64631474Y-60520361D01*
X64298708Y-60742708D01*
X62774708Y-62266708D01*
X62552360Y-62599474D01*
X62552360Y-62599475D01*
X62474282Y-62992000D01*
X62474282Y-74676000D01*
X62552360Y-75068526D01*
X62774708Y-75401292D01*
X66242451Y-78869035D01*
X66237319Y-78881395D01*
X66236682Y-79611403D01*
X66515455Y-80286086D01*
X67031199Y-80802730D01*
X67705395Y-81082681D01*
X68435403Y-81083318D01*
X68594101Y-81017745D01*
X72831861Y-81017745D01*
X72905995Y-81263864D01*
X73443223Y-81456965D01*
X74013454Y-81429778D01*
X74414005Y-81263864D01*
X74488139Y-81017745D01*
X73660000Y-80189605D01*
X72831861Y-81017745D01*
X68594101Y-81017745D01*
X69110086Y-80804545D01*
X69626730Y-80288801D01*
X69632993Y-80273718D01*
X70104000Y-80273718D01*
X70496526Y-80195640D01*
X70829292Y-79973292D01*
X71009361Y-79793223D01*
X72213035Y-79793223D01*
X72240222Y-80363454D01*
X72406136Y-80764005D01*
X72652255Y-80838139D01*
X73480395Y-80010000D01*
X73839605Y-80010000D01*
X74667745Y-80838139D01*
X74913864Y-80764005D01*
X75106965Y-80226777D01*
X75079778Y-79656546D01*
X74913864Y-79255995D01*
X74667745Y-79181861D01*
X73839605Y-80010000D01*
X73480395Y-80010000D01*
X72652255Y-79181861D01*
X72406136Y-79255995D01*
X72213035Y-79793223D01*
X71009361Y-79793223D01*
X71800329Y-79002255D01*
X72831861Y-79002255D01*
X73660000Y-79830395D01*
X74488139Y-79002255D01*
X74414005Y-78756136D01*
X73876777Y-78563035D01*
X73306546Y-78590222D01*
X72905995Y-78756136D01*
X72831861Y-79002255D01*
X71800329Y-79002255D01*
X74164866Y-76637718D01*
X74968504Y-76637718D01*
X77485556Y-79154770D01*
X77444176Y-79196077D01*
X77225250Y-79723309D01*
X77224752Y-80294187D01*
X77442757Y-80821800D01*
X77846077Y-81225824D01*
X78373309Y-81444750D01*
X78944187Y-81445248D01*
X79364096Y-81271745D01*
X82055861Y-81271745D01*
X82129995Y-81517864D01*
X82667223Y-81710965D01*
X83237454Y-81683778D01*
X83638005Y-81517864D01*
X83712139Y-81271745D01*
X82884000Y-80443605D01*
X82055861Y-81271745D01*
X79364096Y-81271745D01*
X79471800Y-81227243D01*
X79875824Y-80823923D01*
X80094750Y-80296691D01*
X80094967Y-80047223D01*
X81437035Y-80047223D01*
X81464222Y-80617454D01*
X81630136Y-81018005D01*
X81876255Y-81092139D01*
X82704395Y-80264000D01*
X83063605Y-80264000D01*
X83891745Y-81092139D01*
X84137864Y-81018005D01*
X84306735Y-80548187D01*
X86448752Y-80548187D01*
X86666757Y-81075800D01*
X87070077Y-81479824D01*
X87597309Y-81698750D01*
X88168187Y-81699248D01*
X88222149Y-81676951D01*
X90680000Y-84134802D01*
X90680000Y-84724345D01*
X90308902Y-85094796D01*
X90105232Y-85585287D01*
X90104769Y-86116383D01*
X90307582Y-86607229D01*
X90682796Y-86983098D01*
X90710353Y-86994541D01*
X90737852Y-87132788D01*
X90902599Y-87379350D01*
X91149161Y-87544097D01*
X91440000Y-87601949D01*
X91696000Y-87551027D01*
X91696000Y-91879600D01*
X91485858Y-92020012D01*
X91196467Y-92453118D01*
X91094846Y-92964000D01*
X91196467Y-93474882D01*
X91485858Y-93907988D01*
X91918964Y-94197379D01*
X92429846Y-94299000D01*
X92482154Y-94299000D01*
X92993036Y-94197379D01*
X93426142Y-93907988D01*
X93715533Y-93474882D01*
X93817154Y-92964000D01*
X93715533Y-92453118D01*
X93426142Y-92020012D01*
X93216000Y-91879600D01*
X93216000Y-86868000D01*
X93158148Y-86577161D01*
X92993401Y-86330599D01*
X92774774Y-86111972D01*
X92775231Y-85587617D01*
X92572418Y-85096771D01*
X92200000Y-84723703D01*
X92200000Y-83820000D01*
X92146007Y-83548559D01*
X92142148Y-83529160D01*
X91977401Y-83282599D01*
X89297256Y-80602454D01*
X89299384Y-80597329D01*
X90147284Y-80597329D01*
X90290203Y-80942396D01*
X90637337Y-81330764D01*
X91106669Y-81556727D01*
X91313000Y-81434206D01*
X91313000Y-80391000D01*
X91567000Y-80391000D01*
X91567000Y-81434206D01*
X91773331Y-81556727D01*
X92242663Y-81330764D01*
X92589797Y-80942396D01*
X92732716Y-80597329D01*
X92609374Y-80391000D01*
X91567000Y-80391000D01*
X91313000Y-80391000D01*
X90270626Y-80391000D01*
X90147284Y-80597329D01*
X89299384Y-80597329D01*
X89318750Y-80550691D01*
X89319248Y-79979813D01*
X89298943Y-79930671D01*
X90147284Y-79930671D01*
X90270626Y-80137000D01*
X91313000Y-80137000D01*
X91313000Y-79093794D01*
X91567000Y-79093794D01*
X91567000Y-80137000D01*
X92609374Y-80137000D01*
X92732716Y-79930671D01*
X92589797Y-79585604D01*
X92242663Y-79197236D01*
X91773331Y-78971273D01*
X91567000Y-79093794D01*
X91313000Y-79093794D01*
X91106669Y-78971273D01*
X90637337Y-79197236D01*
X90290203Y-79585604D01*
X90147284Y-79930671D01*
X89298943Y-79930671D01*
X89101243Y-79452200D01*
X88697923Y-79048176D01*
X88170691Y-78829250D01*
X87599813Y-78828752D01*
X87072200Y-79046757D01*
X86668176Y-79450077D01*
X86449250Y-79977309D01*
X86448752Y-80548187D01*
X84306735Y-80548187D01*
X84330965Y-80480777D01*
X84303778Y-79910546D01*
X84137864Y-79509995D01*
X83891745Y-79435861D01*
X83063605Y-80264000D01*
X82704395Y-80264000D01*
X81876255Y-79435861D01*
X81630136Y-79509995D01*
X81437035Y-80047223D01*
X80094967Y-80047223D01*
X80095248Y-79725813D01*
X79901231Y-79256255D01*
X82055861Y-79256255D01*
X82884000Y-80084395D01*
X83712139Y-79256255D01*
X83638005Y-79010136D01*
X83100777Y-78817035D01*
X82530546Y-78844222D01*
X82129995Y-79010136D01*
X82055861Y-79256255D01*
X79901231Y-79256255D01*
X79877243Y-79198200D01*
X79685718Y-79006341D01*
X79685718Y-78878630D01*
X79607640Y-78486105D01*
X79385292Y-78153338D01*
X76118662Y-74886708D01*
X75790962Y-74667745D01*
X77911861Y-74667745D01*
X77985995Y-74913864D01*
X78523223Y-75106965D01*
X79093454Y-75079778D01*
X79494005Y-74913864D01*
X79568139Y-74667745D01*
X78740000Y-73839605D01*
X77911861Y-74667745D01*
X75790962Y-74667745D01*
X75785896Y-74664360D01*
X75393370Y-74586282D01*
X74843269Y-74586282D01*
X74955824Y-74473923D01*
X75174750Y-73946691D01*
X75175189Y-73443223D01*
X77293035Y-73443223D01*
X77320222Y-74013454D01*
X77486136Y-74414005D01*
X77732255Y-74488139D01*
X78560395Y-73660000D01*
X78919605Y-73660000D01*
X79747745Y-74488139D01*
X79993864Y-74414005D01*
X80186965Y-73876777D01*
X80159778Y-73306546D01*
X79993864Y-72905995D01*
X79747745Y-72831861D01*
X78919605Y-73660000D01*
X78560395Y-73660000D01*
X77732255Y-72831861D01*
X77486136Y-72905995D01*
X77293035Y-73443223D01*
X75175189Y-73443223D01*
X75175248Y-73375813D01*
X74957243Y-72848200D01*
X74761640Y-72652255D01*
X77911861Y-72652255D01*
X78740000Y-73480395D01*
X79568139Y-72652255D01*
X79494005Y-72406136D01*
X78956777Y-72213035D01*
X78386546Y-72240222D01*
X77985995Y-72406136D01*
X77911861Y-72652255D01*
X74761640Y-72652255D01*
X74553923Y-72444176D01*
X74026691Y-72225250D01*
X73455813Y-72224752D01*
X72928200Y-72442757D01*
X72524176Y-72846077D01*
X72305250Y-73373309D01*
X72304752Y-73944187D01*
X72522757Y-74471800D01*
X72714282Y-74663659D01*
X72714282Y-75187134D01*
X69679134Y-78222282D01*
X69633655Y-78222282D01*
X69628545Y-78209914D01*
X69112801Y-77693270D01*
X68438605Y-77413319D01*
X67708597Y-77412682D01*
X67693503Y-77418919D01*
X64525718Y-74251134D01*
X64525718Y-63416866D01*
X65448866Y-62493718D01*
X67045032Y-62493718D01*
X66774459Y-62674509D01*
X66376681Y-63269826D01*
X66237000Y-63972050D01*
X66237000Y-64043950D01*
X66376681Y-64746174D01*
X66774459Y-65341491D01*
X67369776Y-65739269D01*
X68072000Y-65878950D01*
X68736618Y-65746749D01*
X68981160Y-65910147D01*
X69271999Y-65967999D01*
X74545197Y-65967999D01*
X80520000Y-71942802D01*
X80520000Y-73865002D01*
X80577852Y-74155841D01*
X80742599Y-74402403D01*
X83077597Y-76737401D01*
X83324159Y-76902148D01*
X83614998Y-76960000D01*
X83748721Y-76960000D01*
X83871910Y-77151441D01*
X84084110Y-77296431D01*
X84336000Y-77347440D01*
X85336000Y-77347440D01*
X85571317Y-77303162D01*
X85787441Y-77164090D01*
X85932431Y-76951890D01*
X85983440Y-76700000D01*
X85983440Y-75700000D01*
X85939162Y-75464683D01*
X85800090Y-75248559D01*
X85587890Y-75103569D01*
X85336000Y-75052560D01*
X84700894Y-75052560D01*
X84701119Y-74794883D01*
X85060775Y-74795197D01*
X85478086Y-74622767D01*
X85681207Y-74420000D01*
X90593223Y-74420000D01*
X90592752Y-74960187D01*
X90810757Y-75487800D01*
X91214077Y-75891824D01*
X91268000Y-75914215D01*
X91268000Y-76788000D01*
X91325852Y-77078839D01*
X91490599Y-77325401D01*
X92934599Y-78769401D01*
X93181160Y-78934148D01*
X93472000Y-78992000D01*
X96713198Y-78992000D01*
X97725226Y-80004028D01*
X97724769Y-80528383D01*
X97927582Y-81019229D01*
X98302796Y-81395098D01*
X98793287Y-81598768D01*
X99324383Y-81599231D01*
X99815229Y-81396418D01*
X99824000Y-81387662D01*
X99824000Y-81473198D01*
X96275136Y-85022062D01*
X95889923Y-84636176D01*
X95362691Y-84417250D01*
X94791813Y-84416752D01*
X94264200Y-84634757D01*
X93860176Y-85038077D01*
X93641250Y-85565309D01*
X93640752Y-86136187D01*
X93858757Y-86663800D01*
X94262077Y-87067824D01*
X94789309Y-87286750D01*
X95360187Y-87287248D01*
X95887800Y-87069243D01*
X96291824Y-86665923D01*
X96314215Y-86612000D01*
X96520000Y-86612000D01*
X96810839Y-86554148D01*
X97057401Y-86389401D01*
X97310615Y-86136187D01*
X98640752Y-86136187D01*
X98858757Y-86663800D01*
X99262077Y-87067824D01*
X99789309Y-87286750D01*
X100360187Y-87287248D01*
X100887800Y-87069243D01*
X101291824Y-86665923D01*
X101510750Y-86138691D01*
X101511248Y-85567813D01*
X101293243Y-85040200D01*
X100889923Y-84636176D01*
X100362691Y-84417250D01*
X99791813Y-84416752D01*
X99264200Y-84634757D01*
X98860176Y-85038077D01*
X98641250Y-85565309D01*
X98640752Y-86136187D01*
X97310615Y-86136187D01*
X100584000Y-82862802D01*
X103351830Y-85630632D01*
X103313000Y-85825846D01*
X103313000Y-85878154D01*
X103414621Y-86389036D01*
X103704012Y-86822142D01*
X104137118Y-87111533D01*
X104648000Y-87213154D01*
X105158882Y-87111533D01*
X105591988Y-86822142D01*
X105881379Y-86389036D01*
X105983000Y-85878154D01*
X105983000Y-85825846D01*
X105881379Y-85314964D01*
X105591988Y-84881858D01*
X105158882Y-84592467D01*
X104648000Y-84490846D01*
X104409157Y-84538355D01*
X101344000Y-81473198D01*
X101344000Y-80749663D01*
X101478757Y-81075800D01*
X101882077Y-81479824D01*
X102409309Y-81698750D01*
X102980187Y-81699248D01*
X103507800Y-81481243D01*
X103911824Y-81077923D01*
X104130750Y-80550691D01*
X104130752Y-80548187D01*
X106260752Y-80548187D01*
X106478757Y-81075800D01*
X106882077Y-81479824D01*
X107409309Y-81698750D01*
X107980187Y-81699248D01*
X108507800Y-81481243D01*
X108911824Y-81077923D01*
X109130750Y-80550691D01*
X109131248Y-79979813D01*
X108913243Y-79452200D01*
X108509923Y-79048176D01*
X107982691Y-78829250D01*
X107411813Y-78828752D01*
X106884200Y-79046757D01*
X106480176Y-79450077D01*
X106261250Y-79977309D01*
X106260752Y-80548187D01*
X104130752Y-80548187D01*
X104131248Y-79979813D01*
X104108951Y-79925851D01*
X104169401Y-79865401D01*
X104334148Y-79618839D01*
X104392000Y-79328000D01*
X104392000Y-77287279D01*
X104583441Y-77164090D01*
X104728431Y-76951890D01*
X104733621Y-76926260D01*
X104854837Y-76902148D01*
X105101399Y-76737401D01*
X107429400Y-74409400D01*
X107594147Y-74162838D01*
X107651999Y-73871999D01*
X107651999Y-69379999D01*
X107594147Y-69089160D01*
X107594147Y-69089159D01*
X107495609Y-68941687D01*
X107526750Y-68866691D01*
X107527248Y-68295813D01*
X107309243Y-67768200D01*
X106905923Y-67364176D01*
X106378691Y-67145250D01*
X105807813Y-67144752D01*
X105280200Y-67362757D01*
X104876176Y-67766077D01*
X104657250Y-68293309D01*
X104656752Y-68864187D01*
X104874757Y-69391800D01*
X105278077Y-69795824D01*
X105805309Y-70014750D01*
X106131999Y-70015035D01*
X106131999Y-73557197D01*
X104503738Y-75185458D01*
X104383890Y-75103569D01*
X104132000Y-75052560D01*
X103496894Y-75052560D01*
X103497108Y-74807394D01*
X103937375Y-74776217D01*
X104205352Y-74665217D01*
X104242499Y-74450104D01*
X103632000Y-73839605D01*
X103617858Y-73853748D01*
X103438253Y-73674143D01*
X103452395Y-73660000D01*
X103811605Y-73660000D01*
X104422104Y-74270499D01*
X104637217Y-74233352D01*
X104780112Y-73805028D01*
X104748217Y-73354625D01*
X104637217Y-73086648D01*
X104422104Y-73049501D01*
X103811605Y-73660000D01*
X103452395Y-73660000D01*
X102841896Y-73049501D01*
X102626783Y-73086648D01*
X102483888Y-73514972D01*
X102503727Y-73795123D01*
X102137225Y-73794803D01*
X101719914Y-73967233D01*
X101482427Y-74204306D01*
X101364055Y-74227852D01*
X101117493Y-74392599D01*
X100046599Y-75463493D01*
X99881852Y-75710055D01*
X99824000Y-76000894D01*
X99824000Y-79139710D01*
X99817204Y-79132902D01*
X99326713Y-78929232D01*
X98799574Y-78928772D01*
X97565401Y-77694599D01*
X97318839Y-77529852D01*
X97028000Y-77472000D01*
X93786802Y-77472000D01*
X92788000Y-76473198D01*
X92788000Y-75914646D01*
X92839800Y-75893243D01*
X93243824Y-75489923D01*
X93462750Y-74962691D01*
X93462752Y-74960187D01*
X95592752Y-74960187D01*
X95810757Y-75487800D01*
X96214077Y-75891824D01*
X96741309Y-76110750D01*
X97312187Y-76111248D01*
X97839800Y-75893243D01*
X98243824Y-75489923D01*
X98462750Y-74962691D01*
X98463248Y-74391813D01*
X98245243Y-73864200D01*
X97841923Y-73460176D01*
X97314691Y-73241250D01*
X96743813Y-73240752D01*
X96216200Y-73458757D01*
X95812176Y-73862077D01*
X95593250Y-74389309D01*
X95592752Y-74960187D01*
X93462752Y-74960187D01*
X93463248Y-74391813D01*
X93245243Y-73864200D01*
X92841923Y-73460176D01*
X92314691Y-73241250D01*
X91743813Y-73240752D01*
X91689851Y-73263049D01*
X91549401Y-73122599D01*
X91302839Y-72957852D01*
X91012000Y-72900000D01*
X85681059Y-72900000D01*
X85651008Y-72869896D01*
X103021501Y-72869896D01*
X103632000Y-73480395D01*
X104242499Y-72869896D01*
X104205352Y-72654783D01*
X103777028Y-72511888D01*
X103326625Y-72543783D01*
X103058648Y-72654783D01*
X103021501Y-72869896D01*
X85651008Y-72869896D01*
X85479765Y-72698355D01*
X85062756Y-72525197D01*
X84611225Y-72524803D01*
X84193914Y-72697233D01*
X83874355Y-73016235D01*
X83701197Y-73433244D01*
X83700881Y-73795117D01*
X83341225Y-73794803D01*
X82923914Y-73967233D01*
X82690270Y-74200470D01*
X82040000Y-73550200D01*
X82040000Y-71628000D01*
X81982148Y-71337161D01*
X81817401Y-71090599D01*
X75397400Y-64670598D01*
X75150838Y-64505851D01*
X74859999Y-64447999D01*
X69826630Y-64447999D01*
X69907000Y-64043950D01*
X69907000Y-63972050D01*
X69767319Y-63269826D01*
X69369541Y-62674509D01*
X69098968Y-62493718D01*
X80734345Y-62493718D01*
X80739455Y-62506086D01*
X81255199Y-63022730D01*
X81270282Y-63028993D01*
X81270282Y-66548000D01*
X81348360Y-66940526D01*
X81570708Y-67273292D01*
X83602708Y-69305292D01*
X83935474Y-69527640D01*
X84328000Y-69605718D01*
X90922282Y-69605718D01*
X90922282Y-69711370D01*
X91000360Y-70103896D01*
X91222708Y-70436662D01*
X92631338Y-71845292D01*
X92964105Y-72067640D01*
X93356630Y-72145718D01*
X98552000Y-72145718D01*
X98944526Y-72067640D01*
X99277292Y-71845292D01*
X101107570Y-70015014D01*
X101376187Y-70015248D01*
X101903800Y-69797243D01*
X102307824Y-69393923D01*
X102526750Y-68866691D01*
X102526986Y-68595598D01*
X105072866Y-66049718D01*
X108287134Y-66049718D01*
X109210282Y-66972866D01*
X109210282Y-91523134D01*
X106255134Y-94478282D01*
X105529585Y-94478282D01*
X105779098Y-94229204D01*
X105982768Y-93738713D01*
X105983231Y-93207617D01*
X105780418Y-92716771D01*
X105405204Y-92340902D01*
X104914713Y-92137232D01*
X104713160Y-92137056D01*
X104532526Y-92016360D01*
X104140000Y-91938282D01*
X100938400Y-91938282D01*
X100833204Y-91832902D01*
X100342713Y-91629232D01*
X99811617Y-91628769D01*
X99320771Y-91831582D01*
X98944902Y-92206796D01*
X98741232Y-92697287D01*
X98740769Y-93228383D01*
X98943582Y-93719229D01*
X99050282Y-93826115D01*
X99050282Y-93953949D01*
X99128360Y-94346475D01*
X99350708Y-94679241D01*
X100900759Y-96229292D01*
X101145764Y-96393000D01*
X61087000Y-96393000D01*
X61087000Y-91300000D01*
X69182560Y-91300000D01*
X69182560Y-93800000D01*
X69226838Y-94035317D01*
X69365910Y-94251441D01*
X69578110Y-94396431D01*
X69830000Y-94447440D01*
X69949080Y-94447440D01*
X70042599Y-94587401D01*
X70582599Y-95127401D01*
X70829160Y-95292148D01*
X71120000Y-95350000D01*
X86970000Y-95350000D01*
X87260839Y-95292148D01*
X87507401Y-95127401D01*
X87567811Y-95036991D01*
X88481546Y-94123256D01*
X88533309Y-94144750D01*
X89104187Y-94145248D01*
X89631800Y-93927243D01*
X90035824Y-93523923D01*
X90254750Y-92996691D01*
X90255248Y-92425813D01*
X90037243Y-91898200D01*
X89633923Y-91494176D01*
X89106691Y-91275250D01*
X88535813Y-91274752D01*
X88008200Y-91492757D01*
X87604176Y-91896077D01*
X87385250Y-92423309D01*
X87384752Y-92994187D01*
X87407049Y-93048149D01*
X86625198Y-93830000D01*
X84729213Y-93830000D01*
X85035824Y-93523923D01*
X85254750Y-92996691D01*
X85255248Y-92425813D01*
X85037243Y-91898200D01*
X84633923Y-91494176D01*
X84580000Y-91471785D01*
X84580000Y-86936400D01*
X84790142Y-86795988D01*
X85079533Y-86362882D01*
X85181154Y-85852000D01*
X85079533Y-85341118D01*
X84790142Y-84908012D01*
X84357036Y-84618621D01*
X83846154Y-84517000D01*
X83793846Y-84517000D01*
X83282964Y-84618621D01*
X82849858Y-84908012D01*
X82560467Y-85341118D01*
X82458846Y-85852000D01*
X82560467Y-86362882D01*
X82849858Y-86795988D01*
X83060000Y-86936400D01*
X83060000Y-91471354D01*
X83008200Y-91492757D01*
X82604176Y-91896077D01*
X82385250Y-92423309D01*
X82384752Y-92994187D01*
X82602757Y-93521800D01*
X82910420Y-93830000D01*
X79771365Y-93830000D01*
X79777440Y-93800000D01*
X79777440Y-91300000D01*
X79733162Y-91064683D01*
X79594090Y-90848559D01*
X79381890Y-90703569D01*
X79130000Y-90652560D01*
X77630000Y-90652560D01*
X77394683Y-90696838D01*
X77178559Y-90835910D01*
X77033569Y-91048110D01*
X76982560Y-91300000D01*
X76982560Y-93800000D01*
X76988205Y-93830000D01*
X74671365Y-93830000D01*
X74677440Y-93800000D01*
X74677440Y-91300000D01*
X74633162Y-91064683D01*
X74494090Y-90848559D01*
X74281890Y-90703569D01*
X74030000Y-90652560D01*
X72530000Y-90652560D01*
X72294683Y-90696838D01*
X72078559Y-90835910D01*
X71933569Y-91048110D01*
X71930919Y-91061197D01*
X71794090Y-90848559D01*
X71581890Y-90703569D01*
X71330000Y-90652560D01*
X69830000Y-90652560D01*
X69594683Y-90696838D01*
X69378559Y-90835910D01*
X69233569Y-91048110D01*
X69182560Y-91300000D01*
X61087000Y-91300000D01*
X61087000Y-89174285D01*
X76894760Y-89174285D01*
X77105169Y-89683515D01*
X77494436Y-90073461D01*
X78003298Y-90284759D01*
X78554285Y-90285240D01*
X79063515Y-90074831D01*
X79453461Y-89685564D01*
X79664759Y-89176702D01*
X79665240Y-88625715D01*
X79454831Y-88116485D01*
X79385906Y-88047440D01*
X80030000Y-88047440D01*
X80265317Y-88003162D01*
X80481441Y-87864090D01*
X80626431Y-87651890D01*
X80677440Y-87400000D01*
X80677440Y-84000000D01*
X80633162Y-83764683D01*
X80494090Y-83548559D01*
X80281890Y-83403569D01*
X80030000Y-83352560D01*
X78530000Y-83352560D01*
X78294683Y-83396838D01*
X78191354Y-83463328D01*
X78189699Y-83461673D01*
X77956310Y-83365000D01*
X77365750Y-83365000D01*
X77207000Y-83523750D01*
X77207000Y-85123000D01*
X77227000Y-85123000D01*
X77227000Y-85377000D01*
X77207000Y-85377000D01*
X77207000Y-86976250D01*
X77365750Y-87135000D01*
X77882560Y-87135000D01*
X77882560Y-87400000D01*
X77911480Y-87553697D01*
X77496485Y-87725169D01*
X77106539Y-88114436D01*
X76895241Y-88623298D01*
X76894760Y-89174285D01*
X61087000Y-89174285D01*
X61087000Y-84200000D01*
X69182560Y-84200000D01*
X69182560Y-87600000D01*
X69226838Y-87835317D01*
X69365910Y-88051441D01*
X69578110Y-88196431D01*
X69830000Y-88247440D01*
X71330000Y-88247440D01*
X71565317Y-88203162D01*
X71781441Y-88064090D01*
X71926431Y-87851890D01*
X71977440Y-87600000D01*
X71977440Y-85535750D01*
X75695000Y-85535750D01*
X75695000Y-86626309D01*
X75791673Y-86859698D01*
X75970301Y-87038327D01*
X76203690Y-87135000D01*
X76794250Y-87135000D01*
X76953000Y-86976250D01*
X76953000Y-85377000D01*
X75853750Y-85377000D01*
X75695000Y-85535750D01*
X71977440Y-85535750D01*
X71977440Y-84200000D01*
X71933162Y-83964683D01*
X71874611Y-83873691D01*
X75695000Y-83873691D01*
X75695000Y-84964250D01*
X75853750Y-85123000D01*
X76953000Y-85123000D01*
X76953000Y-83523750D01*
X76794250Y-83365000D01*
X76203690Y-83365000D01*
X75970301Y-83461673D01*
X75791673Y-83640302D01*
X75695000Y-83873691D01*
X71874611Y-83873691D01*
X71794090Y-83748559D01*
X71581890Y-83603569D01*
X71330000Y-83552560D01*
X69830000Y-83552560D01*
X69594683Y-83596838D01*
X69378559Y-83735910D01*
X69233569Y-83948110D01*
X69182560Y-84200000D01*
X61087000Y-84200000D01*
X61087000Y-59475691D01*
X102655000Y-59475691D01*
X102655000Y-60166250D01*
X102813750Y-60325000D01*
X104013000Y-60325000D01*
X104013000Y-59125750D01*
X103854250Y-58967000D01*
X103163690Y-58967000D01*
X102930301Y-59063673D01*
X102751673Y-59242302D01*
X102655000Y-59475691D01*
X61087000Y-59475691D01*
X61087000Y-56007000D01*
X111633000Y-56007000D01*
X111633000Y-96393000D01*
M02*
